<?xml version="1.0" encoding="utf-8"?>
<!-- Generator: Adobe Illustrator 25.2.1, SVG Export Plug-In . SVG Version: 6.00 Build 0)  -->
<svg version="1.1" xmlns="http://www.w3.org/2000/svg" xmlns:xlink="http://www.w3.org/1999/xlink" x="0px" y="0px"
	 viewBox="0 0 160 60" style="enable-background:new 0 0 160 60;" xml:space="preserve">
<style type="text/css">
	.st0{fill:#A7423B;}
	.st1{fill:#DE6D36;}
	.st2{fill:#BA683D;}
	.st3{fill:#FAA619;}
	.st4{fill:#878787;}
	.st5{fill:#D1D3D4;}
	.st6{fill:#FFFFFF;}
	.st7{fill:#E30613;}
	.st8{fill:#1D1D1B;}
	.st9{fill:#B49759;}
	.st10{display:none;}
	.st11{fill:#BE1622;}
	.st12{fill:#034EA1;}
	.st13{fill:#EC671B;}
</style>
<g id="reperes">
</g>
<g id="blackmagic">
</g>
<g id="SmallRig">
</g>
<g id="Lumix">
</g>
<g id="DJI">
</g>
<g id="Rode">
	<g>
		<g>
			<path class="st8" d="M62.51,16.57c0-3.16-3.13-5.13-6.03-5.13H48v16.85h5.05v-8.14l3.92,7.99l0.07,0.11h5.77l-4.03-7.05
				C61.08,20.53,62.51,18.76,62.51,16.57z M53.05,13.86h1.47c1.62,0,2.75,1.13,2.75,2.79c0,2.38-1.35,2.83-3.69,2.83h-0.57v-5.61
				H53.05z"/>
			<polygon class="st8" points="105.86,25.58 105.86,20.98 111.36,20.98 111.36,18.31 105.86,18.31 105.86,14.12 112,14.12 
				112,11.44 100.81,11.44 100.81,28.3 111.97,28.3 111.97,25.58 			"/>
			<path class="st8" d="M90.4,11.44h-7.46v16.85h8.22c5.05,0,8.29-3.21,8.29-8.11C99.45,15.1,95.64,11.44,90.4,11.44z M94.21,19.51
				c0,3.13-1.24,6.48-4.75,6.48h-1.7V13.75h1.51C92.71,13.75,94.21,16.65,94.21,19.51z"/>
			<path class="st8" d="M81.17,12.58l-1.4-1.4l-1.74,1.74c-1.5-1.21-3.47-1.92-5.61-1.92c-5.05,0-8.97,3.88-8.97,8.86
				c0,2.15,0.75,4.11,1.96,5.61l-1.7,1.7l1.4,1.4l1.74-1.74c1.51,1.17,3.43,1.85,5.54,1.85c5.01,0,8.93-3.88,8.93-8.86
				c0-2.11-0.71-4.03-1.92-5.54L81.17,12.58z M72.42,13.18c1.58,0,2.49,1.02,3.02,2.3l-6.6,6.6c-0.11-0.83-0.15-1.62-0.15-2.22
				C68.69,17.86,69.07,13.18,72.42,13.18z M75.97,17.74c0.11,0.79,0.15,1.54,0.15,2.11c0,2-0.38,6.67-3.73,6.67
				c-1.54,0-2.45-0.98-2.98-2.22L75.97,17.74z"/>
		</g>
		<circle class="st9" cx="80" cy="44.63" r="6.37"/>
		<g>
			<path d="M50.6,32.89c0-0.68,0.01-1.33,0.02-1.67h-0.02c-0.16,0.46-0.99,2.17-1.5,3.26H48.8c-0.39-0.85-1.24-2.74-1.43-3.27h-0.01
				c0.03,0.4,0.04,1.2,0.04,1.79v1.47h-0.31v-3.46h0.47c0.56,1.19,1.26,2.74,1.41,3.13h0.01c0.09-0.25,0.9-1.98,1.47-3.13h0.46v3.46
				H50.6V32.89z"/>
			<path d="M54.73,31.02v3.46h-0.31v-3.46H54.73z"/>
			<path d="M61.25,33.55c-0.19,0.55-0.67,0.96-1.53,0.96c-1.17,0-1.78-0.79-1.78-1.77c0-0.93,0.6-1.78,1.79-1.78
				c0.88,0,1.39,0.42,1.53,0.99h-0.31c-0.19-0.45-0.53-0.75-1.23-0.75c-1.01,0-1.43,0.79-1.43,1.53c0,0.74,0.42,1.52,1.46,1.52
				c0.66,0,1-0.29,1.2-0.72H61.25z"/>
			<path d="M64.75,32.86v1.62h-0.32v-3.46h1.46c0.8,0,1.22,0.37,1.22,0.91c0,0.44-0.31,0.73-0.76,0.81c0.42,0.08,0.7,0.32,0.7,0.9
				v0.13c0,0.24-0.02,0.57,0.05,0.7h-0.32c-0.08-0.15-0.06-0.43-0.06-0.72v-0.09c0-0.57-0.2-0.81-0.97-0.81H64.75z M64.75,32.61
				h0.98c0.71,0,1.04-0.23,1.04-0.68c0-0.43-0.33-0.67-0.96-0.67h-1.07V32.61z"/>
			<path d="M73.8,32.72c0,0.94-0.59,1.8-1.84,1.8c-1.14,0-1.81-0.79-1.81-1.78c0-0.98,0.64-1.78,1.85-1.78
				C73.11,30.97,73.8,31.71,73.8,32.72z M70.48,32.73c0,0.8,0.52,1.55,1.49,1.55c1.05,0,1.49-0.73,1.49-1.55
				c0-0.81-0.5-1.51-1.48-1.51C70.94,31.21,70.48,31.95,70.48,32.73z"/>
			<path d="M77,31.02h1.45c0.74,0,1.25,0.35,1.25,0.96c0,0.62-0.5,0.99-1.29,0.99h-1.09v1.51H77V31.02z M77.32,32.72h1.12
				c0.66,0,0.93-0.3,0.93-0.73c0-0.46-0.36-0.73-0.9-0.73h-1.14V32.72z"/>
			<path d="M82.84,31.02h0.31v1.51h2.44v-1.51h0.31v3.46h-0.31v-1.71h-2.44v1.71h-0.31V31.02z"/>
			<path d="M92.76,32.72c0,0.94-0.59,1.8-1.84,1.8c-1.14,0-1.81-0.79-1.81-1.78c0-0.98,0.64-1.78,1.85-1.78
				C92.07,30.97,92.76,31.71,92.76,32.72z M89.45,32.73c0,0.8,0.52,1.55,1.49,1.55c1.05,0,1.49-0.73,1.49-1.55
				c0-0.81-0.5-1.51-1.48-1.51C89.9,31.21,89.45,31.95,89.45,32.73z"/>
			<path d="M95.97,34.48v-3.46h0.46c0.63,0.83,2.12,2.76,2.37,3.14h0.01c-0.03-0.5-0.03-1.01-0.03-1.57v-1.57h0.32v3.46h-0.43
				c-0.6-0.8-2.11-2.81-2.4-3.19h-0.01c0.03,0.46,0.02,0.96,0.02,1.59v1.61H95.97z"/>
			<path d="M104.99,32.78h-2.07v1.45h2.27l-0.05,0.25h-2.53v-3.46h2.49v0.25h-2.17v1.27h2.07V32.78z"/>
			<path d="M108.36,33.55c0.12,0.46,0.48,0.73,1.15,0.73c0.74,0,1.03-0.32,1.03-0.69c0-0.39-0.2-0.63-1.1-0.82
				c-0.86-0.18-1.23-0.42-1.23-0.92c0-0.46,0.39-0.88,1.26-0.88c0.89,0,1.27,0.46,1.32,0.89h-0.32c-0.09-0.37-0.38-0.64-1.01-0.64
				c-0.59,0-0.9,0.23-0.9,0.62c0,0.38,0.27,0.53,1.01,0.69c1.14,0.24,1.31,0.63,1.31,1.05c0,0.51-0.44,0.95-1.38,0.95
				c-1.01,0-1.39-0.5-1.46-0.97H108.36z"/>
		</g>
	</g>
</g>
<g id="Zoom">
</g>
<g id="Neewer">
</g>
<g id="Sigma">
</g>
<g id="Sandisk">
</g>
<g id="Andoer">
</g>
<g id="adobe">
</g>
<g id="Samsung">
</g>
<g id="Xiaomi">
</g>
<g id="ESDDI">
</g>
<g id="Apple">
</g>
<g id="Calque_17">
</g>
<g id="Calque_18">
</g>
<g id="Calque_19">
</g>
<g id="Calque_20">
</g>
</svg>
