<?xml version="1.0" encoding="utf-8"?>
<!-- Generator: Adobe Illustrator 25.2.1, SVG Export Plug-In . SVG Version: 6.00 Build 0)  -->
<svg version="1.1" xmlns="http://www.w3.org/2000/svg" xmlns:xlink="http://www.w3.org/1999/xlink" x="0px" y="0px"
	 viewBox="0 0 160 60" style="enable-background:new 0 0 160 60;" xml:space="preserve">
<style type="text/css">
	.st0{fill:#A7423B;}
	.st1{fill:#DE6D36;}
	.st2{fill:#BA683D;}
	.st3{fill:#FAA619;}
	.st4{fill:#878787;}
	.st5{fill:#D1D3D4;}
	.st6{fill:#FFFFFF;}
	.st7{fill:#E30613;}
	.st8{fill:#1D1D1B;}
	.st9{fill:#B49759;}
	.st10{display:none;}
	.st11{fill:#BE1622;}
	.st12{fill:#034EA1;}
	.st13{fill:#EC671B;}
</style>
<g id="reperes">
</g>
<g id="blackmagic">
	<g id="gn-logo">
		<path id="Rectangle-6" class="st0" d="M134.36,39.42h5.99c1.65,0,3,1.35,3,3v5.99c0,1.65-1.35,3-3,3h-5.99c-1.65,0-3-1.35-3-3
			v-5.99C131.36,40.76,132.71,39.42,134.36,39.42z"/>
		<path id="Rectangle-5" class="st1" d="M134.36,24.01h5.99c1.65,0,3,1.35,3,3V33c0,1.65-1.35,3-3,3h-5.99c-1.65,0-3-1.35-3-3V27
			C131.36,25.36,132.71,24.01,134.36,24.01z"/>
		<path id="Rectangle-4" class="st2" d="M134.36,8.6h5.99c1.65,0,3,1.35,3,3v5.99c0,1.65-1.35,3-3,3h-5.99c-1.65,0-3-1.35-3-3V11.6
			C131.36,9.95,132.71,8.6,134.36,8.6z"/>
		<path id="Rectangle-3" class="st3" d="M132.22,42.41v5.99c0,1.18,0.96,2.14,2.14,2.14h5.99c1.18,0,2.14-0.96,2.14-2.14v-5.99
			c0-1.18-0.96-2.14-2.14-2.14h-5.99C133.18,40.27,132.22,41.23,132.22,42.41z M130.5,42.41c0-2.12,1.71-3.85,3.85-3.85h5.99
			c2.12,0,3.85,1.71,3.85,3.85v5.99c0,2.12-1.71,3.85-3.85,3.85h-5.99c-2.12,0-3.85-1.71-3.85-3.85V42.41z"/>
		<path id="Rectangle-2" class="st3" d="M132.22,27V33c0,1.18,0.96,2.14,2.14,2.14h5.99c1.18,0,2.14-0.96,2.14-2.14V27
			c0-1.18-0.96-2.14-2.14-2.14h-5.99C133.18,24.86,132.22,25.83,132.22,27z M130.5,27c0-2.12,1.71-3.85,3.85-3.85h5.99
			c2.12,0,3.85,1.71,3.85,3.85V33c0,2.12-1.71,3.85-3.85,3.85h-5.99c-2.12,0-3.85-1.71-3.85-3.85V27z"/>
		<path id="Rectangle-1" class="st3" d="M132.22,11.6v5.99c0,1.18,0.96,2.14,2.14,2.14h5.99c1.18,0,2.14-0.96,2.14-2.14V11.6
			c0-1.18-0.96-2.14-2.14-2.14h-5.99C133.18,9.46,132.22,10.42,132.22,11.6z M130.5,11.6c0-2.12,1.71-3.85,3.85-3.85h5.99
			c2.12,0,3.85,1.71,3.85,3.85v5.99c0,2.12-1.71,3.85-3.85,3.85h-5.99c-2.12,0-3.85-1.71-3.85-3.85V11.6z"/>
		<path id="Fill-19" class="st4" d="M120.17,26.34v8.39h0.86v-5.88c0.68-1.2,1.58-1.8,2.65-1.8c1.48,0,2.2,0.96,2.2,2.91v4.77h0.86
			v-5.11c0-1.07-0.28-1.93-0.81-2.53c-0.56-0.6-1.28-0.92-2.2-0.92c-1.11,0-1.99,0.53-2.67,1.63H121v-1.46L120.17,26.34"/>
		<path id="Fill-18" class="st4" d="M117.77,29.32c0,0.62-0.21,1.13-0.64,1.58c-0.43,0.45-0.94,0.66-1.52,0.66
			c-0.6,0-1.11-0.21-1.52-0.66c-0.43-0.45-0.62-0.98-0.62-1.63c0-0.6,0.21-1.13,0.62-1.56c0.41-0.43,0.92-0.64,1.52-0.64
			s1.11,0.21,1.54,0.66C117.56,28.18,117.77,28.69,117.77,29.32L117.77,29.32z M118.46,36.66c0,0.49-0.26,0.88-0.75,1.18
			c-0.49,0.3-1.16,0.45-1.99,0.45c-1.84,0-2.76-0.51-2.76-1.56c0-1.03,0.98-1.56,2.93-1.56C117.6,35.18,118.46,35.67,118.46,36.66
			L118.46,36.66z M119.31,26.34h-3.25c-1.11,0-1.97,0.28-2.55,0.83c-0.6,0.56-0.9,1.28-0.9,2.16c0,0.62,0.19,1.18,0.56,1.69
			c0.36,0.51,0.9,0.88,1.63,1.09v0.04c-1.09,0.32-1.63,0.77-1.63,1.37c0,0.58,0.45,0.98,1.33,1.2v0.04
			c-1.58,0.26-2.35,0.94-2.35,2.03c0,0.68,0.3,1.22,0.92,1.63c0.62,0.41,1.5,0.62,2.61,0.62c1.13,0,2.03-0.21,2.65-0.64
			c0.64-0.43,0.96-1.03,0.96-1.8c0-0.64-0.19-1.16-0.6-1.54c-0.41-0.39-1.18-0.62-2.31-0.68c-1.16-0.06-1.82-0.17-2.05-0.32
			c-0.21-0.15-0.32-0.34-0.32-0.58c0-0.21,0.09-0.39,0.26-0.56c0.17-0.15,0.6-0.32,1.26-0.51c0.66-0.17,1.2-0.36,1.6-0.56
			c0.41-0.19,0.75-0.49,1.05-0.9c0.3-0.41,0.43-0.96,0.43-1.67c0-0.77-0.36-1.52-1.11-2.23h1.84v-0.73H119.31z"/>
		<polygon id="Fill-17" class="st5" points="110.11,23.52 110.99,23.52 110.99,22 110.11,22 		"/>
		<polygon id="Fill-16" class="st4" points="110.11,34.73 110.99,34.73 110.99,26.34 110.11,26.34 		"/>
		<path id="Fill-15" class="st4" d="M106.32,26.17c-0.73,0-1.35,0.21-1.86,0.66c-0.51,0.45-0.77,0.98-0.77,1.63
			c0,0.45,0.13,0.86,0.41,1.22s0.88,0.75,1.8,1.11c0.92,0.39,1.48,0.68,1.69,0.94c0.21,0.26,0.32,0.51,0.32,0.81
			c0,0.43-0.17,0.77-0.47,1.05c-0.32,0.28-0.73,0.41-1.24,0.41c-0.75,0-1.6-0.26-2.55-0.77v0.88c0.81,0.51,1.63,0.77,2.44,0.77
			c0.75,0,1.39-0.21,1.9-0.66s0.77-1.01,0.77-1.65c0-0.49-0.15-0.92-0.43-1.33c-0.28-0.39-0.88-0.77-1.8-1.16
			c-0.92-0.36-1.48-0.68-1.69-0.92c-0.21-0.24-0.3-0.49-0.3-0.79c0-0.41,0.17-0.73,0.49-1.01c0.34-0.28,0.75-0.41,1.24-0.41
			c0.66,0,1.39,0.28,2.23,0.86v-0.96C107.71,26.43,106.98,26.17,106.32,26.17"/>
		<path id="Fill-14" class="st4" d="M97.44,27.69c0.49-0.43,1.07-0.64,1.73-0.64c1.41,0,2.27,0.81,2.57,2.46h-5.26
			C96.63,28.74,96.95,28.14,97.44,27.69L97.44,27.69z M97.29,33.06c-0.64-0.64-0.96-1.43-0.96-2.38c0-0.15,0-0.3,0.02-0.43h6.4
			c0-1.24-0.34-2.25-1.05-2.97c-0.68-0.73-1.54-1.09-2.55-1.09c-1.07,0-1.95,0.41-2.65,1.22c-0.71,0.81-1.05,1.82-1.05,3.06
			c0,1.31,0.39,2.38,1.16,3.21c0.77,0.83,1.73,1.26,2.89,1.26s2.18-0.36,3.12-1.11v-1.05c-0.98,0.83-1.99,1.24-3.02,1.24
			C98.7,34.02,97.95,33.7,97.29,33.06L97.29,33.06z"/>
		<path id="Fill-13" class="st4" d="M93.22,33.27c-0.71,0.51-1.43,0.77-2.18,0.77c-0.96,0-1.78-0.34-2.42-1.01
			c-0.64-0.68-0.96-1.52-0.96-2.55c0-1.01,0.3-1.82,0.9-2.46c0.6-0.64,1.37-0.96,2.31-0.96c0.79,0,1.58,0.26,2.35,0.79V33.27
			L93.22,33.27z M93.22,22v4.86c-0.86-0.45-1.65-0.68-2.4-0.68c-1.18,0-2.14,0.41-2.93,1.24s-1.16,1.86-1.16,3.1
			c0,1.22,0.39,2.27,1.18,3.1s1.75,1.26,2.91,1.26c0.86,0,1.65-0.28,2.4-0.81v0.64h0.88V21.98h-0.88V22z"/>
		<path id="Fill-12" d="M84.45,26.17c-1.13,0-2.08,0.43-2.82,1.26c-0.73,0.83-1.11,1.93-1.11,3.23c0,1.26,0.36,2.29,1.09,3.06
			c0.73,0.77,1.69,1.18,2.87,1.18c0.68,0,1.43-0.15,2.25-0.43v-0.94c-0.77,0.32-1.5,0.49-2.18,0.49c-0.94,0-1.71-0.32-2.27-0.94
			c-0.56-0.62-0.86-1.48-0.86-2.53s0.28-1.88,0.86-2.55c0.56-0.64,1.31-0.98,2.2-0.98c0.62,0,1.33,0.17,2.1,0.53v-0.98
			C85.8,26.32,85.07,26.17,84.45,26.17"/>
		<polygon id="Fill-11" points="77.22,23.52 78.1,23.52 78.1,22 77.22,22 		"/>
		<polygon id="Fill-10" points="77.22,34.73 78.1,34.73 78.1,26.34 77.22,26.34 		"/>
		<path id="Fill-9" d="M74.69,29.32c0,0.62-0.21,1.13-0.64,1.58c-0.43,0.45-0.94,0.66-1.52,0.66c-0.6,0-1.11-0.21-1.52-0.66
			c-0.41-0.45-0.62-0.98-0.62-1.63c0-0.6,0.21-1.13,0.62-1.56c0.41-0.43,0.92-0.64,1.52-0.64s1.11,0.21,1.54,0.66
			C74.48,28.18,74.69,28.69,74.69,29.32L74.69,29.32z M75.38,36.66c0,0.49-0.26,0.88-0.75,1.18c-0.49,0.3-1.16,0.45-1.99,0.45
			c-1.84,0-2.76-0.51-2.76-1.56c0-1.03,0.98-1.56,2.93-1.56C74.52,35.18,75.38,35.67,75.38,36.66L75.38,36.66z M76.23,26.34h-3.25
			c-1.11,0-1.97,0.28-2.55,0.83c-0.6,0.56-0.9,1.28-0.9,2.16c0,0.62,0.19,1.18,0.56,1.69c0.36,0.51,0.9,0.88,1.63,1.09v0.04
			c-1.09,0.32-1.63,0.77-1.63,1.37c0,0.58,0.45,0.98,1.33,1.2v0.04c-1.58,0.26-2.35,0.94-2.35,2.03c0,0.68,0.3,1.22,0.92,1.63
			c0.62,0.41,1.5,0.62,2.61,0.62c1.13,0,2.03-0.21,2.67-0.64c0.64-0.43,0.96-1.03,0.96-1.8c0-0.64-0.19-1.16-0.6-1.54
			c-0.41-0.39-1.18-0.62-2.31-0.68c-1.13-0.06-1.82-0.17-2.05-0.32c-0.21-0.15-0.32-0.34-0.32-0.58c0-0.21,0.09-0.39,0.26-0.56
			c0.17-0.15,0.6-0.32,1.26-0.51c0.66-0.17,1.2-0.36,1.6-0.56c0.41-0.19,0.75-0.49,1.05-0.9c0.3-0.41,0.43-0.96,0.43-1.67
			c0-0.77-0.36-1.52-1.11-2.23h1.84v-0.73H76.23z"/>
		<path id="Fill-8" d="M66.82,33.08c-0.77,0.73-1.52,1.09-2.25,1.09c-0.45,0-0.83-0.13-1.13-0.41c-0.3-0.28-0.45-0.6-0.45-0.98
			c0-0.71,0.36-1.26,1.09-1.71c0.73-0.45,1.65-0.64,2.76-0.62v2.63H66.82z M67.89,34.02c-0.13,0-0.19-0.15-0.19-0.43v-5.24
			c0-0.71-0.24-1.26-0.71-1.63c-0.47-0.36-1.07-0.56-1.82-0.56c-0.83,0-1.69,0.3-2.61,0.9v0.92c0.88-0.71,1.71-1.07,2.48-1.07
			c1.2,0,1.8,0.58,1.8,1.71v1.07c-1.52,0.09-2.67,0.39-3.49,0.9c-0.81,0.53-1.22,1.24-1.22,2.16c0,0.6,0.21,1.09,0.64,1.52
			c0.43,0.41,0.94,0.62,1.54,0.62c0.83,0,1.69-0.34,2.53-1.05c0.04,0.43,0.09,0.71,0.17,0.83c0.09,0.13,0.21,0.21,0.41,0.21
			c0.34,0,0.9-0.3,1.65-0.88v-0.75C68.44,33.79,68.06,34.02,67.89,34.02L67.89,34.02z"/>
		<path id="Fill-7" d="M49.1,26.34v8.39h0.86v-5.88c0.68-1.2,1.5-1.8,2.44-1.8c0.64,0,1.16,0.26,1.54,0.75
			c0.39,0.49,0.58,1.22,0.58,2.14v4.77h0.88v-5.71c0.39-0.68,0.77-1.18,1.13-1.5c0.36-0.3,0.81-0.47,1.31-0.47
			c0.66,0,1.2,0.26,1.56,0.77s0.56,1.24,0.56,2.14v4.75h0.86v-5.11c0-1.03-0.26-1.84-0.77-2.46c-0.51-0.62-1.2-0.92-2.03-0.92
			c-1.11,0-2.05,0.66-2.8,2.01c-0.51-1.35-1.39-2.01-2.63-2.01c-1.07,0-1.93,0.56-2.59,1.65h-0.04v-1.48H49.1"/>
		<polyline id="Fill-6" points="47.28,26.34 42.81,30.32 47.92,34.73 49.12,34.73 43.98,30.32 48.41,26.34 47.28,26.34 		"/>
		<polygon id="Fill-5" points="41.82,34.73 42.68,34.73 42.68,22 41.82,22 		"/>
		<path id="Fill-4" d="M38.38,26.17c-1.13,0-2.1,0.43-2.82,1.26c-0.73,0.83-1.11,1.93-1.11,3.23c0,1.26,0.36,2.29,1.09,3.06
			c0.73,0.77,1.69,1.18,2.87,1.18c0.68,0,1.43-0.15,2.25-0.43v-0.94c-0.77,0.32-1.5,0.49-2.18,0.49c-0.94,0-1.71-0.32-2.27-0.94
			c-0.56-0.62-0.86-1.48-0.86-2.53s0.28-1.88,0.86-2.55c0.56-0.64,1.31-0.98,2.2-0.98c0.62,0,1.33,0.17,2.1,0.53v-0.98
			C39.73,26.32,39,26.17,38.38,26.17"/>
		<path id="Fill-3" d="M31.79,33.08c-0.77,0.73-1.52,1.09-2.25,1.09c-0.45,0-0.83-0.13-1.13-0.41c-0.3-0.28-0.45-0.6-0.45-0.98
			c0-0.71,0.36-1.26,1.09-1.71c0.73-0.45,1.65-0.64,2.76-0.62v2.63H31.79z M32.86,34.02c-0.13,0-0.19-0.15-0.19-0.43v-5.24
			c0-0.71-0.24-1.26-0.71-1.63c-0.47-0.36-1.07-0.56-1.82-0.56c-0.83,0-1.69,0.3-2.61,0.9v0.92c0.88-0.71,1.71-1.07,2.48-1.07
			c1.2,0,1.8,0.58,1.8,1.71v1.07c-1.52,0.09-2.67,0.39-3.49,0.9c-0.81,0.53-1.22,1.24-1.22,2.16c0,0.6,0.21,1.09,0.64,1.52
			c0.43,0.41,0.94,0.62,1.54,0.62c0.83,0,1.69-0.34,2.53-1.05c0.04,0.43,0.09,0.71,0.17,0.83c0.09,0.13,0.21,0.21,0.41,0.21
			c0.34,0,0.9-0.3,1.65-0.88v-0.75C33.41,33.79,33.03,34.02,32.86,34.02L32.86,34.02z"/>
		<polygon id="Fill-2" points="24.75,34.73 25.62,34.73 25.62,22 24.75,22 		"/>
		<path id="Fill-1" d="M21.71,33.21c-0.56,0.47-1.35,0.71-2.4,0.71h-2.57v-5.18h2.14c2.42,0,3.64,0.88,3.64,2.61
			C22.52,32.12,22.24,32.74,21.71,33.21L21.71,33.21z M16.74,22.81h1.28c2.27,0,3.4,0.86,3.4,2.55s-1.11,2.55-3.36,2.55h-1.33V22.81
			L16.74,22.81z M20.7,28.12c1.18-0.66,1.78-1.6,1.78-2.82c0-1.03-0.34-1.84-1.05-2.42S19.72,22,18.37,22H15.8v12.73h3.6
			c1.26,0,2.27-0.3,3.02-0.92c0.75-0.62,1.11-1.43,1.11-2.46C23.55,29.64,22.58,28.54,20.7,28.12L20.7,28.12z"/>
	</g>
</g>
<g id="SmallRig">
</g>
<g id="Lumix">
</g>
<g id="DJI">
</g>
<g id="Rode">
</g>
<g id="Zoom">
</g>
<g id="Neewer">
</g>
<g id="Sigma">
</g>
<g id="Sandisk">
</g>
<g id="Andoer">
</g>
<g id="adobe">
</g>
<g id="Samsung">
</g>
<g id="Xiaomi">
</g>
<g id="ESDDI">
</g>
<g id="Apple">
</g>
<g id="Calque_17">
</g>
<g id="Calque_18">
</g>
<g id="Calque_19">
</g>
<g id="Calque_20">
</g>
</svg>
