<?xml version="1.0" encoding="utf-8"?>
<!-- Generator: Adobe Illustrator 25.2.1, SVG Export Plug-In . SVG Version: 6.00 Build 0)  -->
<svg version="1.1" xmlns="http://www.w3.org/2000/svg" xmlns:xlink="http://www.w3.org/1999/xlink" x="0px" y="0px"
	 viewBox="0 0 160 60" style="enable-background:new 0 0 160 60;" xml:space="preserve">
<style type="text/css">
	.st0{fill:#A7423B;}
	.st1{fill:#DE6D36;}
	.st2{fill:#BA683D;}
	.st3{fill:#FAA619;}
	.st4{fill:#878787;}
	.st5{fill:#D1D3D4;}
	.st6{fill:#FFFFFF;}
	.st7{fill:#E30613;}
	.st8{fill:#1D1D1B;}
	.st9{fill:#B49759;}
	.st10{display:none;}
	.st11{fill:#BE1622;}
	.st12{fill:#034EA1;}
	.st13{fill:#EC671B;}
</style>
<g id="reperes">
</g>
<g id="blackmagic">
</g>
<g id="SmallRig">
</g>
<g id="Lumix">
</g>
<g id="DJI">
</g>
<g id="Rode">
</g>
<g id="Zoom">
</g>
<g id="Panasonic">
	<g>
		<path class="st10" d="M140.02,24.65c-2.05,0-3.79-1.72-3.79-3.74c0-2.05,1.72-3.74,3.79-3.73c2.03,0,3.81,1.75,3.82,3.73
			C143.85,22.87,142.03,24.65,140.02,24.65z M143.4,20.97c-0.02-2-1.43-3.44-3.38-3.44c-1.89,0-3.5,1.57-3.49,3.41
			c0.01,1.75,1.66,3.33,3.47,3.32C141.97,24.25,143.42,22.85,143.4,20.97z"/>
	</g>
	<g id="logo" transform="translate(-60 -19)">
		<g id="logo-2" transform="translate(60 19)">
			<path id="パス_25" d="M148.54,38.36c-1.06,1.16-2.46,1.95-4,2.26c-1.02,0.22-2.07,0.28-3.12,0.17
				c-1.4-0.13-2.73-0.66-3.84-1.52c-0.91-0.68-1.67-1.55-2.22-2.54c-0.44-0.77-0.74-1.61-0.89-2.48c-0.22-1.22-0.17-2.48,0.17-3.67
				c0.68-2.79,2.91-4.92,5.73-5.47c1.56-0.33,3.18-0.29,4.73,0.11c1.12,0.26,2.14,0.82,2.95,1.63c0.53,0.47,0.97,1.05,1.28,1.69
				c0.39,0.77,0.56,1.63,0.5,2.48h-5.12c-0.11-0.67-0.47-1.28-1-1.69c-0.68-0.57-1.66-0.62-2.39-0.11c-0.5,0.32-0.88,0.8-1.06,1.36
				c-0.44,1.36-0.46,2.81-0.06,4.18c0.15,0.58,0.46,1.11,0.89,1.52c0.49,0.47,1.16,0.7,1.84,0.62c0.41-0.06,0.78-0.26,1.06-0.56
				c0.29-0.33,0.49-0.74,0.56-1.18c0.06-0.3,0.1-0.6,0.11-0.9h5.4C150.15,35.76,149.61,37.26,148.54,38.36"/>
			<rect id="長方形_5" x="127.96" y="19.12" width="5.56" height="4.01"/>
			<rect id="長方形_6" x="127.96" y="25.16" width="5.56" height="15.18"/>
			<path id="パス_26" d="M116.34,26.79c0.68-0.64,1.47-1.16,2.34-1.52c1.37-0.67,2.94-0.79,4.39-0.34
				c1.61,0.46,2.87,1.72,3.34,3.33c0.22,0.75,0.33,1.53,0.33,2.31v9.76h-5.95v-8.8c-0.01-0.28-0.05-0.57-0.11-0.85
				c-0.14-0.48-0.49-0.88-0.95-1.07c-1.05-0.45-2.28-0.04-2.84,0.96c-0.22,0.4-0.34,0.84-0.33,1.3v8.47h-5.73V25.16h5.4
				L116.34,26.79z"/>
			<path id="パス_27" d="M50.26,26.79c0.68-0.64,1.47-1.16,2.34-1.52c1.37-0.67,2.94-0.79,4.39-0.34
				c1.61,0.46,2.87,1.72,3.34,3.33c0.22,0.75,0.33,1.53,0.33,2.31v9.76h-5.9v-8.8c-0.01-0.28-0.05-0.57-0.11-0.85
				c-0.14-0.48-0.49-0.88-0.95-1.07c-1.05-0.45-2.28-0.04-2.84,0.96c-0.22,0.4-0.34,0.84-0.33,1.3v8.47h-5.78V25.16h5.4L50.26,26.79
				z"/>
			<path id="パス_28" d="M85.53,34.75c0.41,0.07,0.82,0.16,1.22,0.28c0.33,0.12,0.58,0.4,0.67,0.73c0.08,0.36-0.02,0.74-0.27,1.02
				c-0.27,0.28-0.62,0.46-1,0.51c-0.5,0.11-1.03,0.05-1.5-0.17c-0.22-0.1-0.43-0.23-0.61-0.39c-0.26-0.19-0.44-0.47-0.5-0.79
				c-0.06-0.26-0.1-0.52-0.11-0.79h-5.45v0.34c-0.02,0.5,0.08,1,0.27,1.47c0.27,0.7,0.69,1.34,1.22,1.86
				c0.7,0.67,1.56,1.16,2.5,1.41c1.93,0.56,3.96,0.69,5.95,0.39c0.94-0.13,1.84-0.44,2.67-0.9c0.37-0.19,0.73-0.42,1.06-0.68
				c1.47-1.22,2.04-3.21,1.45-5.02c-0.21-0.67-0.59-1.28-1.11-1.75c-0.71-0.65-1.57-1.11-2.5-1.36c-0.22-0.06-0.39-0.11-0.61-0.17
				c-1.11-0.33-2.24-0.58-3.39-0.73c-0.33-0.06-0.61-0.11-0.89-0.17c-0.13-0.03-0.26-0.07-0.39-0.11c-0.34-0.16-0.49-0.56-0.33-0.9
				c0,0,0,0,0,0v-0.05c0.14-0.32,0.43-0.55,0.78-0.62c0.6-0.18,1.25-0.16,1.84,0.06c0.58,0.19,0.97,0.75,0.95,1.36h5.28
				c0-0.62-0.11-1.23-0.33-1.81c-0.2-0.6-0.57-1.13-1.06-1.52c-0.42-0.34-0.89-0.6-1.39-0.79c-0.5-0.21-1.02-0.36-1.56-0.45
				c-1.23-0.22-2.48-0.29-3.73-0.23c-0.72,0.03-1.43,0.14-2.11,0.34c-0.95,0.22-1.85,0.64-2.61,1.24c-0.65,0.53-1.14,1.23-1.39,2.03
				c-0.1,0.37-0.18,0.75-0.22,1.13c-0.06,0.64,0.06,1.28,0.33,1.86c0.38,1.07,1.22,1.91,2.28,2.31c0.52,0.22,1.06,0.39,1.61,0.51
				c0.83,0.17,1.84,0.39,3,0.56"/>
			<path id="パス_29" d="M20.12,33.79h-3.84v-4.97h2.5c0.45,0.01,0.89-0.01,1.33-0.06c0.64-0.03,1.22-0.34,1.61-0.85
				c0.21-0.26,0.34-0.57,0.39-0.9c0.06-0.28,0.06-0.57,0-0.85c-0.09-1.1-1.01-1.94-2.11-1.92h-3.73V40.4H9.94V19.12h10.4
				c0.39-0.01,0.78,0.01,1.17,0.06c2.7,0.13,5.09,1.77,6.18,4.23c0.61,1.24,0.84,2.64,0.67,4.01c-0.29,2.99-2.47,5.45-5.4,6.09
				C22.03,33.71,21.08,33.81,20.12,33.79"/>
			<path id="パス_30" d="M103.44,24.88c-0.55-0.09-1.11-0.13-1.67-0.11c-0.56,0.01-1.12,0.05-1.67,0.11
				c-1.65,0.23-3.18,1.01-4.34,2.2c-1.3,1.25-2.1,2.94-2.22,4.74c-0.1,1.1-0.01,2.21,0.27,3.27c0.41,1.64,1.37,3.1,2.72,4.12
				c0.86,0.69,1.87,1.17,2.95,1.41c0.77,0.16,1.55,0.24,2.34,0.23c0.78,0.01,1.57-0.07,2.34-0.23c1.09-0.21,2.1-0.7,2.95-1.41
				l-3.23-3.56c-0.5,1.12-1.82,1.63-2.94,1.13c0,0,0,0-0.01,0c-0.5-0.22-0.9-0.63-1.11-1.13c-0.21-0.47-0.36-0.96-0.44-1.47
				c-0.15-1.01-0.13-2.04,0.06-3.05c0.09-0.53,0.3-1.03,0.61-1.47c0.65-1,1.98-1.28,2.98-0.64c0.25,0.16,0.47,0.38,0.64,0.64
				c0.29,0.45,0.5,0.94,0.61,1.47c0.21,1,0.23,2.04,0.06,3.05c-0.07,0.51-0.22,1-0.44,1.47l3.23,3.56c1.35-1.02,2.31-2.48,2.72-4.12
				c0.31-1.06,0.41-2.17,0.27-3.27c-0.13-1.8-0.92-3.49-2.22-4.74c-1.22-1.18-2.77-1.95-4.45-2.2"/>
			<path id="パス_31" d="M77.18,39.15c-0.11-1.24-0.11-2.31-0.17-3.56c-0.06-1.63-0.06-3.05-0.06-4.68c0-0.84-0.11-1.67-0.33-2.48
				c-0.25-1.09-0.96-2.01-1.95-2.54c-0.57-0.33-1.19-0.56-1.84-0.68c-2.05-0.46-4.17-0.5-6.23-0.11c-0.57,0.11-1.13,0.28-1.67,0.51
				c-1.28,0.53-2.26,1.61-2.67,2.93c-0.17,0.51-0.23,1.05-0.17,1.58c0,0.11,0.06,0.17,0.06,0.28l5.01,0.11
				c0.01-0.3,0.04-0.61,0.11-0.9c0.16-0.44,0.51-0.8,0.95-0.96c0.64-0.24,1.35-0.26,2-0.06c0.45,0.13,0.79,0.5,0.89,0.96
				c0.11,0.26,0.06,0.57-0.11,0.79c-0.14,0.2-0.34,0.35-0.56,0.45c-0.17,0.06-0.27,0.11-0.44,0.17c-0.72,0.17-1.28,0.34-2,0.45
				c-0.56,0.11-1.06,0.17-1.61,0.28c-0.78,0.17-1.39,0.34-2.11,0.56c-0.65,0.19-1.24,0.54-1.72,1.02c-0.66,0.61-1.09,1.42-1.22,2.31
				c-0.09,0.58-0.07,1.18,0.06,1.75c0.31,1.54,1.44,2.78,2.95,3.22c1.63,0.49,3.37,0.41,4.95-0.23c0.76-0.32,1.42-0.82,1.94-1.46
				l-0.33-2.6c-0.23,0.38-0.59,0.68-1,0.85c-0.37,0.16-0.77,0.28-1.17,0.34c-0.34,0.05-0.68,0.01-1-0.11
				c-0.28-0.07-0.53-0.23-0.72-0.45c-0.16-0.17-0.28-0.39-0.33-0.62c-0.06-0.37,0.06-0.75,0.33-1.02c0.19-0.15,0.4-0.28,0.61-0.39
				c0.54-0.22,1.1-0.41,1.67-0.56c0.68-0.21,1.35-0.46,2-0.73c0.06,0.53,0.06,1.06,0,1.58c-0.05,0.38-0.18,0.75-0.39,1.07l0.33,2.6
				c0.11,0.39,0.22,0.68,0.33,1.02c0.06,0.19,0.15,0.36,0.27,0.51h5.56C77.35,39.94,77.24,39.6,77.18,39.15"/>
			<path id="パス_32" d="M43.65,39.15c-0.11-1.24-0.11-2.31-0.17-3.56c-0.06-1.63-0.06-3.05-0.06-4.68c0-0.84-0.11-1.67-0.33-2.48
				c-0.25-1.09-0.96-2.01-1.95-2.54c-0.57-0.33-1.19-0.56-1.84-0.68c-2.05-0.46-4.17-0.5-6.23-0.11c-0.57,0.11-1.13,0.28-1.67,0.51
				c-1.28,0.53-2.26,1.61-2.67,2.93c-0.17,0.51-0.23,1.05-0.17,1.58c0,0.11,0.06,0.17,0.06,0.28l5.01,0.11
				c0.01-0.3,0.04-0.61,0.11-0.9c0.16-0.44,0.51-0.8,0.95-0.96c0.64-0.24,1.35-0.26,2-0.06c0.45,0.13,0.79,0.5,0.89,0.96
				c0.11,0.26,0.06,0.57-0.11,0.79c-0.14,0.2-0.34,0.35-0.56,0.45c-0.17,0.06-0.27,0.11-0.44,0.17c-0.72,0.17-1.28,0.34-2,0.45
				c-0.56,0.11-1.06,0.17-1.61,0.28c-0.78,0.17-1.39,0.34-2.11,0.56c-0.65,0.19-1.24,0.54-1.72,1.02c-0.67,0.6-1.08,1.42-1.17,2.31
				c-0.09,0.58-0.07,1.18,0.06,1.75c0.31,1.54,1.44,2.78,2.95,3.22c1.63,0.49,3.37,0.41,4.95-0.23c0.76-0.32,1.42-0.82,1.94-1.46
				l-0.33-2.6c-0.23,0.38-0.59,0.68-1,0.85c-0.37,0.16-0.77,0.28-1.17,0.34c-0.34,0.05-0.68,0.01-1-0.11
				c-0.28-0.07-0.53-0.23-0.72-0.45c-0.16-0.17-0.28-0.39-0.33-0.62c-0.06-0.37,0.06-0.75,0.33-1.02c0.19-0.15,0.4-0.28,0.61-0.39
				c0.54-0.22,1.1-0.41,1.67-0.56c0.68-0.21,1.35-0.46,2-0.73c0.06,0.53,0.06,1.06,0,1.58c-0.05,0.38-0.18,0.75-0.39,1.07l0.33,2.6
				c0.11,0.39,0.22,0.68,0.33,1.02c0.06,0.19,0.15,0.36,0.27,0.51h5.56C43.79,39.95,43.7,39.56,43.65,39.15"/>
		</g>
		<path id="Color_Overlay" d="M124.34,59.56c-1.5-0.44-2.64-1.68-2.95-3.22c-0.13-0.57-0.15-1.17-0.06-1.75
			c0.13-0.89,0.56-1.7,1.22-2.31c0.48-0.47,1.07-0.82,1.72-1.02c0.72-0.23,1.33-0.4,2.11-0.56c0.56-0.11,1.06-0.17,1.61-0.28
			c0.72-0.11,1.28-0.28,2-0.45c0.17-0.06,0.27-0.11,0.44-0.17c0.22-0.1,0.41-0.26,0.56-0.45c0.17-0.23,0.22-0.53,0.11-0.79
			c-0.1-0.46-0.44-0.82-0.89-0.96c-0.65-0.21-1.36-0.19-2,0.06c-0.44,0.16-0.79,0.52-0.95,0.96c-0.07,0.3-0.1,0.6-0.11,0.9l-5-0.11
			c0-0.11-0.06-0.17-0.06-0.28c-0.06-0.53,0-1.07,0.17-1.58c0.4-1.33,1.38-2.41,2.67-2.93c0.54-0.23,1.1-0.4,1.67-0.51
			c2.06-0.39,4.18-0.35,6.23,0.11c0.65,0.12,1.27,0.35,1.84,0.68c0.98,0.53,1.69,1.45,1.95,2.53c0.22,0.81,0.34,1.64,0.33,2.48
			c0,1.63,0,3.05,0.06,4.68c0.06,1.24,0.06,2.31,0.17,3.56c0.06,0.45,0.17,0.79,0.22,1.18h-5.57c-0.12-0.15-0.22-0.32-0.27-0.51
			c-0.11-0.34-0.22-0.62-0.33-1.02l-0.33-2.6c0.21-0.32,0.34-0.69,0.39-1.07c0.06-0.52,0.06-1.05,0-1.58
			c-0.65,0.28-1.32,0.52-2,0.73c-0.57,0.15-1.12,0.34-1.67,0.56c-0.22,0.11-0.42,0.24-0.61,0.4c-0.27,0.26-0.4,0.64-0.33,1.02
			c0.05,0.23,0.17,0.45,0.33,0.62c0.19,0.22,0.44,0.38,0.72,0.45c0.32,0.12,0.66,0.16,1,0.11c0.4-0.06,0.8-0.17,1.17-0.34
			c0.42-0.17,0.77-0.46,1-0.85l0.33,2.6c-0.52,0.64-1.19,1.15-1.95,1.47c-0.9,0.35-1.85,0.53-2.82,0.54
			C125.74,59.88,125.03,59.77,124.34,59.56z M90.86,59.56c-1.5-0.44-2.64-1.68-2.95-3.22c-0.13-0.57-0.15-1.17-0.06-1.75
			c0.09-0.89,0.5-1.72,1.17-2.31c0.48-0.48,1.08-0.82,1.72-1.02c0.72-0.23,1.33-0.4,2.11-0.56c0.56-0.11,1.06-0.17,1.61-0.28
			c0.72-0.11,1.28-0.28,2-0.45c0.17-0.06,0.27-0.11,0.44-0.17c0.22-0.1,0.41-0.26,0.56-0.45c0.18-0.22,0.22-0.53,0.11-0.79
			c-0.1-0.46-0.44-0.82-0.89-0.96c-0.65-0.21-1.36-0.19-2,0.06c-0.44,0.17-0.79,0.52-0.95,0.96c-0.07,0.3-0.11,0.6-0.11,0.9
			l-5.01-0.11c0-0.11-0.06-0.17-0.06-0.28c-0.06-0.53,0-1.07,0.17-1.58c0.4-1.33,1.38-2.41,2.67-2.93c0.54-0.23,1.1-0.4,1.67-0.51
			c2.06-0.39,4.18-0.35,6.23,0.11c0.65,0.12,1.27,0.35,1.84,0.68c0.98,0.53,1.69,1.45,1.95,2.54c0.22,0.81,0.34,1.64,0.33,2.48
			c0,1.63,0,3.05,0.05,4.68c0.06,1.24,0.06,2.31,0.17,3.56c0.06,0.4,0.15,0.8,0.27,1.18h-5.56c-0.12-0.15-0.22-0.32-0.27-0.51
			c-0.11-0.34-0.22-0.62-0.33-1.02l-0.33-2.6c0.21-0.32,0.34-0.69,0.39-1.07c0.06-0.52,0.06-1.05,0-1.58
			c-0.65,0.28-1.32,0.52-2,0.73c-0.57,0.15-1.12,0.34-1.67,0.56c-0.22,0.11-0.42,0.24-0.61,0.4c-0.27,0.26-0.4,0.64-0.33,1.02
			c0.05,0.23,0.17,0.45,0.33,0.62c0.19,0.22,0.44,0.38,0.72,0.45c0.32,0.12,0.66,0.16,1,0.11c0.4-0.06,0.8-0.17,1.17-0.34
			c0.42-0.17,0.77-0.46,1-0.85l0.33,2.6c-0.52,0.64-1.19,1.15-1.95,1.47c-0.9,0.35-1.85,0.53-2.82,0.54
			C92.26,59.88,91.55,59.77,90.86,59.56L90.86,59.56z M201.42,59.79c-1.4-0.13-2.73-0.66-3.84-1.52c-0.91-0.68-1.67-1.55-2.22-2.54
			c-0.44-0.77-0.74-1.61-0.89-2.48c-0.23-1.22-0.17-2.48,0.17-3.67c0.68-2.78,2.92-4.92,5.73-5.47c1.56-0.33,3.18-0.29,4.73,0.11
			c1.12,0.26,2.14,0.82,2.95,1.63c0.53,0.47,0.97,1.05,1.28,1.69c0.39,0.77,0.56,1.63,0.5,2.48h-5.12c-0.11-0.67-0.47-1.28-1-1.69
			c-0.68-0.57-1.66-0.62-2.39-0.11c-0.5,0.32-0.88,0.8-1.06,1.36c-0.43,1.36-0.45,2.81-0.05,4.18c0.15,0.58,0.46,1.11,0.89,1.52
			c0.49,0.47,1.16,0.7,1.84,0.62c0.41-0.06,0.78-0.26,1.06-0.56c0.29-0.33,0.49-0.75,0.56-1.18c0.06-0.3,0.1-0.6,0.11-0.9h5.4
			c0.11,1.52-0.43,3.02-1.5,4.12c-1.06,1.16-2.46,1.95-4,2.26c-0.69,0.15-1.38,0.22-2.09,0.23
			C202.11,59.85,201.76,59.83,201.42,59.79L201.42,59.79z M159.49,59.62c-1.08-0.24-2.09-0.72-2.95-1.41
			c-1.35-1.02-2.31-2.48-2.72-4.12c-0.28-1.07-0.38-2.17-0.27-3.27c0.13-1.8,0.92-3.49,2.22-4.74c1.16-1.2,2.69-1.97,4.34-2.2
			c0.55-0.07,1.1-0.11,1.66-0.11c0.56-0.02,1.12,0.02,1.67,0.11c1.68,0.25,3.23,1.02,4.45,2.2c1.3,1.25,2.1,2.94,2.22,4.74
			c0.13,1.1,0.04,2.21-0.27,3.27c-0.41,1.64-1.37,3.1-2.72,4.12c-0.85,0.71-1.86,1.2-2.95,1.41c-0.77,0.16-1.55,0.23-2.34,0.23
			C161.05,59.86,160.26,59.78,159.49,59.62L159.49,59.62z M160.04,48.67c-0.32,0.43-0.53,0.94-0.61,1.47
			c-0.19,1.01-0.2,2.04-0.06,3.05c0.09,0.51,0.24,1,0.44,1.47c0.22,0.5,0.61,0.91,1.11,1.13c1.12,0.5,2.44,0,2.94-1.12
			c0,0,0,0,0-0.01c0.22-0.46,0.37-0.96,0.44-1.47c0.18-1.01,0.16-2.04-0.06-3.05c-0.11-0.52-0.32-1.02-0.61-1.47
			c-0.64-1-1.96-1.29-2.96-0.65C160.43,48.19,160.21,48.41,160.04,48.67L160.04,48.67z M141.97,59.23c-0.94-0.25-1.8-0.74-2.5-1.41
			c-0.54-0.52-0.96-1.16-1.22-1.86c-0.2-0.46-0.29-0.96-0.27-1.47v-0.34h5.45c0.01,0.27,0.05,0.53,0.11,0.79
			c0.06,0.32,0.24,0.6,0.5,0.79c0.18,0.16,0.39,0.3,0.61,0.39c0.47,0.22,0.99,0.28,1.5,0.17c0.38-0.05,0.73-0.23,1-0.51
			c0.25-0.27,0.36-0.65,0.27-1.02c-0.09-0.34-0.34-0.61-0.67-0.73c-0.4-0.12-0.81-0.21-1.22-0.28c-1.17-0.17-2.17-0.39-3-0.56
			c-0.55-0.12-1.09-0.29-1.61-0.51c-1.06-0.4-1.89-1.25-2.27-2.32c-0.28-0.58-0.39-1.22-0.33-1.86c0.05-0.38,0.12-0.76,0.22-1.13
			c0.26-0.8,0.74-1.5,1.39-2.03c0.77-0.6,1.66-1.02,2.61-1.24c0.69-0.2,1.4-0.31,2.11-0.34c1.25-0.07,2.5,0.01,3.73,0.23
			c0.53,0.09,1.06,0.24,1.56,0.45c0.5,0.19,0.97,0.45,1.39,0.79c0.49,0.4,0.86,0.92,1.06,1.52c0.22,0.58,0.34,1.19,0.33,1.81h-5.28
			c0.02-0.61-0.36-1.17-0.95-1.36c-0.59-0.22-1.23-0.24-1.84-0.06c-0.34,0.07-0.64,0.3-0.78,0.62v0.06
			c-0.16,0.34-0.01,0.75,0.33,0.9c0,0,0,0,0,0c0.13,0.05,0.26,0.08,0.39,0.11c0.27,0.06,0.56,0.11,0.89,0.17
			c1.15,0.16,2.28,0.4,3.39,0.73c0.22,0.06,0.39,0.11,0.61,0.17c0.93,0.25,1.79,0.71,2.5,1.36c0.52,0.47,0.91,1.08,1.11,1.75
			c0.6,1.81,0.02,3.8-1.45,5.02c-0.33,0.26-0.68,0.49-1.06,0.68c-0.82,0.47-1.73,0.77-2.67,0.9c-0.71,0.1-1.42,0.15-2.13,0.15
			C144.5,59.77,143.21,59.59,141.97,59.23z M69.94,59.39V38.12h10.4c0.39-0.01,0.78,0.01,1.16,0.06c2.69,0.13,5.08,1.77,6.17,4.23
			c0.61,1.24,0.84,2.64,0.67,4.01c-0.29,2.99-2.47,5.45-5.4,6.1c-0.93,0.21-1.88,0.3-2.84,0.28h-3.83v6.6H69.94z M76.28,47.83h2.5
			c0.45,0.01,0.89-0.01,1.33-0.06c0.64-0.03,1.22-0.34,1.61-0.85c0.21-0.26,0.34-0.57,0.39-0.9c0.06-0.28,0.06-0.57,0-0.85
			c-0.08-1.1-1.01-1.95-2.11-1.93h-3.73V47.83z M187.97,59.34V44.16h5.56v15.18L187.97,59.34z M180.79,59.34v-8.81
			c-0.01-0.29-0.05-0.57-0.12-0.85c-0.14-0.48-0.48-0.88-0.95-1.07c-1.05-0.45-2.28-0.04-2.84,0.96c-0.22,0.4-0.34,0.84-0.33,1.3
			v8.47h-5.73V44.16h5.4l0.11,1.63c0.68-0.64,1.47-1.16,2.34-1.52c1.37-0.67,2.94-0.79,4.39-0.34c1.61,0.46,2.87,1.72,3.34,3.33
			c0.22,0.75,0.33,1.53,0.33,2.31v9.77L180.79,59.34z M114.78,59.34v-8.81c-0.01-0.28-0.05-0.57-0.11-0.85
			c-0.14-0.48-0.48-0.88-0.95-1.07c-1.05-0.45-2.28-0.04-2.84,0.96c-0.22,0.4-0.34,0.84-0.33,1.3v8.47h-5.79V44.16h5.4l0.11,1.63
			c0.68-0.64,1.47-1.16,2.34-1.52c1.37-0.67,2.94-0.79,4.39-0.34c1.61,0.46,2.87,1.72,3.34,3.33c0.22,0.75,0.33,1.53,0.33,2.31v9.77
			L114.78,59.34z M187.96,42.13v-4.01h5.56v4.01L187.96,42.13z"/>
	</g>
</g>
<g id="Sigma">
</g>
<g id="Sandisk">
</g>
<g id="Andoer">
</g>
<g id="adobe">
</g>
<g id="Samsung">
</g>
<g id="Xiaomi">
</g>
<g id="ESDDI">
</g>
<g id="Apple">
</g>
<g id="Calque_17">
</g>
<g id="Calque_18">
</g>
<g id="Calque_19">
</g>
<g id="Calque_20">
</g>
</svg>
