<?xml version="1.0" encoding="utf-8"?>
<!-- Generator: Adobe Illustrator 25.2.1, SVG Export Plug-In . SVG Version: 6.00 Build 0)  -->
<svg version="1.1" xmlns="http://www.w3.org/2000/svg" xmlns:xlink="http://www.w3.org/1999/xlink" x="0px" y="0px"
	 viewBox="0 0 160 60" style="enable-background:new 0 0 160 60;" xml:space="preserve">
<style type="text/css">
	.st0{fill:#A7423B;}
	.st1{fill:#DE6D36;}
	.st2{fill:#BA683D;}
	.st3{fill:#FAA619;}
	.st4{fill:#878787;}
	.st5{fill:#D1D3D4;}
	.st6{fill:#FFFFFF;}
	.st7{fill:#E30613;}
	.st8{fill:#1D1D1B;}
	.st9{fill:#B49759;}
	.st10{display:none;}
	.st11{fill:#BE1622;}
	.st12{fill:#034EA1;}
	.st13{fill:#EC671B;}
</style>
<g id="reperes">
</g>
<g id="blackmagic">
</g>
<g id="SmallRig">
</g>
<g id="Lumix">
</g>
<g id="DJI">
</g>
<g id="Rode">
</g>
<g id="Zoom">
</g>
<g id="Neewer">
</g>
<g id="Sigma">
</g>
<g id="Sandisk">
</g>
<g id="Andoer">
</g>
<g id="adobe">
	<g>
		<path class="st7" d="M137.96,32.26c-0.04,0.26-0.09,0.52-0.11,0.78c-0.02,0.3-0.18,0.41-0.45,0.42c-0.63,0.02-1.26,0.07-1.9,0.07
			c-1.76,0.01-3.51,0-5.27,0c-0.12,0-0.24,0-0.39,0c0.1,1.01,0.56,1.75,1.42,2.22c0.6,0.33,1.25,0.45,1.91,0.48
			c1.21,0.06,2.38-0.1,3.51-0.55c0.05-0.02,0.11-0.04,0.21-0.06c0.01,0.13,0.02,0.24,0.02,0.34c0,0.71-0.02,1.43,0.01,2.14
			c0.01,0.3-0.11,0.43-0.36,0.54c-0.85,0.36-1.73,0.55-2.64,0.62c-1.11,0.07-2.22,0.08-3.32-0.21c-1.96-0.52-3.33-1.7-3.99-3.62
			c-0.78-2.28-0.65-4.53,0.57-6.63c1.12-1.93,2.87-2.86,5.09-2.92c1.1-0.03,2.16,0.15,3.12,0.73c1.52,0.92,2.25,2.34,2.5,4.04
			c0.02,0.11,0.04,0.21,0.07,0.32C137.96,31.41,137.96,31.83,137.96,32.26z M134.53,31c0.02-0.84-0.28-1.48-0.93-1.9
			c-0.84-0.54-1.73-0.51-2.58-0.03c-0.73,0.41-1.07,1.1-1.19,1.92C131.41,31,132.95,31,134.53,31z"/>
		<path class="st7" d="M41.88,45.06c-0.42-1.05-0.85-2.09-1.27-3.14c-0.35-0.88-0.71-1.76-1.04-2.64c-0.09-0.23-0.2-0.31-0.44-0.3
			c-1.72,0.01-3.43,0.01-5.15,0.01c-0.11,0-0.22,0-0.41,0c1.84-4.33,3.66-8.61,5.51-12.96c0.28,0.66,0.53,1.26,0.79,1.87
			c2.37,5.62,4.74,11.24,7.12,16.86c0.04,0.1,0.07,0.21,0.11,0.31C45.36,45.06,43.62,45.06,41.88,45.06z"/>
		<path class="st7" d="M22.04,44.89c0-9.98,0-19.95,0-29.95c4.19,0,8.36,0,12.58,0c-4.19,10.01-8.36,19.98-12.54,29.96
			C22.07,44.9,22.06,44.9,22.04,44.89z"/>
		<path class="st7" d="M43.54,14.94c4.21,0,8.37,0,12.56,0c0,9.98,0,19.94,0,29.9c-0.01,0.01-0.03,0.01-0.04,0.02
			C51.88,34.9,47.72,24.93,43.54,14.94z"/>
		<path class="st7" d="M116.31,26.16c0.95-0.25,1.86-0.3,2.78-0.26c2.84,0.13,5.15,2.18,5.55,5c0.33,2.28-0.13,4.37-1.76,6.09
			c-1.17,1.24-2.66,1.91-4.32,2.18c-1.86,0.31-3.7,0.11-5.51-0.39c-0.26-0.07-0.36-0.2-0.36-0.47c0.01-5.78,0.01-11.57,0-17.35
			c0-0.25,0.08-0.33,0.33-0.33c0.97,0.01,1.94,0.02,2.91,0c0.29-0.01,0.39,0.07,0.38,0.37c-0.01,1.58-0.01,3.16-0.01,4.74
			C116.31,25.86,116.31,25.99,116.31,26.16z M116.31,32.67c0,1.09,0,2.18,0,3.27c0,0.2,0.05,0.31,0.26,0.31
			c0.28,0.01,0.57,0.06,0.85,0.05c1.42-0.08,2.57-0.62,3.23-1.95c0.4-0.81,0.47-1.69,0.37-2.57c-0.14-1.21-0.67-2.18-1.88-2.63
			c-0.87-0.32-1.76-0.27-2.65-0.05c-0.08,0.02-0.17,0.19-0.17,0.28C116.31,30.48,116.31,31.57,116.31,32.67z"/>
		<path class="st7" d="M92.04,25.9c0-0.13,0-0.23,0-0.34c0-1.52,0.01-3.04-0.01-4.56c0-0.27,0.07-0.38,0.36-0.37
			c0.98,0.02,1.96,0.01,2.94,0.01c0.09,0,0.18,0.01,0.31,0.02c0,0.14,0,0.27,0,0.4c0,4.97,0,9.93,0,14.9c0,0.66,0.07,1.32,0.09,1.98
			c0,0.11-0.08,0.29-0.17,0.33c-2.49,1.01-5.05,1.44-7.68,0.67c-2.42-0.71-3.95-2.67-4.2-5.17c-0.16-1.62,0.04-3.16,0.9-4.56
			c1.11-1.81,2.78-2.81,4.84-3.16c0.73-0.12,1.48-0.1,2.22-0.14C91.77,25.89,91.89,25.9,92.04,25.9z M92.04,32.57
			c0-1.09-0.01-2.18,0-3.27c0-0.22-0.05-0.35-0.29-0.36c-0.34-0.01-0.67-0.06-1.01-0.04c-1.58,0.07-2.86,1.03-3.25,2.47
			c-0.27,1-0.22,2,0.17,2.97c0.29,0.72,0.79,1.25,1.51,1.57c0.84,0.37,1.72,0.4,2.61,0.24C92,36.1,92.05,36,92.05,35.81
			C92.04,34.73,92.04,33.65,92.04,32.57z"/>
		<path class="st7" d="M81.37,39.05c-0.51,0-1.02-0.02-1.53,0.01c-0.28,0.01-0.4-0.1-0.48-0.35c-0.38-1.15-0.78-2.29-1.17-3.44
			c-0.06-0.19-0.15-0.27-0.36-0.27C76,35,74.17,35,72.34,34.99c-0.22,0-0.3,0.07-0.36,0.27c-0.36,1.14-0.74,2.27-1.1,3.4
			c-0.09,0.27-0.21,0.4-0.52,0.39c-0.89-0.02-1.78-0.01-2.67-0.01c-0.41,0-0.45-0.06-0.32-0.45c0.78-2.25,1.56-4.5,2.34-6.75
			c0.94-2.71,1.89-5.42,2.82-8.14c0.15-0.44,0.18-0.92,0.24-1.38c0.03-0.21,0.08-0.31,0.31-0.31c1.31,0.01,2.62,0.01,3.92,0
			c0.2,0,0.28,0.08,0.35,0.26c1.94,5.47,3.88,10.94,5.82,16.41c0.12,0.34,0.11,0.36-0.27,0.36C82.39,39.05,81.88,39.05,81.37,39.05z
			 M75.07,25.12c-0.68,2.22-1.35,4.41-2.03,6.6c1.36,0,2.7,0,4.08,0C76.43,29.51,75.75,27.33,75.07,25.12z"/>
		<path class="st7" d="M110.59,32.56c-0.02,1.46-0.33,2.84-1.15,4.06c-1.12,1.68-2.74,2.52-4.73,2.67
			c-0.96,0.07-1.92-0.02-2.84-0.33c-1.64-0.55-2.81-1.64-3.49-3.22c-0.84-1.96-0.89-3.96-0.1-5.95c0.95-2.4,3.12-3.86,5.7-3.9
			c1.34-0.02,2.6,0.2,3.74,0.93c1.63,1.05,2.45,2.6,2.75,4.46C110.55,31.7,110.55,32.13,110.59,32.56z M106.88,32.67
			c0-0.82-0.1-1.55-0.42-2.24c-0.44-0.94-1.16-1.48-2.21-1.53c-1.08-0.06-1.87,0.44-2.32,1.38c-0.25,0.51-0.4,1.09-0.47,1.66
			c-0.14,1.12-0.02,2.23,0.61,3.21c1.07,1.66,3.4,1.54,4.32-0.2C106.77,34.2,106.89,33.41,106.88,32.67z"/>
	</g>
</g>
<g id="Samsung">
</g>
<g id="Xiaomi">
</g>
<g id="ESDDI">
</g>
<g id="Apple">
</g>
<g id="Calque_17">
</g>
<g id="Calque_18">
</g>
<g id="Calque_19">
</g>
<g id="Calque_20">
</g>
</svg>
