<?xml version="1.0" encoding="utf-8"?>
<!-- Generator: Adobe Illustrator 25.2.1, SVG Export Plug-In . SVG Version: 6.00 Build 0)  -->
<svg version="1.1" xmlns="http://www.w3.org/2000/svg" xmlns:xlink="http://www.w3.org/1999/xlink" x="0px" y="0px"
	 viewBox="0 0 160 60" style="enable-background:new 0 0 160 60;" xml:space="preserve">
<style type="text/css">
	.st0{fill:#A7423B;}
	.st1{fill:#DE6D36;}
	.st2{fill:#BA683D;}
	.st3{fill:#FAA619;}
	.st4{fill:#878787;}
	.st5{fill:#D1D3D4;}
	.st6{fill:#FFFFFF;}
	.st7{fill:#E30613;}
	.st8{fill:#1D1D1B;}
	.st9{fill:#B49759;}
	.st10{display:none;}
	.st11{fill:#BE1622;}
	.st12{fill:#034EA1;}
	.st13{fill:#EC671B;}
</style>
<g id="reperes">
</g>
<g id="blackmagic">
</g>
<g id="SmallRig">
</g>
<g id="Lumix">
	<g>
		<path d="M95.51,41.74c-1.09,0-2.15,0-3.25,0c0-3.61,0-7.21,0-10.96c-0.15,0.29-0.24,0.44-0.31,0.6c-1.66,3.33-3.32,6.66-4.97,10
			c-0.15,0.3-0.3,0.41-0.57,0.41c-0.87-0.02-1.74-0.02-2.61,0c-0.24,0.01-0.38-0.1-0.51-0.37c-1.66-3.37-3.34-6.72-5.01-10.08
			c-0.07-0.15-0.15-0.29-0.27-0.52c0,3.69,0,7.28,0,10.91c-1.1,0-2.18,0-3.28,0c0-5.92,0-11.86,0-17.88c0.12,0,0.25,0,0.38,0
			c0.83,0,1.67,0.02,2.5-0.01c0.27-0.01,0.42,0.12,0.56,0.42c2.19,4.47,4.38,8.94,6.57,13.4c0.09,0.18,0.18,0.36,0.3,0.6
			c0.11-0.21,0.2-0.37,0.28-0.54c2.25-4.48,4.49-8.95,6.73-13.44c0.17-0.33,0.34-0.45,0.63-0.44c0.93,0.02,1.86,0.01,2.82,0.01
			C95.51,29.82,95.51,35.78,95.51,41.74z"/>
		<path d="M67.83,23.92c1.11,0,2.17,0,3.27,0c0.01,0.16,0.02,0.32,0.02,0.48c0,3.62,0,7.23,0,10.85c0,1.53-0.21,2.99-0.71,4.36
			c-0.2,0.56-0.5,1.06-0.78,1.55c-0.32,0.54-0.79,0.65-1.28,0.65c-0.95,0-1.89,0-2.84,0c-3.21,0-6.42-0.05-9.64,0.03
			c-1.07,0.02-1.71-0.59-2.18-1.74c-0.55-1.34-0.87-2.79-0.88-4.31C52.78,31.9,52.8,28,52.8,24.1c0-0.05,0.01-0.09,0.02-0.18
			c1.07,0,2.15,0,3.26,0c0,0.19,0,0.36,0,0.54c0,3.63,0,7.26,0.01,10.9c0,0.61,0.06,1.22,0.13,1.82c0.09,0.81,0.5,1.24,1.07,1.38
			c0.36,0.09,0.74,0.12,1.11,0.13c2.37,0.01,4.73,0.01,7.1,0c0.36,0,0.72-0.04,1.08-0.12c0.71-0.17,1.06-0.67,1.16-1.62
			c0.05-0.52,0.08-1.05,0.08-1.58c0.01-3.62,0.01-7.23,0.01-10.85C67.83,24.34,67.83,24.14,67.83,23.92z"/>
		<path d="M105.65,41.72c2.66-3.06,5.32-6.11,8.01-9.21c-2.51-2.87-4.99-5.71-7.47-8.55c0.01-0.04,0.01-0.07,0.02-0.11
			c0.12,0,0.23,0,0.35,0c1.11,0,2.22,0.01,3.32-0.01c0.28,0,0.49,0.1,0.7,0.34c1.63,1.89,3.27,3.77,4.9,5.65
			c0.07,0.07,0.13,0.15,0.23,0.25c0.54-0.61,1.08-1.22,1.61-1.83c1.22-1.39,2.44-2.77,3.66-4.15c0.09-0.1,0.21-0.21,0.32-0.21
			c1.3-0.01,2.61-0.01,4.04-0.01c-2.55,2.92-5.02,5.74-7.52,8.6c2.68,3.07,5.34,6.12,8.09,9.27c-0.3,0-0.49,0-0.68,0
			c-1,0.02-1.99,0.02-2.99,0.06c-0.33,0.01-0.58-0.1-0.84-0.4c-1.8-2.09-3.6-4.16-5.41-6.24c-0.07-0.09-0.15-0.17-0.25-0.27
			c-0.91,1.05-1.82,2.1-2.73,3.14c-1.02,1.17-2.03,2.34-3.05,3.5c-0.14,0.16-0.37,0.27-0.56,0.28c-1.13,0.03-2.27,0.01-3.4,0.01
			c-0.11,0-0.21,0-0.32,0C105.67,41.8,105.66,41.76,105.65,41.72z"/>
		<path d="M34.1,18.16c1.29,0,2.53,0,3.83,0c0,0.2,0,0.39,0,0.58c0,6.19,0,12.38,0,18.57c0,0.17,0,0.33,0,0.5
			c0.01,0.67,0.13,0.82,0.62,0.83c0.1,0,0.2,0,0.3,0c3.71,0,7.42,0,11.13,0c0.16,0,0.32,0,0.49,0c0,1.07,0,2.09,0,3.17
			c-0.14,0-0.27,0-0.4,0c-4.94,0-9.88,0-14.83,0c-0.89,0-1.14-0.33-1.14-1.5c0-7.2,0-14.4,0-21.6C34.1,18.55,34.1,18.39,34.1,18.16z
			"/>
		<path d="M100.01,41.77c0-5.95,0-11.88,0-17.84c1.08,0,2.15,0,3.24,0c0,5.94,0,11.87,0,17.84
			C102.18,41.77,101.1,41.77,100.01,41.77z"/>
	</g>
</g>
<g id="DJI">
</g>
<g id="Rode">
</g>
<g id="Zoom">
</g>
<g id="Neewer">
</g>
<g id="Sigma">
</g>
<g id="Sandisk">
</g>
<g id="Andoer">
</g>
<g id="adobe">
</g>
<g id="Samsung">
</g>
<g id="Xiaomi">
</g>
<g id="ESDDI">
</g>
<g id="Apple">
</g>
<g id="Calque_17">
</g>
<g id="Calque_18">
</g>
<g id="Calque_19">
</g>
<g id="Calque_20">
</g>
</svg>
