<?xml version="1.0" encoding="utf-8"?>
<!-- Generator: Adobe Illustrator 25.2.1, SVG Export Plug-In . SVG Version: 6.00 Build 0)  -->
<svg version="1.1" xmlns="http://www.w3.org/2000/svg" xmlns:xlink="http://www.w3.org/1999/xlink" x="0px" y="0px"
	 viewBox="0 0 160 60" style="enable-background:new 0 0 160 60;" xml:space="preserve">
<style type="text/css">
	.st0{fill:#A7423B;}
	.st1{fill:#DE6D36;}
	.st2{fill:#BA683D;}
	.st3{fill:#FAA619;}
	.st4{fill:#878787;}
	.st5{fill:#D1D3D4;}
	.st6{fill:#FFFFFF;}
	.st7{fill:#E30613;}
	.st8{fill:#1D1D1B;}
	.st9{fill:#B49759;}
	.st10{display:none;}
	.st11{fill:#BE1622;}
	.st12{fill:#034EA1;}
	.st13{fill:#EC671B;}
</style>
<g id="reperes">
</g>
<g id="blackmagic">
</g>
<g id="SmallRig">
	<g>
		<g>
			<path class="st6" d="M127.46,33.28c0-1.41,0.01-2.83,0-4.24c-0.03-3.67-3.01-6.62-6.73-6.66c-3.8-0.04-6.88,2.93-6.96,6.73
				c-0.08,3.54,2.88,6.71,6.43,6.9c1.15,0.06,1.9-0.46,2.02-1.4c0.13-1.03-0.46-1.65-1.72-1.81c-2.17-0.29-3.6-1.87-3.46-3.85
				c0.13-1.88,1.85-3.44,3.7-3.38c2.05,0.07,3.51,1.69,3.52,3.93c0.01,2.5,0.01,4.99,0,7.49c0,2.34-1.33,3.94-3.34,4.07
				c-2.09,0.13-3.51-1.17-3.89-3.53c-0.18-1.15-0.85-1.76-1.8-1.64c-0.93,0.12-1.52,0.94-1.44,2.01c0.27,3.74,3.39,6.51,7.17,6.38
				c3.68-0.13,6.5-3.1,6.52-6.87C127.46,36.02,127.46,34.65,127.46,33.28z M56.56,24.32c-1.81-1.9-3.9-2.5-6.32-1.58
				c-2.2,0.83-3.45,2.53-3.61,4.82c-0.16,2.32-0.09,4.65-0.05,6.98c0.01,0.92,0.62,1.45,1.54,1.48c0.92,0.03,1.49-0.48,1.65-1.38
				c0.06-0.32,0.04-0.66,0.04-0.99c0-1.66-0.11-3.34,0.05-4.98c0.09-0.88,0.46-1.94,1.08-2.48c0.52-0.45,1.65-0.48,2.42-0.3
				c1.14,0.28,1.54,1.35,1.57,2.45c0.05,1.87,0.01,3.74,0.02,5.61c0.01,1.34,0.57,2.07,1.61,2.09c1.05,0.02,1.64-0.7,1.65-2.03
				c0.01-1.83-0.04-3.66,0.02-5.49c0.05-1.8,1.12-2.94,2.61-2.92c1.48,0.02,2.48,1.19,2.51,2.99c0.03,1.79-0.01,3.58,0.01,5.36
				c0.02,1.35,0.61,2.07,1.64,2.08c1.03,0.01,1.68-0.73,1.7-2.04c0.03-1.83,0.16-3.68-0.05-5.48c-0.15-1.32-0.5-2.76-1.23-3.83
				C63.42,21.68,59.79,21.59,56.56,24.32z M97.05,28.45c0-1.75,0.01-3.49,0-5.24c-0.01-1.63,0.74-2.78,2.21-3.45
				c1.27-0.58,2.81-0.26,3.83,0.72c1.09,1.05,1.44,2.68,0.78,4.14c-0.46,1.02-1.17,1.92-1.62,2.95c-0.33,0.77-0.67,1.69-0.56,2.48
				c0.32,2.31,1.81,4.06,3.4,5.64c0.29,0.29,1.49,0.13,1.85-0.23c0.36-0.37,0.44-1.34,0.22-1.88c-0.36-0.91-1.01-1.72-1.62-2.5
				c-0.8-1.01-0.7-1.94-0.04-2.97c0.55-0.87,1.06-1.79,1.44-2.75c1.05-2.62,0.54-5.01-1.4-7.02c-1.98-2.05-4.47-2.6-7.14-1.69
				c-2.64,0.89-4.33,2.86-4.48,5.62c-0.22,4.02-0.12,8.06-0.09,12.09c0.01,1.13,0.95,1.84,1.91,1.59c1.04-0.27,1.3-1.09,1.31-2.02
				C97.05,32.11,97.04,30.28,97.05,28.45z M38.88,15.73c-0.05,0.11-0.1,0.22-0.15,0.33c-2.58,0-4.64,1.53-5.29,3.94
				c-0.65,2.41,0.29,4.58,2.7,5.82c1.17,0.61,2.48,0.96,3.73,1.42c1.77,0.65,2.53,2.01,2.02,3.57c-0.51,1.54-2.41,2.53-3.98,1.8
				c-1-0.46-1.83-1.36-2.62-2.17c-0.64-0.66-1.42-1.02-2.08-0.48c-0.46,0.37-0.79,1.33-0.65,1.91c0.58,2.51,3.35,4.37,6.19,4.37
				c3.02-0.01,5.43-1.71,6.16-4.35c0.98-3.53-0.4-6.27-3.83-7.59c-1.17-0.45-2.35-0.86-3.5-1.34c-1.04-0.44-1.42-1.31-1.12-2.35
				c0.29-1.02,1.15-1.46,2.14-1.33c0.67,0.09,1.33,0.44,1.94,0.75c0.85,0.43,1.67,0.64,2.38-0.18c0.59-0.68,0.43-1.92-0.52-2.5
				C41.32,16.67,40.06,16.26,38.88,15.73z M81.52,31.5c0.03,0,0.06,0,0.08-0.01c-0.09-1.28-0.04-2.59-0.29-3.84
				c-0.67-3.37-3.99-5.69-7.43-5.29c-3.58,0.41-6.18,3.39-6.12,7.02c0.05,3.42,2.83,6.39,6.27,6.61c0.57,0.04,1.33-0.11,1.7-0.47
				c0.36-0.35,0.59-1.24,0.38-1.64c-0.27-0.51-1-0.98-1.59-1.09c-2.36-0.41-3.89-2.27-3.4-4.35c0.41-1.74,2.1-3.01,3.76-2.85
				c1.9,0.19,3.29,1.7,3.36,3.73c0.05,1.66,0.02,3.32,0.01,4.99c0,1.06,0.57,1.67,1.59,1.69c1.03,0.02,1.62-0.61,1.66-1.64
				C81.55,33.41,81.52,32.45,81.52,31.5z M91.6,26.18c0-2.66,0.01-5.31,0-7.97c-0.01-1.3-0.53-1.92-1.58-1.94
				c-1.12-0.03-1.67,0.61-1.67,1.98c-0.01,5.27-0.01,10.54,0,15.81c0,1.25,0.57,1.94,1.58,1.97c1.06,0.03,1.67-0.68,1.68-2
				C91.61,31.41,91.6,28.79,91.6,26.18z M86.37,26.27c0-2.7,0.01-5.41,0-8.11c-0.01-1.29-0.55-1.9-1.63-1.89
				c-1.06,0.01-1.62,0.65-1.62,1.93c-0.01,5.28-0.01,10.57,0,15.85c0,1.23,0.61,1.95,1.6,1.98c1.05,0.03,1.65-0.68,1.65-2.02
				C86.38,31.43,86.37,28.85,86.37,26.27z M109.16,30.04c0,1.41,0.01,2.82,0,4.23c-0.01,1.07,0.53,1.68,1.55,1.71
				c1.04,0.03,1.62-0.65,1.63-1.66c0.03-2.78,0.03-5.56,0-8.34c-0.01-1.01-0.58-1.67-1.64-1.64c-1.05,0.03-1.55,0.66-1.54,1.71
				C109.17,27.38,109.16,28.71,109.16,30.04z M110.79,22.47c1.03-0.03,1.88-0.96,1.81-1.99c-0.07-1.01-0.89-1.76-1.92-1.73
				c-1.1,0.03-1.82,0.83-1.77,1.96C108.96,21.71,109.79,22.5,110.79,22.47z"/>
			<path class="st7" d="M127.46,33.28c0,1.37,0,2.75,0,4.12c-0.01,3.77-2.83,6.74-6.52,6.87c-3.78,0.13-6.9-2.64-7.17-6.38
				c-0.08-1.08,0.51-1.89,1.44-2.01c0.95-0.12,1.62,0.49,1.8,1.64c0.38,2.37,1.8,3.66,3.89,3.53c2.02-0.13,3.34-1.73,3.34-4.07
				c0-2.5,0.01-4.99,0-7.49c-0.01-2.24-1.47-3.86-3.52-3.93c-1.85-0.06-3.57,1.5-3.7,3.38c-0.14,1.97,1.28,3.56,3.46,3.85
				c1.27,0.17,1.85,0.78,1.72,1.81c-0.12,0.94-0.87,1.46-2.02,1.4c-3.55-0.19-6.5-3.36-6.43-6.9c0.08-3.79,3.17-6.77,6.96-6.73
				c3.72,0.04,6.7,2.99,6.73,6.66C127.47,30.45,127.46,31.86,127.46,33.28z"/>
		</g>
		<path d="M56.56,24.32c3.23-2.73,6.86-2.64,8.88,0.35c0.73,1.08,1.08,2.52,1.23,3.83c0.2,1.81,0.07,3.65,0.05,5.48
			c-0.02,1.31-0.66,2.05-1.7,2.04c-1.03-0.01-1.62-0.73-1.64-2.08c-0.02-1.79,0.02-3.58-0.01-5.36c-0.03-1.81-1.03-2.97-2.51-2.99
			c-1.49-0.02-2.56,1.12-2.61,2.92c-0.05,1.83-0.01,3.66-0.02,5.49c-0.01,1.32-0.6,2.05-1.65,2.03c-1.04-0.02-1.6-0.75-1.61-2.09
			c-0.01-1.87,0.03-3.74-0.02-5.61c-0.03-1.1-0.43-2.17-1.57-2.45c-0.76-0.19-1.9-0.15-2.42,0.3c-0.63,0.54-1,1.6-1.08,2.48
			c-0.17,1.65-0.05,3.32-0.05,4.98c0,0.33,0.02,0.67-0.04,0.99c-0.17,0.9-0.74,1.41-1.65,1.38c-0.92-0.03-1.53-0.56-1.54-1.48
			c-0.04-2.33-0.11-4.66,0.05-6.98c0.16-2.29,1.41-3.98,3.61-4.82C52.65,21.82,54.75,22.42,56.56,24.32z"/>
		<path class="st7" d="M97.04,28.45c0,1.83,0.01,3.66-0.01,5.49c-0.01,0.93-0.27,1.75-1.31,2.02c-0.97,0.25-1.91-0.46-1.91-1.59
			c-0.02-4.03-0.13-8.07,0.09-12.09c0.15-2.76,1.85-4.72,4.48-5.62c2.67-0.91,5.16-0.36,7.14,1.69c1.94,2.01,2.45,4.4,1.4,7.02
			c-0.38,0.96-0.89,1.88-1.44,2.75c-0.65,1.03-0.75,1.96,0.04,2.97c0.62,0.78,1.26,1.6,1.62,2.5c0.22,0.54,0.14,1.51-0.22,1.88
			c-0.36,0.36-1.56,0.52-1.85,0.23c-1.59-1.58-3.08-3.33-3.4-5.64c-0.11-0.79,0.23-1.71,0.56-2.48c0.44-1.02,1.15-1.93,1.62-2.95
			c0.67-1.46,0.31-3.09-0.78-4.14c-1.02-0.98-2.55-1.3-3.83-0.72c-1.47,0.67-2.22,1.82-2.21,3.45
			C97.05,24.96,97.05,26.71,97.04,28.45z"/>
		<path d="M38.88,15.73c1.19,0.53,2.44,0.94,3.54,1.61c0.95,0.58,1.11,1.82,0.52,2.5c-0.71,0.82-1.52,0.62-2.38,0.18
			c-0.62-0.31-1.27-0.66-1.94-0.75c-1-0.13-1.85,0.31-2.14,1.33c-0.3,1.04,0.08,1.91,1.12,2.35c1.15,0.48,2.34,0.89,3.5,1.34
			c3.43,1.33,4.81,4.07,3.83,7.59c-0.73,2.65-3.14,4.35-6.16,4.35c-2.84,0.01-5.61-1.86-6.19-4.37c-0.13-0.58,0.2-1.53,0.65-1.91
			c0.66-0.54,1.43-0.18,2.08,0.48c0.79,0.81,1.62,1.71,2.62,2.17c1.57,0.72,3.47-0.27,3.98-1.8c0.52-1.56-0.25-2.92-2.02-3.57
			c-1.25-0.46-2.56-0.82-3.73-1.42c-2.4-1.24-3.35-3.41-2.7-5.82c0.65-2.4,2.71-3.94,5.29-3.94C38.78,15.95,38.83,15.84,38.88,15.73
			z"/>
		<path d="M81.52,31.5c0,0.96,0.03,1.91-0.01,2.87c-0.04,1.03-0.63,1.66-1.66,1.64c-1.02-0.02-1.59-0.62-1.59-1.69
			c0-1.66,0.04-3.33-0.01-4.99c-0.07-2.03-1.46-3.53-3.36-3.73c-1.66-0.17-3.35,1.11-3.76,2.85c-0.49,2.07,1.03,3.94,3.4,4.35
			c0.6,0.1,1.32,0.58,1.59,1.09c0.21,0.39-0.03,1.28-0.38,1.64c-0.37,0.37-1.13,0.51-1.7,0.47c-3.44-0.21-6.22-3.18-6.27-6.61
			c-0.06-3.63,2.55-6.61,6.12-7.02c3.44-0.39,6.76,1.92,7.43,5.29c0.25,1.25,0.2,2.56,0.29,3.84C81.57,31.49,81.55,31.5,81.52,31.5z
			"/>
		<path d="M91.6,26.18c0,2.61,0.01,5.23,0,7.84c-0.01,1.32-0.62,2.04-1.68,2c-1.01-0.03-1.58-0.72-1.58-1.97
			c-0.01-5.27-0.01-10.54,0-15.81c0-1.36,0.56-2,1.67-1.98c1.06,0.02,1.58,0.64,1.58,1.94C91.61,20.87,91.6,23.52,91.6,26.18z"/>
		<path d="M86.37,26.27c0,2.58,0.01,5.16,0,7.74c0,1.34-0.6,2.05-1.65,2.02c-0.99-0.03-1.6-0.75-1.6-1.98
			c-0.01-5.28-0.01-10.57,0-15.85c0-1.28,0.56-1.91,1.62-1.93c1.08-0.01,1.63,0.59,1.63,1.89C86.38,20.86,86.37,23.56,86.37,26.27z"
			/>
		<path class="st7" d="M109.16,30.04c0-1.33,0.01-2.65,0-3.98c-0.01-1.05,0.49-1.68,1.54-1.71c1.06-0.03,1.63,0.63,1.64,1.64
			c0.03,2.78,0.03,5.56,0,8.34c-0.01,1.01-0.59,1.68-1.63,1.66c-1.03-0.02-1.57-0.64-1.55-1.71
			C109.17,32.86,109.16,31.45,109.16,30.04z"/>
		<path class="st7" d="M110.79,22.47c-0.99,0.03-1.83-0.75-1.88-1.76c-0.05-1.13,0.67-1.93,1.77-1.96c1.03-0.03,1.85,0.72,1.92,1.73
			C112.66,21.5,111.82,22.43,110.79,22.47z"/>
	</g>
</g>
<g id="Lumix">
</g>
<g id="DJI">
</g>
<g id="Rode">
</g>
<g id="Zoom">
</g>
<g id="Neewer">
</g>
<g id="Sigma">
</g>
<g id="Sandisk">
</g>
<g id="Andoer">
</g>
<g id="adobe">
</g>
<g id="Samsung">
</g>
<g id="Xiaomi">
</g>
<g id="ESDDI">
</g>
<g id="Apple">
</g>
<g id="Calque_17">
</g>
<g id="Calque_18">
</g>
<g id="Calque_19">
</g>
<g id="Calque_20">
</g>
</svg>
