<?xml version="1.0" encoding="utf-8"?>
<!-- Generator: Adobe Illustrator 25.2.1, SVG Export Plug-In . SVG Version: 6.00 Build 0)  -->
<svg version="1.1" xmlns="http://www.w3.org/2000/svg" xmlns:xlink="http://www.w3.org/1999/xlink" x="0px" y="0px"
	 viewBox="0 0 160 60" style="enable-background:new 0 0 160 60;" xml:space="preserve">
<style type="text/css">
	.st0{fill:#A7423B;}
	.st1{fill:#DE6D36;}
	.st2{fill:#BA683D;}
	.st3{fill:#FAA619;}
	.st4{fill:#878787;}
	.st5{fill:#D1D3D4;}
	.st6{fill:#FFFFFF;}
	.st7{fill:#E30613;}
	.st8{fill:#1D1D1B;}
	.st9{fill:#B49759;}
	.st10{display:none;}
	.st11{fill:#BE1622;}
	.st12{fill:#034EA1;}
	.st13{fill:#EC671B;}
</style>
<g id="reperes">
</g>
<g id="blackmagic">
</g>
<g id="SmallRig">
</g>
<g id="Lumix">
</g>
<g id="DJI">
</g>
<g id="Rode">
</g>
<g id="Zoom">
	<g>
		<path d="M91.32,38.52c-2.76,0-5.53,0.03-8.29-0.03c-0.44-0.01-0.99-0.31-1.27-0.67c-1.09-1.36-2.09-2.79-3.11-4.2
			c-0.43-0.6-0.81-0.56-1.24,0.02c-1.09,1.48-2.19,2.96-3.31,4.41c-0.18,0.23-0.53,0.44-0.8,0.44c-5.71,0.03-11.42,0.05-17.13,0.01
			c-1.84-0.01-3.6-2.07-3.61-4.08c-0.02-2.81,0.02-5.63-0.01-8.44c-0.03-2.42,1.82-4.41,3.99-4.44c5.53-0.08,11.06-0.04,16.58,0
			c0.38,0,0.85,0.33,1.11,0.66c1.09,1.4,2.12,2.85,3.17,4.28c0.54,0.74,0.7,0.73,1.27-0.04c1.07-1.46,2.14-2.92,3.26-4.33
			c0.24-0.3,0.69-0.58,1.04-0.58c5.53-0.03,11.06-0.05,16.58,0c2.09,0.02,3.91,2,3.96,4.27c0.05,2.88,0.05,5.76,0,8.64
			c-0.04,2.28-1.84,4.08-3.98,4.08C96.78,38.52,94.05,38.51,91.32,38.52z M91.67,35.02c2.37,0,4.74,0,7.11,0
			c1.21,0,1.42-0.24,1.43-1.56c0-2.32,0-4.65,0-6.97c0-1.13-0.3-1.43-1.38-1.42c-3.89,0-7.78,0.17-11.66-0.05
			c-2.38-0.14-4.18,0.42-5.33,2.76c-0.04,0.08-0.1,0.18-0.18,0.22c-0.33,0.19-0.67,0.49-1.01,0.5c-1.76,0.05-3.52,0.06-5.28,0
			c-0.36-0.01-0.78-0.29-1.04-0.59c-0.62-0.71-1.13-1.54-1.75-2.26c-0.24-0.28-0.65-0.55-0.98-0.55c-4.8-0.04-9.6-0.04-14.4-0.02
			c-1.14,0-1.44,0.37-1.44,1.62c-0.01,2.23,0,4.45,0,6.68c0,1.37,0.26,1.65,1.57,1.65c4.68,0,9.36-0.01,14.03,0.02
			c0.65,0,1.12-0.19,1.42-0.8c1.11-2.23,2.79-2.78,5.13-2.82c2.49-0.04,4.26,0.6,5.44,2.95c0.29,0.58,0.74,0.67,1.3,0.66
			C86.99,35.01,89.33,35.02,91.67,35.02z"/>
		<path d="M50.32,38.46c-0.34,0.02-0.55,0.05-0.75,0.05c-6.96,0-13.91,0-20.87-0.01c-1.87,0-3.41-1.4-3.87-3.46
			c-0.45-2.07,0.39-4.22,1.97-5.13c1.68-0.97,3.54-0.75,5.33-0.98c3.43-0.44,6.87-0.77,10.3-1.14c1.14-0.12,2.3-0.19,3.43-0.36
			c1.09-0.16,1.51-0.61,1.4-1.39c-0.15-1.05-0.93-0.97-1.62-0.97c-5.53-0.01-11.06,0-16.59,0c-0.85,0-1.7,0-2.55,0
			c-0.21,0-0.5,0.07-0.62-0.05c-0.89-0.83-0.28-1.94-0.41-2.92c-0.1-0.71,0.49-0.61,0.89-0.61c6.02,0,12.03-0.02,18.05,0.01
			c1.29,0.01,2.63,0.01,3.85,0.38c2,0.61,3.02,2.64,2.8,4.99c-0.19,2.01-1.75,3.69-3.72,3.91c-2.53,0.29-5.06,0.54-7.6,0.8
			c-3.35,0.35-6.69,0.69-10.03,1.06c-0.66,0.07-1.29,0.39-1.22,1.27c0.06,0.84,0.6,1.1,1.34,1.1c6.47-0.01,12.94,0.01,19.41-0.03
			c0.87-0.01,1.21,0.24,1.11,1.2C50.26,36.92,50.32,37.64,50.32,38.46z"/>
		<path d="M135.16,38.51c-0.85,0-1.72,0.01-2.59,0c-0.63-0.01-0.51-0.51-0.51-0.92c0-3.53-0.01-7.07,0-10.6
			c0-1.71-0.19-1.92-1.78-1.92c-1.18,0-2.37,0.01-3.55,0.01c-1.54,0-1.7,0.18-1.71,1.87c-0.01,1.01-0.06,2.02-0.08,3.03
			c-0.04,1.93-2.02,3.99-4.16,3.88c-1.53-0.08-3.03-0.09-3.97-1.58c-0.48-0.77-0.79-1.74-0.95-2.66c-0.16-0.95-0.01-1.96-0.04-2.94
			c-0.04-1.32-0.32-1.6-1.54-1.61c-1.34-0.01-2.67-0.01-4.01,0c-1.32,0-1.48,0.18-1.48,1.57c0,3.53,0,7.07,0,10.6
			c0,1.28,0,1.28-1.14,1.27c-2.17-0.01-2.17-0.01-2.18-2.39c-0.01-3.21-0.01-6.41,0-9.62c0.01-3.1,1.77-5,4.64-5.01
			c1.49,0,2.98-0.01,4.47,0c2.66,0.01,4.42,1.92,4.43,4.8c0,0.79-0.03,1.57,0.01,2.36c0.05,1.04,0.65,1.71,1.43,1.68
			c0.69-0.03,1.29-0.78,1.32-1.71c0.03-0.88,0.01-1.77,0.01-2.65c0-2.4,1.74-4.39,3.99-4.45c1.85-0.06,3.71-0.06,5.56,0
			c2,0.06,3.89,2,3.92,4.14c0.06,4.16,0.02,8.31,0.01,12.47C135.27,38.22,135.22,38.31,135.16,38.51z"/>
	</g>
</g>
<g id="Neewer">
</g>
<g id="Sigma">
</g>
<g id="Sandisk">
</g>
<g id="Andoer">
</g>
<g id="adobe">
</g>
<g id="Samsung">
</g>
<g id="Xiaomi">
</g>
<g id="ESDDI">
</g>
<g id="Apple">
</g>
<g id="Calque_17">
</g>
<g id="Calque_18">
</g>
<g id="Calque_19">
</g>
<g id="Calque_20">
</g>
</svg>
