<svg xmlns="http://www.w3.org/2000/svg" viewBox="0 0 160 160"><defs><style>.cls-1{fill:#8ad2f6;}.cls-1,.cls-2{stroke:#1d1d1b;stroke-miterlimit:10;}.cls-2{fill:#fff;}</style></defs><g id="Calque_4" data-name="Calque 4"><circle class="cls-1" cx="80.11" cy="79.06" r="76"/><g id="_3" data-name="3"><path class="cls-2" d="M121.92,72.43,104,84.71a12.35,12.35,0,0,0-4.2-9.28A21.51,21.51,0,0,0,110,57.09c0-11.87-9.36-21.48-20.91-21.48s-20.9,9.61-20.9,21.48a21.67,21.67,0,0,0,6.3,15.34H63.52a18.53,18.53,0,0,0,4.65-12.27A18.18,18.18,0,0,0,50.25,41.74,18.18,18.18,0,0,0,32.33,60.16,18.5,18.5,0,0,0,38.55,74a12.27,12.27,0,0,0-6.22,10.71v24.55a12.12,12.12,0,0,0,12,12.28H92.06a12.12,12.12,0,0,0,12-12.28l17.91,12.28a6.06,6.06,0,0,0,6-6.14V78.57A6.06,6.06,0,0,0,121.92,72.43Zm-71.67,0a12.28,12.28,0,1,1,12-12.27A12.11,12.11,0,0,1,50.25,72.43Zm38.82,0a15.39,15.39,0,1,1,15-15.38A15.18,15.18,0,0,1,89.07,72.47Z"/></g></g></svg>