<svg xmlns="http://www.w3.org/2000/svg" viewBox="0 0 160 160"><defs><style>.cls-1{fill:#8ad2f6;}.cls-1,.cls-2{stroke:#1d1d1b;stroke-miterlimit:10;}.cls-2{fill:#fff;}</style></defs><g id="Calque_7" data-name="Calque 7"><circle class="cls-1" cx="80" cy="80" r="76"/><path class="cls-2" d="M74.06,109.6V62.23h8.42V49.6H59.33a2.11,2.11,0,0,0-2.11,2.1v8.42a2.12,2.12,0,0,0,2.11,2.11H69.85v8.41H65.64a2.11,2.11,0,0,0,0,4.21h4.21V109.6L41.19,132.12a2.1,2.1,0,0,0,2.6,3.31l10.14-8H69.85v6.32a2.11,2.11,0,0,0,4.21,0v-6.32H90l10.14,8a2.1,2.1,0,0,0,2.59-3.3ZM59.29,123.25,69.85,115v8.29Zm14.77,0V115l10.56,8.29Z"/><path class="cls-2" d="M108.2,23.89V86.26l5.21,2.95V20.94Z"/><path class="cls-2" d="M85.61,39.8V70.36A5.34,5.34,0,0,0,88.3,75l16.42,9.28V25.85L88.3,35.13A5.35,5.35,0,0,0,85.61,39.8Z"/></g></svg>