<svg xmlns="http://www.w3.org/2000/svg" viewBox="0 0 160 160"><defs><style>.cls-1{fill:#8ad2f6;}.cls-1,.cls-2{stroke:#1d1d1b;stroke-miterlimit:10;}.cls-2{fill:#fff;}</style></defs><g id="Calque_6" data-name="Calque 6"><circle class="cls-1" cx="80" cy="80" r="76"/><path class="cls-2" d="M111.77,83A2.91,2.91,0,1,0,106,83a25.76,25.76,0,0,1-51.52,0,2.91,2.91,0,1,0-5.81,0A31.6,31.6,0,0,0,77.29,114.4v7.82H66.52a2.91,2.91,0,1,0,0,5.81H93.88a2.91,2.91,0,0,0,0-5.81H83.1V114.4A31.61,31.61,0,0,0,111.77,83Z"/><path class="cls-2" d="M80.2,30.65A18.62,18.62,0,0,0,61.6,49.24V83a18.6,18.6,0,0,0,37.19,0V49.24A18.61,18.61,0,0,0,80.2,30.65ZM93,83a12.79,12.79,0,0,1-25.58,0V55.59H93Zm0-33.1H67.41v-.63a12.79,12.79,0,0,1,25.58,0Z"/></g></svg>