<svg xmlns="http://www.w3.org/2000/svg" viewBox="0 0 160 160"><defs><style>.cls-1{fill:#8ad2f6;}.cls-1,.cls-2{stroke:#1d1d1b;stroke-miterlimit:10;}.cls-2{fill:#fff;}</style></defs><g id="Calque_10" data-name="Calque 10"><circle class="cls-1" cx="80" cy="79.71" r="76"/><path class="cls-2" d="M47,81.19a2.26,2.26,0,0,0-2.28,2.28v38.71A2.27,2.27,0,0,0,47,124.47h66.33a2.28,2.28,0,0,0,2.29-2.29V37.82a2.28,2.28,0,0,0-2.29-2.29H64.68a2.42,2.42,0,0,0-1.68.71L45.32,53.92a2.39,2.39,0,0,0-.7,1.67V73a2.26,2.26,0,0,0,2.29,2.28h3v5.9Zm5.28-10.47h-3V56.56L65.56,40.28H111v79.79H49.28V85.94h3a2.28,2.28,0,0,0,2.29-2.29V73.09A2.19,2.19,0,0,0,52.27,70.72Z"/><path class="cls-2" d="M102.59,59.62c1.32,0,2.29-1.34,2.29-2.9V47.14c0-1.67-1.06-2.9-2.29-2.9s-2.29,1.34-2.29,2.9v9.58A2.58,2.58,0,0,0,102.59,59.62Z"/><path class="cls-2" d="M91.86,59.62c1.32,0,2.29-1.34,2.29-2.9V47.14c0-1.67-1.06-2.9-2.29-2.9s-2.29,1.34-2.29,2.9v9.58A2.58,2.58,0,0,0,91.86,59.62Z"/><path class="cls-2" d="M81,59.62c1.32,0,2.29-1.34,2.29-2.9V47.14c0-1.67-1.06-2.9-2.29-2.9s-2.29,1.34-2.29,2.9v9.58C78.75,58.28,79.81,59.62,81,59.62Z"/><path class="cls-2" d="M70.31,59.62c1.32,0,2.28-1.34,2.28-2.9V47.14c0-1.67-1-2.9-2.28-2.9S68,45.58,68,47.14v9.58C68,58.28,69,59.62,70.31,59.62Z"/></g></svg>