<svg xmlns="http://www.w3.org/2000/svg" viewBox="0 0 160 160"><defs><style>.cls-1{fill:#8ad2f6;}.cls-1,.cls-2{stroke:#1d1d1b;stroke-miterlimit:10;}.cls-2{fill:#fff;}</style></defs><g id="Calque_9" data-name="Calque 9"><circle class="cls-1" cx="80" cy="80" r="76"/><path class="cls-2" d="M113.64,122.69,89.14,59.15a2.57,2.57,0,0,0-2.4-1.48H82.52l.1-24.22a.08.08,0,0,1,.15,0L93.37,51a2.64,2.64,0,0,0,2.21,1.15,2.77,2.77,0,0,0,1.15-.25,2,2,0,0,0,1.06-3L88.16,33.34H91.8V29H67.91v4.39h9.71V57.67H73.39A2.57,2.57,0,0,0,71,59.15l-24.6,63.54c-.48,1.07.29,2.3,1.64,2.71a2.53,2.53,0,0,0,.77.09A2.58,2.58,0,0,0,51.2,124L62.63,94.38l14.89,4.94v24a2.53,2.53,0,0,0,5,0v-24l14.89-4.94L108.84,124a2.56,2.56,0,0,0,2.4,1.49,2,2,0,0,0,.77-.09A2.16,2.16,0,0,0,113.64,122.69ZM77.52,94.62,64.17,90.26,75.12,62h2.4Zm5.09,0V62H85L96,90.26Z"/></g></svg>