<svg xmlns="http://www.w3.org/2000/svg" viewBox="0 0 160 160"><defs><style>.cls-1{fill:#8ad2f6;}.cls-1,.cls-2{stroke:#1d1d1b;stroke-miterlimit:10;}.cls-2{fill:#fff;}</style></defs><g id="Calque_8" data-name="Calque 8"><circle class="cls-1" cx="80.5" cy="80.29" r="76"/><path class="cls-2" d="M65.66,112.24h-2.5A6.16,6.16,0,0,0,57,118.39v2a2.05,2.05,0,0,0,2.05,2h41a2,2,0,0,0,2-2v-2a6.15,6.15,0,0,0-6.14-6.15h-2.5l-1-4.09h24a6.14,6.14,0,0,0,6.14-6.14V46.72a6.15,6.15,0,0,0-6.14-6.14H42.69a6.16,6.16,0,0,0-6.15,6.14V102a6.15,6.15,0,0,0,6.15,6.14h24Zm-2.5,4.1H95.93a2.05,2.05,0,0,1,2,2H61.11A2.05,2.05,0,0,1,63.16,116.34Zm26.05-4.1H69.88l1-4.09H88.18ZM42.69,44.68H116.4a2,2,0,0,1,2,2V95.86H40.64V46.72a2,2,0,0,1,2-2ZM79.61,100h38.84V102a2.05,2.05,0,0,1-2,2H42.69a2.05,2.05,0,0,1-2-2h0V100H79.58m0,4.1"/></g></svg>