<svg xmlns="http://www.w3.org/2000/svg" viewBox="0 0 160 160"><defs><style>.cls-1{fill:#8ad2f6;}.cls-1,.cls-2{stroke:#1d1d1b;stroke-miterlimit:10;}.cls-2{fill:#fff;}</style></defs><g id="Calque_11" data-name="Calque 11"><circle class="cls-1" cx="79.5" cy="80" r="76"/><path class="cls-2" d="M45.51,108.34H43.27a5.51,5.51,0,0,0-5.51,5.51v1.84a1.83,1.83,0,0,0,1.84,1.83H76.31a1.83,1.83,0,0,0,1.84-1.83v-1.84a5.51,5.51,0,0,0-5.51-5.51H70.4l-.92-3.66H91a5.52,5.52,0,0,0,5.51-5.51V49.61A5.52,5.52,0,0,0,91,44.1H24.92a5.52,5.52,0,0,0-5.51,5.51V99.17a5.52,5.52,0,0,0,5.51,5.51H46.43ZM43.27,112H72.64a1.85,1.85,0,0,1,1.84,1.84H41.43A1.85,1.85,0,0,1,43.27,112Zm23.35-3.67H49.29l.92-3.66H65.7ZM24.92,47.78H91a1.83,1.83,0,0,1,1.84,1.83V93.66H23.08v-44a1.84,1.84,0,0,1,1.84-1.83ZM58,97.33H92.83v1.84A1.83,1.83,0,0,1,91,101H24.92a1.84,1.84,0,0,1-1.84-1.83h0V97.33H58M58,101"/><path class="cls-2" d="M133.26,44.1H107.55A5.52,5.52,0,0,0,102,49.61V112a5.51,5.51,0,0,0,5.51,5.51h25.71a5.52,5.52,0,0,0,5.51-5.51V49.61a5.52,5.52,0,0,0-5.51-5.51Zm-27.55,11h29.38V57H105.71Zm1.84-7.33h25.71a1.83,1.83,0,0,1,1.83,1.83v1.83H105.71V49.61A1.83,1.83,0,0,1,107.55,47.78Zm25.71,66.07H107.55a1.84,1.84,0,0,1-1.84-1.84V60.62h29.38V112A1.83,1.83,0,0,1,133.26,113.85Z"/><path class="cls-2" d="M120.4,82.66a5.51,5.51,0,1,0-5.51-5.51A5.52,5.52,0,0,0,120.4,82.66Zm0-7.35a1.84,1.84,0,1,1-1.83,1.84A1.84,1.84,0,0,1,120.4,75.31Z"/><path class="cls-2" d="M127.75,93.68H113.06a1.84,1.84,0,1,0,0,3.67h14.69a1.84,1.84,0,0,0,0-3.67Z"/><path class="cls-2" d="M127.75,99.19H113.06a1.84,1.84,0,1,0,0,3.67h14.69a1.84,1.84,0,0,0,0-3.67Z"/><path class="cls-2" d="M127.75,104.7H113.06a1.84,1.84,0,1,0,0,3.67h14.69a1.84,1.84,0,0,0,0-3.67Z"/></g></svg>