<svg xmlns="http://www.w3.org/2000/svg" viewBox="0 0 160 160"><defs><style>.cls-1{fill:#8ad2f6;}.cls-1,.cls-2{stroke:#1d1d1b;stroke-miterlimit:10;}.cls-2{fill:#fff;}</style></defs><g id="Calque_3" data-name="Calque 3"><circle class="cls-1" cx="79" cy="80.2" r="76"/><path class="cls-2" d="M65.23,111.93H62.66a6.33,6.33,0,0,0-6.32,6.32v2.11a2.1,2.1,0,0,0,2.11,2.1h42.1a2.1,2.1,0,0,0,2.11-2.1v-2.11a6.33,6.33,0,0,0-6.32-6.32H93.77l-1-4.2h24.66a6.33,6.33,0,0,0,6.32-6.32V44.59a6.32,6.32,0,0,0-6.32-6.32H41.62a6.32,6.32,0,0,0-6.32,6.32v56.82a6.33,6.33,0,0,0,6.32,6.32H66.28Zm-2.57,4.21H96.34a2.12,2.12,0,0,1,2.11,2.11H60.55A2.12,2.12,0,0,1,62.66,116.14Zm26.77-4.21H69.57l1.05-4.2H88.38ZM41.62,42.48h75.76a2.1,2.1,0,0,1,2.11,2.11v50.5h-80V44.59a2.1,2.1,0,0,1,2.11-2.11Zm-2.11,58.93V99.3h40a2.11,2.11,0,1,0,2.13,2.11,2.1,2.1,0,0,0-2.13-2.11h39.93v2.11a2.11,2.11,0,0,1-2.11,2.11H41.62a2.11,2.11,0,0,1-2.11-2.11Z"/></g></svg>