<svg xmlns="http://www.w3.org/2000/svg" viewBox="0 0 160 160"><defs><style>.cls-1{fill:#8ad2f6;}.cls-1,.cls-2{stroke:#1d1d1b;stroke-miterlimit:10;}.cls-2{fill:#fff;}</style></defs><g id="Calque_2" data-name="Calque 2"><circle class="cls-1" cx="80" cy="80.36" r="76"/><g id="_3" data-name="3"><path class="cls-2" d="M121.81,70.73,103.89,83a12.35,12.35,0,0,0-4.2-9.28,21.5,21.5,0,0,0,10.17-18.34c0-11.87-9.36-21.48-20.9-21.48S68.05,43.52,68.05,55.39a21.68,21.68,0,0,0,6.31,15.34h-11a18.48,18.48,0,0,0,4.65-12.27A18.17,18.17,0,0,0,50.14,40,18.18,18.18,0,0,0,32.22,58.46,18.5,18.5,0,0,0,38.44,72.3,12.28,12.28,0,0,0,32.22,83v24.55a12.12,12.12,0,0,0,11.94,12.28H92a12.12,12.12,0,0,0,11.94-12.28l17.92,12.28a6.06,6.06,0,0,0,6-6.14V76.87A6.06,6.06,0,0,0,121.81,70.73Zm-71.67,0A12.28,12.28,0,1,1,62.08,58.46,12.11,12.11,0,0,1,50.14,70.73Zm38.82,0a15.39,15.39,0,1,1,15-15.38A15.18,15.18,0,0,1,89,70.77Z"/></g></g></svg>