<svg id="Calque_1" data-name="Calque 1" xmlns="http://www.w3.org/2000/svg" viewBox="0 0 160 160"><defs><style>.cls-1{fill:#8ad2f6;}.cls-1,.cls-2{stroke:#1d1d1b;stroke-miterlimit:10;}.cls-2{fill:#fff;}</style></defs><circle class="cls-1" cx="78.54" cy="79.71" r="76"/><path class="cls-2" d="M86.77,80.74H40.71a6.89,6.89,0,0,0-6.88,6.88v18.52A6.89,6.89,0,0,0,40.71,113h2.45v6.89a2.3,2.3,0,0,0,3.92,1.62L55.59,113H86.77a6.89,6.89,0,0,0,6.89-6.88V87.62A6.89,6.89,0,0,0,86.77,80.74Zm2.3,25.4a2.3,2.3,0,0,1-2.3,2.29H54.64a2.29,2.29,0,0,0-1.62.68l-5.27,5.26v-3.64a2.29,2.29,0,0,0-2.29-2.3H40.71a2.3,2.3,0,0,1-2.29-2.29V87.62a2.3,2.3,0,0,1,2.29-2.29H86.77a2.3,2.3,0,0,1,2.3,2.29Z"/><path class="cls-2" d="M118.29,38.86H72.23a6.9,6.9,0,0,0-6.89,6.89V64.26a6.9,6.9,0,0,0,6.89,6.89h31.18l8.51,8.51A2.3,2.3,0,0,0,115.84,78V71.15h2.45a6.89,6.89,0,0,0,6.88-6.89V45.75a6.89,6.89,0,0,0-6.88-6.89Zm2.29,25.4a2.3,2.3,0,0,1-2.29,2.3h-4.75a2.29,2.29,0,0,0-2.29,2.29v3.64L106,67.23a2.29,2.29,0,0,0-1.62-.67H72.23a2.3,2.3,0,0,1-2.3-2.3V45.75a2.3,2.3,0,0,1,2.3-2.3h46.06a2.3,2.3,0,0,1,2.29,2.3Z"/><path class="cls-2" d="M109,48H81.41a2.3,2.3,0,1,0,0,4.59H109A2.3,2.3,0,1,0,109,48Z"/><path class="cls-2" d="M104.36,57.38H86A2.3,2.3,0,1,0,86,62h18.36a2.3,2.3,0,1,0,0-4.59Z"/><circle class="cls-2" cx="54.64" cy="96.8" r="2.3"/><circle class="cls-2" cx="63.82" cy="96.8" r="2.3"/><circle class="cls-2" cx="73" cy="96.8" r="2.3"/></svg>