<?xml version="1.0" encoding="utf-8"?>
<!-- Generator: Adobe Illustrator 25.1.0, SVG Export Plug-In . SVG Version: 6.00 Build 0)  -->
<svg version="1.1" id="Calque_1" xmlns="http://www.w3.org/2000/svg" xmlns:xlink="http://www.w3.org/1999/xlink" x="0px" y="0px"
	 viewBox="0 0 82 82" style="enable-background:new 0 0 82 82;" xml:space="preserve">
<style type="text/css">
	.st0{fill:#FFFFFF;}
</style>
<g id="Layer_2">
	<g id="Icons">
		<path class="st0" d="M52,23H30c-3.9,0-7,3.1-7,7v22c0,3.9,3.1,7,7,7h22c3.9,0,7-3.1,7-7V30C59,26.1,55.9,23,52,23z M54,27.1h0.8
			v6.1h-6.1v-6.1H54z M35.9,37.3c2-2.8,6-3.5,8.8-1.4c2.8,2,3.5,6,1.4,8.8c-2,2.8-6,3.5-8.8,1.4c-1.6-1.2-2.6-3.1-2.6-5.1
			C34.7,39.7,35.1,38.4,35.9,37.3z M55.5,52c0,1.9-1.5,3.5-3.4,3.5c0,0-0.1,0-0.1,0H30c-1.9,0-3.5-1.5-3.5-3.4c0,0,0,0,0-0.1V37.3
			h5.4c-2,5,0.4,10.8,5.4,12.8s10.8-0.4,12.8-5.4c1-2.4,1-5,0-7.4h5.4V52z"/>
	</g>
</g>
</svg>
