<?xml version="1.0" encoding="utf-8"?>
<!-- Generator: Adobe Illustrator 25.1.0, SVG Export Plug-In . SVG Version: 6.00 Build 0)  -->
<svg version="1.1" id="Calque_1" xmlns="http://www.w3.org/2000/svg" xmlns:xlink="http://www.w3.org/1999/xlink" x="0px" y="0px"
	 viewBox="0 0 82 82" style="enable-background:new 0 0 82 82;" xml:space="preserve">
<style type="text/css">
	.st0{fill:#FFFFFF;}
</style>
<g id="Layer_2">
	<g id="Icons">
		<path class="st0" d="M30.9,55.9h-7V33.4h7V55.9z M27.2,30.6L27.2,30.6C25,30.8,23.2,29.2,23,27c0-0.1,0-0.2,0-0.3
			c0-2.2,1.7-3.9,4.3-3.9c2.2-0.2,4,1.4,4.2,3.6c0,0.1,0,0.2,0,0.3C31.5,28.9,29.9,30.6,27.2,30.6z M59,55.9h-8V44.3
			c0-3-1.2-5.1-4-5.1c-1.7,0-3.3,1.1-3.8,2.8C43,42.5,43,43.1,43,43.7v12.2h-7.8c0,0,0.1-20.6,0-22.5h7.9V37c0.5-1.5,3-3.7,7-3.7
			c5,0,8.9,3.2,8.9,10.2V55.9z"/>
	</g>
</g>
</svg>
