<?xml version="1.0" encoding="utf-8"?>
<!-- Generator: Adobe Illustrator 25.2.1, SVG Export Plug-In . SVG Version: 6.00 Build 0)  -->
<svg version="1.1" xmlns="http://www.w3.org/2000/svg" xmlns:xlink="http://www.w3.org/1999/xlink" x="0px" y="0px"
	 viewBox="0 0 160 60" style="enable-background:new 0 0 160 60;" xml:space="preserve">
<style type="text/css">
	.st0{fill:#A7423B;}
	.st1{fill:#DE6D36;}
	.st2{fill:#BA683D;}
	.st3{fill:#FAA619;}
	.st4{fill:#878787;}
	.st5{fill:#D1D3D4;}
	.st6{fill:#FFFFFF;}
	.st7{fill:#E30613;}
	.st8{fill:#1D1D1B;}
	.st9{fill:#B49759;}
	.st10{display:none;}
	.st11{fill:#BE1622;}
	.st12{fill:#034EA1;}
	.st13{fill:#EC671B;}
</style>
<g id="reperes">
</g>
<g id="blackmagic">
</g>
<g id="SmallRig">
</g>
<g id="Lumix">
</g>
<g id="DJI">
</g>
<g id="Rode">
</g>
<g id="Zoom">
</g>
<g id="Neewer">
	<g>
		<path class="st10" d="M140.02,24.65c-2.05,0-3.79-1.72-3.79-3.74c0-2.05,1.72-3.74,3.79-3.73c2.03,0,3.81,1.75,3.82,3.73
			C143.85,22.87,142.03,24.65,140.02,24.65z M143.4,20.97c-0.02-2-1.43-3.44-3.38-3.44c-1.89,0-3.5,1.57-3.49,3.41
			c0.01,1.75,1.66,3.33,3.47,3.32C141.97,24.25,143.42,22.85,143.4,20.97z"/>
	</g>
	<g>
		<path d="M95.47,34.86c0.19-0.64,0.4-1.28,0.58-1.92c1.04-3.76,2.11-7.52,3.1-11.3c0.23-0.87,0.61-1.18,1.49-1.1
			c0.83,0.07,1.68,0.02,2.65,0.02c-0.47,1.63-0.87,3.13-1.33,4.61c-1.34,4.43-2.72,8.85-4.04,13.29c-0.24,0.8-0.6,1.11-1.44,1.04
			c-1.2-0.1-2.76,0.35-3.51-0.25c-0.81-0.65-0.91-2.22-1.25-3.41c-0.93-3.21-1.83-6.43-2.76-9.64c-0.06-0.21-0.2-0.39-0.46-0.89
			c-0.36,1.4-0.65,2.5-0.92,3.61c-0.81,3.28-1.6,6.57-2.46,9.84c-0.08,0.29-0.55,0.63-0.88,0.68c-0.67,0.11-1.37,0.03-2.05,0.03
			c-1.98,0-1.97,0-2.57-1.82c-1.75-5.27-3.51-10.54-5.27-15.82c-0.12-0.37-0.23-0.75-0.39-1.28c1.29,0,2.45-0.07,3.59,0.05
			c0.3,0.03,0.66,0.61,0.78,1c1.23,4.04,2.41,8.1,3.62,12.15c0.11,0.36,0.26,0.71,0.69,1.08c0.13-0.38,0.28-0.76,0.38-1.16
			c1.01-4.02,2.04-8.04,2.99-12.07c0.2-0.84,0.54-1.08,1.38-1.08c3.54,0,3.53-0.02,4.5,3.37c0.97,3.37,1.96,6.73,2.94,10.09
			c0.09,0.29,0.21,0.58,0.32,0.87C95.24,34.85,95.35,34.85,95.47,34.86z"/>
		<path d="M35.81,39.47c-1.36,0-2.62,0.09-3.85-0.05c-0.42-0.05-0.91-0.58-1.16-1.01c-2.33-4.04-4.62-8.12-6.93-12.18
			c-0.15-0.27-0.33-0.52-0.72-0.74c0,4.61,0,9.22,0,13.9c-1.3,0-2.53,0-3.82,0c0-6.26,0-12.45,0-18.84c1.52,0,3.04-0.05,4.55,0.04
			c0.31,0.02,0.66,0.52,0.86,0.88c2.19,3.85,4.36,7.71,6.53,11.57c0.18,0.33,0.4,0.63,0.84,0.87c0-4.39,0-8.79,0-13.27
			c1.2,0,2.39,0,3.67,0C35.81,26.88,35.81,33.09,35.81,39.47z"/>
		<path d="M123.59,20.68c3.89,0,7.72-0.15,11.53,0.05c2.91,0.15,4.34,1.76,4.64,4.49c0.37,3.28-0.67,5.18-3.41,6.27
			c-0.07,0.03-0.12,0.1-0.33,0.28c1.49,2.49,3,5.01,4.62,7.72c-1.41,0-2.65,0.04-3.88-0.03c-0.26-0.01-0.57-0.37-0.73-0.65
			c-1.16-1.98-2.25-4-3.45-5.95c-0.24-0.38-0.83-0.7-1.3-0.76c-0.91-0.12-1.85,0.02-2.78-0.05c-0.92-0.07-1.29,0.2-1.25,1.2
			c0.08,2.01,0.02,4.02,0.02,6.13c-1.25,0-2.43,0-3.71,0C123.59,33.18,123.59,26.96,123.59,20.68z M130.74,23.69
			c0,0.04-0.01,0.07-0.01,0.11c-0.85,0-1.69,0.02-2.54-0.01c-0.6-0.02-0.9,0.18-0.89,0.82c0.03,1.13-0.03,2.26,0.04,3.38
			c0.02,0.29,0.39,0.8,0.6,0.8c2.13-0.02,4.27-0.04,6.39-0.24c1.14-0.11,1.66-1.04,1.65-2.31c-0.01-1.14-0.45-1.99-1.65-2.18
			C133.14,23.88,131.93,23.81,130.74,23.69z"/>
		<path d="M119.64,36.42c0,1.09,0,1.99,0,3.19c-3.32-0.15-6.59-0.09-9.8-0.52c-2.71-0.36-4.35-2.34-5.08-4.94
			c-0.84-2.99-0.7-5.99,0.31-8.92c0.82-2.35,2.52-3.96,4.98-4.27c3.14-0.39,6.32-0.4,9.57-0.58c0,1.24,0,2.18,0,3.32
			c-1.12,0-2.23,0-3.34,0c-1.21,0-2.42-0.04-3.63,0.04c-2.54,0.17-3.97,1.8-3.91,4.56c3.59,0,7.19,0,10.87,0c0,1.11,0,2.05,0,3.15
			c-0.4,0.02-0.82,0.06-1.25,0.06c-2.86,0.01-5.73,0.04-8.59-0.02c-1.02-0.02-1.25,0.34-1.12,1.28c0.31,2.23,1.49,3.44,3.85,3.58
			c1.85,0.11,3.71,0.05,5.56,0.06C118.55,36.43,119.03,36.42,119.64,36.42z"/>
		<path d="M72.19,20.41c0.23,3.31,0.23,3.3-2.65,3.31c-1.57,0-3.15-0.07-4.71,0.09c-2.3,0.23-3.64,2.01-3.49,4.54
			c3.59,0,7.19,0,10.87,0c0,1.1,0,2.05,0,3.12c-0.44,0.02-0.87,0.06-1.3,0.06c-2.9,0-5.81,0.02-8.71-0.01
			c-0.79-0.01-1.06,0.24-0.99,1.06c0.19,2.13,1.29,3.48,3.43,3.71c1.76,0.19,3.54,0.11,5.31,0.14c0.72,0.01,1.44,0,2.24,0
			c0,1.02,0,1.92,0,2.93c-0.27,0.04-0.58,0.11-0.88,0.11c-2.1,0.01-4.2,0.03-6.29-0.01c-4.88-0.1-7.62-2.48-8.05-7.34
			c-0.18-2.04,0.1-4.18,0.52-6.21c0.58-2.78,2.49-4.61,5.29-4.97C65.86,20.54,69,20.57,72.19,20.41z"/>
		<path d="M43.32,31.56c-0.32,2.95,1.05,4.67,3.87,4.81c2.29,0.11,4.58,0.02,6.97,0.02c0,1.06,0,2,0,3.21
			c-3.22-0.14-6.46-0.06-9.63-0.47c-3-0.39-4.66-2.6-5.33-5.43c-0.63-2.67-0.53-5.36,0.29-8c0.83-2.67,2.62-4.45,5.37-4.78
			c3.06-0.37,6.16-0.35,9.32-0.5c0,1.21,0,2.16,0,3.3c-1.18,0-2.38-0.01-3.57,0c-1.33,0.02-2.67-0.05-3.99,0.12
			c-2.19,0.27-3.55,2.2-3.25,4.52c3.56,0,7.14,0,10.79,0c0,1.09,0,2.07,0,3.2C50.51,31.56,46.9,31.56,43.32,31.56z"/>
	</g>
</g>
<g id="Sigma">
</g>
<g id="Sandisk">
</g>
<g id="Andoer">
</g>
<g id="adobe">
</g>
<g id="Samsung">
</g>
<g id="Xiaomi">
</g>
<g id="ESDDI">
</g>
<g id="Apple">
</g>
<g id="Calque_17">
</g>
<g id="Calque_18">
</g>
<g id="Calque_19">
</g>
<g id="Calque_20">
</g>
</svg>
