<?xml version="1.0" encoding="utf-8"?>
<!-- Generator: Adobe Illustrator 25.2.3, SVG Export Plug-In . SVG Version: 6.00 Build 0)  -->
<svg version="1.1" xmlns="http://www.w3.org/2000/svg" xmlns:xlink="http://www.w3.org/1999/xlink" x="0px" y="0px"
	 viewBox="0 0 160 60" style="enable-background:new 0 0 160 60;" xml:space="preserve">
<style type="text/css">
	.st0{fill:#A7423B;}
	.st1{fill:#DE6D36;}
	.st2{fill:#BA683D;}
	.st3{fill:#FAA619;}
	.st4{fill:#878787;}
	.st5{fill:#D1D3D4;}
	.st6{fill:#FFFFFF;}
	.st7{fill:#E30613;}
	.st8{fill:#1D1D1B;}
	.st9{fill:#B49759;}
	.st10{display:none;}
	.st11{fill:#BE1622;}
	.st12{fill:#034EA1;}
	.st13{fill:#EC671B;}
	.st14{fill:#00AEEF;}
	.st15{fill:#EB3C00;}
</style>
<g id="reperes">
</g>
<g id="blackmagic">
</g>
<g id="SmallRig">
</g>
<g id="Lumix">
</g>
<g id="DJI">
</g>
<g id="Rode">
</g>
<g id="Zoom">
</g>
<g id="Panasonic">
</g>
<g id="Sigma">
</g>
<g id="Sandisk">
</g>
<g id="Andoer">
</g>
<g id="adobe">
</g>
<g id="Samsung">
</g>
<g id="Xiaomi">
</g>
<g id="ESDDI">
</g>
<g id="Apple">
</g>
<g id="Windows_10">
</g>
<g id="office">
	<path class="st15" d="M29.79,38.82V19.56l17.04-6.3l9.26,2.96v25.93l-9.26,2.79L29.79,38.82l17.04,2.05V18.45l-11.11,2.59v15.19
		L29.79,38.82z M74.25,38.96c-2.68,0-4.83-0.88-6.44-2.65c-1.61-1.77-2.42-4.07-2.42-6.9c0-3.04,0.82-5.47,2.47-7.28
		c1.64-1.81,3.88-2.72,6.72-2.72c2.61,0,4.72,0.88,6.31,2.64c1.6,1.76,2.39,4.06,2.39,6.9c0,3.09-0.82,5.53-2.45,7.32
		C79.18,38.06,76.99,38.96,74.25,38.96L74.25,38.96z M74.4,21.41c-1.99,0-3.6,0.72-4.84,2.15c-1.24,1.43-1.86,3.32-1.86,5.65
		c0,2.33,0.6,4.21,1.81,5.63c1.21,1.42,2.79,2.13,4.73,2.13c2.08,0,3.71-0.68,4.91-2.03c1.2-1.35,1.79-3.25,1.79-5.69
		c0-2.5-0.58-4.43-1.74-5.79C78.05,22.09,76.44,21.41,74.4,21.41L74.4,21.41z M91.15,18.35c-1.22,0-2.24,0.42-3.06,1.24
		c-0.82,0.82-1.23,1.94-1.23,3.36v2.19h-2.3v1.85h2.3v11.66h2.15V26.99h5.27v11.66h2.15V26.99h3.16v-1.85h-3.16v-2.08
		c0-1.91,0.76-2.86,2.27-2.86c0.54,0,1.01,0.11,1.44,0.35v-1.94c-0.39-0.16-0.9-0.24-1.56-0.24c-1.22,0-2.25,0.42-3.07,1.24
		c-0.82,0.82-1.23,1.94-1.23,3.36v2.19h-5.27v-2.08c0-1.91,0.76-2.86,2.27-2.86c0.54,0,1.01,0.11,1.44,0.35v-1.94
		C92.34,18.44,91.81,18.35,91.15,18.35L91.15,18.35z M102.75,21.7c-0.39,0-0.72-0.13-0.99-0.4c-0.27-0.26-0.41-0.6-0.41-1
		c0-0.4,0.14-0.74,0.41-1.01s0.6-0.4,0.99-0.4c0.4,0,0.73,0.13,1.01,0.4c0.28,0.27,0.42,0.6,0.42,1.01c0,0.39-0.14,0.72-0.42,0.99
		C103.48,21.56,103.15,21.7,102.75,21.7L102.75,21.7z M103.81,38.64h-2.16V25.13h2.16V38.64z M116.1,38.02
		c-1.04,0.62-2.27,0.94-3.69,0.94c-1.93,0-3.48-0.63-4.66-1.88c-1.18-1.25-1.77-2.88-1.77-4.87c0-2.23,0.64-4.01,1.91-5.36
		c1.28-1.35,2.98-2.03,5.11-2.03c1.19,0,2.23,0.22,3.14,0.66v2.22c-1-0.7-2.08-1.06-3.22-1.06c-1.38,0-2.51,0.49-3.4,1.48
		c-0.88,0.99-1.33,2.29-1.33,3.9c0,1.58,0.42,2.83,1.25,3.75c0.83,0.91,1.95,1.37,3.34,1.37c1.18,0,2.29-0.39,3.32-1.17L116.1,38.02
		z M129.32,32.43h-9.54c0.04,1.5,0.44,2.66,1.21,3.48c0.77,0.82,1.84,1.23,3.19,1.23c1.52,0,2.92-0.5,4.2-1.5v2.03
		c-1.19,0.86-2.76,1.29-4.71,1.29c-1.91,0-3.41-0.61-4.5-1.84c-1.09-1.23-1.64-2.95-1.64-5.18c0-2.1,0.6-3.81,1.79-5.14
		c1.19-1.32,2.67-1.99,4.44-1.99c1.77,0,3.14,0.57,4.1,1.72c0.97,1.14,1.45,2.73,1.45,4.76L129.32,32.43z M127.11,30.59
		c-0.01-1.25-0.31-2.22-0.9-2.92c-0.59-0.69-1.42-1.04-2.47-1.04c-1.02,0-1.89,0.37-2.6,1.09c-0.71,0.73-1.15,1.68-1.32,2.86
		L127.11,30.59z"/>
</g>
<g id="Calque_19">
</g>
<g id="Calque_20">
</g>
</svg>
