<?xml version="1.0" encoding="utf-8"?>
<!-- Generator: Adobe Illustrator 25.2.1, SVG Export Plug-In . SVG Version: 6.00 Build 0)  -->
<svg version="1.1" xmlns="http://www.w3.org/2000/svg" xmlns:xlink="http://www.w3.org/1999/xlink" x="0px" y="0px"
	 viewBox="0 0 160 60" style="enable-background:new 0 0 160 60;" xml:space="preserve">
<style type="text/css">
	.st0{fill:#A7423B;}
	.st1{fill:#DE6D36;}
	.st2{fill:#BA683D;}
	.st3{fill:#FAA619;}
	.st4{fill:#878787;}
	.st5{fill:#D1D3D4;}
	.st6{fill:#FFFFFF;}
	.st7{fill:#E30613;}
	.st8{fill:#1D1D1B;}
	.st9{fill:#B49759;}
	.st10{display:none;}
	.st11{fill:#BE1622;}
	.st12{fill:#034EA1;}
	.st13{fill:#EC671B;}
</style>
<g id="reperes">
</g>
<g id="blackmagic">
</g>
<g id="SmallRig">
</g>
<g id="Lumix">
</g>
<g id="DJI">
</g>
<g id="Rode">
</g>
<g id="Zoom">
</g>
<g id="Panasonic">
</g>
<g id="Sigma">
	<g>
		<path d="M87.24,21.48c0.55,0,1.06,0,1.58,0c1.09,0,2.19,0.01,3.28-0.01c0.33-0.01,0.46,0.08,0.55,0.41
			c0.94,3.34,1.91,6.68,2.87,10.02c0.03,0.1,0.06,0.2,0.13,0.39c0.1-0.33,0.18-0.56,0.25-0.8c0.92-3.23,1.85-6.46,2.77-9.69
			c0.05-0.18,0.08-0.34,0.35-0.34c1.65,0.01,3.29,0.01,4.94,0.01c0.05,0,0.09,0.01,0.18,0.02c1,6.25,2,12.51,3.01,18.8
			c-1.4,0-2.75,0-4.12,0c-0.62-4.55-1.24-9.1-1.86-13.65c-0.03,0-0.07,0-0.1,0c-1.23,4.55-2.47,9.09-3.71,13.65
			c-1.13,0-2.26,0-3.41,0c-1.24-4.56-2.48-9.11-3.71-13.67c-0.03,0-0.06,0-0.09,0c-0.67,4.55-1.34,9.09-2.02,13.66
			c-1.3,0-2.6,0-3.96,0C85.17,34.04,86.2,27.78,87.24,21.48z"/>
		<path d="M71.4,29.46c3.69,0,7.32,0,10.95,0c0.02,0.04,0.04,0.08,0.04,0.11c0.06,1.79,0.04,3.58-0.23,5.36
			c-0.43,2.8-2.05,4.6-4.7,5.47c-3.37,1.1-6.77,1.2-10.13-0.02c-3.41-1.24-5.34-3.74-5.85-7.31c-0.28-1.94-0.27-3.89,0.32-5.78
			c1.08-3.44,3.46-5.52,6.98-6.28c4.17-0.9,8.19-0.37,12.09,1.29c0.05,0.02,0.11,0.05,0.16,0.08c0.03,0.02,0.06,0.04,0.12,0.08
			c-0.31,1.07-0.63,2.14-0.95,3.24c-0.63-0.21-1.23-0.44-1.84-0.62c-1.92-0.58-3.87-1.01-5.89-0.86c-0.83,0.06-1.67,0.13-2.47,0.35
			c-2.38,0.66-3.83,2.22-4.23,4.69c-0.25,1.54-0.21,3.06,0.33,4.54c0.81,2.25,2.47,3.45,4.81,3.71c1.27,0.14,2.55,0.15,3.83-0.05
			c1.95-0.3,2.92-1.45,3.25-3.4c0.05-0.31,0.04-0.63,0.07-0.94c0.02-0.29-0.1-0.38-0.39-0.38c-1.82,0.01-3.64,0.01-5.47,0.01
			c-0.79,0-0.79,0-0.79-0.8C71.4,31.13,71.4,30.31,71.4,29.46z"/>
		<path d="M34.39,35.98c1.5,0.61,3.02,1.04,4.59,1.3c2.02,0.33,4.04,0.5,6.05,0.02c0.52-0.12,1.03-0.33,1.49-0.6
			c0.73-0.42,1.03-1.1,0.89-1.94c-0.14-0.87-0.68-1.49-1.54-1.61c-1.25-0.19-2.51-0.3-3.78-0.43c-1.86-0.18-3.72-0.36-5.51-0.92
			c-1.84-0.57-2.84-1.91-3.17-3.73c-0.59-3.24,1.06-5.8,4.35-6.85c2-0.64,4.06-0.81,6.16-0.68c2.06,0.12,4.08,0.44,6.04,1.09
			c0.37,0.12,0.73,0.26,1.08,0.42c0.07,0.03,0.16,0.18,0.14,0.25c-0.27,1.08-0.55,2.15-0.82,3.21c-0.84-0.26-1.65-0.56-2.49-0.77
			c-2.4-0.6-4.84-0.81-7.3-0.44c-0.65,0.1-1.3,0.32-1.9,0.58c-0.78,0.35-1.09,1.03-0.99,1.88c0.1,0.79,0.56,1.32,1.31,1.48
			c1.01,0.21,2.04,0.31,3.06,0.42c1.77,0.2,3.55,0.34,5.32,0.58c1.01,0.14,1.94,0.55,2.73,1.22c1.05,0.88,1.54,2.04,1.72,3.36
			c0.29,2.16-0.23,4.05-2.05,5.39c-0.65,0.48-1.41,0.84-2.15,1.18c-1.3,0.6-2.71,0.76-4.12,0.84c-3.27,0.18-6.43-0.39-9.5-1.46
			c-0.3-0.1-0.36-0.24-0.29-0.54c0.22-0.99,0.41-1.99,0.61-2.99C34.34,36.16,34.36,36.09,34.39,35.98z"/>
		<path d="M128.61,40.32c-1.39,0-2.73,0.01-4.07-0.01c-0.1,0-0.26-0.14-0.3-0.25c-0.4-1.02-0.8-2.05-1.17-3.08
			c-0.09-0.26-0.22-0.32-0.49-0.32c-2.9,0.01-5.81,0.01-8.71,0c-0.29,0-0.41,0.1-0.5,0.36c-0.39,1.02-0.8,2.03-1.22,3.03
			c-0.05,0.11-0.19,0.27-0.29,0.27c-1.29,0.02-2.58,0.01-3.93,0.01c0.06-0.16,0.11-0.29,0.16-0.42c2.45-6.05,4.9-12.11,7.34-18.16
			c0.1-0.26,0.23-0.35,0.51-0.35c1.66,0.01,3.31,0.01,4.97,0c0.29,0,0.41,0.09,0.51,0.35c2.34,6.06,4.69,12.11,7.04,18.17
			C128.51,40.03,128.55,40.15,128.61,40.32z M121.64,33.26c-1.1-2.87-2.18-5.69-3.29-8.6c-1.2,2.92-2.36,5.74-3.53,8.6
			C117.11,33.26,119.34,33.26,121.64,33.26z"/>
		<path d="M54.67,21.42c1.31,0,2.6,0,3.92,0c0,6.3,0,12.59,0,18.89c-1.31,0-2.6,0-3.92,0C54.67,34.02,54.67,27.74,54.67,21.42z"/>
	</g>
</g>
<g id="Sandisk">
</g>
<g id="Andoer">
</g>
<g id="adobe">
</g>
<g id="Samsung">
</g>
<g id="Xiaomi">
</g>
<g id="ESDDI">
</g>
<g id="Apple">
</g>
<g id="Calque_17">
</g>
<g id="Calque_18">
</g>
<g id="Calque_19">
</g>
<g id="Calque_20">
</g>
</svg>
