<?xml version="1.0" encoding="utf-8"?>
<!-- Generator: Adobe Illustrator 25.2.1, SVG Export Plug-In . SVG Version: 6.00 Build 0)  -->
<svg version="1.1" xmlns="http://www.w3.org/2000/svg" xmlns:xlink="http://www.w3.org/1999/xlink" x="0px" y="0px"
	 viewBox="0 0 160 60" style="enable-background:new 0 0 160 60;" xml:space="preserve">
<style type="text/css">
	.st0{fill:#A7423B;}
	.st1{fill:#DE6D36;}
	.st2{fill:#BA683D;}
	.st3{fill:#FAA619;}
	.st4{fill:#878787;}
	.st5{fill:#D1D3D4;}
	.st6{fill:#FFFFFF;}
	.st7{fill:#E30613;}
	.st8{fill:#1D1D1B;}
	.st9{fill:#B49759;}
	.st10{display:none;}
	.st11{fill:#BE1622;}
	.st12{fill:#034EA1;}
	.st13{fill:#EC671B;}
</style>
<g id="reperes">
</g>
<g id="blackmagic">
</g>
<g id="SmallRig">
</g>
<g id="Lumix">
</g>
<g id="DJI">
</g>
<g id="Rode">
</g>
<g id="Zoom">
</g>
<g id="Panasonic">
</g>
<g id="Sigma">
</g>
<g id="Sandisk">
	<g>
		<path class="st11" d="M58.38,40.8c-0.17,0.47-0.3,0.9-0.48,1.3c-0.05,0.11-0.24,0.21-0.37,0.21c-1.04,0.02-2.07,0.02-3.11,0
			c-0.66-0.01-1.13-0.36-1.43-0.94c-0.14-0.27-0.24-0.56-0.39-0.93c-0.25,0.27-0.44,0.54-0.69,0.73c-1.94,1.48-4.08,1.81-6.31,0.86
			c-2.03-0.87-2.68-2.64-2.65-4.72c0.03-1.9,1.08-3.1,2.76-3.8c1.87-0.78,3.85-0.84,5.84-0.8c0.23,0.01,0.47,0.02,0.8,0.04
			c-0.07-1.35,0.26-2.67-0.31-3.93c-0.44-0.97-1.49-1.44-2.66-1.27c-1.26,0.18-2.25,0.83-3,1.82c-0.45,0.59-1.01,0.47-1.57,0.44
			c-0.09-0.01-0.25-0.22-0.25-0.34c-0.02-0.78-0.03-1.56,0.02-2.34c0.01-0.18,0.28-0.44,0.46-0.48c1.11-0.26,2.23-0.56,3.36-0.67
			c1.66-0.17,3.34-0.19,4.97,0.32c2.13,0.67,3.28,2.17,3.3,4.4c0.02,2.76,0.01,5.52,0.01,8.28c0,0.24,0,0.47,0.04,0.71
			c0.11,0.7,0.46,1.01,1.16,1.07C58.02,40.77,58.16,40.78,58.38,40.8z M52.35,34.49c-1.41-0.02-2.72,0.01-3.94,0.54
			c-1.52,0.66-2.05,3.1-0.91,4.31c0.28,0.3,0.71,0.52,1.11,0.62c1.47,0.34,2.61-0.3,3.58-1.34c0.08-0.09,0.16-0.22,0.16-0.33
			C52.36,37.04,52.35,35.79,52.35,34.49z"/>
		<path class="st11" d="M104.88,39.07c0-0.49,0-0.98,0-1.47c0-0.31,0.12-0.43,0.45-0.47c0.77-0.09,1.22,0.14,1.61,0.9
			c0.41,0.8,1.04,1.54,1.73,2.13c1.05,0.91,2.33,1.03,3.65,0.6c0.8-0.26,1.28-0.81,1.36-1.66c0.08-0.85-0.26-1.54-1.04-1.87
			c-1-0.43-2.04-0.74-3.07-1.11c-0.65-0.24-1.32-0.43-1.92-0.75c-2-1.06-2.96-2.91-2.68-5.04c0.25-1.93,1.76-3.51,3.92-3.97
			c2.27-0.49,4.52-0.16,6.75,0.37c0.17,0.04,0.39,0.34,0.4,0.54c0.04,0.83,0.01,1.67,0.02,2.51c0,0.29-0.13,0.37-0.39,0.38
			c-0.53,0.03-0.91-0.08-1.3-0.56c-1.08-1.34-2.54-2.01-4.28-1.74c-0.53,0.08-1.12,0.38-1.51,0.76c-0.84,0.82-0.64,2.14,0.4,2.66
			c0.84,0.42,1.76,0.65,2.65,0.96c0.79,0.27,1.62,0.45,2.38,0.78c2.05,0.91,2.97,2.45,2.86,4.62c-0.11,2.29-1.3,4.05-3.34,4.7
			c-2.89,0.92-5.64,0.41-8.22-1.09c-0.21-0.13-0.36-0.49-0.4-0.76C104.83,40.02,104.88,39.54,104.88,39.07
			C104.88,39.07,104.88,39.07,104.88,39.07z"/>
		<path class="st11" d="M100.7,33.66c0,2.11,0,4.21,0,6.32c0,0.71,0.08,0.78,0.78,0.78c0.38,0,0.77,0.02,1.15-0.01
			c0.55-0.03,0.65,0.35,0.63,0.74c-0.01,0.38-0.01,0.83-0.61,0.83c-2.77-0.01-5.53,0-8.3,0c-0.43,0-0.67-0.3-0.65-0.81
			c0.02-0.4,0.11-0.77,0.65-0.75c0.4,0.01,0.8,0.01,1.2,0c0.59-0.01,0.73-0.14,0.74-0.74c0.01-1.89,0.01-3.78,0.01-5.67
			c0-1.82-0.01-3.63,0.01-5.45c0.01-0.49-0.13-0.72-0.65-0.66c-0.25,0.03-0.51,0-0.76-0.01c-0.51-0.02-0.77-0.33-0.76-0.9
			c0.01-0.57,0.27-0.85,0.8-0.86c1.64,0,3.27,0,4.91,0c0.75,0,0.83,0.09,0.83,0.86c0,2.11,0,4.21,0,6.32
			C100.69,33.66,100.7,33.66,100.7,33.66z"/>
		<path class="st11" d="M64.21,28.61c0.83-1.38,2.02-2.24,3.6-2.5c1.22-0.2,2.43-0.14,3.61,0.25c2.04,0.66,3.1,2.19,3.11,4.48
			c0.01,2.96,0.01,5.92,0.01,8.88c0,0.86,0.16,1.04,1.02,1.01c1.25-0.04,2.52-0.01,3.75-0.23c2.5-0.44,4.2-1.95,4.98-4.36
			c0.95-2.92,1-5.9,0.08-8.84c-0.96-3.08-3.32-4.78-6.57-4.85c-1-0.02-2,0-3-0.01c-0.58,0-0.77-0.22-0.77-0.86
			c0-0.63,0.21-0.89,0.75-0.89c2.38,0.02,4.77-0.15,7.12,0.36c2.68,0.57,5.04,1.68,6.66,3.99c1.48,2.12,1.86,4.54,1.77,7.05
			c-0.05,1.5-0.34,2.96-0.97,4.33c-1.4,3.05-3.91,4.71-7.1,5.38c-1.27,0.27-2.59,0.41-3.89,0.43c-3.18,0.06-6.37,0.02-9.55,0.02
			c-0.54,0-0.76-0.24-0.77-0.8c-0.01-0.55,0.21-0.77,0.79-0.77c0.15,0,0.29,0,0.44,0c0.58-0.01,0.76-0.16,0.77-0.74
			c0.02-1.09,0.02-2.18,0.02-3.27c0-2,0.01-4,0.01-5.99c0-0.13,0-0.25,0-0.38c-0.03-0.9-0.25-1.72-1.13-2.14
			c-0.87-0.42-1.71-0.2-2.47,0.32c-1.03,0.7-1.67,1.7-2.12,2.84c-0.07,0.18-0.06,0.39-0.06,0.59c0,2.63,0,5.27,0,7.9
			c0,0.78,0.09,0.87,0.88,0.87c0.77,0,1.09,0.47,0.78,1.19c-0.07,0.17-0.33,0.36-0.5,0.36c-2.56,0.02-5.13,0.01-7.69,0
			c-0.05,0-0.1-0.03-0.23-0.06c0.15-0.43,0.28-0.86,0.47-1.26c0.06-0.12,0.31-0.23,0.47-0.22c1.54,0.06,1.39-0.3,1.38-1.41
			c0-3.21,0-6.43,0-9.64c0-1.31-0.13-1.44-1.42-1.45c-0.83,0-1.23-0.6-0.86-1.35c0.09-0.19,0.39-0.41,0.59-0.41
			c1.75-0.03,3.49-0.01,5.24-0.02c0.47,0,0.66,0.2,0.64,0.66c-0.02,0.5,0,1,0,1.5C64.12,28.58,64.16,28.6,64.21,28.61z"/>
		<path class="st11" d="M123.07,34.04c0.64-0.92,1.29-1.84,1.93-2.75c1-1.43,2-2.86,2.98-4.3c0.28-0.41,0.62-0.6,1.13-0.59
			c1.38,0.03,2.77,0.03,4.15,0c0.55-0.01,0.71,0.22,0.72,0.7c0.01,0.63-0.09,0.78-0.65,0.81c-2.54,0.11-4.32,1.44-5.64,3.49
			c-0.07,0.11-0.06,0.36,0.02,0.48c1.73,2.67,3.47,5.33,5.23,7.97c0.47,0.7,1.22,0.85,2.02,0.86c0.75,0.01,1.13,0.69,0.72,1.34
			c-0.07,0.12-0.29,0.22-0.43,0.22c-2.56,0.01-5.13-0.01-7.69,0c-0.56,0-0.56-0.38-0.56-0.74c0-0.38-0.02-0.8,0.56-0.79
			c0.27,0,0.53-0.03,0.91-0.06c-0.12-0.25-0.19-0.43-0.29-0.58c-1.06-1.63-2.12-3.26-3.18-4.89c-0.36-0.55-0.51-0.52-1.02-0.1
			c-0.82,0.67-1.19,1.46-1.06,2.55c0.1,0.79,0.03,1.6,0.01,2.39c-0.01,0.46,0.15,0.69,0.63,0.65c0.18-0.02,0.36-0.01,0.55,0
			c0.27,0.01,0.66-0.11,0.69,0.31c0.03,0.38-0.05,0.77-0.12,1.15c-0.01,0.06-0.25,0.1-0.39,0.1c-2.56,0.01-5.13,0-7.69,0.01
			c-0.59,0-0.62-0.41-0.63-0.81c-0.02-0.54,0.18-0.76,0.66-0.77c0.44,0,0.87-0.02,1.31,0c0.44,0.02,0.6-0.17,0.56-0.58
			c-0.01-0.07,0-0.15,0-0.22c0-5.63,0-11.26,0-16.89c0-0.76-0.01-0.77-0.75-0.78c-0.42,0-0.84,0-1.26,0c-0.48,0-0.7-0.26-0.71-0.8
			c0-0.51,0.22-0.76,0.69-0.76c1.89,0,3.78,0,5.68,0c0.66,0,0.78,0.14,0.78,0.81c0,3.98,0,7.95,0,11.93c0,0.2,0,0.39,0,0.59
			C122.98,34.01,123.03,34.02,123.07,34.04z"/>
		<path class="st11" d="M24.25,38.09c0-0.65,0.01-1.31,0-1.96c-0.01-0.34,0.11-0.51,0.47-0.48c0.22,0.02,0.45-0.05,0.65,0.02
			c0.23,0.07,0.52,0.2,0.61,0.39c0.56,1.1,1.31,2.05,2.18,2.91c1.47,1.45,4.34,1.88,6.16,0.92c1.97-1.03,2.22-3.35,0.5-4.75
			c-0.34-0.27-0.7-0.53-1.1-0.7c-0.93-0.4-1.9-0.73-2.84-1.1c-1.12-0.43-2.27-0.79-3.33-1.34c-2.52-1.3-3.64-3.33-3.35-5.82
			c0.31-2.7,1.96-4.65,4.67-5.32c2.9-0.72,5.78-0.36,8.6,0.52c0.18,0.05,0.38,0.35,0.39,0.55c0.04,1.11,0.01,2.22,0.02,3.32
			c0,0.33-0.12,0.43-0.45,0.46c-0.57,0.04-0.95-0.11-1.29-0.64c-1.41-2.23-3.92-3.12-6.34-2.26c-0.54,0.19-1.09,0.54-1.49,0.96
			c-0.93,0.99-0.83,2.53,0.29,3.3c0.85,0.59,1.84,1,2.81,1.4c0.87,0.36,1.79,0.59,2.69,0.88c0.43,0.14,0.86,0.29,1.28,0.46
			c3.95,1.56,5.27,5.22,3.22,8.97c-1.32,2.42-3.49,3.54-6.17,3.68c-2.61,0.14-5.14-0.33-7.53-1.46c-0.49-0.23-0.72-0.54-0.68-1.09
			C24.28,39.29,24.24,38.69,24.25,38.09z"/>
		<path class="st11" d="M96.79,24.15c-0.6,0-1.2-0.01-1.8,0c-0.44,0.01-0.6-0.18-0.48-0.61c0.24-0.82,0.45-1.64,0.74-2.44
			c0.07-0.19,0.36-0.43,0.56-0.44c1.29-0.04,2.58-0.01,3.87-0.03c0.45,0,0.54,0.2,0.41,0.58c-0.27,0.83-0.55,1.65-0.81,2.48
			c-0.1,0.34-0.31,0.46-0.64,0.46C98.02,24.15,97.41,24.15,96.79,24.15C96.79,24.15,96.79,24.15,96.79,24.15z"/>
	</g>
</g>
<g id="Andoer">
</g>
<g id="adobe">
</g>
<g id="Samsung">
</g>
<g id="Xiaomi">
</g>
<g id="ESDDI">
</g>
<g id="Apple">
</g>
<g id="Calque_17">
</g>
<g id="Calque_18">
</g>
<g id="Calque_19">
</g>
<g id="Calque_20">
</g>
</svg>
