<?xml version="1.0" encoding="utf-8"?>
<!-- Generator: Adobe Illustrator 25.2.1, SVG Export Plug-In . SVG Version: 6.00 Build 0)  -->
<svg version="1.1" xmlns="http://www.w3.org/2000/svg" xmlns:xlink="http://www.w3.org/1999/xlink" x="0px" y="0px"
	 viewBox="0 0 160 60" style="enable-background:new 0 0 160 60;" xml:space="preserve">
<style type="text/css">
	.st0{fill:#A7423B;}
	.st1{fill:#DE6D36;}
	.st2{fill:#BA683D;}
	.st3{fill:#FAA619;}
	.st4{fill:#878787;}
	.st5{fill:#D1D3D4;}
	.st6{fill:#FFFFFF;}
	.st7{fill:#E30613;}
	.st8{fill:#1D1D1B;}
	.st9{fill:#B49759;}
	.st10{display:none;}
	.st11{fill:#BE1622;}
	.st12{fill:#034EA1;}
	.st13{fill:#EC671B;}
</style>
<g id="reperes">
</g>
<g id="blackmagic">
</g>
<g id="SmallRig">
</g>
<g id="Lumix">
</g>
<g id="DJI">
</g>
<g id="Rode">
</g>
<g id="Zoom">
</g>
<g id="Panasonic">
</g>
<g id="Sigma">
</g>
<g id="Sandisk">
</g>
<g id="Andoer">
</g>
<g id="adobe">
</g>
<g id="Samsung">
</g>
<g id="Xiaomi">
</g>
<g id="ESDDI">
</g>
<g id="Apple">
	<g>
		<path d="M128.01,34.77c-0.85-0.01-1.7-0.04-2.56-0.04c-2.03,0-4.05,0-6.08,0c-0.17,0-0.35,0-0.51,0
			c-0.31,1.77,0.96,3.76,2.73,4.29c1.55,0.46,3.09,0.29,4.62-0.15c0.22-0.06,0.44-0.15,0.72-0.25c0.12,0.52,0.25,1.01,0.34,1.51
			c0.02,0.09-0.11,0.26-0.21,0.29c-2.49,0.86-5,1.14-7.46-0.06c-1.19-0.58-2.05-1.54-2.53-2.78c-1-2.6-0.84-5.14,0.62-7.51
			c1.75-2.82,5.85-3.56,8.31-1.56c0.93,0.76,1.46,1.77,1.78,2.9c0.06,0.2,0.14,0.39,0.21,0.59
			C128.01,32.93,128.01,33.85,128.01,34.77z M125.74,32.97c0.16-2.16-1.16-3.78-3.11-3.83c-2.03-0.06-3.79,1.71-3.77,3.83
			C121.15,32.97,123.43,32.97,125.74,32.97z"/>
		<path d="M57.85,24.74c-5.04,3.2-4.58,10.41,0.95,12.98c-0.43,0.96-0.77,1.98-1.31,2.88c-0.83,1.38-1.72,2.74-2.75,3.97
			c-1.63,1.95-3.4,2.3-5.72,1.23c-2-0.92-3.96-0.93-5.97-0.06c-2.72,1.18-4.14,0.84-6.05-1.43c-3.3-3.92-5.12-8.41-5-13.57
			c0.07-2.85,0.98-5.43,3.28-7.29c2.21-1.79,4.69-2.38,7.43-1.33c0.5,0.19,1,0.36,1.49,0.58c0.94,0.41,1.84,0.39,2.78-0.01
			c0.86-0.37,1.75-0.69,2.66-0.94C52.67,20.92,56.2,22.22,57.85,24.74z"/>
		<path d="M81.67,27.74c0.65,0,1.32,0,2.04,0c0.05,0.7,0.09,1.38,0.15,2.15c0.13-0.14,0.21-0.22,0.28-0.31
			c2.53-3.34,7.56-2.79,9.28,1.04c1.06,2.36,1.02,4.78,0,7.13c-1.21,2.78-4.33,4.1-7.11,3.1c-0.89-0.32-1.59-0.89-2.25-1.77
			c0,1.32,0,2.48,0,3.64c0,1.15,0,2.3,0,3.49c-0.79,0-1.55,0-2.38,0C81.67,40.07,81.67,33.94,81.67,27.74z M83.97,34.4
			c0.03,0,0.06,0.01,0.09,0.01c0,0.43-0.01,0.85,0,1.28c0.07,1.75,1.28,3.19,2.95,3.52c1.75,0.35,3.42-0.45,4.14-2.07
			c0.78-1.76,0.85-3.58,0.13-5.39c-0.66-1.66-1.98-2.5-3.69-2.41c-1.48,0.07-2.87,1.19-3.3,2.76C84.09,32.84,84.07,33.64,83.97,34.4
			z"/>
		<path d="M96.61,27.74c0.65,0,1.32,0,2.04,0c0.05,0.72,0.09,1.41,0.14,2.2c0.12-0.14,0.18-0.19,0.23-0.26
			c1.88-2.99,7.38-3.44,9.32,0.96c1.28,2.89,1.12,5.81-0.81,8.43c-1.62,2.2-4.94,2.77-7.19,1.32c-0.47-0.3-0.86-0.73-1.32-1.13
			c0,2.3,0,4.61,0,6.96c-0.82,0-1.57,0-2.41,0C96.61,40.07,96.61,33.94,96.61,27.74z M98.9,34.44c0.03,0,0.07,0.01,0.1,0.01
			c0,0.41-0.01,0.82,0,1.22c0.07,1.74,1.21,3.14,2.87,3.53c1.7,0.4,3.36-0.35,4.15-1.96c0.88-1.78,0.91-3.64,0.21-5.47
			c-0.63-1.64-1.99-2.51-3.63-2.44c-1.52,0.07-2.92,1.16-3.36,2.75C99.03,32.84,99.01,33.65,98.9,34.44z"/>
		<path d="M79.83,40.87c-0.81,0-1.53,0.02-2.23-0.02c-0.16-0.01-0.37-0.23-0.43-0.4c-0.57-1.61-1.12-3.22-1.64-4.84
			c-0.12-0.38-0.29-0.52-0.71-0.52c-1.83,0.03-3.66,0.03-5.49,0.01c-0.38,0-0.53,0.13-0.64,0.47c-0.52,1.62-1.08,3.23-1.59,4.85
			c-0.11,0.36-0.28,0.47-0.64,0.45c-0.63-0.03-1.27-0.01-1.97-0.01c0.51-1.52,1-2.96,1.49-4.4c1.52-4.47,3.05-8.93,4.55-13.4
			c0.14-0.42,0.33-0.55,0.76-0.52c0.58,0.03,1.17,0.03,1.76-0.01c0.41-0.03,0.58,0.13,0.71,0.51c1.64,4.84,3.29,9.67,4.94,14.51
			C79.07,38.63,79.43,39.7,79.83,40.87z M69.4,33.21c1.82,0,3.59,0,5.41,0c-0.92-2.83-1.83-5.59-2.72-8.32
			C71.2,27.63,70.3,30.41,69.4,33.21z"/>
		<path d="M111.6,21.6c0.81,0,1.55,0,2.32,0c0,6.42,0,12.81,0,19.24c-0.78,0-1.53,0-2.32,0C111.6,34.43,111.6,28.03,111.6,21.6z"/>
		<path d="M51.9,13.6c0.16,1.39-0.16,2.65-0.78,3.83c-1,1.9-2.5,3.23-4.65,3.64c-1.38,0.26-1.24,0.14-1.16-1.02
			c0.23-3.12,3.04-6.04,6.16-6.45C51.59,13.59,51.72,13.6,51.9,13.6z"/>
	</g>
</g>
<g id="Calque_17">
</g>
<g id="Calque_18">
</g>
<g id="Calque_19">
</g>
<g id="Calque_20">
</g>
</svg>
