<?xml version="1.0" encoding="utf-8"?>
<!-- Generator: Adobe Illustrator 25.2.1, SVG Export Plug-In . SVG Version: 6.00 Build 0)  -->
<svg version="1.1" xmlns="http://www.w3.org/2000/svg" xmlns:xlink="http://www.w3.org/1999/xlink" x="0px" y="0px"
	 viewBox="0 0 160 60" style="enable-background:new 0 0 160 60;" xml:space="preserve">
<style type="text/css">
	.st0{fill:#A7423B;}
	.st1{fill:#DE6D36;}
	.st2{fill:#BA683D;}
	.st3{fill:#FAA619;}
	.st4{fill:#878787;}
	.st5{fill:#D1D3D4;}
	.st6{fill:#FFFFFF;}
	.st7{fill:#E30613;}
	.st8{fill:#1D1D1B;}
	.st9{fill:#B49759;}
	.st10{display:none;}
	.st11{fill:#BE1622;}
	.st12{fill:#034EA1;}
	.st13{fill:#EC671B;}
</style>
<g id="reperes">
</g>
<g id="blackmagic">
</g>
<g id="SmallRig">
</g>
<g id="Lumix">
</g>
<g id="DJI">
</g>
<g id="Rode">
</g>
<g id="Zoom">
</g>
<g id="Panasonic">
</g>
<g id="Sigma">
</g>
<g id="Sandisk">
</g>
<g id="Andoer">
</g>
<g id="adobe">
</g>
<g id="Samsung">
</g>
<g id="Xiaomi">
</g>
<g id="ESDDI">
	<g>
		<path class="st7" d="M36.35,42.32v-3.58h2.03v-17.9h-2.03v-3.58h16.24v5.37h-4.06v-1.79h-6.09V28h6.09v3.58h-6.09v7.16h6.09v-1.79
			h4.06v5.37H36.35z"/>
		<path class="st7" d="M56.65,36.95h4.06v1.79h6.09v-7.16h-6.9l-3.25-2.86v-8.59l3.25-2.86h7.71l3.25,2.86v2.51H66.8v-1.79h-6.09V28
			h6.9l3.25,2.86v8.59l-3.25,2.86H59.9l-3.25-2.86V36.95z"/>
		<path class="st7" d="M74.92,42.32v-3.58h2.03v-17.9h-2.03v-3.58h12.99l3.25,2.86v19.33l-3.25,2.86H74.92z M81.01,38.74h6.09v-17.9
			h-6.09V38.74z"/>
		<path class="st7" d="M95.23,42.32v-3.58h2.03v-17.9h-2.03v-3.58h12.99l3.25,2.86v19.33l-3.25,2.86H95.23z M101.32,38.74h6.09
			v-17.9h-6.09V38.74z"/>
		<path class="st7" d="M115.53,42.32v-3.58h2.03v-17.9h-2.03v-3.58h8.12v3.58h-2.03v17.9h2.03v3.58H115.53z"/>
	</g>
</g>
<g id="Apple">
</g>
<g id="Calque_17">
</g>
<g id="Calque_18">
</g>
<g id="Calque_19">
</g>
<g id="Calque_20">
</g>
</svg>
