<?xml version="1.0" encoding="utf-8"?>
<!-- Generator: Adobe Illustrator 25.2.1, SVG Export Plug-In . SVG Version: 6.00 Build 0)  -->
<svg version="1.1" xmlns="http://www.w3.org/2000/svg" xmlns:xlink="http://www.w3.org/1999/xlink" x="0px" y="0px"
	 viewBox="0 0 160 60" style="enable-background:new 0 0 160 60;" xml:space="preserve">
<style type="text/css">
	.st0{fill:#A7423B;}
	.st1{fill:#DE6D36;}
	.st2{fill:#BA683D;}
	.st3{fill:#FAA619;}
	.st4{fill:#878787;}
	.st5{fill:#D1D3D4;}
	.st6{fill:#FFFFFF;}
	.st7{fill:#E30613;}
	.st8{fill:#1D1D1B;}
	.st9{fill:#B49759;}
	.st10{display:none;}
	.st11{fill:#BE1622;}
	.st12{fill:#034EA1;}
	.st13{fill:#EC671B;}
</style>
<g id="reperes">
</g>
<g id="blackmagic">
</g>
<g id="SmallRig">
</g>
<g id="Lumix">
</g>
<g id="DJI">
</g>
<g id="Rode">
</g>
<g id="Zoom">
</g>
<g id="Panasonic">
</g>
<g id="Sigma">
</g>
<g id="Sandisk">
</g>
<g id="Andoer">
	<g>
		<path d="M79.96,21.55c-0.25,2.95-1.39,4.28-3.57,4.49c-3.64,0.35-5.96,4.04-5.19,8.27c0.58,3.23,2.88,5.45,5.37,5.2
			c2.85-0.29,5.08-2.92,5.14-6.36c0.08-4.18-0.02-8.37,0.01-12.55c0.02-2.79,1.04-4,3.36-4.01c0.02,0.37,0.06,0.75,0.06,1.13
			c0,5.07,0.01,10.13,0,15.2c-0.01,5.69-3.39,10.27-7.93,10.79c-4.36,0.5-8.7-3.42-9.42-8.51c-0.86-6.03,1.78-11.51,6.4-12.88
			C76.03,21.77,77.99,21.79,79.96,21.55z"/>
		<path d="M125.88,26.79c-1.31,2.26-2.57,4.5-3.89,6.67c-1.11,1.81-2.73,1.43-4.48,1.45c1.61-2.8,3.11-5.39,4.6-7.96
			c-0.94-1.87-3.46-2.97-5.48-2.43c-2.66,0.7-4.65,3.36-4.95,6.6c-0.3,3.27,1.09,6.42,3.45,7.8c2.44,1.43,5.23,0.83,7.09-1.71
			c1.16-1.58,2.42-2.52,4.18-2.09c-0.23,3.85-4.19,7.93-8.04,8.27c-4.34,0.39-8.4-3.33-9.45-8.64c-1.06-5.39,1.18-11,5.25-13.16
			C118.52,19.26,123.14,21.28,125.88,26.79z"/>
		<path d="M45.27,43.13c-2.85,0.3-3.9-0.5-4.92-3.61c-0.43-1.3-0.65-3.06-1.44-3.72c-0.79-0.66-2.18-0.23-3.3-0.24
			c-1.94-0.02-3.89,0.04-5.83-0.02c-0.97-0.03-1.52,0.45-1.82,1.57c-0.23,0.87-0.54,1.72-0.8,2.58c-0.98,3.14-1.8,3.76-4.74,3.42
			c0.17-0.55,0.33-1.06,0.49-1.57c0.74-2.38,1.46-4.77,2.22-7.14c0.84-2.64,1.43-3.13,3.74-3.13c2.82-0.01,5.65,0,8.73,0
			c-1.66-5-3.26-9.84-4.86-14.68c1.87-0.92,3.77,0.12,4.59,2.53c0.94,2.75,1.84,5.52,2.76,8.29c1.68,5.04,3.35,10.08,5.03,15.11
			C45.16,42.67,45.2,42.84,45.27,43.13z"/>
		<path d="M104.38,38.9c-2.94,5.49-10.41,7.06-14.65,0.38c-2.63-4.15-2.55-10.13,0.14-14.17c2.77-4.16,7.43-5.38,11.21-2.94
			c3.8,2.46,5.73,7.84,4.7,12.92c-0.24,1.18-0.65,1.19-1.33,0.69c-1.13-0.82-1.48-2.15-1.56-3.67c-0.17-3.07-1.33-5.37-3.61-6.6
			c-2.55-1.38-5.46-0.4-7.05,2.24c-1.72,2.87-1.68,6.52,0.11,9.28c1.69,2.61,4.66,3.43,7.19,2.01
			C102.04,37.63,102.38,37.62,104.38,38.9z"/>
		<path d="M64.99,42.9c-2.35,0.03-3.4-1.24-3.4-4.02c0-2.42,0.05-4.85-0.02-7.27c-0.14-5.15-4.31-8.21-7.65-5.63
			c-1.69,1.31-2.5,3.31-2.54,5.76c-0.04,2.47-0.01,4.93-0.01,7.4c-0.01,2.65-1.23,4-3.32,3.74c0-4.4-0.28-8.83,0.07-13.18
			c0.44-5.4,4.55-9.21,8.96-8.95c3.99,0.24,7.67,4.72,7.87,9.92C65.12,34.7,64.99,38.75,64.99,42.9z"/>
		<path d="M129.13,42.57c0-1.33-0.01-2.68,0-4.04c0.04-2.81-0.08-5.65,0.17-8.44c0.46-5.13,3.99-9.02,8.21-9.27
			c0.23,1.28-0.08,2.39-0.73,3.38c-0.22,0.34-0.49,0.65-0.78,0.89c-2.62,2.07-3.69,5.03-3.42,8.87c0.12,1.66,0.02,3.34,0.02,5.02
			C132.6,41.77,131.54,42.91,129.13,42.57z"/>
	</g>
</g>
<g id="adobe">
</g>
<g id="Samsung">
</g>
<g id="Xiaomi">
</g>
<g id="ESDDI">
</g>
<g id="Apple">
</g>
<g id="Calque_17">
</g>
<g id="Calque_18">
</g>
<g id="Calque_19">
</g>
<g id="Calque_20">
</g>
</svg>
