<?xml version="1.0" encoding="utf-8"?>
<!-- Generator: Adobe Illustrator 25.2.1, SVG Export Plug-In . SVG Version: 6.00 Build 0)  -->
<svg version="1.1" xmlns="http://www.w3.org/2000/svg" xmlns:xlink="http://www.w3.org/1999/xlink" x="0px" y="0px"
	 viewBox="0 0 160 60" style="enable-background:new 0 0 160 60;" xml:space="preserve">
<style type="text/css">
	.st0{fill:#A7423B;}
	.st1{fill:#DE6D36;}
	.st2{fill:#BA683D;}
	.st3{fill:#FAA619;}
	.st4{fill:#878787;}
	.st5{fill:#D1D3D4;}
	.st6{fill:#FFFFFF;}
	.st7{fill:#E30613;}
	.st8{fill:#1D1D1B;}
	.st9{fill:#B49759;}
	.st10{display:none;}
	.st11{fill:#BE1622;}
	.st12{fill:#034EA1;}
	.st13{fill:#EC671B;}
</style>
<g id="reperes">
</g>
<g id="blackmagic">
</g>
<g id="SmallRig">
</g>
<g id="Lumix">
</g>
<g id="DJI">
</g>
<g id="Rode">
</g>
<g id="Zoom">
</g>
<g id="Panasonic">
</g>
<g id="Sigma">
</g>
<g id="Sandisk">
</g>
<g id="Andoer">
</g>
<g id="adobe">
</g>
<g id="Samsung">
	<g>
		<path class="st12" d="M31.67,40.99c-0.96-1.06-1.43-2.58-1.43-4.56v-1.4h3.63v1.68c0,1.58,0.66,2.38,1.99,2.38
			c0.65,0,1.15-0.19,1.49-0.58c0.34-0.38,0.51-1.01,0.51-1.87c0-1.03-0.23-1.93-0.7-2.71c-0.47-0.78-1.33-1.72-2.59-2.81
			c-1.58-1.4-2.69-2.66-3.32-3.79c-0.63-1.13-0.94-2.41-0.94-3.83c0-1.93,0.49-3.43,1.47-4.49c0.98-1.06,2.4-1.59,4.26-1.59
			c1.84,0,3.23,0.53,4.18,1.59c0.94,1.06,1.42,2.58,1.42,4.56v1.01h-3.63v-1.26c0-0.84-0.16-1.45-0.49-1.83
			c-0.33-0.38-0.8-0.58-1.43-0.58c-1.28,0-1.92,0.78-1.92,2.34c0,0.89,0.24,1.71,0.72,2.48c0.48,0.77,1.35,1.7,2.6,2.8
			c1.61,1.4,2.71,2.67,3.32,3.81c0.61,1.14,0.91,2.48,0.91,4.02c0,2-0.5,3.54-1.49,4.61s-2.43,1.61-4.32,1.61
			C34.03,42.58,32.62,42.05,31.67,40.99z"/>
		<path class="st12" d="M46.76,17.77h5.21l3.98,24.46h-3.84l-0.7-4.86v0.07h-4.37l-0.7,4.79h-3.57L46.76,17.77z M50.96,34.12
			l-1.71-12.09h-0.07L47.5,34.12H50.96z"/>
		<path class="st12" d="M57.81,17.77h5.49l2.45,17.51h0.07l2.45-17.51h5.49v24.46h-3.63V23.71h-0.07l-2.8,18.52h-3.21l-2.8-18.52
			h-0.07v18.52h-3.35V17.77z"/>
		<path class="st12" d="M77.38,40.99c-0.96-1.06-1.43-2.58-1.43-4.56v-1.4h3.63v1.68c0,1.58,0.66,2.38,1.99,2.38
			c0.65,0,1.15-0.19,1.49-0.58c0.34-0.38,0.51-1.01,0.51-1.87c0-1.03-0.23-1.93-0.7-2.71c-0.47-0.78-1.33-1.72-2.59-2.81
			c-1.58-1.4-2.69-2.66-3.32-3.79s-0.94-2.41-0.94-3.83c0-1.93,0.49-3.43,1.47-4.49c0.98-1.06,2.4-1.59,4.26-1.59
			c1.84,0,3.23,0.53,4.18,1.59c0.94,1.06,1.42,2.58,1.42,4.56v1.01H83.7v-1.26c0-0.84-0.16-1.45-0.49-1.83
			c-0.33-0.38-0.8-0.58-1.43-0.58c-1.28,0-1.92,0.78-1.92,2.34c0,0.89,0.24,1.71,0.72,2.48c0.48,0.77,1.35,1.7,2.6,2.8
			c1.61,1.4,2.71,2.67,3.32,3.81c0.61,1.14,0.91,2.48,0.91,4.02c0,2-0.5,3.54-1.49,4.61s-2.43,1.61-4.32,1.61
			C79.74,42.58,78.33,42.05,77.38,40.99z"/>
		<path class="st12" d="M90.94,40.99c-0.98-1.06-1.47-2.58-1.47-4.56V17.77h3.84v18.94c0,0.84,0.17,1.44,0.51,1.82
			c0.34,0.37,0.82,0.56,1.45,0.56s1.11-0.19,1.45-0.56c0.34-0.37,0.51-0.98,0.51-1.82V17.77h3.71v18.66c0,1.98-0.49,3.5-1.47,4.56
			c-0.98,1.06-2.4,1.59-4.26,1.59C93.34,42.58,91.92,42.05,90.94,40.99z"/>
		<path class="st12" d="M103.66,17.77h4.82l3.74,14.64h0.07V17.77h3.42v24.46h-3.95l-4.61-17.86h-0.07v17.86h-3.42V17.77z"/>
		<path class="st12" d="M119.77,40.99c-0.98-1.06-1.47-2.58-1.47-4.56V23.57c0-1.98,0.49-3.5,1.47-4.56
			c0.98-1.06,2.4-1.59,4.26-1.59s3.29,0.53,4.26,1.59c0.98,1.06,1.47,2.58,1.47,4.56v2.1h-3.63v-2.34c0-1.61-0.66-2.41-1.99-2.41
			s-1.99,0.8-1.99,2.41v13.39c0,1.58,0.66,2.38,1.99,2.38s1.99-0.79,1.99-2.38v-4.79h-1.92v-3.5h5.56v8c0,1.98-0.49,3.5-1.47,4.56
			c-0.98,1.06-2.4,1.59-4.26,1.59S120.75,42.05,119.77,40.99z"/>
	</g>
</g>
<g id="Xiaomi">
</g>
<g id="ESDDI">
</g>
<g id="Apple">
</g>
<g id="Calque_17">
</g>
<g id="Calque_18">
</g>
<g id="Calque_19">
</g>
<g id="Calque_20">
</g>
</svg>
