<?xml version="1.0" encoding="utf-8"?>
<!-- Generator: Adobe Illustrator 25.2.1, SVG Export Plug-In . SVG Version: 6.00 Build 0)  -->
<svg version="1.1" xmlns="http://www.w3.org/2000/svg" xmlns:xlink="http://www.w3.org/1999/xlink" x="0px" y="0px"
	 viewBox="0 0 160 60" style="enable-background:new 0 0 160 60;" xml:space="preserve">
<style type="text/css">
	.st0{fill:#A7423B;}
	.st1{fill:#DE6D36;}
	.st2{fill:#BA683D;}
	.st3{fill:#FAA619;}
	.st4{fill:#878787;}
	.st5{fill:#D1D3D4;}
	.st6{fill:#FFFFFF;}
	.st7{fill:#E30613;}
	.st8{fill:#1D1D1B;}
	.st9{fill:#B49759;}
	.st10{display:none;}
	.st11{fill:#BE1622;}
	.st12{fill:#034EA1;}
	.st13{fill:#EC671B;}
	.st14{font-family:'Galvji';}
	.st15{font-size:18.3864px;}
</style>
<g id="reperes">
</g>
<g id="blackmagic">
</g>
<g id="SmallRig">
</g>
<g id="Lumix">
</g>
<g id="DJI">
</g>
<g id="Rode">
</g>
<g id="Zoom">
</g>
<g id="Panasonic">
</g>
<g id="Sigma">
</g>
<g id="Sandisk">
</g>
<g id="Andoer">
</g>
<g id="adobe">
</g>
<g id="Samsung">
</g>
<g id="Xiaomi">
	<g>
		<path class="st13" d="M59.55,48.85H27.79c-1.64,0-2.98-1.33-2.98-2.98V14.12c0-1.64,1.33-2.98,2.98-2.98h31.76
			c1.64,0,2.98,1.33,2.98,2.98v31.76C62.53,47.52,61.19,48.85,59.55,48.85z"/>
		<path d="M32.61,22.59c0,6.33,0,12.64,0,18.97c-1.41,0-2.79,0-4.2,0c0-7.72,0-15.45,0-23.21c0.11,0,0.22,0,0.32,0
			c4.43,0,8.85-0.01,13.28,0c3.64,0.01,6.62,2.45,7.32,6.01c0.1,0.49,0.13,1,0.14,1.5c0.01,5.13,0.01,10.26,0.01,15.39
			c0,0.09,0,0.19,0,0.31c-1.41,0-2.79,0-4.21,0c0-0.13,0-0.26,0-0.4c0-5.1,0-10.2,0-15.3c0-1.66-1.05-2.95-2.63-3.24
			c-0.2-0.04-0.4-0.04-0.61-0.04c-3.05,0-6.09,0-9.14,0C32.81,22.58,32.73,22.58,32.61,22.59z"/>
		<path d="M53.7,18.36c1.4,0,2.78,0,4.18,0c0,7.73,0,15.46,0,23.21c-1.39,0-2.77,0-4.18,0C53.7,33.84,53.7,26.12,53.7,18.36z"/>
		<path d="M36.84,41.56c0-4.93,0-9.83,0-14.74c1.39,0,2.77,0,4.17,0c0,4.91,0,9.81,0,14.74C39.63,41.56,38.25,41.56,36.84,41.56z"/>
		<text transform="matrix(1 0 0 1 72.9833 36.4341)" class="st14 st15">Xiaomi</text>
	</g>
</g>
<g id="ESDDI">
</g>
<g id="Apple">
</g>
<g id="Calque_17">
</g>
<g id="Calque_18">
</g>
<g id="Calque_19">
</g>
<g id="Calque_20">
</g>
</svg>
