<?xml version="1.0" encoding="utf-8"?>
<!-- Generator: Adobe Illustrator 25.2.1, SVG Export Plug-In . SVG Version: 6.00 Build 0)  -->
<svg version="1.1" xmlns="http://www.w3.org/2000/svg" xmlns:xlink="http://www.w3.org/1999/xlink" x="0px" y="0px"
	 viewBox="0 0 160 60" style="enable-background:new 0 0 160 60;" xml:space="preserve">
<style type="text/css">
	.st0{fill:#A7423B;}
	.st1{fill:#DE6D36;}
	.st2{fill:#BA683D;}
	.st3{fill:#FAA619;}
	.st4{fill:#878787;}
	.st5{fill:#D1D3D4;}
	.st6{fill:#FFFFFF;}
	.st7{fill:#E30613;}
	.st8{fill:#1D1D1B;}
	.st9{fill:#B49759;}
	.st10{display:none;}
	.st11{fill:#BE1622;}
	.st12{fill:#034EA1;}
	.st13{fill:#EC671B;}
</style>
<g id="reperes">
</g>
<g id="blackmagic">
</g>
<g id="SmallRig">
</g>
<g id="Lumix">
</g>
<g id="DJI">
	<g>
		<path d="M70.87,44.79c0.46-1.32,0.92-2.64,1.38-3.97c0.16-0.46,0.32-0.91,0.47-1.37c0.04-0.14,0.17-0.24,0.32-0.24
			c1.81,0.01,3.61,0.03,5.41,0c1.59-0.03,3.01-0.53,4.2-1.57c0.74-0.65,1.24-1.53,1.47-2.48c0.87-3.64,1.78-7.28,2.67-10.92
			c0.24-1,0.49-1.99,0.73-2.99c0.04-0.15,0.11-0.19,0.25-0.19c2.54,0,5.09,0,7.63,0c0.13,0,0.21,0.1,0.18,0.22
			c-0.77,3.2-1.54,6.4-2.31,9.6c-0.51,2.13-1.01,4.26-1.56,6.39c-0.62,2.42-1.84,4.57-4.04,6.19c-0.44,0.32-0.92,0.57-1.43,0.76
			c-0.81,0.3-1.69,0.42-2.56,0.43L70.87,44.79z"/>
		<path d="M86.97,15.27c-0.09,0.37-0.16,0.71-0.24,1.05c-0.94,3.95-1.89,7.9-2.84,11.85c-0.44,1.83-0.86,3.67-1.33,5.5
			c-0.34,1.32-1.02,2.43-2.21,3.18c-0.72,0.45-1.51,0.71-2.35,0.8c-0.54,0.06-1.09,0.08-1.64,0.08c-6.35,0.01-12.7,0-19.05,0
			c-0.54,0-1.06-0.09-1.56-0.32c-0.78-0.36-1.18-1-1.32-1.82c-0.16-0.95-0.01-1.87,0.21-2.79c0.59-2.49,1.18-4.99,1.8-7.48
			c0.35-1.4,1.07-2.57,2.31-3.37c0.77-0.5,1.62-0.77,2.54-0.83c0.38-0.02,0.76-0.04,1.14-0.04c4.2,0,8.41,0,12.61,0
			c0.09,0,0.17,0,0.28,0c-0.11,0.47-0.22,0.92-0.32,1.37c-0.23,0.95-0.46,1.89-0.67,2.84c-0.05,0.2-0.12,0.26-0.33,0.26
			c-2.17-0.01-4.33-0.01-6.5,0c-0.27,0-0.53,0.03-0.79,0.07c-0.5,0.08-0.83,0.38-0.99,0.84c-0.17,0.52-0.3,1.06-0.43,1.6
			c-0.3,1.24-0.6,2.47-0.88,3.71c-0.07,0.3-0.07,0.62-0.06,0.93c0.01,0.31,0.21,0.52,0.51,0.6c0.22,0.06,0.45,0.09,0.67,0.09
			c2.3,0.01,4.6,0,6.9,0c1.26,0,1.94-0.48,2.29-1.7c0.3-1.08,0.55-2.17,0.81-3.26c0.71-2.94,1.41-5.88,2.11-8.82
			c0.33-1.37,0.66-2.75,0.98-4.12c0.04-0.17,0.1-0.22,0.28-0.22L86.97,15.27z"/>
		<path d="M105.58,21.09c-0.07,0.3-0.13,0.58-0.2,0.86c-1.04,4.41-2.07,8.81-3.11,13.22c-0.19,0.79-0.38,1.58-0.56,2.37
			c-0.03,0.12-0.07,0.18-0.21,0.18c-2.59,0-5.19,0-7.78,0c-0.03,0-0.05-0.01-0.1-0.01c0.06-0.28,0.12-0.55,0.18-0.82
			c0.8-3.4,1.6-6.8,2.4-10.21c0.42-1.8,0.85-3.6,1.27-5.4c0.03-0.14,0.08-0.2,0.23-0.2L105.58,21.09z"/>
	</g>
</g>
<g id="Rode">
</g>
<g id="Zoom">
</g>
<g id="Panasonic">
</g>
<g id="Sigma">
</g>
<g id="Sandisk">
</g>
<g id="Andoer">
</g>
<g id="adobe">
</g>
<g id="Samsung">
</g>
<g id="Xiaomi">
</g>
<g id="ESDDI">
</g>
<g id="Apple">
</g>
<g id="Calque_17">
</g>
<g id="Calque_18">
</g>
<g id="Calque_19">
</g>
<g id="Calque_20">
</g>
</svg>
