<?xml version="1.0" encoding="utf-8"?>
<!-- Generator: Adobe Illustrator 25.2.1, SVG Export Plug-In . SVG Version: 6.00 Build 0)  -->
<svg version="1.1" xmlns="http://www.w3.org/2000/svg" xmlns:xlink="http://www.w3.org/1999/xlink" x="0px" y="0px"
	 viewBox="0 0 160 60" style="enable-background:new 0 0 160 60;" xml:space="preserve">
<style type="text/css">
	.st0{fill:#A7423B;}
	.st1{fill:#DE6D36;}
	.st2{fill:#BA683D;}
	.st3{fill:#FAA619;}
	.st4{fill:#878787;}
	.st5{fill:#D1D3D4;}
	.st6{fill:#FFFFFF;}
	.st7{fill:#E30613;}
	.st8{fill:#1D1D1B;}
	.st9{fill:#B49759;}
	.st10{display:none;}
	.st11{fill:#BE1622;}
	.st12{fill:#034EA1;}
	.st13{fill:#EC671B;}
	.st14{fill:#00AEEF;}
</style>
<g id="reperes">
</g>
<g id="blackmagic">
	<g id="gn-logo">
		<path id="Rectangle-6" class="st0" d="M134.36-200.58h5.99c1.65,0,3,1.35,3,3v5.99c0,1.65-1.35,3-3,3h-5.99c-1.65,0-3-1.35-3-3
			v-5.99C131.36-199.24,132.71-200.58,134.36-200.58z"/>
		<path id="Rectangle-5" class="st1" d="M134.36-215.99h5.99c1.65,0,3,1.35,3,3v5.99c0,1.65-1.35,3-3,3h-5.99c-1.65,0-3-1.35-3-3
			V-213C131.36-214.64,132.71-215.99,134.36-215.99z"/>
		<path id="Rectangle-4" class="st2" d="M134.36-231.4h5.99c1.65,0,3,1.35,3,3v5.99c0,1.65-1.35,3-3,3h-5.99c-1.65,0-3-1.35-3-3
			v-5.99C131.36-230.05,132.71-231.4,134.36-231.4z"/>
		<path id="Rectangle-3" class="st3" d="M132.22-197.59v5.99c0,1.18,0.96,2.14,2.14,2.14h5.99c1.18,0,2.14-0.96,2.14-2.14v-5.99
			c0-1.18-0.96-2.14-2.14-2.14h-5.99C133.18-199.73,132.22-198.77,132.22-197.59z M130.5-197.59c0-2.12,1.71-3.85,3.85-3.85h5.99
			c2.12,0,3.85,1.71,3.85,3.85v5.99c0,2.12-1.71,3.85-3.85,3.85h-5.99c-2.12,0-3.85-1.71-3.85-3.85V-197.59z"/>
		<path id="Rectangle-2" class="st3" d="M132.22-213v5.99c0,1.18,0.96,2.14,2.14,2.14h5.99c1.18,0,2.14-0.96,2.14-2.14V-213
			c0-1.18-0.96-2.14-2.14-2.14h-5.99C133.18-215.14,132.22-214.17,132.22-213z M130.5-213c0-2.12,1.71-3.85,3.85-3.85h5.99
			c2.12,0,3.85,1.71,3.85,3.85v5.99c0,2.12-1.71,3.85-3.85,3.85h-5.99c-2.12,0-3.85-1.71-3.85-3.85V-213z"/>
		<path id="Rectangle-1" class="st3" d="M132.22-228.4v5.99c0,1.18,0.96,2.14,2.14,2.14h5.99c1.18,0,2.14-0.96,2.14-2.14v-5.99
			c0-1.18-0.96-2.14-2.14-2.14h-5.99C133.18-230.54,132.22-229.58,132.22-228.4z M130.5-228.4c0-2.12,1.71-3.85,3.85-3.85h5.99
			c2.12,0,3.85,1.71,3.85,3.85v5.99c0,2.12-1.71,3.85-3.85,3.85h-5.99c-2.12,0-3.85-1.71-3.85-3.85V-228.4z"/>
		<path id="Fill-19" class="st4" d="M120.17-213.66v8.39h0.86v-5.88c0.68-1.2,1.58-1.8,2.65-1.8c1.48,0,2.2,0.96,2.2,2.91v4.77h0.86
			v-5.11c0-1.07-0.28-1.93-0.81-2.53c-0.56-0.6-1.28-0.92-2.2-0.92c-1.11,0-1.99,0.53-2.67,1.63H121v-1.46L120.17-213.66"/>
		<path id="Fill-18" class="st4" d="M117.77-210.68c0,0.62-0.21,1.13-0.64,1.58c-0.43,0.45-0.94,0.66-1.52,0.66
			c-0.6,0-1.11-0.21-1.52-0.66c-0.43-0.45-0.62-0.98-0.62-1.63c0-0.6,0.21-1.13,0.62-1.56c0.41-0.43,0.92-0.64,1.52-0.64
			s1.11,0.21,1.54,0.66C117.56-211.82,117.77-211.31,117.77-210.68L117.77-210.68z M118.46-203.34c0,0.49-0.26,0.88-0.75,1.18
			s-1.16,0.45-1.99,0.45c-1.84,0-2.76-0.51-2.76-1.56c0-1.03,0.98-1.56,2.93-1.56C117.6-204.82,118.46-204.33,118.46-203.34
			L118.46-203.34z M119.31-213.66h-3.25c-1.11,0-1.97,0.28-2.55,0.83c-0.6,0.56-0.9,1.28-0.9,2.16c0,0.62,0.19,1.18,0.56,1.69
			c0.36,0.51,0.9,0.88,1.63,1.09v0.04c-1.09,0.32-1.63,0.77-1.63,1.37c0,0.58,0.45,0.98,1.33,1.2v0.04
			c-1.58,0.26-2.35,0.94-2.35,2.03c0,0.68,0.3,1.22,0.92,1.63c0.62,0.41,1.5,0.62,2.61,0.62c1.13,0,2.03-0.21,2.65-0.64
			c0.64-0.43,0.96-1.03,0.96-1.8c0-0.64-0.19-1.16-0.6-1.54s-1.18-0.62-2.31-0.68c-1.16-0.06-1.82-0.17-2.05-0.32
			c-0.21-0.15-0.32-0.34-0.32-0.58c0-0.21,0.09-0.39,0.26-0.56c0.17-0.15,0.6-0.32,1.26-0.51c0.66-0.17,1.2-0.36,1.6-0.56
			c0.41-0.19,0.75-0.49,1.05-0.9c0.3-0.41,0.43-0.96,0.43-1.67c0-0.77-0.36-1.52-1.11-2.23h1.84v-0.73H119.31z"/>
		<polygon id="Fill-17" class="st5" points="110.11,-216.48 110.99,-216.48 110.99,-218 110.11,-218 		"/>
		<polygon id="Fill-16" class="st4" points="110.11,-205.27 110.99,-205.27 110.99,-213.66 110.11,-213.66 		"/>
		<path id="Fill-15" class="st4" d="M106.32-213.83c-0.73,0-1.35,0.21-1.86,0.66c-0.51,0.45-0.77,0.98-0.77,1.63
			c0,0.45,0.13,0.86,0.41,1.22c0.28,0.36,0.88,0.75,1.8,1.11c0.92,0.39,1.48,0.68,1.69,0.94s0.32,0.51,0.32,0.81
			c0,0.43-0.17,0.77-0.47,1.05c-0.32,0.28-0.73,0.41-1.24,0.41c-0.75,0-1.6-0.26-2.55-0.77v0.88c0.81,0.51,1.63,0.77,2.44,0.77
			c0.75,0,1.39-0.21,1.9-0.66s0.77-1.01,0.77-1.65c0-0.49-0.15-0.92-0.43-1.33c-0.28-0.39-0.88-0.77-1.8-1.16
			c-0.92-0.36-1.48-0.68-1.69-0.92c-0.21-0.24-0.3-0.49-0.3-0.79c0-0.41,0.17-0.73,0.49-1.01c0.34-0.28,0.75-0.41,1.24-0.41
			c0.66,0,1.39,0.28,2.23,0.86v-0.96C107.71-213.57,106.98-213.83,106.32-213.83"/>
		<path id="Fill-14" class="st4" d="M97.44-212.31c0.49-0.43,1.07-0.64,1.73-0.64c1.41,0,2.27,0.81,2.57,2.46h-5.26
			C96.63-211.26,96.95-211.86,97.44-212.31L97.44-212.31z M97.29-206.94c-0.64-0.64-0.96-1.43-0.96-2.38c0-0.15,0-0.3,0.02-0.43h6.4
			c0-1.24-0.34-2.25-1.05-2.97c-0.68-0.73-1.54-1.09-2.55-1.09c-1.07,0-1.95,0.41-2.65,1.22c-0.71,0.81-1.05,1.82-1.05,3.06
			c0,1.31,0.39,2.38,1.16,3.21c0.77,0.83,1.73,1.26,2.89,1.26s2.18-0.36,3.12-1.11v-1.05c-0.98,0.83-1.99,1.24-3.02,1.24
			C98.7-205.98,97.95-206.3,97.29-206.94L97.29-206.94z"/>
		<path id="Fill-13" class="st4" d="M93.22-206.73c-0.71,0.51-1.43,0.77-2.18,0.77c-0.96,0-1.78-0.34-2.42-1.01
			c-0.64-0.68-0.96-1.52-0.96-2.55c0-1.01,0.3-1.82,0.9-2.46c0.6-0.64,1.37-0.96,2.31-0.96c0.79,0,1.58,0.26,2.35,0.79V-206.73
			L93.22-206.73z M93.22-218v4.86c-0.86-0.45-1.65-0.68-2.4-0.68c-1.18,0-2.14,0.41-2.93,1.24s-1.16,1.86-1.16,3.1
			c0,1.22,0.39,2.27,1.18,3.1c0.79,0.83,1.75,1.26,2.91,1.26c0.86,0,1.65-0.28,2.4-0.81v0.64h0.88v-12.73h-0.88V-218z"/>
		<path id="Fill-12" d="M84.45-213.83c-1.13,0-2.08,0.43-2.82,1.26c-0.73,0.83-1.11,1.93-1.11,3.23c0,1.26,0.36,2.29,1.09,3.06
			c0.73,0.77,1.69,1.18,2.87,1.18c0.68,0,1.43-0.15,2.25-0.43v-0.94c-0.77,0.32-1.5,0.49-2.18,0.49c-0.94,0-1.71-0.32-2.27-0.94
			s-0.86-1.48-0.86-2.53c0-1.05,0.28-1.88,0.86-2.55c0.56-0.64,1.31-0.98,2.2-0.98c0.62,0,1.33,0.17,2.1,0.53v-0.98
			C85.8-213.68,85.07-213.83,84.45-213.83"/>
		<polygon id="Fill-11" points="77.22,-216.48 78.1,-216.48 78.1,-218 77.22,-218 		"/>
		<polygon id="Fill-10" points="77.22,-205.27 78.1,-205.27 78.1,-213.66 77.22,-213.66 		"/>
		<path id="Fill-9" d="M74.69-210.68c0,0.62-0.21,1.13-0.64,1.58c-0.43,0.45-0.94,0.66-1.52,0.66c-0.6,0-1.11-0.21-1.52-0.66
			c-0.41-0.45-0.62-0.98-0.62-1.63c0-0.6,0.21-1.13,0.62-1.56c0.41-0.43,0.92-0.64,1.52-0.64s1.11,0.21,1.54,0.66
			C74.48-211.82,74.69-211.31,74.69-210.68L74.69-210.68z M75.38-203.34c0,0.49-0.26,0.88-0.75,1.18s-1.16,0.45-1.99,0.45
			c-1.84,0-2.76-0.51-2.76-1.56c0-1.03,0.98-1.56,2.93-1.56C74.52-204.82,75.38-204.33,75.38-203.34L75.38-203.34z M76.23-213.66
			h-3.25c-1.11,0-1.97,0.28-2.55,0.83c-0.6,0.56-0.9,1.28-0.9,2.16c0,0.62,0.19,1.18,0.56,1.69c0.36,0.51,0.9,0.88,1.63,1.09v0.04
			c-1.09,0.32-1.63,0.77-1.63,1.37c0,0.58,0.45,0.98,1.33,1.2v0.04c-1.58,0.26-2.35,0.94-2.35,2.03c0,0.68,0.3,1.22,0.92,1.63
			c0.62,0.41,1.5,0.62,2.61,0.62c1.13,0,2.03-0.21,2.67-0.64c0.64-0.43,0.96-1.03,0.96-1.8c0-0.64-0.19-1.16-0.6-1.54
			c-0.41-0.39-1.18-0.62-2.31-0.68c-1.13-0.06-1.82-0.17-2.05-0.32c-0.21-0.15-0.32-0.34-0.32-0.58c0-0.21,0.09-0.39,0.26-0.56
			c0.17-0.15,0.6-0.32,1.26-0.51c0.66-0.17,1.2-0.36,1.6-0.56c0.41-0.19,0.75-0.49,1.05-0.9c0.3-0.41,0.43-0.96,0.43-1.67
			c0-0.77-0.36-1.52-1.11-2.23h1.84v-0.73H76.23z"/>
		<path id="Fill-8" d="M66.82-206.92c-0.77,0.73-1.52,1.09-2.25,1.09c-0.45,0-0.83-0.13-1.13-0.41c-0.3-0.28-0.45-0.6-0.45-0.98
			c0-0.71,0.36-1.26,1.09-1.71c0.73-0.45,1.65-0.64,2.76-0.62v2.63H66.82z M67.89-205.98c-0.13,0-0.19-0.15-0.19-0.43v-5.24
			c0-0.71-0.24-1.26-0.71-1.63c-0.47-0.36-1.07-0.56-1.82-0.56c-0.83,0-1.69,0.3-2.61,0.9v0.92c0.88-0.71,1.71-1.07,2.48-1.07
			c1.2,0,1.8,0.58,1.8,1.71v1.07c-1.52,0.09-2.67,0.39-3.49,0.9c-0.81,0.53-1.22,1.24-1.22,2.16c0,0.6,0.21,1.09,0.64,1.52
			c0.43,0.41,0.94,0.62,1.54,0.62c0.83,0,1.69-0.34,2.53-1.05c0.04,0.43,0.09,0.71,0.17,0.83c0.09,0.13,0.21,0.21,0.41,0.21
			c0.34,0,0.9-0.3,1.65-0.88v-0.75C68.44-206.21,68.06-205.98,67.89-205.98L67.89-205.98z"/>
		<path id="Fill-7" d="M49.1-213.66v8.39h0.86v-5.88c0.68-1.2,1.5-1.8,2.44-1.8c0.64,0,1.16,0.26,1.54,0.75
			c0.39,0.49,0.58,1.22,0.58,2.14v4.77h0.88v-5.71c0.39-0.68,0.77-1.18,1.13-1.5c0.36-0.3,0.81-0.47,1.31-0.47
			c0.66,0,1.2,0.26,1.56,0.77c0.36,0.51,0.56,1.24,0.56,2.14v4.75h0.86v-5.11c0-1.03-0.26-1.84-0.77-2.46
			c-0.51-0.62-1.2-0.92-2.03-0.92c-1.11,0-2.05,0.66-2.8,2.01c-0.51-1.35-1.39-2.01-2.63-2.01c-1.07,0-1.93,0.56-2.59,1.65h-0.04
			v-1.48H49.1"/>
		<polyline id="Fill-6" points="47.28,-213.66 42.81,-209.68 47.92,-205.27 49.12,-205.27 43.98,-209.68 48.41,-213.66 
			47.28,-213.66 		"/>
		<polygon id="Fill-5" points="41.82,-205.27 42.68,-205.27 42.68,-218 41.82,-218 		"/>
		<path id="Fill-4" d="M38.38-213.83c-1.13,0-2.1,0.43-2.82,1.26c-0.73,0.83-1.11,1.93-1.11,3.23c0,1.26,0.36,2.29,1.09,3.06
			c0.73,0.77,1.69,1.18,2.87,1.18c0.68,0,1.43-0.15,2.25-0.43v-0.94c-0.77,0.32-1.5,0.49-2.18,0.49c-0.94,0-1.71-0.32-2.27-0.94
			c-0.56-0.62-0.86-1.48-0.86-2.53c0-1.05,0.28-1.88,0.86-2.55c0.56-0.64,1.31-0.98,2.2-0.98c0.62,0,1.33,0.17,2.1,0.53v-0.98
			C39.73-213.68,39-213.83,38.38-213.83"/>
		<path id="Fill-3" d="M31.79-206.92c-0.77,0.73-1.52,1.09-2.25,1.09c-0.45,0-0.83-0.13-1.13-0.41c-0.3-0.28-0.45-0.6-0.45-0.98
			c0-0.71,0.36-1.26,1.09-1.71c0.73-0.45,1.65-0.64,2.76-0.62v2.63H31.79z M32.86-205.98c-0.13,0-0.19-0.15-0.19-0.43v-5.24
			c0-0.71-0.24-1.26-0.71-1.63c-0.47-0.36-1.07-0.56-1.82-0.56c-0.83,0-1.69,0.3-2.61,0.9v0.92c0.88-0.71,1.71-1.07,2.48-1.07
			c1.2,0,1.8,0.58,1.8,1.71v1.07c-1.52,0.09-2.67,0.39-3.49,0.9c-0.81,0.53-1.22,1.24-1.22,2.16c0,0.6,0.21,1.09,0.64,1.52
			c0.43,0.41,0.94,0.62,1.54,0.62c0.83,0,1.69-0.34,2.53-1.05c0.04,0.43,0.09,0.71,0.17,0.83c0.09,0.13,0.21,0.21,0.41,0.21
			c0.34,0,0.9-0.3,1.65-0.88v-0.75C33.41-206.21,33.03-205.98,32.86-205.98L32.86-205.98z"/>
		<polygon id="Fill-2" points="24.75,-205.27 25.62,-205.27 25.62,-218 24.75,-218 		"/>
		<path id="Fill-1" d="M21.71-206.79c-0.56,0.47-1.35,0.71-2.4,0.71h-2.57v-5.18h2.14c2.42,0,3.64,0.88,3.64,2.61
			C22.52-207.88,22.24-207.26,21.71-206.79L21.71-206.79z M16.74-217.19h1.28c2.27,0,3.4,0.86,3.4,2.55s-1.11,2.55-3.36,2.55h-1.33
			V-217.19L16.74-217.19z M20.7-211.88c1.18-0.66,1.78-1.6,1.78-2.82c0-1.03-0.34-1.84-1.05-2.42S19.72-218,18.37-218H15.8v12.73
			h3.6c1.26,0,2.27-0.3,3.02-0.92c0.75-0.62,1.11-1.43,1.11-2.46C23.55-210.36,22.58-211.46,20.7-211.88L20.7-211.88z"/>
	</g>
</g>
<g id="SmallRig">
	<g>
		<g>
			<path class="st6" d="M307.46-206.72c0-1.41,0.01-2.83,0-4.24c-0.03-3.67-3.01-6.62-6.73-6.66c-3.8-0.04-6.88,2.93-6.96,6.73
				c-0.08,3.54,2.88,6.71,6.43,6.9c1.15,0.06,1.9-0.46,2.02-1.4c0.13-1.03-0.46-1.65-1.72-1.81c-2.17-0.29-3.6-1.87-3.46-3.85
				c0.13-1.88,1.85-3.44,3.7-3.38c2.05,0.07,3.51,1.69,3.52,3.93c0.01,2.5,0.01,4.99,0,7.49c0,2.34-1.33,3.94-3.34,4.07
				c-2.09,0.13-3.51-1.17-3.89-3.53c-0.18-1.15-0.85-1.76-1.8-1.64c-0.93,0.12-1.52,0.94-1.44,2.01c0.27,3.74,3.39,6.51,7.17,6.38
				c3.68-0.13,6.5-3.1,6.52-6.87C307.46-203.98,307.46-205.35,307.46-206.72z M236.56-215.68c-1.81-1.9-3.9-2.5-6.32-1.58
				c-2.2,0.83-3.45,2.53-3.61,4.82c-0.16,2.32-0.09,4.65-0.05,6.98c0.01,0.92,0.62,1.45,1.54,1.48c0.92,0.03,1.49-0.48,1.65-1.38
				c0.06-0.32,0.04-0.66,0.04-0.99c0-1.66-0.11-3.34,0.05-4.98c0.09-0.88,0.46-1.94,1.08-2.48c0.52-0.45,1.65-0.48,2.42-0.3
				c1.14,0.28,1.54,1.35,1.57,2.45c0.05,1.87,0.01,3.74,0.02,5.61c0.01,1.34,0.57,2.07,1.61,2.09c1.05,0.02,1.64-0.7,1.65-2.03
				c0.01-1.83-0.04-3.66,0.02-5.49c0.05-1.8,1.12-2.94,2.61-2.92c1.48,0.02,2.48,1.19,2.51,2.99c0.03,1.79-0.01,3.58,0.01,5.36
				c0.02,1.35,0.61,2.07,1.64,2.08c1.03,0.01,1.68-0.73,1.7-2.04c0.03-1.83,0.16-3.68-0.05-5.48c-0.15-1.32-0.5-2.76-1.23-3.83
				C243.41-218.32,239.79-218.41,236.56-215.68z M277.05-211.55c0-1.75,0.01-3.49,0-5.24c-0.01-1.63,0.74-2.78,2.21-3.45
				c1.27-0.58,2.81-0.26,3.83,0.72c1.09,1.05,1.44,2.68,0.78,4.14c-0.46,1.02-1.17,1.92-1.62,2.95c-0.33,0.77-0.67,1.69-0.56,2.48
				c0.32,2.31,1.81,4.06,3.4,5.64c0.29,0.29,1.49,0.13,1.85-0.23c0.36-0.37,0.44-1.34,0.22-1.88c-0.36-0.91-1.01-1.72-1.62-2.5
				c-0.8-1.01-0.7-1.94-0.04-2.97c0.55-0.87,1.06-1.79,1.44-2.75c1.05-2.62,0.54-5.01-1.4-7.02c-1.98-2.05-4.47-2.6-7.14-1.69
				c-2.64,0.89-4.33,2.86-4.48,5.62c-0.22,4.02-0.12,8.06-0.09,12.09c0.01,1.13,0.95,1.84,1.91,1.59c1.04-0.27,1.3-1.09,1.31-2.02
				C277.05-207.89,277.04-209.72,277.05-211.55z M218.88-224.27c-0.05,0.11-0.1,0.22-0.15,0.33c-2.58,0-4.64,1.53-5.29,3.94
				c-0.65,2.41,0.29,4.58,2.7,5.82c1.17,0.61,2.48,0.96,3.73,1.42c1.77,0.65,2.53,2.01,2.02,3.57c-0.51,1.54-2.41,2.53-3.98,1.8
				c-1-0.46-1.83-1.36-2.62-2.17c-0.64-0.66-1.42-1.02-2.08-0.48c-0.46,0.37-0.79,1.33-0.65,1.91c0.58,2.51,3.35,4.37,6.19,4.37
				c3.02-0.01,5.43-1.71,6.16-4.35c0.98-3.53-0.4-6.27-3.83-7.59c-1.17-0.45-2.35-0.86-3.5-1.34c-1.04-0.44-1.42-1.31-1.12-2.35
				c0.29-1.02,1.15-1.46,2.14-1.33c0.67,0.09,1.33,0.44,1.94,0.75c0.85,0.43,1.67,0.64,2.38-0.18c0.59-0.68,0.43-1.92-0.52-2.5
				C221.32-223.33,220.06-223.74,218.88-224.27z M261.52-208.5c0.03,0,0.06,0,0.08-0.01c-0.09-1.28-0.04-2.59-0.29-3.84
				c-0.67-3.37-3.99-5.69-7.43-5.29c-3.58,0.41-6.18,3.39-6.12,7.02c0.05,3.42,2.83,6.39,6.27,6.61c0.57,0.04,1.33-0.11,1.7-0.47
				c0.36-0.35,0.59-1.24,0.38-1.64c-0.27-0.51-1-0.98-1.59-1.09c-2.36-0.41-3.89-2.27-3.4-4.35c0.41-1.74,2.1-3.01,3.76-2.85
				c1.9,0.19,3.29,1.7,3.36,3.73c0.05,1.66,0.02,3.32,0.01,4.99c0,1.06,0.57,1.67,1.59,1.69c1.03,0.02,1.62-0.61,1.66-1.64
				C261.55-206.59,261.52-207.55,261.52-208.5z M271.6-213.82c0-2.66,0.01-5.31,0-7.97c-0.01-1.3-0.53-1.92-1.58-1.94
				c-1.12-0.03-1.67,0.61-1.67,1.98c-0.01,5.27-0.01,10.54,0,15.81c0,1.25,0.57,1.94,1.58,1.97c1.06,0.03,1.67-0.68,1.68-2
				C271.61-208.59,271.6-211.21,271.6-213.82z M266.37-213.73c0-2.7,0.01-5.41,0-8.11c-0.01-1.29-0.55-1.9-1.63-1.89
				c-1.06,0.01-1.62,0.65-1.62,1.93c-0.01,5.28-0.01,10.57,0,15.85c0,1.23,0.61,1.95,1.6,1.98c1.05,0.03,1.65-0.68,1.65-2.02
				C266.38-208.57,266.37-211.15,266.37-213.73z M289.16-209.96c0,1.41,0.01,2.82,0,4.23c-0.01,1.07,0.53,1.68,1.55,1.71
				c1.04,0.03,1.62-0.65,1.63-1.66c0.03-2.78,0.03-5.56,0-8.34c-0.01-1.01-0.58-1.67-1.64-1.64c-1.05,0.03-1.55,0.66-1.54,1.71
				C289.17-212.62,289.16-211.29,289.16-209.96z M290.79-217.53c1.03-0.03,1.88-0.96,1.81-1.99c-0.07-1.01-0.89-1.76-1.92-1.73
				c-1.1,0.03-1.82,0.83-1.77,1.96C288.96-218.29,289.79-217.5,290.79-217.53z"/>
			<path class="st7" d="M307.46-206.72c0,1.37,0,2.75,0,4.12c-0.01,3.77-2.83,6.74-6.52,6.87c-3.78,0.13-6.9-2.64-7.17-6.38
				c-0.08-1.08,0.51-1.89,1.44-2.01c0.95-0.12,1.62,0.49,1.8,1.64c0.38,2.37,1.8,3.66,3.89,3.53c2.02-0.13,3.34-1.73,3.34-4.07
				c0-2.5,0.01-4.99,0-7.49c-0.01-2.24-1.47-3.86-3.52-3.93c-1.85-0.06-3.57,1.5-3.7,3.38c-0.14,1.97,1.28,3.56,3.46,3.85
				c1.27,0.17,1.85,0.78,1.72,1.81c-0.12,0.94-0.87,1.46-2.02,1.4c-3.55-0.19-6.5-3.36-6.43-6.9c0.08-3.79,3.17-6.77,6.96-6.73
				c3.72,0.04,6.7,2.99,6.73,6.66C307.47-209.55,307.46-208.14,307.46-206.72z"/>
		</g>
		<path d="M236.56-215.68c3.23-2.73,6.86-2.64,8.88,0.35c0.73,1.08,1.08,2.52,1.23,3.83c0.2,1.81,0.07,3.65,0.05,5.48
			c-0.02,1.31-0.66,2.05-1.7,2.04c-1.03-0.01-1.62-0.73-1.64-2.08c-0.02-1.79,0.02-3.58-0.01-5.36c-0.03-1.81-1.03-2.97-2.51-2.99
			c-1.49-0.02-2.56,1.12-2.61,2.92c-0.05,1.83-0.01,3.66-0.02,5.49c-0.01,1.32-0.6,2.05-1.65,2.03c-1.04-0.02-1.6-0.75-1.61-2.09
			c-0.01-1.87,0.03-3.74-0.02-5.61c-0.03-1.1-0.43-2.17-1.57-2.45c-0.76-0.19-1.9-0.15-2.42,0.3c-0.63,0.54-1,1.6-1.08,2.48
			c-0.17,1.65-0.05,3.32-0.05,4.98c0,0.33,0.02,0.67-0.04,0.99c-0.17,0.9-0.74,1.41-1.65,1.38c-0.92-0.03-1.53-0.56-1.54-1.48
			c-0.04-2.33-0.11-4.66,0.05-6.98c0.16-2.29,1.41-3.98,3.61-4.82C232.65-218.18,234.75-217.58,236.56-215.68z"/>
		<path class="st7" d="M277.04-211.55c0,1.83,0.01,3.66-0.01,5.49c-0.01,0.93-0.27,1.75-1.31,2.02c-0.97,0.25-1.91-0.46-1.91-1.59
			c-0.02-4.03-0.13-8.07,0.09-12.09c0.15-2.76,1.85-4.72,4.48-5.62c2.67-0.91,5.16-0.36,7.14,1.69c1.94,2.01,2.45,4.4,1.4,7.02
			c-0.38,0.96-0.89,1.88-1.44,2.75c-0.65,1.03-0.75,1.96,0.04,2.97c0.62,0.78,1.26,1.6,1.62,2.5c0.22,0.54,0.14,1.51-0.22,1.88
			c-0.36,0.36-1.56,0.52-1.85,0.23c-1.59-1.58-3.08-3.33-3.4-5.64c-0.11-0.79,0.23-1.71,0.56-2.48c0.44-1.02,1.15-1.93,1.62-2.95
			c0.67-1.46,0.31-3.09-0.78-4.14c-1.02-0.98-2.55-1.3-3.83-0.72c-1.47,0.67-2.22,1.82-2.21,3.45
			C277.05-215.04,277.05-213.29,277.04-211.55z"/>
		<path d="M218.88-224.27c1.19,0.53,2.44,0.94,3.54,1.61c0.95,0.58,1.11,1.82,0.52,2.5c-0.71,0.82-1.52,0.62-2.38,0.18
			c-0.62-0.31-1.27-0.66-1.94-0.75c-1-0.13-1.85,0.31-2.14,1.33c-0.3,1.04,0.08,1.91,1.12,2.35c1.15,0.48,2.34,0.89,3.5,1.34
			c3.43,1.33,4.81,4.07,3.83,7.59c-0.73,2.65-3.14,4.35-6.16,4.35c-2.84,0.01-5.61-1.86-6.19-4.37c-0.13-0.58,0.2-1.53,0.65-1.91
			c0.66-0.54,1.43-0.18,2.08,0.48c0.79,0.81,1.62,1.71,2.62,2.17c1.57,0.72,3.47-0.27,3.98-1.8c0.52-1.56-0.25-2.92-2.02-3.57
			c-1.25-0.46-2.56-0.82-3.73-1.42c-2.4-1.24-3.35-3.41-2.7-5.82c0.65-2.4,2.71-3.94,5.29-3.94
			C218.78-224.05,218.83-224.16,218.88-224.27z"/>
		<path d="M261.52-208.5c0,0.96,0.03,1.91-0.01,2.87c-0.04,1.03-0.63,1.66-1.66,1.64c-1.02-0.02-1.59-0.62-1.59-1.69
			c0-1.66,0.04-3.33-0.01-4.99c-0.07-2.03-1.46-3.53-3.36-3.73c-1.66-0.17-3.35,1.11-3.76,2.85c-0.49,2.07,1.03,3.94,3.4,4.35
			c0.6,0.1,1.32,0.58,1.59,1.09c0.21,0.39-0.03,1.28-0.38,1.64c-0.37,0.37-1.13,0.51-1.7,0.47c-3.44-0.21-6.22-3.18-6.27-6.61
			c-0.06-3.63,2.55-6.61,6.12-7.02c3.44-0.39,6.76,1.92,7.43,5.29c0.25,1.25,0.2,2.56,0.29,3.84
			C261.57-208.51,261.55-208.5,261.52-208.5z"/>
		<path d="M271.6-213.82c0,2.61,0.01,5.23,0,7.84c-0.01,1.32-0.62,2.04-1.68,2c-1.01-0.03-1.58-0.72-1.58-1.97
			c-0.01-5.27-0.01-10.54,0-15.81c0-1.36,0.56-2,1.67-1.98c1.06,0.02,1.58,0.64,1.58,1.94C271.61-219.13,271.6-216.48,271.6-213.82z
			"/>
		<path d="M266.37-213.73c0,2.58,0.01,5.16,0,7.74c0,1.34-0.6,2.05-1.65,2.02c-0.99-0.03-1.6-0.75-1.6-1.98
			c-0.01-5.28-0.01-10.57,0-15.85c0-1.28,0.56-1.91,1.62-1.93c1.08-0.01,1.63,0.59,1.63,1.89
			C266.38-219.14,266.37-216.44,266.37-213.73z"/>
		<path class="st7" d="M289.16-209.96c0-1.33,0.01-2.65,0-3.98c-0.01-1.05,0.49-1.68,1.54-1.71c1.06-0.03,1.63,0.63,1.64,1.64
			c0.03,2.78,0.03,5.56,0,8.34c-0.01,1.01-0.59,1.68-1.63,1.66c-1.03-0.02-1.57-0.64-1.55-1.71
			C289.17-207.14,289.16-208.55,289.16-209.96z"/>
		<path class="st7" d="M290.79-217.53c-0.99,0.03-1.83-0.75-1.88-1.76c-0.05-1.13,0.67-1.93,1.77-1.96
			c1.03-0.03,1.85,0.72,1.92,1.73C292.66-218.5,291.82-217.57,290.79-217.53z"/>
	</g>
</g>
<g id="Lumix">
	<g>
		<path d="M455.51-198.26c-1.09,0-2.15,0-3.25,0c0-3.61,0-7.21,0-10.96c-0.15,0.29-0.24,0.44-0.31,0.6c-1.66,3.33-3.32,6.66-4.97,10
			c-0.15,0.3-0.3,0.41-0.57,0.41c-0.87-0.02-1.74-0.02-2.61,0c-0.24,0.01-0.38-0.1-0.51-0.37c-1.66-3.37-3.34-6.72-5.01-10.08
			c-0.07-0.15-0.15-0.29-0.27-0.52c0,3.69,0,7.28,0,10.91c-1.1,0-2.18,0-3.28,0c0-5.92,0-11.86,0-17.88c0.12,0,0.25,0,0.38,0
			c0.83,0,1.67,0.02,2.5-0.01c0.27-0.01,0.42,0.12,0.56,0.42c2.19,4.47,4.38,8.94,6.57,13.4c0.09,0.18,0.18,0.36,0.3,0.6
			c0.11-0.21,0.2-0.37,0.28-0.54c2.25-4.48,4.49-8.95,6.73-13.44c0.17-0.33,0.34-0.45,0.63-0.44c0.93,0.02,1.86,0.01,2.82,0.01
			C455.51-210.18,455.51-204.22,455.51-198.26z"/>
		<path d="M427.83-216.08c1.11,0,2.17,0,3.27,0c0.01,0.16,0.02,0.32,0.02,0.48c0,3.62,0,7.23,0,10.85c0,1.53-0.21,2.99-0.71,4.36
			c-0.2,0.56-0.5,1.06-0.78,1.55c-0.32,0.54-0.79,0.65-1.28,0.65c-0.95,0-1.89,0-2.84,0c-3.21,0-6.42-0.05-9.64,0.03
			c-1.07,0.02-1.71-0.59-2.18-1.74c-0.55-1.34-0.87-2.79-0.88-4.31c-0.03-3.9-0.01-7.79-0.01-11.69c0-0.05,0.01-0.09,0.02-0.18
			c1.07,0,2.15,0,3.26,0c0,0.19,0,0.36,0,0.54c0,3.63,0,7.26,0.01,10.9c0,0.61,0.06,1.22,0.13,1.82c0.09,0.81,0.5,1.24,1.07,1.38
			c0.36,0.09,0.74,0.12,1.11,0.13c2.37,0.01,4.73,0.01,7.1,0c0.36,0,0.72-0.04,1.08-0.12c0.71-0.17,1.06-0.67,1.16-1.62
			c0.05-0.52,0.08-1.05,0.08-1.58c0.01-3.62,0.01-7.23,0.01-10.85C427.83-215.66,427.83-215.86,427.83-216.08z"/>
		<path d="M465.65-198.28c2.66-3.06,5.32-6.11,8.01-9.21c-2.51-2.87-4.99-5.71-7.47-8.55c0.01-0.04,0.01-0.07,0.02-0.11
			c0.12,0,0.23,0,0.35,0c1.11,0,2.22,0.01,3.32-0.01c0.28,0,0.49,0.1,0.7,0.34c1.63,1.89,3.27,3.77,4.9,5.65
			c0.07,0.07,0.13,0.15,0.23,0.25c0.54-0.61,1.08-1.22,1.61-1.83c1.22-1.39,2.44-2.77,3.66-4.15c0.09-0.1,0.21-0.21,0.32-0.21
			c1.3-0.01,2.61-0.01,4.04-0.01c-2.55,2.92-5.02,5.74-7.52,8.6c2.68,3.07,5.34,6.12,8.09,9.27c-0.3,0-0.49,0-0.68,0
			c-1,0.02-1.99,0.02-2.99,0.06c-0.33,0.01-0.58-0.1-0.84-0.4c-1.8-2.09-3.6-4.16-5.41-6.24c-0.07-0.09-0.15-0.17-0.25-0.27
			c-0.91,1.05-1.82,2.1-2.73,3.14c-1.02,1.17-2.03,2.34-3.05,3.5c-0.14,0.16-0.37,0.27-0.56,0.28c-1.13,0.03-2.27,0.01-3.4,0.01
			c-0.11,0-0.21,0-0.32,0C465.67-198.2,465.66-198.24,465.65-198.28z"/>
		<path d="M394.1-221.84c1.29,0,2.53,0,3.83,0c0,0.2,0,0.39,0,0.58c0,6.19,0,12.38,0,18.57c0,0.17,0,0.33,0,0.5
			c0.01,0.67,0.13,0.82,0.62,0.83c0.1,0,0.2,0,0.3,0c3.71,0,7.42,0,11.13,0c0.16,0,0.32,0,0.49,0c0,1.07,0,2.09,0,3.17
			c-0.14,0-0.27,0-0.4,0c-4.94,0-9.88,0-14.83,0c-0.89,0-1.14-0.33-1.14-1.5c0-7.2,0-14.4,0-21.6
			C394.1-221.45,394.1-221.61,394.1-221.84z"/>
		<path d="M460.01-198.23c0-5.95,0-11.88,0-17.84c1.08,0,2.15,0,3.24,0c0,5.94,0,11.87,0,17.84
			C462.18-198.23,461.1-198.23,460.01-198.23z"/>
	</g>
</g>
<g id="DJI">
	<g>
		<path d="M610.87-195.21c0.46-1.32,0.92-2.64,1.38-3.97c0.16-0.46,0.32-0.91,0.47-1.37c0.04-0.14,0.17-0.24,0.32-0.24
			c1.8,0.01,3.61,0.03,5.41,0c1.59-0.03,3.01-0.53,4.2-1.57c0.74-0.65,1.24-1.53,1.47-2.48c0.87-3.64,1.78-7.28,2.67-10.92
			c0.24-1,0.49-1.99,0.73-2.99c0.04-0.15,0.11-0.19,0.25-0.19c2.54,0,5.09,0,7.63,0c0.13,0,0.21,0.1,0.18,0.22
			c-0.77,3.2-1.54,6.4-2.31,9.6c-0.51,2.13-1.01,4.26-1.56,6.39c-0.62,2.42-1.84,4.57-4.04,6.19c-0.44,0.32-0.92,0.57-1.43,0.76
			c-0.81,0.3-1.69,0.42-2.56,0.43L610.87-195.21z"/>
		<path d="M626.97-224.73c-0.09,0.37-0.16,0.71-0.24,1.05c-0.94,3.95-1.89,7.9-2.84,11.85c-0.44,1.83-0.86,3.67-1.33,5.5
			c-0.34,1.32-1.02,2.43-2.21,3.18c-0.72,0.45-1.51,0.71-2.35,0.8c-0.54,0.06-1.09,0.08-1.64,0.08c-6.35,0.01-12.7,0-19.05,0
			c-0.54,0-1.06-0.09-1.56-0.32c-0.78-0.36-1.18-1-1.32-1.82c-0.16-0.95-0.01-1.87,0.21-2.79c0.59-2.49,1.18-4.99,1.8-7.48
			c0.35-1.4,1.07-2.57,2.31-3.37c0.77-0.5,1.62-0.77,2.54-0.83c0.38-0.02,0.76-0.04,1.14-0.04c4.2,0,8.41,0,12.61,0
			c0.09,0,0.17,0,0.28,0c-0.11,0.47-0.22,0.92-0.32,1.37c-0.23,0.95-0.46,1.89-0.67,2.84c-0.05,0.2-0.12,0.26-0.33,0.26
			c-2.17-0.01-4.33-0.01-6.5,0c-0.27,0-0.53,0.03-0.79,0.07c-0.5,0.08-0.83,0.38-0.99,0.84c-0.17,0.52-0.3,1.06-0.43,1.6
			c-0.3,1.24-0.6,2.47-0.88,3.71c-0.07,0.3-0.07,0.62-0.06,0.93c0.01,0.31,0.21,0.52,0.51,0.6c0.22,0.06,0.45,0.09,0.67,0.09
			c2.3,0.01,4.6,0,6.9,0c1.26,0,1.95-0.48,2.29-1.7c0.3-1.08,0.55-2.17,0.81-3.26c0.71-2.94,1.41-5.88,2.11-8.82
			c0.33-1.37,0.66-2.75,0.98-4.12c0.04-0.17,0.1-0.22,0.28-0.22L626.97-224.73z"/>
		<path d="M645.58-218.91c-0.07,0.3-0.13,0.58-0.2,0.86c-1.04,4.41-2.07,8.81-3.11,13.22c-0.19,0.79-0.38,1.58-0.56,2.37
			c-0.03,0.12-0.07,0.18-0.21,0.18c-2.59,0-5.19,0-7.78,0c-0.03,0-0.05-0.01-0.1-0.01c0.06-0.28,0.12-0.55,0.18-0.82
			c0.8-3.4,1.6-6.8,2.4-10.21c0.42-1.8,0.85-3.6,1.27-5.4c0.03-0.14,0.08-0.2,0.23-0.2L645.58-218.91z"/>
	</g>
</g>
<g id="Rode">
	<g>
		<g>
			<path class="st8" d="M782.51-223.43c0-3.16-3.13-5.13-6.03-5.13H768v16.85h5.05v-8.14l3.92,7.99l0.07,0.11h5.77l-4.03-7.05
				C781.08-219.47,782.51-221.24,782.51-223.43z M773.05-226.14h1.47c1.62,0,2.75,1.13,2.75,2.79c0,2.38-1.35,2.82-3.69,2.82h-0.57
				v-5.61H773.05z"/>
			<polygon class="st8" points="825.86,-214.42 825.86,-219.02 831.36,-219.02 831.36,-221.69 825.86,-221.69 825.86,-225.88 
				832,-225.88 832,-228.56 820.81,-228.56 820.81,-211.7 831.97,-211.7 831.97,-214.42 			"/>
			<path class="st8" d="M810.4-228.56h-7.46v16.85h8.22c5.05,0,8.29-3.21,8.29-8.11C819.45-224.9,815.64-228.56,810.4-228.56z
				 M814.21-220.49c0,3.13-1.24,6.48-4.75,6.48h-1.7v-12.25h1.51C812.71-226.25,814.21-223.35,814.21-220.49z"/>
			<path class="st8" d="M801.17-227.42l-1.4-1.4l-1.74,1.74c-1.5-1.21-3.47-1.92-5.61-1.92c-5.05,0-8.97,3.88-8.97,8.86
				c0,2.15,0.75,4.11,1.96,5.61l-1.7,1.7l1.4,1.4l1.74-1.74c1.51,1.17,3.43,1.85,5.54,1.85c5.01,0,8.93-3.88,8.93-8.86
				c0-2.11-0.71-4.03-1.92-5.54L801.17-227.42z M792.42-226.82c1.58,0,2.49,1.02,3.02,2.3l-6.6,6.6c-0.11-0.83-0.15-1.62-0.15-2.22
				C788.69-222.14,789.07-226.82,792.42-226.82z M795.97-222.26c0.11,0.79,0.15,1.54,0.15,2.11c0,2-0.38,6.67-3.73,6.67
				c-1.54,0-2.45-0.98-2.98-2.22L795.97-222.26z"/>
		</g>
		<circle class="st9" cx="800" cy="-195.37" r="6.37"/>
		<g>
			<path d="M770.6-207.11c0-0.68,0.01-1.33,0.02-1.67h-0.02c-0.16,0.46-0.99,2.17-1.5,3.26h-0.31c-0.39-0.85-1.24-2.74-1.43-3.27
				h-0.01c0.03,0.4,0.04,1.2,0.04,1.79v1.47h-0.31v-3.46h0.47c0.56,1.19,1.26,2.74,1.41,3.13h0.01c0.09-0.25,0.9-1.98,1.47-3.13
				h0.46v3.46h-0.31V-207.11z"/>
			<path d="M774.73-208.98v3.46h-0.31v-3.46H774.73z"/>
			<path d="M781.25-206.45c-0.19,0.55-0.67,0.96-1.53,0.96c-1.17,0-1.78-0.79-1.78-1.77c0-0.93,0.6-1.78,1.79-1.78
				c0.88,0,1.39,0.42,1.53,0.99h-0.31c-0.19-0.45-0.53-0.75-1.23-0.75c-1.01,0-1.43,0.79-1.43,1.53c0,0.74,0.42,1.52,1.46,1.52
				c0.66,0,1-0.29,1.2-0.72H781.25z"/>
			<path d="M784.75-207.14v1.62h-0.32v-3.46h1.46c0.8,0,1.22,0.37,1.22,0.91c0,0.44-0.31,0.73-0.76,0.81c0.42,0.08,0.7,0.32,0.7,0.9
				v0.13c0,0.24-0.02,0.57,0.05,0.7h-0.32c-0.08-0.15-0.06-0.43-0.06-0.72v-0.09c0-0.57-0.2-0.81-0.97-0.81H784.75z M784.75-207.39
				h0.98c0.71,0,1.04-0.23,1.04-0.68c0-0.43-0.33-0.67-0.96-0.67h-1.07V-207.39z"/>
			<path d="M793.8-207.28c0,0.94-0.59,1.8-1.84,1.8c-1.14,0-1.81-0.79-1.81-1.78c0-0.98,0.64-1.78,1.85-1.78
				C793.11-209.03,793.8-208.29,793.8-207.28z M790.48-207.27c0,0.8,0.52,1.55,1.49,1.55c1.05,0,1.49-0.73,1.49-1.55
				c0-0.81-0.5-1.51-1.48-1.51C790.94-208.79,790.48-208.05,790.48-207.27z"/>
			<path d="M797-208.98h1.45c0.74,0,1.25,0.35,1.25,0.96c0,0.62-0.5,0.99-1.29,0.99h-1.09v1.51H797V-208.98z M797.32-207.28h1.12
				c0.66,0,0.93-0.3,0.93-0.73c0-0.46-0.36-0.73-0.9-0.73h-1.14V-207.28z"/>
			<path d="M802.84-208.98h0.31v1.51h2.44v-1.51h0.31v3.46h-0.31v-1.71h-2.44v1.71h-0.31V-208.98z"/>
			<path d="M812.76-207.28c0,0.94-0.59,1.8-1.84,1.8c-1.14,0-1.81-0.79-1.81-1.78c0-0.98,0.64-1.78,1.85-1.78
				C812.07-209.03,812.76-208.29,812.76-207.28z M809.45-207.27c0,0.8,0.52,1.55,1.49,1.55c1.05,0,1.49-0.73,1.49-1.55
				c0-0.81-0.5-1.51-1.48-1.51C809.9-208.79,809.45-208.05,809.45-207.27z"/>
			<path d="M815.97-205.52v-3.46h0.46c0.63,0.83,2.12,2.76,2.37,3.14h0.01c-0.03-0.5-0.03-1.01-0.03-1.57v-1.57h0.32v3.46h-0.43
				c-0.6-0.8-2.11-2.81-2.4-3.19h-0.01c0.03,0.46,0.02,0.96,0.02,1.59v1.61H815.97z"/>
			<path d="M824.99-207.22h-2.07v1.45h2.27l-0.05,0.25h-2.53v-3.46h2.49v0.25h-2.17v1.27h2.07V-207.22z"/>
			<path d="M828.36-206.45c0.12,0.46,0.48,0.73,1.15,0.73c0.74,0,1.03-0.32,1.03-0.69c0-0.39-0.2-0.63-1.1-0.82
				c-0.86-0.18-1.23-0.42-1.23-0.92c0-0.46,0.39-0.88,1.26-0.88c0.89,0,1.27,0.46,1.32,0.89h-0.32c-0.09-0.37-0.38-0.64-1.01-0.64
				c-0.59,0-0.9,0.23-0.9,0.62c0,0.38,0.27,0.53,1.01,0.69c1.14,0.24,1.31,0.63,1.31,1.05c0,0.51-0.44,0.95-1.38,0.95
				c-1.01,0-1.39-0.5-1.46-0.97H828.36z"/>
		</g>
	</g>
</g>
<g id="Zoom">
	<g>
		<path d="M91.32-121.48c-2.76,0-5.53,0.03-8.29-0.03c-0.44-0.01-0.99-0.31-1.27-0.67c-1.09-1.36-2.09-2.79-3.11-4.2
			c-0.43-0.6-0.81-0.56-1.24,0.02c-1.09,1.48-2.19,2.96-3.31,4.41c-0.18,0.23-0.53,0.44-0.8,0.44c-5.71,0.03-11.42,0.05-17.13,0.01
			c-1.84-0.01-3.6-2.07-3.61-4.08c-0.02-2.81,0.02-5.63-0.01-8.44c-0.03-2.42,1.82-4.41,3.99-4.44c5.53-0.08,11.06-0.04,16.58,0
			c0.38,0,0.85,0.33,1.11,0.66c1.09,1.4,2.12,2.85,3.17,4.28c0.54,0.74,0.7,0.73,1.27-0.04c1.07-1.46,2.14-2.92,3.26-4.33
			c0.24-0.3,0.69-0.58,1.04-0.58c5.53-0.03,11.06-0.05,16.58,0c2.09,0.02,3.91,2,3.96,4.27c0.05,2.88,0.05,5.76,0,8.64
			c-0.04,2.28-1.84,4.08-3.98,4.08C96.78-121.48,94.05-121.49,91.32-121.48z M91.67-124.98c2.37,0,4.74,0,7.11,0
			c1.21,0,1.42-0.24,1.43-1.56c0-2.32,0-4.65,0-6.97c0-1.13-0.3-1.43-1.38-1.42c-3.89,0-7.78,0.17-11.66-0.05
			c-2.38-0.14-4.18,0.42-5.33,2.76c-0.04,0.08-0.1,0.18-0.18,0.22c-0.33,0.19-0.67,0.49-1.01,0.5c-1.76,0.05-3.52,0.06-5.28,0
			c-0.36-0.01-0.78-0.29-1.04-0.59c-0.62-0.71-1.13-1.54-1.75-2.26c-0.24-0.28-0.65-0.55-0.98-0.55c-4.8-0.04-9.6-0.04-14.4-0.02
			c-1.14,0-1.44,0.37-1.44,1.62c-0.01,2.23,0,4.45,0,6.68c0,1.37,0.26,1.65,1.57,1.65c4.68,0,9.36-0.01,14.03,0.02
			c0.65,0,1.12-0.19,1.42-0.8c1.11-2.23,2.79-2.78,5.13-2.82c2.49-0.04,4.26,0.6,5.44,2.95c0.29,0.58,0.74,0.67,1.3,0.66
			C86.99-124.99,89.33-124.98,91.67-124.98z"/>
		<path d="M50.32-121.54c-0.34,0.02-0.55,0.05-0.75,0.05c-6.96,0-13.91,0-20.87-0.01c-1.87,0-3.41-1.4-3.87-3.46
			c-0.45-2.07,0.39-4.22,1.97-5.13c1.68-0.97,3.54-0.75,5.33-0.98c3.43-0.44,6.87-0.77,10.3-1.14c1.14-0.12,2.3-0.19,3.43-0.36
			c1.09-0.16,1.51-0.61,1.4-1.39c-0.15-1.05-0.93-0.97-1.62-0.97c-5.53-0.01-11.06,0-16.59,0c-0.85,0-1.7,0-2.55,0
			c-0.21,0-0.5,0.07-0.62-0.05c-0.89-0.83-0.28-1.94-0.41-2.92c-0.1-0.71,0.49-0.61,0.89-0.61c6.02,0,12.03-0.02,18.05,0.01
			c1.29,0.01,2.63,0.01,3.85,0.38c2,0.61,3.02,2.64,2.8,4.99c-0.19,2.01-1.75,3.69-3.72,3.91c-2.53,0.29-5.06,0.54-7.6,0.8
			c-3.35,0.35-6.69,0.69-10.03,1.06c-0.66,0.07-1.29,0.39-1.22,1.27c0.06,0.84,0.6,1.1,1.34,1.1c6.47-0.01,12.94,0.01,19.41-0.03
			c0.87-0.01,1.21,0.24,1.11,1.2C50.26-123.08,50.32-122.36,50.32-121.54z"/>
		<path d="M135.16-121.49c-0.85,0-1.72,0.01-2.59,0c-0.63-0.01-0.51-0.51-0.51-0.92c0-3.53-0.01-7.07,0-10.6
			c0-1.71-0.19-1.92-1.78-1.92c-1.18,0-2.37,0.01-3.55,0.01c-1.54,0-1.7,0.18-1.71,1.87c-0.01,1.01-0.06,2.02-0.08,3.03
			c-0.04,1.93-2.02,3.99-4.16,3.88c-1.53-0.08-3.03-0.09-3.97-1.58c-0.48-0.77-0.79-1.74-0.95-2.66c-0.16-0.95-0.01-1.96-0.04-2.94
			c-0.04-1.32-0.32-1.6-1.54-1.61c-1.34-0.01-2.67-0.01-4.01,0c-1.32,0-1.48,0.18-1.48,1.57c0,3.53,0,7.07,0,10.6
			c0,1.28,0,1.28-1.14,1.27c-2.17-0.01-2.17-0.01-2.18-2.39c-0.01-3.21-0.01-6.41,0-9.62c0.01-3.1,1.77-5,4.64-5.01
			c1.49,0,2.98-0.01,4.47,0c2.66,0.01,4.42,1.92,4.43,4.8c0,0.79-0.03,1.57,0.01,2.36c0.05,1.04,0.65,1.71,1.43,1.68
			c0.69-0.03,1.29-0.78,1.32-1.71c0.03-0.88,0.01-1.77,0.01-2.65c0-2.4,1.74-4.39,3.99-4.45c1.85-0.06,3.71-0.06,5.56,0
			c2,0.06,3.89,2,3.92,4.14c0.06,4.16,0.02,8.31,0.01,12.47C135.27-121.78,135.22-121.69,135.16-121.49z"/>
	</g>
</g>
<g id="Panasonic">
	<g>
		<path class="st10" d="M320.02-135.35c-2.05,0-3.79-1.72-3.79-3.74c0-2.05,1.72-3.74,3.79-3.73c2.03,0,3.81,1.75,3.82,3.73
			C323.85-137.13,322.03-135.35,320.02-135.35z M323.4-139.03c-0.02-2-1.43-3.44-3.38-3.44c-1.89,0-3.5,1.57-3.49,3.41
			c0.01,1.75,1.66,3.33,3.47,3.32C321.97-135.75,323.42-137.15,323.4-139.03z"/>
	</g>
	<g id="logo" transform="translate(-60 -19)">
		<g id="logo-2" transform="translate(60 19)">
			<path id="パス_25" d="M328.54-121.64c-1.06,1.16-2.46,1.95-4,2.26c-1.02,0.22-2.07,0.28-3.12,0.17
				c-1.4-0.13-2.73-0.66-3.84-1.52c-0.91-0.68-1.67-1.55-2.22-2.54c-0.44-0.77-0.74-1.61-0.89-2.48c-0.22-1.22-0.17-2.48,0.17-3.67
				c0.68-2.79,2.91-4.92,5.73-5.47c1.56-0.33,3.18-0.29,4.73,0.11c1.12,0.26,2.14,0.82,2.95,1.63c0.53,0.47,0.97,1.05,1.28,1.69
				c0.39,0.77,0.56,1.63,0.5,2.48h-5.12c-0.11-0.67-0.47-1.28-1-1.69c-0.68-0.57-1.66-0.62-2.39-0.11c-0.5,0.32-0.88,0.8-1.06,1.36
				c-0.44,1.36-0.46,2.81-0.06,4.18c0.15,0.58,0.46,1.11,0.89,1.52c0.49,0.47,1.16,0.7,1.84,0.62c0.41-0.06,0.78-0.26,1.06-0.56
				c0.29-0.33,0.49-0.74,0.56-1.18c0.06-0.3,0.1-0.6,0.11-0.9h5.4C330.15-124.24,329.61-122.74,328.54-121.64"/>
			<rect id="長方形_5" x="307.96" y="-140.88" width="5.56" height="4.01"/>
			<rect id="長方形_6" x="307.96" y="-134.84" width="5.56" height="15.18"/>
			<path id="パス_26" d="M296.34-133.21c0.68-0.64,1.47-1.16,2.34-1.52c1.37-0.67,2.94-0.79,4.39-0.34
				c1.61,0.46,2.87,1.72,3.34,3.33c0.22,0.75,0.33,1.53,0.33,2.31v9.76h-5.95v-8.8c-0.01-0.28-0.05-0.57-0.11-0.85
				c-0.14-0.48-0.49-0.88-0.95-1.07c-1.05-0.45-2.28-0.04-2.84,0.96c-0.22,0.4-0.34,0.84-0.33,1.3v8.47h-5.73v-15.18h5.4
				L296.34-133.21z"/>
			<path id="パス_27" d="M230.26-133.21c0.68-0.64,1.47-1.16,2.34-1.52c1.37-0.67,2.94-0.79,4.39-0.34
				c1.61,0.46,2.87,1.72,3.34,3.33c0.22,0.75,0.33,1.53,0.33,2.31v9.76h-5.9v-8.8c-0.01-0.28-0.05-0.57-0.11-0.85
				c-0.14-0.48-0.49-0.88-0.95-1.07c-1.05-0.45-2.28-0.04-2.84,0.96c-0.22,0.4-0.34,0.84-0.33,1.3v8.47h-5.78v-15.18h5.4
				L230.26-133.21z"/>
			<path id="パス_28" d="M265.53-125.25c0.41,0.07,0.82,0.16,1.22,0.28c0.33,0.12,0.58,0.4,0.67,0.73
				c0.08,0.36-0.02,0.74-0.27,1.02c-0.27,0.28-0.62,0.46-1,0.51c-0.5,0.11-1.03,0.05-1.5-0.17c-0.22-0.1-0.43-0.23-0.61-0.39
				c-0.26-0.19-0.44-0.47-0.5-0.79c-0.06-0.26-0.1-0.52-0.11-0.79h-5.45v0.34c-0.02,0.5,0.08,1,0.27,1.47
				c0.27,0.7,0.69,1.34,1.22,1.86c0.7,0.67,1.56,1.16,2.5,1.41c1.93,0.56,3.96,0.69,5.95,0.39c0.94-0.13,1.84-0.44,2.67-0.9
				c0.37-0.19,0.73-0.42,1.06-0.68c1.47-1.22,2.04-3.21,1.45-5.02c-0.21-0.67-0.59-1.28-1.11-1.75c-0.71-0.65-1.57-1.11-2.5-1.36
				c-0.22-0.06-0.39-0.11-0.61-0.17c-1.11-0.33-2.24-0.58-3.39-0.73c-0.33-0.06-0.61-0.11-0.89-0.17c-0.13-0.03-0.26-0.07-0.39-0.11
				c-0.34-0.16-0.49-0.56-0.33-0.9c0,0,0,0,0,0v-0.05c0.14-0.32,0.43-0.55,0.78-0.62c0.6-0.18,1.25-0.16,1.84,0.06
				c0.58,0.19,0.97,0.75,0.95,1.36h5.28c0-0.62-0.11-1.23-0.33-1.81c-0.2-0.6-0.57-1.13-1.06-1.52c-0.42-0.34-0.89-0.6-1.39-0.79
				c-0.5-0.21-1.02-0.36-1.56-0.45c-1.23-0.22-2.48-0.29-3.73-0.23c-0.72,0.03-1.43,0.14-2.11,0.34c-0.95,0.22-1.85,0.64-2.61,1.24
				c-0.65,0.53-1.14,1.23-1.39,2.03c-0.1,0.37-0.18,0.75-0.22,1.13c-0.06,0.64,0.06,1.28,0.33,1.86c0.38,1.07,1.22,1.91,2.28,2.31
				c0.52,0.22,1.06,0.39,1.61,0.51c0.83,0.17,1.84,0.39,3,0.56"/>
			<path id="パス_29" d="M200.12-126.21h-3.84v-4.97h2.5c0.45,0.01,0.89-0.01,1.33-0.06c0.64-0.03,1.22-0.34,1.61-0.85
				c0.21-0.26,0.34-0.57,0.39-0.9c0.06-0.28,0.06-0.57,0-0.85c-0.09-1.1-1.01-1.94-2.11-1.92h-3.73v16.14h-6.34v-21.28h10.4
				c0.39-0.01,0.78,0.01,1.17,0.06c2.7,0.13,5.09,1.77,6.18,4.23c0.61,1.24,0.84,2.64,0.67,4.01c-0.29,2.99-2.47,5.45-5.4,6.09
				C202.03-126.29,201.08-126.19,200.12-126.21"/>
			<path id="パス_30" d="M283.44-135.12c-0.55-0.09-1.11-0.13-1.67-0.11c-0.56,0.01-1.12,0.05-1.67,0.11
				c-1.65,0.23-3.18,1.01-4.34,2.2c-1.3,1.25-2.1,2.94-2.22,4.74c-0.1,1.1-0.01,2.21,0.27,3.27c0.41,1.64,1.37,3.1,2.72,4.12
				c0.86,0.69,1.87,1.17,2.95,1.41c0.77,0.16,1.55,0.24,2.34,0.23c0.78,0.01,1.57-0.07,2.34-0.23c1.09-0.21,2.1-0.7,2.95-1.41
				l-3.23-3.56c-0.5,1.12-1.82,1.63-2.94,1.13c0,0,0,0-0.01,0c-0.5-0.22-0.9-0.63-1.11-1.13c-0.21-0.47-0.36-0.96-0.44-1.47
				c-0.15-1.01-0.13-2.04,0.06-3.05c0.09-0.53,0.3-1.03,0.61-1.47c0.65-1,1.98-1.28,2.98-0.64c0.25,0.16,0.47,0.38,0.64,0.64
				c0.29,0.45,0.5,0.94,0.61,1.47c0.21,1,0.23,2.04,0.06,3.05c-0.07,0.51-0.22,1-0.44,1.47l3.23,3.56c1.35-1.02,2.31-2.48,2.72-4.12
				c0.31-1.06,0.41-2.17,0.27-3.27c-0.13-1.8-0.92-3.49-2.22-4.74c-1.22-1.18-2.77-1.95-4.45-2.2"/>
			<path id="パス_31" d="M257.18-120.85c-0.11-1.24-0.11-2.31-0.17-3.56c-0.06-1.63-0.06-3.05-0.06-4.68
				c0-0.84-0.11-1.67-0.33-2.48c-0.25-1.09-0.96-2.01-1.95-2.54c-0.57-0.33-1.19-0.56-1.84-0.68c-2.05-0.46-4.17-0.5-6.23-0.11
				c-0.57,0.11-1.13,0.28-1.67,0.51c-1.28,0.53-2.26,1.61-2.67,2.93c-0.17,0.51-0.23,1.05-0.17,1.58c0,0.11,0.06,0.17,0.06,0.28
				l5.01,0.11c0.01-0.3,0.04-0.61,0.11-0.9c0.16-0.44,0.51-0.8,0.95-0.96c0.64-0.24,1.35-0.26,2-0.06c0.45,0.13,0.79,0.5,0.89,0.96
				c0.11,0.26,0.06,0.57-0.11,0.79c-0.14,0.2-0.34,0.35-0.56,0.45c-0.17,0.06-0.27,0.11-0.44,0.17c-0.72,0.17-1.28,0.34-2,0.45
				c-0.56,0.11-1.06,0.17-1.61,0.28c-0.78,0.17-1.39,0.34-2.11,0.56c-0.65,0.19-1.24,0.54-1.72,1.02c-0.66,0.61-1.09,1.42-1.22,2.31
				c-0.09,0.58-0.07,1.18,0.06,1.75c0.31,1.54,1.44,2.78,2.95,3.22c1.63,0.49,3.37,0.41,4.95-0.23c0.76-0.32,1.42-0.82,1.94-1.46
				l-0.33-2.6c-0.23,0.38-0.59,0.68-1,0.85c-0.37,0.16-0.77,0.28-1.17,0.34c-0.34,0.05-0.68,0.01-1-0.11
				c-0.28-0.07-0.53-0.23-0.72-0.45c-0.16-0.17-0.28-0.39-0.33-0.62c-0.06-0.37,0.06-0.75,0.33-1.02c0.19-0.15,0.4-0.28,0.61-0.39
				c0.54-0.22,1.1-0.41,1.67-0.56c0.68-0.21,1.35-0.46,2-0.73c0.06,0.53,0.06,1.06,0,1.58c-0.05,0.38-0.18,0.75-0.39,1.07l0.33,2.6
				c0.11,0.39,0.22,0.68,0.33,1.02c0.06,0.19,0.15,0.36,0.27,0.51h5.56C257.35-120.06,257.24-120.4,257.18-120.85"/>
			<path id="パス_32" d="M223.65-120.85c-0.11-1.24-0.11-2.31-0.17-3.56c-0.06-1.63-0.06-3.05-0.06-4.68
				c0-0.84-0.11-1.67-0.33-2.48c-0.25-1.09-0.96-2.01-1.95-2.54c-0.57-0.33-1.19-0.56-1.84-0.68c-2.05-0.46-4.17-0.5-6.23-0.11
				c-0.57,0.11-1.13,0.28-1.67,0.51c-1.28,0.53-2.26,1.61-2.67,2.93c-0.17,0.51-0.23,1.05-0.17,1.58c0,0.11,0.06,0.17,0.06,0.28
				l5.01,0.11c0.01-0.3,0.04-0.61,0.11-0.9c0.16-0.44,0.51-0.8,0.95-0.96c0.64-0.24,1.35-0.26,2-0.06c0.45,0.13,0.79,0.5,0.89,0.96
				c0.11,0.26,0.06,0.57-0.11,0.79c-0.14,0.2-0.34,0.35-0.56,0.45c-0.17,0.06-0.27,0.11-0.44,0.17c-0.72,0.17-1.28,0.34-2,0.45
				c-0.56,0.11-1.06,0.17-1.61,0.28c-0.78,0.17-1.39,0.34-2.11,0.56c-0.65,0.19-1.24,0.54-1.72,1.02c-0.67,0.6-1.08,1.42-1.17,2.31
				c-0.09,0.58-0.07,1.18,0.06,1.75c0.31,1.54,1.44,2.78,2.95,3.22c1.63,0.49,3.37,0.41,4.95-0.23c0.76-0.32,1.42-0.82,1.94-1.46
				l-0.33-2.6c-0.23,0.38-0.59,0.68-1,0.85c-0.37,0.16-0.77,0.28-1.17,0.34c-0.34,0.05-0.68,0.01-1-0.11
				c-0.28-0.07-0.53-0.23-0.72-0.45c-0.16-0.17-0.28-0.39-0.33-0.62c-0.06-0.37,0.06-0.75,0.33-1.02c0.19-0.15,0.4-0.28,0.61-0.39
				c0.54-0.22,1.1-0.41,1.67-0.56c0.68-0.21,1.35-0.46,2-0.73c0.06,0.53,0.06,1.06,0,1.58c-0.05,0.38-0.18,0.75-0.39,1.07l0.33,2.6
				c0.11,0.39,0.22,0.68,0.33,1.02c0.06,0.19,0.15,0.36,0.27,0.51h5.56C223.79-120.05,223.7-120.44,223.65-120.85"/>
		</g>
		<path id="Color_Overlay" d="M304.34-100.44c-1.5-0.44-2.64-1.68-2.95-3.22c-0.13-0.57-0.15-1.17-0.06-1.75
			c0.13-0.89,0.56-1.7,1.22-2.31c0.48-0.47,1.07-0.82,1.72-1.02c0.72-0.23,1.33-0.4,2.11-0.56c0.56-0.11,1.06-0.17,1.61-0.28
			c0.72-0.11,1.28-0.28,2-0.45c0.17-0.06,0.27-0.11,0.44-0.17c0.22-0.1,0.41-0.26,0.56-0.45c0.17-0.23,0.22-0.53,0.11-0.79
			c-0.1-0.46-0.44-0.82-0.89-0.96c-0.65-0.21-1.36-0.19-2,0.06c-0.44,0.16-0.79,0.52-0.95,0.96c-0.07,0.3-0.1,0.6-0.11,0.9l-5-0.11
			c0-0.11-0.06-0.17-0.06-0.28c-0.06-0.53,0-1.07,0.17-1.58c0.4-1.33,1.38-2.41,2.67-2.93c0.54-0.23,1.1-0.4,1.67-0.51
			c2.06-0.39,4.18-0.35,6.23,0.11c0.65,0.12,1.27,0.35,1.84,0.68c0.98,0.53,1.69,1.45,1.95,2.53c0.22,0.81,0.34,1.64,0.33,2.48
			c0,1.63,0,3.05,0.06,4.68c0.06,1.24,0.06,2.31,0.17,3.56c0.06,0.45,0.17,0.79,0.22,1.18h-5.57c-0.12-0.15-0.22-0.32-0.27-0.51
			c-0.11-0.34-0.22-0.62-0.33-1.02l-0.33-2.6c0.21-0.32,0.34-0.69,0.39-1.07c0.06-0.52,0.06-1.05,0-1.58
			c-0.65,0.28-1.32,0.52-2,0.73c-0.57,0.15-1.12,0.34-1.67,0.56c-0.22,0.11-0.42,0.24-0.61,0.4c-0.27,0.26-0.4,0.64-0.33,1.02
			c0.05,0.23,0.17,0.45,0.33,0.62c0.19,0.22,0.44,0.38,0.72,0.45c0.32,0.12,0.66,0.16,1,0.11c0.4-0.06,0.8-0.17,1.17-0.34
			c0.42-0.17,0.77-0.46,1-0.85l0.33,2.6c-0.52,0.64-1.19,1.15-1.95,1.47c-0.9,0.35-1.85,0.53-2.82,0.54
			C305.74-100.12,305.03-100.23,304.34-100.44z M270.86-100.44c-1.5-0.44-2.64-1.68-2.95-3.22c-0.13-0.57-0.15-1.17-0.06-1.75
			c0.09-0.89,0.5-1.72,1.17-2.31c0.48-0.48,1.08-0.82,1.72-1.02c0.72-0.23,1.33-0.4,2.11-0.56c0.56-0.11,1.06-0.17,1.61-0.28
			c0.72-0.11,1.28-0.28,2-0.45c0.17-0.06,0.27-0.11,0.44-0.17c0.22-0.1,0.41-0.26,0.56-0.45c0.18-0.22,0.22-0.53,0.11-0.79
			c-0.1-0.46-0.44-0.82-0.89-0.96c-0.65-0.21-1.36-0.19-2,0.06c-0.44,0.17-0.79,0.52-0.95,0.96c-0.07,0.3-0.11,0.6-0.11,0.9
			l-5.01-0.11c0-0.11-0.06-0.17-0.06-0.28c-0.06-0.53,0-1.07,0.17-1.58c0.4-1.33,1.38-2.41,2.67-2.93c0.54-0.23,1.1-0.4,1.67-0.51
			c2.06-0.39,4.18-0.35,6.23,0.11c0.65,0.12,1.27,0.35,1.84,0.68c0.98,0.53,1.69,1.45,1.95,2.54c0.22,0.81,0.34,1.64,0.33,2.48
			c0,1.63,0,3.05,0.05,4.68c0.06,1.24,0.06,2.31,0.17,3.56c0.06,0.4,0.15,0.8,0.27,1.18h-5.56c-0.12-0.15-0.22-0.32-0.27-0.51
			c-0.11-0.34-0.22-0.62-0.33-1.02l-0.33-2.6c0.21-0.32,0.34-0.69,0.39-1.07c0.06-0.52,0.06-1.05,0-1.58
			c-0.65,0.28-1.32,0.52-2,0.73c-0.57,0.15-1.12,0.34-1.67,0.56c-0.22,0.11-0.42,0.24-0.61,0.4c-0.27,0.26-0.4,0.64-0.33,1.02
			c0.05,0.23,0.17,0.45,0.33,0.62c0.19,0.22,0.44,0.38,0.72,0.45c0.32,0.12,0.66,0.16,1,0.11c0.4-0.06,0.8-0.17,1.17-0.34
			c0.42-0.17,0.77-0.46,1-0.85l0.33,2.6c-0.52,0.64-1.19,1.15-1.95,1.47c-0.9,0.35-1.85,0.53-2.82,0.54
			C272.26-100.12,271.55-100.23,270.86-100.44L270.86-100.44z M381.42-100.21c-1.4-0.13-2.73-0.66-3.84-1.52
			c-0.91-0.68-1.67-1.55-2.22-2.54c-0.44-0.77-0.74-1.61-0.89-2.48c-0.23-1.22-0.17-2.48,0.17-3.67c0.68-2.78,2.92-4.92,5.73-5.47
			c1.56-0.33,3.18-0.29,4.73,0.11c1.12,0.26,2.14,0.82,2.95,1.63c0.53,0.47,0.97,1.05,1.28,1.69c0.39,0.77,0.56,1.63,0.5,2.48h-5.12
			c-0.11-0.67-0.47-1.28-1-1.69c-0.68-0.57-1.66-0.62-2.39-0.11c-0.5,0.32-0.88,0.8-1.06,1.36c-0.43,1.36-0.45,2.81-0.05,4.18
			c0.15,0.58,0.46,1.11,0.89,1.52c0.49,0.47,1.16,0.7,1.84,0.62c0.41-0.06,0.78-0.26,1.06-0.56c0.29-0.33,0.49-0.75,0.56-1.18
			c0.06-0.3,0.1-0.6,0.11-0.9h5.4c0.11,1.52-0.43,3.02-1.5,4.12c-1.06,1.16-2.46,1.95-4,2.26c-0.69,0.15-1.38,0.22-2.09,0.23
			C382.11-100.15,381.76-100.17,381.42-100.21L381.42-100.21z M339.49-100.38c-1.08-0.24-2.09-0.72-2.95-1.41
			c-1.35-1.02-2.31-2.48-2.72-4.12c-0.28-1.07-0.38-2.17-0.27-3.27c0.13-1.8,0.92-3.49,2.22-4.74c1.16-1.2,2.69-1.97,4.34-2.2
			c0.55-0.07,1.1-0.11,1.66-0.11c0.56-0.02,1.12,0.02,1.67,0.11c1.68,0.25,3.23,1.02,4.45,2.2c1.3,1.25,2.1,2.94,2.22,4.74
			c0.13,1.1,0.04,2.21-0.27,3.27c-0.41,1.64-1.37,3.1-2.72,4.12c-0.85,0.71-1.86,1.2-2.95,1.41c-0.77,0.16-1.55,0.23-2.34,0.23
			C341.05-100.14,340.26-100.22,339.49-100.38L339.49-100.38z M340.04-111.33c-0.32,0.43-0.53,0.94-0.61,1.47
			c-0.19,1.01-0.2,2.04-0.06,3.05c0.09,0.51,0.24,1,0.44,1.47c0.22,0.5,0.61,0.91,1.11,1.13c1.12,0.5,2.44,0,2.94-1.12
			c0,0,0,0,0-0.01c0.22-0.46,0.37-0.96,0.44-1.47c0.18-1.01,0.16-2.04-0.06-3.05c-0.11-0.52-0.32-1.02-0.61-1.47
			c-0.64-1-1.96-1.29-2.96-0.65C340.43-111.81,340.21-111.59,340.04-111.33L340.04-111.33z M321.97-100.77
			c-0.94-0.25-1.8-0.74-2.5-1.41c-0.54-0.52-0.96-1.16-1.22-1.86c-0.2-0.46-0.29-0.96-0.27-1.47v-0.34h5.45
			c0.01,0.27,0.05,0.53,0.11,0.79c0.06,0.32,0.24,0.6,0.5,0.79c0.18,0.16,0.39,0.3,0.61,0.39c0.47,0.22,0.99,0.28,1.5,0.17
			c0.38-0.05,0.73-0.23,1-0.51c0.25-0.27,0.36-0.65,0.27-1.02c-0.09-0.34-0.34-0.61-0.67-0.73c-0.4-0.12-0.81-0.21-1.22-0.28
			c-1.17-0.17-2.17-0.39-3-0.56c-0.55-0.12-1.09-0.29-1.61-0.51c-1.06-0.4-1.89-1.25-2.27-2.32c-0.28-0.58-0.39-1.22-0.33-1.86
			c0.05-0.38,0.12-0.76,0.22-1.13c0.26-0.8,0.74-1.5,1.39-2.03c0.77-0.6,1.66-1.02,2.61-1.24c0.69-0.2,1.4-0.31,2.11-0.34
			c1.25-0.07,2.5,0.01,3.73,0.23c0.53,0.09,1.06,0.24,1.56,0.45c0.5,0.19,0.97,0.45,1.39,0.79c0.49,0.4,0.86,0.92,1.06,1.52
			c0.22,0.58,0.34,1.19,0.33,1.81h-5.28c0.02-0.61-0.36-1.17-0.95-1.36c-0.59-0.22-1.23-0.24-1.84-0.06
			c-0.34,0.07-0.64,0.3-0.78,0.62v0.06c-0.16,0.34-0.01,0.75,0.33,0.9c0,0,0,0,0,0c0.13,0.05,0.26,0.08,0.39,0.11
			c0.27,0.06,0.56,0.11,0.89,0.17c1.15,0.16,2.28,0.4,3.39,0.73c0.22,0.06,0.39,0.11,0.61,0.17c0.93,0.25,1.79,0.71,2.5,1.36
			c0.52,0.47,0.91,1.08,1.11,1.75c0.6,1.81,0.02,3.8-1.45,5.02c-0.33,0.26-0.68,0.49-1.06,0.68c-0.82,0.47-1.73,0.77-2.67,0.9
			c-0.71,0.1-1.42,0.15-2.13,0.15C324.5-100.23,323.21-100.41,321.97-100.77z M249.94-100.61v-21.28h10.4
			c0.39-0.01,0.78,0.01,1.16,0.06c2.69,0.13,5.08,1.77,6.17,4.23c0.61,1.24,0.84,2.64,0.67,4.01c-0.29,2.99-2.47,5.45-5.4,6.1
			c-0.93,0.21-1.88,0.3-2.84,0.28h-3.83v6.6H249.94z M256.28-112.17h2.5c0.45,0.01,0.89-0.01,1.33-0.06
			c0.64-0.03,1.22-0.34,1.61-0.85c0.21-0.26,0.34-0.57,0.39-0.9c0.06-0.28,0.06-0.57,0-0.85c-0.08-1.1-1.01-1.95-2.11-1.93h-3.73
			V-112.17z M367.97-100.66v-15.19h5.56v15.18L367.97-100.66z M360.79-100.66v-8.81c-0.01-0.29-0.05-0.57-0.12-0.85
			c-0.14-0.48-0.48-0.88-0.95-1.07c-1.05-0.45-2.28-0.04-2.84,0.96c-0.22,0.4-0.33,0.84-0.33,1.3v8.47h-5.73v-15.18h5.4l0.11,1.63
			c0.68-0.64,1.47-1.16,2.34-1.52c1.37-0.67,2.94-0.79,4.39-0.34c1.61,0.46,2.87,1.72,3.34,3.33c0.22,0.75,0.33,1.53,0.33,2.31v9.77
			L360.79-100.66z M294.78-100.66v-8.81c-0.01-0.28-0.05-0.57-0.11-0.85c-0.14-0.48-0.48-0.88-0.95-1.07
			c-1.05-0.45-2.28-0.04-2.84,0.96c-0.22,0.4-0.34,0.84-0.33,1.3v8.47h-5.79v-15.18h5.4l0.11,1.63c0.68-0.64,1.47-1.16,2.34-1.52
			c1.37-0.67,2.94-0.79,4.39-0.34c1.61,0.46,2.87,1.72,3.34,3.33c0.22,0.75,0.33,1.53,0.33,2.31v9.77L294.78-100.66z M367.96-117.87
			v-4.01h5.56v4.01L367.96-117.87z"/>
	</g>
</g>
<g id="Sigma">
	<g>
		<path d="M447.24-138.52c0.55,0,1.06,0,1.58,0c1.09,0,2.19,0.01,3.28-0.01c0.33-0.01,0.46,0.08,0.55,0.41
			c0.94,3.34,1.91,6.68,2.87,10.02c0.03,0.1,0.06,0.2,0.13,0.39c0.1-0.33,0.18-0.56,0.25-0.8c0.92-3.23,1.85-6.46,2.77-9.69
			c0.05-0.18,0.08-0.34,0.35-0.34c1.65,0.01,3.29,0.01,4.94,0.01c0.05,0,0.09,0.01,0.18,0.02c1,6.25,2,12.51,3.01,18.8
			c-1.4,0-2.75,0-4.12,0c-0.62-4.55-1.24-9.1-1.86-13.65c-0.03,0-0.07,0-0.1,0c-1.23,4.55-2.47,9.09-3.71,13.65
			c-1.13,0-2.26,0-3.41,0c-1.24-4.56-2.48-9.11-3.71-13.67c-0.03,0-0.06,0-0.09,0c-0.67,4.55-1.34,9.09-2.02,13.66
			c-1.3,0-2.6,0-3.96,0C445.17-125.96,446.2-132.22,447.24-138.52z"/>
		<path d="M431.4-130.54c3.69,0,7.32,0,10.95,0c0.02,0.04,0.04,0.08,0.04,0.11c0.06,1.79,0.04,3.58-0.23,5.36
			c-0.43,2.8-2.05,4.6-4.7,5.47c-3.37,1.1-6.77,1.2-10.13-0.02c-3.41-1.24-5.34-3.74-5.85-7.31c-0.28-1.94-0.27-3.89,0.32-5.78
			c1.08-3.44,3.46-5.52,6.98-6.28c4.17-0.9,8.19-0.37,12.09,1.29c0.05,0.02,0.11,0.05,0.16,0.08c0.03,0.02,0.06,0.04,0.12,0.08
			c-0.31,1.07-0.63,2.14-0.95,3.24c-0.63-0.21-1.23-0.44-1.84-0.62c-1.92-0.58-3.87-1.01-5.89-0.86c-0.83,0.06-1.67,0.13-2.47,0.35
			c-2.38,0.66-3.83,2.22-4.23,4.69c-0.25,1.54-0.21,3.06,0.33,4.54c0.81,2.25,2.47,3.45,4.81,3.71c1.27,0.14,2.55,0.15,3.83-0.05
			c1.95-0.3,2.92-1.45,3.25-3.4c0.05-0.31,0.04-0.63,0.07-0.94c0.02-0.29-0.1-0.38-0.39-0.38c-1.82,0.01-3.64,0.01-5.47,0.01
			c-0.79,0-0.79,0-0.79-0.8C431.4-128.87,431.4-129.69,431.4-130.54z"/>
		<path d="M394.39-124.02c1.5,0.61,3.02,1.04,4.59,1.3c2.02,0.33,4.04,0.5,6.05,0.02c0.52-0.12,1.03-0.33,1.49-0.6
			c0.73-0.42,1.03-1.1,0.89-1.94c-0.14-0.87-0.68-1.49-1.54-1.61c-1.25-0.19-2.51-0.3-3.78-0.43c-1.86-0.18-3.72-0.36-5.51-0.92
			c-1.84-0.57-2.84-1.91-3.17-3.73c-0.59-3.24,1.06-5.8,4.35-6.85c2-0.64,4.06-0.81,6.16-0.68c2.06,0.12,4.08,0.44,6.04,1.09
			c0.37,0.12,0.73,0.26,1.08,0.42c0.07,0.03,0.16,0.18,0.14,0.25c-0.27,1.08-0.55,2.15-0.82,3.21c-0.84-0.26-1.65-0.56-2.49-0.77
			c-2.4-0.6-4.84-0.81-7.3-0.44c-0.65,0.1-1.3,0.32-1.9,0.58c-0.78,0.35-1.09,1.03-0.99,1.88c0.1,0.79,0.56,1.32,1.31,1.48
			c1.01,0.21,2.04,0.31,3.06,0.42c1.77,0.2,3.55,0.34,5.32,0.58c1.01,0.14,1.94,0.55,2.73,1.22c1.05,0.88,1.54,2.04,1.72,3.36
			c0.29,2.16-0.23,4.05-2.05,5.39c-0.65,0.48-1.41,0.84-2.15,1.18c-1.3,0.6-2.71,0.76-4.12,0.84c-3.27,0.18-6.43-0.39-9.5-1.46
			c-0.3-0.1-0.36-0.24-0.29-0.54c0.22-0.99,0.41-1.99,0.61-2.99C394.34-123.84,394.36-123.91,394.39-124.02z"/>
		<path d="M488.61-119.68c-1.39,0-2.73,0.01-4.07-0.01c-0.1,0-0.26-0.14-0.3-0.25c-0.4-1.02-0.8-2.05-1.17-3.08
			c-0.09-0.26-0.22-0.32-0.49-0.32c-2.9,0.01-5.81,0.01-8.71,0c-0.29,0-0.41,0.1-0.5,0.36c-0.39,1.02-0.8,2.03-1.22,3.03
			c-0.05,0.11-0.19,0.27-0.29,0.27c-1.29,0.02-2.58,0.01-3.93,0.01c0.06-0.16,0.11-0.29,0.16-0.42c2.45-6.05,4.9-12.11,7.34-18.16
			c0.1-0.26,0.23-0.35,0.51-0.35c1.66,0.01,3.31,0.01,4.97,0c0.29,0,0.41,0.09,0.51,0.35c2.34,6.06,4.69,12.11,7.04,18.17
			C488.51-119.97,488.55-119.85,488.61-119.68z M481.64-126.74c-1.1-2.87-2.18-5.69-3.29-8.6c-1.2,2.92-2.36,5.74-3.53,8.6
			C477.11-126.74,479.34-126.74,481.64-126.74z"/>
		<path d="M414.67-138.58c1.31,0,2.6,0,3.92,0c0,6.3,0,12.59,0,18.89c-1.31,0-2.6,0-3.92,0
			C414.67-125.98,414.67-132.26,414.67-138.58z"/>
	</g>
</g>
<g id="Sandisk">
	<g>
		<path class="st11" d="M598.38-119.2c-0.17,0.47-0.3,0.9-0.48,1.3c-0.05,0.11-0.24,0.21-0.37,0.21c-1.04,0.02-2.07,0.02-3.11,0
			c-0.66-0.01-1.13-0.36-1.43-0.94c-0.14-0.27-0.24-0.56-0.39-0.93c-0.25,0.27-0.44,0.54-0.69,0.73c-1.94,1.48-4.08,1.81-6.31,0.86
			c-2.03-0.87-2.68-2.64-2.65-4.72c0.03-1.9,1.08-3.1,2.76-3.8c1.87-0.78,3.85-0.84,5.84-0.8c0.23,0.01,0.47,0.02,0.8,0.04
			c-0.07-1.35,0.26-2.67-0.31-3.93c-0.44-0.97-1.49-1.44-2.66-1.27c-1.26,0.18-2.25,0.83-3,1.82c-0.45,0.59-1.01,0.47-1.57,0.44
			c-0.09-0.01-0.25-0.22-0.25-0.34c-0.02-0.78-0.03-1.56,0.02-2.34c0.01-0.18,0.28-0.44,0.46-0.48c1.11-0.26,2.23-0.56,3.36-0.67
			c1.66-0.17,3.34-0.19,4.97,0.32c2.13,0.67,3.28,2.17,3.3,4.4c0.02,2.76,0.01,5.52,0.01,8.28c0,0.24,0,0.47,0.04,0.71
			c0.11,0.7,0.46,1.01,1.16,1.07C598.02-119.23,598.16-119.22,598.38-119.2z M592.35-125.51c-1.41-0.02-2.72,0.01-3.94,0.54
			c-1.52,0.66-2.05,3.1-0.91,4.31c0.28,0.3,0.71,0.52,1.11,0.62c1.47,0.34,2.61-0.3,3.58-1.34c0.08-0.09,0.16-0.22,0.16-0.33
			C592.36-122.96,592.35-124.21,592.35-125.51z"/>
		<path class="st11" d="M644.88-120.93c0-0.49,0-0.98,0-1.47c0-0.31,0.12-0.43,0.45-0.47c0.77-0.09,1.22,0.14,1.61,0.9
			c0.41,0.8,1.04,1.54,1.73,2.13c1.05,0.91,2.33,1.03,3.65,0.6c0.8-0.26,1.28-0.81,1.36-1.66c0.08-0.85-0.26-1.54-1.04-1.87
			c-1-0.43-2.04-0.74-3.07-1.11c-0.65-0.24-1.32-0.43-1.92-0.75c-2-1.06-2.96-2.91-2.68-5.04c0.25-1.93,1.76-3.51,3.92-3.97
			c2.27-0.49,4.52-0.16,6.75,0.37c0.17,0.04,0.39,0.34,0.4,0.54c0.04,0.83,0.01,1.67,0.02,2.51c0,0.29-0.13,0.37-0.39,0.38
			c-0.53,0.03-0.91-0.08-1.3-0.56c-1.08-1.34-2.54-2.01-4.28-1.74c-0.53,0.08-1.12,0.38-1.51,0.76c-0.84,0.82-0.64,2.14,0.4,2.66
			c0.84,0.42,1.76,0.65,2.65,0.96c0.79,0.27,1.62,0.45,2.38,0.78c2.05,0.91,2.97,2.45,2.86,4.62c-0.11,2.29-1.3,4.05-3.34,4.7
			c-2.89,0.92-5.64,0.41-8.22-1.09c-0.21-0.13-0.36-0.49-0.4-0.76C644.83-119.98,644.88-120.46,644.88-120.93
			C644.88-120.93,644.88-120.93,644.88-120.93z"/>
		<path class="st11" d="M640.7-126.34c0,2.11,0,4.21,0,6.32c0,0.71,0.08,0.78,0.78,0.78c0.38,0,0.77,0.02,1.15-0.01
			c0.55-0.03,0.65,0.35,0.63,0.74c-0.01,0.38-0.01,0.83-0.61,0.83c-2.77-0.01-5.53,0-8.3,0c-0.43,0-0.67-0.3-0.65-0.81
			c0.02-0.4,0.11-0.77,0.65-0.75c0.4,0.01,0.8,0.01,1.2,0c0.59-0.01,0.73-0.14,0.74-0.74c0.01-1.89,0.01-3.78,0.01-5.67
			c0-1.82-0.01-3.63,0.01-5.45c0.01-0.49-0.13-0.72-0.65-0.66c-0.25,0.03-0.51,0-0.76-0.01c-0.51-0.02-0.77-0.33-0.76-0.9
			c0.01-0.57,0.27-0.85,0.8-0.86c1.64,0,3.27,0,4.91,0c0.75,0,0.83,0.09,0.83,0.86c0,2.11,0,4.21,0,6.32
			C640.69-126.34,640.7-126.34,640.7-126.34z"/>
		<path class="st11" d="M604.21-131.39c0.83-1.38,2.02-2.24,3.6-2.5c1.22-0.2,2.43-0.14,3.61,0.25c2.04,0.66,3.1,2.19,3.11,4.48
			c0.01,2.96,0.01,5.92,0.01,8.88c0,0.86,0.16,1.04,1.02,1.01c1.25-0.04,2.52-0.01,3.75-0.23c2.5-0.44,4.2-1.95,4.98-4.36
			c0.95-2.92,1-5.9,0.08-8.84c-0.96-3.08-3.32-4.78-6.57-4.85c-1-0.02-2,0-3-0.01c-0.58,0-0.77-0.22-0.77-0.86
			c0-0.63,0.21-0.89,0.75-0.89c2.38,0.02,4.77-0.15,7.12,0.36c2.68,0.57,5.04,1.68,6.66,3.99c1.48,2.12,1.86,4.54,1.77,7.05
			c-0.05,1.5-0.34,2.96-0.97,4.33c-1.4,3.05-3.91,4.71-7.1,5.38c-1.27,0.27-2.59,0.41-3.89,0.43c-3.18,0.06-6.37,0.02-9.55,0.02
			c-0.54,0-0.76-0.24-0.77-0.8c-0.01-0.55,0.21-0.77,0.79-0.77c0.15,0,0.29,0,0.44,0c0.58-0.01,0.76-0.16,0.77-0.74
			c0.02-1.09,0.02-2.18,0.02-3.27c0-2,0.01-4,0.01-5.99c0-0.13,0-0.25,0-0.38c-0.03-0.9-0.25-1.72-1.13-2.14
			c-0.87-0.42-1.71-0.2-2.47,0.32c-1.03,0.7-1.67,1.7-2.12,2.84c-0.07,0.18-0.06,0.39-0.06,0.59c0,2.63,0,5.27,0,7.9
			c0,0.78,0.09,0.87,0.88,0.87c0.77,0,1.09,0.47,0.78,1.19c-0.07,0.17-0.33,0.36-0.5,0.36c-2.56,0.02-5.13,0.01-7.69,0
			c-0.05,0-0.1-0.03-0.23-0.06c0.15-0.43,0.28-0.86,0.47-1.26c0.06-0.12,0.31-0.23,0.47-0.22c1.54,0.06,1.39-0.3,1.38-1.41
			c0-3.21,0-6.43,0-9.64c0-1.31-0.13-1.44-1.42-1.45c-0.83,0-1.23-0.6-0.86-1.35c0.09-0.19,0.39-0.41,0.59-0.41
			c1.75-0.03,3.49-0.01,5.24-0.02c0.47,0,0.66,0.2,0.64,0.66c-0.02,0.5,0,1,0,1.5C604.12-131.42,604.16-131.4,604.21-131.39z"/>
		<path class="st11" d="M663.07-125.96c0.64-0.92,1.29-1.84,1.93-2.75c1-1.43,2-2.86,2.98-4.3c0.28-0.41,0.62-0.6,1.13-0.59
			c1.38,0.03,2.77,0.03,4.15,0c0.55-0.01,0.71,0.22,0.72,0.7c0.01,0.63-0.09,0.78-0.65,0.81c-2.54,0.11-4.32,1.44-5.65,3.49
			c-0.07,0.11-0.06,0.36,0.02,0.48c1.73,2.67,3.47,5.33,5.23,7.97c0.47,0.7,1.22,0.85,2.02,0.86c0.75,0.01,1.13,0.69,0.72,1.34
			c-0.07,0.12-0.29,0.22-0.43,0.22c-2.56,0.01-5.13-0.01-7.69,0c-0.56,0-0.56-0.38-0.56-0.74c0-0.38-0.02-0.8,0.56-0.79
			c0.27,0,0.53-0.03,0.91-0.06c-0.12-0.25-0.19-0.43-0.29-0.58c-1.06-1.63-2.12-3.26-3.18-4.89c-0.36-0.55-0.51-0.52-1.02-0.1
			c-0.82,0.67-1.19,1.46-1.06,2.55c0.1,0.79,0.03,1.6,0.01,2.39c-0.01,0.46,0.15,0.69,0.63,0.65c0.18-0.02,0.36-0.01,0.55,0
			c0.27,0.01,0.66-0.11,0.69,0.31c0.03,0.38-0.05,0.77-0.12,1.15c-0.01,0.06-0.25,0.1-0.39,0.1c-2.56,0.01-5.13,0-7.69,0.01
			c-0.59,0-0.62-0.41-0.63-0.81c-0.02-0.54,0.18-0.76,0.66-0.77c0.44,0,0.87-0.02,1.31,0c0.44,0.02,0.6-0.17,0.56-0.58
			c-0.01-0.07,0-0.15,0-0.22c0-5.63,0-11.26,0-16.89c0-0.76-0.01-0.77-0.75-0.78c-0.42,0-0.84,0-1.26,0c-0.48,0-0.7-0.26-0.71-0.8
			c0-0.51,0.22-0.76,0.69-0.76c1.89,0,3.78,0,5.68,0c0.66,0,0.78,0.14,0.78,0.81c0,3.98,0,7.95,0,11.93c0,0.2,0,0.39,0,0.59
			C662.98-125.99,663.03-125.98,663.07-125.96z"/>
		<path class="st11" d="M564.25-121.91c0-0.65,0.01-1.31,0-1.96c-0.01-0.34,0.11-0.51,0.47-0.48c0.22,0.02,0.45-0.05,0.65,0.02
			c0.23,0.07,0.52,0.2,0.61,0.39c0.56,1.1,1.31,2.05,2.18,2.91c1.47,1.45,4.34,1.88,6.16,0.92c1.97-1.03,2.22-3.35,0.5-4.75
			c-0.34-0.27-0.7-0.53-1.1-0.7c-0.93-0.4-1.9-0.73-2.84-1.1c-1.12-0.43-2.27-0.79-3.33-1.34c-2.52-1.3-3.64-3.33-3.35-5.82
			c0.31-2.7,1.96-4.65,4.67-5.32c2.9-0.72,5.78-0.36,8.6,0.52c0.18,0.05,0.38,0.35,0.39,0.55c0.04,1.11,0.01,2.22,0.02,3.32
			c0,0.33-0.12,0.43-0.45,0.46c-0.57,0.04-0.95-0.11-1.29-0.64c-1.41-2.23-3.92-3.12-6.34-2.26c-0.54,0.19-1.09,0.54-1.49,0.96
			c-0.93,0.99-0.83,2.53,0.29,3.3c0.85,0.59,1.84,1,2.81,1.4c0.87,0.36,1.79,0.59,2.69,0.88c0.43,0.14,0.86,0.29,1.28,0.46
			c3.95,1.56,5.27,5.22,3.22,8.97c-1.32,2.42-3.49,3.54-6.17,3.68c-2.61,0.14-5.14-0.33-7.53-1.46c-0.49-0.23-0.72-0.54-0.68-1.09
			C564.28-120.71,564.24-121.31,564.25-121.91z"/>
		<path class="st11" d="M636.79-135.85c-0.6,0-1.2-0.01-1.8,0c-0.44,0.01-0.6-0.18-0.48-0.61c0.24-0.82,0.45-1.64,0.74-2.44
			c0.07-0.19,0.36-0.43,0.56-0.44c1.29-0.04,2.58-0.01,3.87-0.03c0.45,0,0.54,0.2,0.41,0.58c-0.27,0.83-0.55,1.65-0.81,2.48
			c-0.1,0.34-0.31,0.46-0.64,0.46C638.02-135.85,637.41-135.85,636.79-135.85C636.79-135.85,636.79-135.85,636.79-135.85z"/>
	</g>
</g>
<g id="Andoer">
	<g>
		<path d="M799.96-138.45c-0.25,2.95-1.39,4.28-3.57,4.49c-3.64,0.35-5.96,4.04-5.19,8.27c0.58,3.23,2.88,5.45,5.37,5.2
			c2.85-0.29,5.08-2.92,5.14-6.36c0.08-4.18-0.02-8.37,0.01-12.55c0.02-2.79,1.04-4,3.36-4.01c0.02,0.37,0.06,0.75,0.06,1.13
			c0,5.07,0.01,10.13,0,15.2c-0.01,5.69-3.39,10.27-7.93,10.79c-4.36,0.5-8.7-3.42-9.42-8.51c-0.86-6.03,1.78-11.51,6.4-12.88
			C796.03-138.23,797.99-138.21,799.96-138.45z"/>
		<path d="M845.88-133.21c-1.31,2.26-2.57,4.5-3.89,6.67c-1.11,1.81-2.73,1.43-4.48,1.45c1.61-2.8,3.11-5.39,4.6-7.96
			c-0.94-1.87-3.46-2.97-5.48-2.43c-2.66,0.7-4.65,3.36-4.95,6.6c-0.3,3.27,1.09,6.42,3.45,7.8c2.44,1.43,5.23,0.83,7.09-1.71
			c1.16-1.58,2.42-2.52,4.18-2.09c-0.23,3.85-4.19,7.93-8.04,8.27c-4.34,0.39-8.4-3.33-9.45-8.64c-1.06-5.39,1.18-11,5.25-13.16
			C838.52-140.74,843.14-138.72,845.88-133.21z"/>
		<path d="M765.27-116.87c-2.85,0.3-3.9-0.5-4.92-3.61c-0.43-1.3-0.65-3.06-1.44-3.72c-0.79-0.66-2.18-0.23-3.3-0.24
			c-1.94-0.02-3.89,0.04-5.83-0.02c-0.97-0.03-1.52,0.45-1.82,1.57c-0.23,0.87-0.54,1.72-0.8,2.58c-0.98,3.14-1.8,3.76-4.74,3.42
			c0.17-0.55,0.33-1.06,0.49-1.57c0.74-2.38,1.46-4.77,2.22-7.14c0.84-2.64,1.43-3.13,3.74-3.13c2.82-0.01,5.65,0,8.73,0
			c-1.66-5-3.26-9.84-4.86-14.68c1.87-0.92,3.77,0.12,4.59,2.53c0.94,2.75,1.84,5.52,2.76,8.29c1.68,5.04,3.35,10.08,5.03,15.11
			C765.16-117.33,765.2-117.16,765.27-116.87z"/>
		<path d="M824.38-121.1c-2.94,5.49-10.41,7.06-14.65,0.38c-2.63-4.15-2.55-10.13,0.14-14.17c2.77-4.16,7.43-5.38,11.21-2.94
			c3.8,2.46,5.73,7.84,4.7,12.92c-0.24,1.18-0.65,1.19-1.33,0.69c-1.13-0.82-1.48-2.15-1.56-3.67c-0.17-3.07-1.33-5.37-3.61-6.6
			c-2.55-1.38-5.46-0.4-7.05,2.24c-1.72,2.87-1.68,6.52,0.11,9.28c1.69,2.61,4.66,3.43,7.19,2.01
			C822.04-122.37,822.38-122.38,824.38-121.1z"/>
		<path d="M784.99-117.1c-2.35,0.03-3.4-1.24-3.4-4.02c0-2.42,0.05-4.85-0.02-7.27c-0.14-5.15-4.31-8.21-7.65-5.63
			c-1.69,1.31-2.5,3.31-2.54,5.76c-0.04,2.47-0.01,4.93-0.01,7.4c-0.01,2.65-1.23,4-3.32,3.74c0-4.4-0.28-8.83,0.07-13.18
			c0.44-5.4,4.55-9.21,8.96-8.95c3.99,0.24,7.67,4.72,7.87,9.92C785.11-125.3,784.99-121.25,784.99-117.1z"/>
		<path d="M849.13-117.43c0-1.33-0.01-2.68,0-4.04c0.04-2.81-0.08-5.65,0.17-8.44c0.46-5.13,3.99-9.02,8.21-9.27
			c0.23,1.28-0.08,2.39-0.73,3.38c-0.22,0.34-0.49,0.65-0.78,0.88c-2.62,2.07-3.69,5.03-3.42,8.87c0.12,1.66,0.02,3.34,0.02,5.02
			C852.6-118.23,851.54-117.09,849.13-117.43z"/>
	</g>
</g>
<g id="adobe">
	<g>
		<path class="st7" d="M137.96-47.74c-0.04,0.26-0.09,0.52-0.11,0.78c-0.02,0.3-0.18,0.41-0.45,0.42c-0.63,0.02-1.26,0.07-1.9,0.07
			c-1.76,0.01-3.51,0-5.27,0c-0.12,0-0.24,0-0.39,0c0.1,1.01,0.56,1.75,1.42,2.22c0.6,0.33,1.25,0.45,1.91,0.48
			c1.21,0.06,2.38-0.1,3.51-0.55c0.05-0.02,0.11-0.04,0.21-0.06c0.01,0.13,0.02,0.24,0.02,0.34c0,0.71-0.02,1.43,0.01,2.14
			c0.01,0.3-0.11,0.43-0.36,0.54c-0.85,0.36-1.73,0.55-2.64,0.62c-1.11,0.07-2.22,0.08-3.32-0.21c-1.96-0.52-3.33-1.7-3.99-3.62
			c-0.78-2.28-0.65-4.53,0.57-6.63c1.12-1.93,2.87-2.86,5.09-2.92c1.1-0.03,2.16,0.15,3.12,0.73c1.52,0.92,2.25,2.34,2.5,4.04
			c0.02,0.11,0.04,0.21,0.07,0.32C137.96-48.59,137.96-48.17,137.96-47.74z M134.53-49c0.02-0.84-0.28-1.48-0.93-1.9
			c-0.84-0.54-1.73-0.51-2.58-0.03c-0.73,0.41-1.07,1.1-1.19,1.92C131.41-49,132.95-49,134.53-49z"/>
		<path class="st7" d="M41.88-34.94c-0.42-1.05-0.85-2.09-1.27-3.14c-0.35-0.88-0.71-1.76-1.04-2.64c-0.09-0.23-0.2-0.31-0.44-0.3
			c-1.72,0.01-3.43,0.01-5.15,0.01c-0.11,0-0.22,0-0.41,0c1.84-4.33,3.66-8.61,5.51-12.96c0.28,0.66,0.53,1.26,0.79,1.87
			c2.37,5.62,4.74,11.24,7.12,16.86c0.04,0.1,0.07,0.21,0.11,0.31C45.36-34.94,43.62-34.94,41.88-34.94z"/>
		<path class="st7" d="M22.04-35.11c0-9.98,0-19.95,0-29.95c4.19,0,8.36,0,12.58,0c-4.19,10.01-8.36,19.98-12.54,29.96
			C22.07-35.1,22.06-35.1,22.04-35.11z"/>
		<path class="st7" d="M43.54-65.06c4.21,0,8.37,0,12.56,0c0,9.98,0,19.94,0,29.9c-0.01,0.01-0.03,0.01-0.04,0.02
			C51.88-45.1,47.72-55.07,43.54-65.06z"/>
		<path class="st7" d="M116.31-53.84c0.95-0.25,1.86-0.3,2.78-0.26c2.84,0.13,5.15,2.18,5.55,5c0.33,2.28-0.13,4.37-1.76,6.09
			c-1.17,1.24-2.66,1.91-4.32,2.18c-1.86,0.31-3.7,0.11-5.51-0.39c-0.26-0.07-0.36-0.2-0.36-0.47c0.01-5.78,0.01-11.57,0-17.35
			c0-0.25,0.08-0.33,0.33-0.33c0.97,0.01,1.94,0.02,2.91,0c0.29-0.01,0.39,0.07,0.38,0.37c-0.01,1.58-0.01,3.16-0.01,4.74
			C116.31-54.14,116.31-54.01,116.31-53.84z M116.31-47.33c0,1.09,0,2.18,0,3.27c0,0.2,0.05,0.31,0.26,0.31
			c0.28,0.01,0.57,0.06,0.85,0.05c1.42-0.08,2.57-0.62,3.23-1.95c0.4-0.81,0.47-1.69,0.37-2.57c-0.14-1.21-0.67-2.18-1.88-2.63
			c-0.87-0.32-1.76-0.27-2.65-0.05c-0.08,0.02-0.17,0.19-0.17,0.28C116.31-49.52,116.31-48.43,116.31-47.33z"/>
		<path class="st7" d="M92.04-54.1c0-0.13,0-0.23,0-0.34c0-1.52,0.01-3.04-0.01-4.56c0-0.27,0.07-0.38,0.36-0.37
			c0.98,0.02,1.96,0.01,2.94,0.01c0.09,0,0.18,0.01,0.31,0.02c0,0.14,0,0.27,0,0.4c0,4.97,0,9.93,0,14.9c0,0.66,0.07,1.32,0.09,1.98
			c0,0.11-0.08,0.29-0.17,0.33c-2.49,1.01-5.05,1.44-7.68,0.67c-2.42-0.71-3.95-2.67-4.2-5.17c-0.16-1.62,0.04-3.16,0.9-4.56
			c1.11-1.81,2.78-2.81,4.84-3.16c0.73-0.12,1.48-0.1,2.22-0.14C91.77-54.11,91.89-54.1,92.04-54.1z M92.04-47.43
			c0-1.09-0.01-2.18,0-3.27c0-0.22-0.05-0.35-0.29-0.36c-0.34-0.01-0.67-0.06-1.01-0.04c-1.58,0.07-2.86,1.03-3.25,2.47
			c-0.27,1-0.22,2,0.17,2.97c0.29,0.72,0.79,1.25,1.51,1.57c0.84,0.37,1.72,0.4,2.61,0.24C92-43.9,92.05-44,92.05-44.19
			C92.04-45.27,92.04-46.35,92.04-47.43z"/>
		<path class="st7" d="M81.37-40.95c-0.51,0-1.02-0.02-1.53,0.01c-0.28,0.01-0.4-0.1-0.48-0.35c-0.38-1.15-0.78-2.29-1.17-3.44
			c-0.06-0.19-0.15-0.27-0.36-0.27C76-45,74.17-45,72.34-45.01c-0.22,0-0.3,0.07-0.36,0.27c-0.36,1.14-0.74,2.27-1.1,3.4
			c-0.09,0.27-0.21,0.4-0.52,0.39c-0.89-0.02-1.78-0.01-2.67-0.01c-0.41,0-0.45-0.06-0.32-0.45c0.78-2.25,1.56-4.5,2.34-6.75
			c0.94-2.71,1.89-5.42,2.82-8.14c0.15-0.44,0.18-0.92,0.24-1.38c0.03-0.21,0.08-0.31,0.31-0.31c1.31,0.01,2.62,0.01,3.92,0
			c0.2,0,0.28,0.08,0.35,0.26c1.94,5.47,3.88,10.94,5.82,16.41c0.12,0.34,0.11,0.36-0.27,0.36C82.39-40.95,81.88-40.95,81.37-40.95z
			 M75.07-54.88c-0.68,2.22-1.35,4.41-2.03,6.6c1.36,0,2.7,0,4.08,0C76.43-50.49,75.75-52.67,75.07-54.88z"/>
		<path class="st7" d="M110.59-47.44c-0.02,1.46-0.33,2.84-1.15,4.06c-1.12,1.68-2.74,2.52-4.73,2.67
			c-0.96,0.07-1.92-0.02-2.84-0.33c-1.64-0.55-2.81-1.64-3.49-3.22c-0.84-1.96-0.89-3.96-0.1-5.95c0.95-2.4,3.12-3.86,5.7-3.9
			c1.34-0.02,2.6,0.2,3.74,0.93c1.63,1.05,2.45,2.6,2.75,4.46C110.55-48.3,110.55-47.87,110.59-47.44z M106.88-47.33
			c0-0.82-0.1-1.55-0.42-2.24c-0.44-0.94-1.16-1.48-2.21-1.53c-1.08-0.06-1.87,0.44-2.32,1.38c-0.25,0.51-0.4,1.09-0.47,1.66
			c-0.14,1.12-0.02,2.23,0.61,3.21c1.07,1.66,3.4,1.54,4.32-0.2C106.77-45.8,106.89-46.59,106.88-47.33z"/>
	</g>
</g>
<g id="Samsung">
	<g>
		<path class="st12" d="M211.67-39.01c-0.96-1.06-1.43-2.58-1.43-4.56v-1.4h3.63v1.68c0,1.58,0.66,2.38,1.99,2.38
			c0.65,0,1.15-0.19,1.49-0.58c0.34-0.38,0.51-1.01,0.51-1.87c0-1.03-0.23-1.93-0.7-2.71c-0.47-0.78-1.33-1.72-2.59-2.81
			c-1.58-1.4-2.69-2.66-3.32-3.79c-0.63-1.13-0.94-2.41-0.94-3.83c0-1.93,0.49-3.43,1.47-4.49c0.98-1.06,2.4-1.59,4.26-1.59
			c1.84,0,3.23,0.53,4.18,1.59c0.94,1.06,1.42,2.58,1.42,4.56v1.01h-3.63v-1.26c0-0.84-0.16-1.45-0.49-1.83
			c-0.33-0.38-0.8-0.58-1.43-0.58c-1.28,0-1.92,0.78-1.92,2.34c0,0.89,0.24,1.71,0.72,2.48c0.48,0.77,1.35,1.7,2.6,2.8
			c1.61,1.4,2.71,2.67,3.32,3.81c0.61,1.14,0.91,2.48,0.91,4.02c0,2-0.5,3.54-1.49,4.61s-2.43,1.61-4.32,1.61
			C214.03-37.42,212.62-37.95,211.67-39.01z"/>
		<path class="st12" d="M226.76-62.23h5.21l3.98,24.46h-3.84l-0.7-4.86v0.07h-4.37l-0.7,4.79h-3.57L226.76-62.23z M230.96-45.88
			l-1.71-12.09h-0.07l-1.68,12.09H230.96z"/>
		<path class="st12" d="M237.81-62.23h5.49l2.45,17.51h0.07l2.45-17.51h5.49v24.46h-3.63v-18.52h-0.07l-2.8,18.52h-3.21l-2.8-18.52
			h-0.07v18.52h-3.35V-62.23z"/>
		<path class="st12" d="M257.38-39.01c-0.96-1.06-1.43-2.58-1.43-4.56v-1.4h3.63v1.68c0,1.58,0.66,2.38,1.99,2.38
			c0.65,0,1.15-0.19,1.49-0.58c0.34-0.38,0.51-1.01,0.51-1.87c0-1.03-0.23-1.93-0.7-2.71c-0.47-0.78-1.33-1.72-2.59-2.81
			c-1.58-1.4-2.69-2.66-3.32-3.79s-0.94-2.41-0.94-3.83c0-1.93,0.49-3.43,1.47-4.49c0.98-1.06,2.4-1.59,4.26-1.59
			c1.84,0,3.23,0.53,4.18,1.59c0.94,1.06,1.42,2.58,1.42,4.56v1.01h-3.63v-1.26c0-0.84-0.16-1.45-0.49-1.83
			c-0.33-0.38-0.8-0.58-1.43-0.58c-1.28,0-1.92,0.78-1.92,2.34c0,0.89,0.24,1.71,0.72,2.48c0.48,0.77,1.35,1.7,2.6,2.8
			c1.61,1.4,2.71,2.67,3.32,3.81c0.61,1.14,0.91,2.48,0.91,4.02c0,2-0.5,3.54-1.49,4.61s-2.43,1.61-4.32,1.61
			C259.74-37.42,258.33-37.95,257.38-39.01z"/>
		<path class="st12" d="M270.94-39.01c-0.98-1.06-1.47-2.58-1.47-4.56v-18.66h3.84v18.94c0,0.84,0.17,1.44,0.51,1.82
			c0.34,0.37,0.82,0.56,1.45,0.56s1.11-0.19,1.45-0.56c0.34-0.37,0.51-0.98,0.51-1.82v-18.94h3.71v18.66c0,1.98-0.49,3.5-1.47,4.56
			c-0.98,1.06-2.4,1.59-4.26,1.59C273.34-37.42,271.92-37.95,270.94-39.01z"/>
		<path class="st12" d="M283.66-62.23h4.82l3.74,14.64h0.07v-14.64h3.42v24.46h-3.95l-4.61-17.86h-0.07v17.86h-3.42V-62.23z"/>
		<path class="st12" d="M299.77-39.01c-0.98-1.06-1.47-2.58-1.47-4.56v-12.86c0-1.98,0.49-3.5,1.47-4.56
			c0.98-1.06,2.4-1.59,4.26-1.59s3.29,0.53,4.26,1.59c0.98,1.06,1.47,2.58,1.47,4.56v2.1h-3.63v-2.34c0-1.61-0.66-2.41-1.99-2.41
			s-1.99,0.8-1.99,2.41v13.39c0,1.58,0.66,2.38,1.99,2.38s1.99-0.79,1.99-2.38v-4.79h-1.92v-3.5h5.56v8c0,1.98-0.49,3.5-1.47,4.56
			c-0.98,1.06-2.4,1.59-4.26,1.59S300.75-37.95,299.77-39.01z"/>
	</g>
</g>
<g id="Xiaomi">
	<g>
		<path class="st13" d="M419.55-31.15h-31.76c-1.64,0-2.98-1.33-2.98-2.98v-31.76c0-1.64,1.33-2.98,2.98-2.98h31.76
			c1.64,0,2.98,1.33,2.98,2.98v31.76C422.53-32.48,421.19-31.15,419.55-31.15z"/>
		<path d="M392.61-57.41c0,6.33,0,12.64,0,18.97c-1.41,0-2.79,0-4.2,0c0-7.72,0-15.45,0-23.21c0.11,0,0.22,0,0.32,0
			c4.43,0,8.85-0.01,13.28,0c3.64,0.01,6.62,2.45,7.32,6.01c0.1,0.49,0.13,1,0.14,1.5c0.01,5.13,0.01,10.26,0.01,15.39
			c0,0.09,0,0.19,0,0.31c-1.41,0-2.79,0-4.21,0c0-0.13,0-0.26,0-0.4c0-5.1,0-10.2,0-15.3c0-1.66-1.05-2.95-2.63-3.24
			c-0.2-0.04-0.4-0.04-0.61-0.04c-3.05,0-6.09,0-9.14,0C392.81-57.42,392.73-57.42,392.61-57.41z"/>
		<path d="M413.7-61.64c1.4,0,2.78,0,4.18,0c0,7.73,0,15.46,0,23.21c-1.39,0-2.77,0-4.18,0C413.7-46.16,413.7-53.88,413.7-61.64z"/>
		<path d="M396.84-38.44c0-4.93,0-9.83,0-14.74c1.39,0,2.77,0,4.17,0c0,4.91,0,9.81,0,14.74C399.63-38.44,398.25-38.44,396.84-38.44
			z"/>
		<text transform="matrix(1 0 0 1 432.9833 -43.5659)" style="font-family:'Galvji'; font-size:18.3864px;">Xiaomi</text>
	</g>
</g>
<g id="ESDDI">
	<g>
		<path class="st7" d="M576.35-37.68v-3.58h2.03v-17.9h-2.03v-3.58h16.24v5.37h-4.06v-1.79h-6.09V-52h6.09v3.58h-6.09v7.16h6.09
			v-1.79h4.06v5.37H576.35z"/>
		<path class="st7" d="M596.65-43.05h4.06v1.79h6.09v-7.16h-6.9l-3.25-2.86v-8.59l3.25-2.86h7.71l3.25,2.86v2.51h-4.06v-1.79h-6.09
			V-52h6.9l3.25,2.86v8.59l-3.25,2.86h-7.71l-3.25-2.86V-43.05z"/>
		<path class="st7" d="M614.92-37.68v-3.58h2.03v-17.9h-2.03v-3.58h12.99l3.25,2.86v19.33l-3.25,2.86H614.92z M621.01-41.26h6.09
			v-17.9h-6.09V-41.26z"/>
		<path class="st7" d="M635.23-37.68v-3.58h2.03v-17.9h-2.03v-3.58h12.99l3.25,2.86v19.33l-3.25,2.86H635.23z M641.32-41.26h6.09
			v-17.9h-6.09V-41.26z"/>
		<path class="st7" d="M655.53-37.68v-3.58h2.03v-17.9h-2.03v-3.58h8.12v3.58h-2.03v17.9h2.03v3.58H655.53z"/>
	</g>
</g>
<g id="Apple">
	<g>
		<path d="M848.01-45.23c-0.85-0.01-1.7-0.04-2.56-0.04c-2.03,0-4.05,0-6.08,0c-0.17,0-0.35,0-0.51,0
			c-0.31,1.77,0.96,3.76,2.73,4.29c1.55,0.46,3.09,0.29,4.62-0.15c0.22-0.06,0.44-0.15,0.72-0.25c0.12,0.52,0.25,1.01,0.34,1.51
			c0.02,0.09-0.11,0.26-0.21,0.29c-2.49,0.86-5,1.14-7.46-0.06c-1.19-0.58-2.05-1.54-2.53-2.78c-1-2.6-0.84-5.14,0.62-7.51
			c1.75-2.82,5.85-3.56,8.31-1.56c0.93,0.76,1.46,1.77,1.78,2.9c0.06,0.2,0.14,0.39,0.21,0.59
			C848.01-47.07,848.01-46.15,848.01-45.23z M845.74-47.03c0.16-2.16-1.16-3.78-3.11-3.83c-2.03-0.06-3.79,1.71-3.77,3.83
			C841.15-47.03,843.43-47.03,845.74-47.03z"/>
		<path d="M777.85-55.26c-5.04,3.2-4.58,10.41,0.95,12.98c-0.43,0.96-0.77,1.98-1.31,2.88c-0.83,1.38-1.72,2.74-2.75,3.97
			c-1.63,1.95-3.4,2.3-5.72,1.23c-2-0.92-3.96-0.93-5.97-0.06c-2.72,1.18-4.14,0.84-6.05-1.43c-3.3-3.92-5.12-8.41-5-13.57
			c0.07-2.85,0.98-5.43,3.28-7.29c2.21-1.79,4.69-2.38,7.43-1.33c0.5,0.19,1,0.36,1.49,0.58c0.94,0.41,1.84,0.39,2.78-0.01
			c0.86-0.37,1.75-0.69,2.66-0.94C772.67-59.08,776.2-57.78,777.85-55.26z"/>
		<path d="M801.67-52.26c0.65,0,1.32,0,2.04,0c0.05,0.7,0.09,1.38,0.15,2.15c0.13-0.14,0.21-0.22,0.28-0.31
			c2.53-3.34,7.56-2.79,9.28,1.04c1.06,2.36,1.02,4.78,0,7.13c-1.21,2.78-4.33,4.1-7.11,3.1c-0.89-0.32-1.59-0.89-2.25-1.77
			c0,1.32,0,2.48,0,3.64c0,1.15,0,2.3,0,3.49c-0.79,0-1.55,0-2.38,0C801.67-39.93,801.67-46.06,801.67-52.26z M803.97-45.6
			c0.03,0,0.06,0.01,0.09,0.01c0,0.43-0.01,0.85,0,1.28c0.07,1.75,1.28,3.19,2.95,3.52c1.75,0.35,3.42-0.45,4.14-2.07
			c0.78-1.76,0.85-3.58,0.13-5.39c-0.66-1.66-1.98-2.5-3.69-2.41c-1.48,0.07-2.87,1.19-3.3,2.76
			C804.09-47.16,804.07-46.36,803.97-45.6z"/>
		<path d="M816.61-52.26c0.65,0,1.32,0,2.04,0c0.05,0.72,0.09,1.41,0.14,2.2c0.12-0.14,0.18-0.19,0.23-0.26
			c1.88-2.99,7.38-3.44,9.32,0.96c1.28,2.89,1.12,5.81-0.81,8.43c-1.62,2.2-4.94,2.77-7.19,1.32c-0.47-0.3-0.86-0.73-1.32-1.13
			c0,2.3,0,4.61,0,6.96c-0.82,0-1.57,0-2.41,0C816.61-39.93,816.61-46.06,816.61-52.26z M818.9-45.56c0.03,0,0.07,0.01,0.1,0.01
			c0,0.41-0.01,0.82,0,1.22c0.07,1.74,1.21,3.14,2.87,3.53c1.7,0.4,3.36-0.35,4.15-1.96c0.88-1.78,0.91-3.64,0.21-5.47
			c-0.63-1.64-1.99-2.51-3.63-2.44c-1.52,0.07-2.92,1.16-3.36,2.75C819.03-47.16,819.01-46.35,818.9-45.56z"/>
		<path d="M799.83-39.13c-0.81,0-1.53,0.02-2.23-0.02c-0.16-0.01-0.37-0.23-0.43-0.4c-0.57-1.61-1.12-3.22-1.64-4.84
			c-0.12-0.38-0.29-0.52-0.71-0.52c-1.83,0.03-3.66,0.03-5.49,0.01c-0.38,0-0.53,0.13-0.64,0.47c-0.52,1.62-1.08,3.23-1.59,4.85
			c-0.11,0.36-0.28,0.47-0.64,0.45c-0.63-0.03-1.27-0.01-1.97-0.01c0.51-1.52,1-2.96,1.49-4.4c1.52-4.47,3.05-8.93,4.55-13.4
			c0.14-0.42,0.33-0.55,0.76-0.52c0.58,0.03,1.17,0.03,1.76-0.01c0.41-0.03,0.58,0.13,0.71,0.51c1.64,4.84,3.29,9.67,4.94,14.51
			C799.07-41.37,799.43-40.3,799.83-39.13z M789.4-46.79c1.82,0,3.59,0,5.41,0c-0.92-2.83-1.83-5.59-2.72-8.32
			C791.2-52.37,790.3-49.59,789.4-46.79z"/>
		<path d="M831.6-58.4c0.81,0,1.55,0,2.32,0c0,6.42,0,12.81,0,19.24c-0.78,0-1.53,0-2.32,0C831.6-45.57,831.6-51.97,831.6-58.4z"/>
		<path d="M771.9-66.4c0.16,1.39-0.16,2.65-0.78,3.83c-1,1.9-2.5,3.23-4.65,3.64c-1.38,0.26-1.24,0.14-1.16-1.02
			c0.23-3.12,3.04-6.04,6.16-6.45C771.59-66.41,771.72-66.4,771.9-66.4z"/>
	</g>
</g>
<g id="Windows_10">
	<g>
		<path class="st14" d="M63.3,22.55l-4.02,14.9h-2.76l-2.79-10.43c-0.11-0.46-0.2-0.94-0.23-1.45h-0.03
			c-0.03,0.48-0.11,0.97-0.26,1.42l-2.79,10.43h-2.82l-4.1-14.9h2.68l2.65,10.91c0.11,0.46,0.17,0.94,0.2,1.42h0.06
			c0.03-0.34,0.11-0.83,0.28-1.42l3.02-10.91h2.51l2.79,11c0.09,0.37,0.17,0.83,0.2,1.34h0.03c0.03-0.34,0.09-0.8,0.23-1.37
			l2.62-10.94L63.3,22.55L63.3,22.55z"/>
		<rect x="64.1" y="26.79" class="st14" width="2.42" height="10.63"/>
		<path class="st14" d="M77.81,37.42h-2.02v-5.98c0.03-2.59-1.03-3.16-2.39-3.16c-0.71,0-1.28,0.46-1.77,1
			c-0.46,0.54-0.68,1.25-0.68,2.08v6.07h-2.36V26.79h2.36v1.77h0.03c0.77-1.34,1.88-2.02,3.36-2.02c1.11,0,1.99,0.37,2.56,1.14
			c0.6,0.74,0.88,1.85,0.88,3.25v6.5H77.81z"/>
		<path class="st14" d="M89.83,37.42h-2.42v-1.54h-0.03c-0.77,1.37-1.97,1.79-3.59,1.79c-1.31,0-2.36-0.48-3.13-1.42
			c-0.8-0.94-1.17-2.25-1.17-3.9c0-1.77,0.43-3.16,1.31-4.22c0.88-1.05,2.02-1.6,3.48-1.6c1.42,0,2.48,0.17,3.13,1.31h0.03V21.7
			h2.42v15.73H89.83z M87.46,32.58v-1.45c0-0.77-0.26-1.45-0.77-1.99c-0.51-0.54-1.17-0.83-1.94-0.83c-0.94,0-1.68,0.34-2.19,1.05
			c-0.54,0.68-0.8,1.65-0.8,2.91c0,1.11,0.26,1.99,0.77,2.65c0.51,0.66,1.2,0.97,2.08,0.97c0.85,0,1.54-0.31,2.08-0.94
			C87.18,34.34,87.46,33.55,87.46,32.58"/>
		<path class="st14" d="M96.58,37.68c-1.65,0-2.96-0.48-3.93-1.48c-0.97-1-1.48-2.31-1.48-3.96c0-1.79,0.51-3.19,1.54-4.19
			s2.39-1.51,4.13-1.51c1.65,0,2.96,0.48,3.87,1.45c0.94,0.97,1.4,2.34,1.4,4.07c0,1.71-0.51,3.05-1.51,4.07
			C99.6,37.17,98.26,37.68,96.58,37.68 M96.7,28.48c-0.94,0-1.68,0.34-2.22,1c-0.54,0.66-0.83,1.57-0.83,2.74
			c0,1.11,0.28,1.99,0.83,2.62c0.54,0.63,1.28,0.97,2.22,0.97s1.68-0.31,2.19-0.94c0.51-0.63,0.77-1.54,0.77-2.68
			c0-1.17-0.26-2.08-0.77-2.71C98.38,28.79,97.64,28.48,96.7,28.48"/>
		<path class="st14" d="M117.66,26.79l-3.11,10.63h-2.51l-1.91-7.21c-0.09-0.28-0.11-0.6-0.14-0.94h-0.03c0,0.23-0.09,0.54-0.2,0.91
			l-2.08,7.24h-2.48l-3.11-10.63h2.48l1.91,7.66c0.06,0.23,0.11,0.54,0.11,0.91h0.09c0.03-0.28,0.09-0.6,0.17-0.94l2.14-7.64h2.25
			l1.91,7.69c0.06,0.23,0.11,0.54,0.14,0.91h0.09c0-0.26,0.06-0.57,0.14-0.91l1.88-7.69L117.66,26.79L117.66,26.79z"/>
		<path class="st14" d="M117.95,37.11v-2.22c0.83,0.68,1.74,1.03,2.74,1.03c1.34,0,2.02-0.43,2.02-1.28c0-0.26-0.06-0.46-0.17-0.63
			s-0.26-0.31-0.46-0.46c-0.2-0.14-0.43-0.26-0.68-0.34c-0.26-0.11-0.57-0.23-0.88-0.34c-0.4-0.17-0.77-0.37-1.08-0.54
			c-0.31-0.2-0.6-0.43-0.8-0.66c-0.2-0.26-0.37-0.51-0.48-0.83c-0.11-0.31-0.17-0.68-0.17-1.08c0-0.51,0.11-0.97,0.34-1.37
			c0.23-0.4,0.51-0.71,0.91-1c0.37-0.26,0.8-0.46,1.28-0.6c0.48-0.14,0.97-0.2,1.48-0.2c0.91,0,1.71,0.14,2.42,0.46v2.11
			c-0.68-0.51-1.48-0.77-2.36-0.77c-0.28,0-0.54,0.03-0.77,0.09c-0.23,0.06-0.43,0.14-0.57,0.26c-0.17,0.11-0.28,0.26-0.37,0.4
			c-0.09,0.17-0.14,0.34-0.14,0.51c0,0.23,0.06,0.43,0.14,0.57c0.09,0.17,0.23,0.28,0.4,0.43c0.17,0.11,0.4,0.23,0.63,0.34
			c0.26,0.11,0.54,0.2,0.85,0.31c0.43,0.2,0.8,0.37,1.14,0.57c0.34,0.2,0.63,0.43,0.85,0.66c0.23,0.26,0.43,0.54,0.54,0.85
			c0.11,0.31,0.2,0.71,0.2,1.14c0,0.54-0.11,1.03-0.34,1.42c-0.23,0.4-0.54,0.74-0.91,1c-0.37,0.26-0.83,0.46-1.34,0.6
			c-0.51,0.11-1.03,0.2-1.6,0.2C119.66,37.68,118.72,37.48,117.95,37.11"/>
		<path class="st14" d="M66.81,23.29c0,0.74-0.66,1.34-1.45,1.34s-1.45-0.6-1.45-1.34s0.66-1.34,1.45-1.34
			C66.15,21.98,66.81,22.58,66.81,23.29"/>
		<polygon class="st14" points="36.44,29.44 36.44,17.45 22.68,19.47 22.68,29.44 		"/>
		<polygon class="st14" points="21.71,19.62 11.71,21.07 11.71,29.44 21.71,29.44 		"/>
		<polygon class="st14" points="11.71,30.41 11.71,38.9 21.71,40.38 21.71,30.41 		"/>
		<polygon class="st14" points="22.68,40.53 36.44,42.55 36.44,30.41 22.68,30.41 		"/>
		<path class="st14" d="M135.87,22.32v15.04h-2.28V25.23c-0.4,0.31-0.85,0.57-1.34,0.8c-0.48,0.23-1.03,0.4-1.62,0.57v-2.02
			c0.37-0.14,0.74-0.26,1.11-0.4c0.34-0.14,0.71-0.31,1.05-0.48s0.68-0.37,1.05-0.6c0.34-0.23,0.71-0.46,1.08-0.74h0.94V22.32z"/>
		<path class="st14" d="M143.33,37.62c-1.45,0-2.62-0.63-3.45-1.88s-1.23-3.08-1.23-5.44c0-2.59,0.43-4.56,1.28-5.9
			s2.11-1.99,3.7-1.99c3.11,0,4.64,2.51,4.64,7.55c0,2.48-0.43,4.39-1.31,5.7C146.13,36.97,144.93,37.62,143.33,37.62 M143.56,24.29
			c-1.71,0-2.56,1.97-2.56,5.9c0,3.68,0.83,5.53,2.51,5.53c1.65,0,2.48-1.88,2.48-5.61C145.98,26.23,145.19,24.29,143.56,24.29"/>
	</g>
</g>
<g id="Calque_18">
</g>
<g id="Calque_19">
</g>
<g id="Calque_20">
</g>
</svg>
