<?xml version="1.0" encoding="utf-8"?>
<!-- Generator: Adobe Illustrator 19.0.0, SVG Export Plug-In . SVG Version: 6.00 Build 0)  -->
<svg version="1.1" xmlns="http://www.w3.org/2000/svg" xmlns:xlink="http://www.w3.org/1999/xlink" x="0px" y="0px"
	 viewBox="0 0 595.3 607.5" enable-background="new 0 0 595.3 607.5" xml:space="preserve">
<g id="bord_1">
	<g id="or">
		
			<linearGradient id="SVGID_1_" gradientUnits="userSpaceOnUse" x1="123.6007" y1="417.0509" x2="655.5948" y2="417.0508" gradientTransform="matrix(-4.800000e-03 -1 1 -4.800000e-03 -119.1808 695.9935)">
			<stop  offset="0" style="stop-color:#FFED00"/>
			<stop  offset="7.482819e-02" style="stop-color:#FFDE00"/>
			<stop  offset="0.2324" style="stop-color:#FAB532"/>
			<stop  offset="0.2407" style="stop-color:#F9B233"/>
			<stop  offset="0.5025" style="stop-color:#A46D38"/>
			<stop  offset="0.5307" style="stop-color:#B07738"/>
			<stop  offset="0.6235" style="stop-color:#D69538"/>
			<stop  offset="0.7007" style="stop-color:#F0AA35"/>
			<stop  offset="0.7523" style="stop-color:#F9B233"/>
			<stop  offset="1" style="stop-color:#FCEA10"/>
		</linearGradient>
		<circle fill="url(#SVGID_1_)" stroke="#000000" stroke-width="8" stroke-miterlimit="10" cx="296" cy="304.4" r="266"/>
		<ellipse fill="#FFFFFF" stroke="#000000" stroke-miterlimit="10" cx="294.2" cy="302.1" rx="235.8" ry="232.3"/>
	</g>
	<ellipse fill="#FFFFFF" stroke="#000000" stroke-miterlimit="10" cx="295.5" cy="301.4" rx="222.5" ry="222"/>
	
		<linearGradient id="SVGID_2_" gradientUnits="userSpaceOnUse" x1="-481.2965" y1="639.4821" x2="-370.6318" y2="639.4821" gradientTransform="matrix(-7.780000e-02 4.2123 -4.2566 -7.870000e-02 2982.7588 2146.9812)">
		<stop  offset="0" style="stop-color:#F9B233"/>
		<stop  offset="0.1346" style="stop-color:#F0B03E;stop-opacity:0.9704"/>
		<stop  offset="0.4218" style="stop-color:#E0AB4D;stop-opacity:0.9073"/>
		<stop  offset="0.6971" style="stop-color:#D7A755;stop-opacity:0.8469"/>
		<stop  offset="0.9455" style="stop-color:#D4A657;stop-opacity:0.7923"/>
	</linearGradient>
	<path fill="url(#SVGID_2_)" stroke="#000000" stroke-miterlimit="10" d="M289.6,535.4C159.5,533,56,426.7,58.3,298
		C60.7,169.3,168.1,66.9,298.2,69.3C428.3,71.7,531.8,178,529.4,306.7C527,435.4,419.7,537.8,289.6,535.4z"/>
</g>
<g id="boussole">
	<g id="base_x2B_graduation">
		<g>
			<g>
				<radialGradient id="SVGID_3_" cx="295.7595" cy="302.4273" r="222.4487" gradientUnits="userSpaceOnUse">
					<stop  offset="0" style="stop-color:#B78856;stop-opacity:0"/>
					<stop  offset="1.123028e-03" style="stop-color:#BE9366;stop-opacity:0"/>
					<stop  offset="3.717430e-03" style="stop-color:#CCAB88;stop-opacity:0"/>
					<stop  offset="6.622856e-03" style="stop-color:#DAC1A7;stop-opacity:0"/>
					<stop  offset="9.823228e-03" style="stop-color:#E5D4C2;stop-opacity:0"/>
					<stop  offset="1.342424e-02" style="stop-color:#EFE4D8;stop-opacity:0"/>
					<stop  offset="1.760592e-02" style="stop-color:#F6F0EA;stop-opacity:0"/>
					<stop  offset="2.273476e-02" style="stop-color:#FCF9F6;stop-opacity:0"/>
					<stop  offset="2.983166e-02" style="stop-color:#FEFEFD;stop-opacity:0"/>
					<stop  offset="4.848480e-02" style="stop-color:#FFFFFF;stop-opacity:0"/>
					<stop  offset="5.046754e-02" style="stop-color:#F0E5DB;stop-opacity:0"/>
					<stop  offset="5.289130e-02" style="stop-color:#E0CCB6;stop-opacity:0"/>
					<stop  offset="5.561676e-02" style="stop-color:#D3B697;stop-opacity:0"/>
					<stop  offset="5.863301e-02" style="stop-color:#C8A47D;stop-opacity:0"/>
					<stop  offset="6.203875e-02" style="stop-color:#C09669;stop-opacity:0"/>
					<stop  offset="6.601553e-02" style="stop-color:#B98B5B;stop-opacity:0"/>
					<stop  offset="7.093228e-02" style="stop-color:#B48451;stop-opacity:0"/>
					<stop  offset="7.782749e-02" style="stop-color:#B2804B;stop-opacity:0"/>
					<stop  offset="9.696970e-02" style="stop-color:#B17F4A;stop-opacity:0"/>
					<stop  offset="0.9939" style="stop-color:#B17F4A;stop-opacity:0.6512"/>
				</radialGradient>
				<circle fill="url(#SVGID_3_)" stroke="#000000" stroke-miterlimit="10" cx="295.8" cy="302.4" r="222.4"/>
				<line stroke="#000000" stroke-miterlimit="10" x1="325.5" y1="119.6" x2="329.3" y2="97.7"/>
				<line stroke="#000000" stroke-miterlimit="10" x1="333.6" y1="500.7" x2="329.5" y2="479.7"/>
				<line stroke="#000000" stroke-miterlimit="10" x1="202.9" y1="142.8" x2="191.7" y2="123.5"/>
				<line stroke="#000000" stroke-miterlimit="10" x1="400.1" y1="475.7" x2="389.1" y2="457.3"/>
				<line stroke="#000000" stroke-miterlimit="10" x1="154.8" y1="184.1" x2="137.8" y2="169.7"/>
				<line stroke="#000000" stroke-miterlimit="10" x1="454.1" y1="429.5" x2="437.4" y2="416"/>
				<line stroke="#000000" stroke-miterlimit="10" x1="474.2" y1="400" x2="455.5" y2="389.6"/>
				<line stroke="#000000" stroke-miterlimit="10" x1="123.8" y1="239.3" x2="102.9" y2="231.7"/>
				<line stroke="#000000" stroke-miterlimit="10" x1="489" y1="367.6" x2="468.7" y2="360.6"/>
				<line stroke="#000000" stroke-miterlimit="10" x1="113.6" y1="301.8" x2="91.3" y2="301.8"/>
				<line stroke="#000000" stroke-miterlimit="10" x1="500.6" y1="297.4" x2="479.1" y2="297.8"/>
				<line stroke="#000000" stroke-miterlimit="10" x1="125.3" y1="364" x2="104.4" y2="371.6"/>
				<line stroke="#000000" stroke-miterlimit="10" x1="487.5" y1="227.6" x2="467.4" y2="235.3"/>
				<line stroke="#000000" stroke-miterlimit="10" x1="157.6" y1="418.5" x2="140.6" y2="432.8"/>
				<line stroke="#000000" stroke-miterlimit="10" x1="451.3" y1="166.4" x2="435.1" y2="180.5"/>
				<line stroke="#000000" stroke-miterlimit="10" x1="425.8" y1="141.5" x2="412.3" y2="158.1"/>
				<line stroke="#000000" stroke-miterlimit="10" x1="206.6" y1="458.6" x2="195.5" y2="477.9"/>
				<line stroke="#000000" stroke-miterlimit="10" x1="396.4" y1="121.3" x2="386" y2="140.1"/>
				<line stroke="#000000" stroke-miterlimit="10" x1="363.9" y1="106.6" x2="356.9" y2="126.9"/>
				<line stroke="#000000" stroke-miterlimit="10" x1="266.4" y1="479.6" x2="262.5" y2="501.5"/>
				<line stroke="#000000" stroke-miterlimit="10" x1="298.1" y1="482" x2="298.1" y2="504.2"/>
				<line stroke="#000000" stroke-miterlimit="10" x1="258.3" y1="98.5" x2="262.4" y2="119.5"/>
				<line stroke="#000000" stroke-miterlimit="10" x1="360.3" y1="470.2" x2="368" y2="491.1"/>
				<line stroke="#000000" stroke-miterlimit="10" x1="223.9" y1="108.1" x2="231.6" y2="128.1"/>
				<line stroke="#000000" stroke-width="0.9835" stroke-miterlimit="10" x1="293.8" y1="118.8" x2="293.8" y2="95"/>
				<line stroke="#000000" stroke-miterlimit="10" x1="178.3" y1="163" x2="162.5" y2="144.2"/>
				<line stroke="#000000" stroke-miterlimit="10" x1="429" y1="455.5" x2="413.7" y2="437.3"/>
				<line stroke="#000000" stroke-miterlimit="10" x1="138.6" y1="211.5" x2="117.3" y2="199.2"/>
				<line stroke="#000000" stroke-miterlimit="10" x1="117.9" y1="270.5" x2="93.6" y2="266.3"/>
				<line stroke="#000000" stroke-miterlimit="10" x1="497.9" y1="333.5" x2="474.4" y2="329.3"/>
				<line stroke="#000000" stroke-miterlimit="10" x1="118.6" y1="333.1" x2="94.3" y2="337.4"/>
				<line stroke="#000000" stroke-miterlimit="10" x1="497.2" y1="262.3" x2="473.7" y2="266.5"/>
				<line stroke="#000000" stroke-miterlimit="10" x1="140.6" y1="391.7" x2="119.3" y2="404"/>
				<line stroke="#000000" stroke-miterlimit="10" x1="472.2" y1="195.7" x2="451.6" y2="207.6"/>
				<line stroke="#000000" stroke-miterlimit="10" x1="181.4" y1="439.3" x2="165.6" y2="458.1"/>
				<line stroke="#000000" stroke-miterlimit="10" x1="236" y1="470" x2="227.6" y2="493.1"/>
			</g>
			<g>
				<line stroke="#000000" stroke-miterlimit="10" x1="297.3" y1="94.9" x2="297.3" y2="110.2"/>
				<line stroke="#000000" stroke-miterlimit="10" x1="301.4" y1="488.9" x2="301.7" y2="504.2"/>
				<line stroke="#000000" stroke-miterlimit="10" x1="290.2" y1="95" x2="290.7" y2="110.3"/>
				<line stroke="#000000" stroke-miterlimit="10" x1="304.7" y1="488.7" x2="305.2" y2="504"/>
				<line stroke="#000000" stroke-miterlimit="10" x1="286.6" y1="95.2" x2="287.4" y2="110.5"/>
				<line stroke="#000000" stroke-miterlimit="10" x1="311.3" y1="488.3" x2="312.4" y2="503.6"/>
				<line stroke="#000000" stroke-miterlimit="10" x1="279.5" y1="95.6" x2="280.8" y2="110.9"/>
				<line stroke="#000000" stroke-miterlimit="10" x1="314.6" y1="488" x2="315.9" y2="503.3"/>
				<line stroke="#000000" stroke-miterlimit="10" x1="275.9" y1="95.9" x2="277.5" y2="111.2"/>
				<line stroke="#000000" stroke-miterlimit="10" x1="317.9" y1="487.7" x2="319.5" y2="502.9"/>
				<line stroke="#000000" stroke-miterlimit="10" x1="272.4" y1="96.3" x2="274.2" y2="111.5"/>
				<line stroke="#000000" stroke-miterlimit="10" x1="321.2" y1="487.3" x2="323" y2="502.4"/>
				<line stroke="#000000" stroke-miterlimit="10" x1="268.8" y1="96.8" x2="271" y2="111.9"/>
				<line stroke="#000000" stroke-miterlimit="10" x1="324.4" y1="486.8" x2="326.6" y2="501.9"/>
				<line stroke="#000000" stroke-miterlimit="10" x1="265.3" y1="97.3" x2="267.7" y2="112.4"/>
				<line stroke="#000000" stroke-miterlimit="10" x1="327.7" y1="486.3" x2="330.1" y2="501.4"/>
				<line stroke="#000000" stroke-miterlimit="10" x1="261.8" y1="97.8" x2="264.4" y2="112.9"/>
				<line stroke="#000000" stroke-miterlimit="10" x1="258.3" y1="98.5" x2="261.2" y2="113.5"/>
				<line stroke="#000000" stroke-miterlimit="10" x1="334.2" y1="485" x2="337.1" y2="500.1"/>
				<line stroke="#000000" stroke-miterlimit="10" x1="254.8" y1="99.1" x2="257.9" y2="114.1"/>
				<line stroke="#000000" stroke-miterlimit="10" x1="337.4" y1="484.3" x2="340.6" y2="499.3"/>
				<line stroke="#000000" stroke-miterlimit="10" x1="251.3" y1="99.9" x2="254.7" y2="114.8"/>
				<line stroke="#000000" stroke-miterlimit="10" x1="340.6" y1="483.6" x2="344.1" y2="498.5"/>
				<line stroke="#000000" stroke-miterlimit="10" x1="247.8" y1="100.7" x2="251.5" y2="115.6"/>
				<line stroke="#000000" stroke-miterlimit="10" x1="343.8" y1="482.8" x2="347.5" y2="497.6"/>
				<line stroke="#000000" stroke-miterlimit="10" x1="244.3" y1="101.6" x2="248.3" y2="116.4"/>
				<line stroke="#000000" stroke-miterlimit="10" x1="347" y1="481.9" x2="351" y2="496.7"/>
				<line stroke="#000000" stroke-miterlimit="10" x1="240.9" y1="102.5" x2="245.1" y2="117.2"/>
				<line stroke="#000000" stroke-miterlimit="10" x1="350.2" y1="481" x2="354.4" y2="495.7"/>
				<line stroke="#000000" stroke-miterlimit="10" x1="237.4" y1="103.5" x2="241.9" y2="118.1"/>
				<line stroke="#000000" stroke-miterlimit="10" x1="353.4" y1="480" x2="357.8" y2="494.7"/>
				<line stroke="#000000" stroke-miterlimit="10" x1="234" y1="104.5" x2="238.8" y2="119.1"/>
				<line stroke="#000000" stroke-miterlimit="10" x1="356.5" y1="479" x2="361.2" y2="493.5"/>
				<line stroke="#000000" stroke-miterlimit="10" x1="230.6" y1="105.7" x2="235.6" y2="120.1"/>
				<line stroke="#000000" stroke-miterlimit="10" x1="359.6" y1="477.9" x2="364.6" y2="492.4"/>
				<line stroke="#000000" stroke-miterlimit="10" x1="227.3" y1="106.8" x2="232.5" y2="121.2"/>
				<line stroke="#000000" stroke-miterlimit="10" x1="223.9" y1="108.1" x2="229.4" y2="122.3"/>
				<line stroke="#000000" stroke-miterlimit="10" x1="365.8" y1="475.6" x2="371.3" y2="489.9"/>
				<line stroke="#000000" stroke-miterlimit="10" x1="220.6" y1="109.3" x2="226.3" y2="123.5"/>
				<line stroke="#000000" stroke-miterlimit="10" x1="368.9" y1="474.3" x2="374.6" y2="488.5"/>
				<line stroke="#000000" stroke-miterlimit="10" x1="217.3" y1="110.7" x2="223.2" y2="124.8"/>
				<line stroke="#000000" stroke-miterlimit="10" x1="371.9" y1="473" x2="377.9" y2="487.1"/>
				<line stroke="#000000" stroke-miterlimit="10" x1="214" y1="112.1" x2="220.2" y2="126.1"/>
				<line stroke="#000000" stroke-miterlimit="10" x1="374.9" y1="471.7" x2="381.2" y2="485.7"/>
				<line stroke="#000000" stroke-miterlimit="10" x1="210.7" y1="113.5" x2="217.2" y2="127.4"/>
				<line stroke="#000000" stroke-miterlimit="10" x1="377.9" y1="470.3" x2="384.4" y2="484.1"/>
				<line stroke="#000000" stroke-miterlimit="10" x1="207.5" y1="115.1" x2="214.2" y2="128.8"/>
				<line stroke="#000000" stroke-miterlimit="10" x1="380.9" y1="468.8" x2="387.6" y2="482.6"/>
				<line stroke="#000000" stroke-miterlimit="10" x1="204.3" y1="116.6" x2="211.2" y2="130.3"/>
				<line stroke="#000000" stroke-miterlimit="10" x1="383.8" y1="467.3" x2="390.8" y2="480.9"/>
				<line stroke="#000000" stroke-miterlimit="10" x1="201.1" y1="118.3" x2="208.3" y2="131.8"/>
				<line stroke="#000000" stroke-miterlimit="10" x1="386.7" y1="465.7" x2="393.9" y2="479.3"/>
				<line stroke="#000000" stroke-miterlimit="10" x1="197.9" y1="119.9" x2="205.4" y2="133.3"/>
				<line stroke="#000000" stroke-miterlimit="10" x1="389.6" y1="464.1" x2="397" y2="477.5"/>
				<line stroke="#000000" stroke-miterlimit="10" x1="194.8" y1="121.7" x2="202.5" y2="134.9"/>
				<line stroke="#000000" stroke-miterlimit="10" x1="395.3" y1="460.8" x2="403.2" y2="473.9"/>
				<line stroke="#000000" stroke-miterlimit="10" x1="188.7" y1="125.3" x2="196.8" y2="138.3"/>
				<line stroke="#000000" stroke-miterlimit="10" x1="398.1" y1="459" x2="406.2" y2="472"/>
				<line stroke="#000000" stroke-miterlimit="10" x1="185.7" y1="127.2" x2="194" y2="140.1"/>
				<line stroke="#000000" stroke-miterlimit="10" x1="400.9" y1="457.2" x2="409.2" y2="470"/>
				<line stroke="#000000" stroke-miterlimit="10" x1="182.7" y1="129.2" x2="191.2" y2="141.9"/>
				<line stroke="#000000" stroke-miterlimit="10" x1="403.6" y1="455.3" x2="412.2" y2="468"/>
				<line stroke="#000000" stroke-miterlimit="10" x1="179.7" y1="131.2" x2="188.5" y2="143.7"/>
				<line stroke="#000000" stroke-miterlimit="10" x1="406.3" y1="453.4" x2="415.1" y2="466"/>
				<line stroke="#000000" stroke-miterlimit="10" x1="176.8" y1="133.2" x2="185.8" y2="145.6"/>
				<line stroke="#000000" stroke-miterlimit="10" x1="409" y1="451.5" x2="418" y2="463.9"/>
				<line stroke="#000000" stroke-miterlimit="10" x1="173.9" y1="135.3" x2="183.1" y2="147.6"/>
				<line stroke="#000000" stroke-miterlimit="10" x1="411.6" y1="449.5" x2="420.8" y2="461.7"/>
				<line stroke="#000000" stroke-miterlimit="10" x1="171" y1="137.5" x2="180.5" y2="149.5"/>
				<line stroke="#000000" stroke-miterlimit="10" x1="414.2" y1="447.5" x2="423.6" y2="459.5"/>
				<line stroke="#000000" stroke-miterlimit="10" x1="168.2" y1="139.7" x2="177.9" y2="151.6"/>
				<line stroke="#000000" stroke-miterlimit="10" x1="416.8" y1="445.4" x2="426.4" y2="457.3"/>
				<line stroke="#000000" stroke-miterlimit="10" x1="165.5" y1="141.9" x2="175.3" y2="153.7"/>
				<line stroke="#000000" stroke-miterlimit="10" x1="162.7" y1="144.2" x2="172.8" y2="155.8"/>
				<line stroke="#000000" stroke-miterlimit="10" x1="421.8" y1="441.1" x2="431.8" y2="452.6"/>
				<line stroke="#000000" stroke-miterlimit="10" x1="160" y1="146.6" x2="170.3" y2="158"/>
				<line stroke="#000000" stroke-miterlimit="10" x1="424.2" y1="438.8" x2="434.5" y2="450.2"/>
				<line stroke="#000000" stroke-miterlimit="10" x1="157.4" y1="149" x2="167.8" y2="160.2"/>
				<line stroke="#000000" stroke-miterlimit="10" x1="426.6" y1="436.6" x2="437.1" y2="447.8"/>
				<line stroke="#000000" stroke-miterlimit="10" x1="154.8" y1="151.4" x2="165.4" y2="162.4"/>
				<line stroke="#000000" stroke-miterlimit="10" x1="429" y1="434.3" x2="439.6" y2="445.3"/>
				<line stroke="#000000" stroke-miterlimit="10" x1="152.2" y1="153.9" x2="163" y2="164.7"/>
				<line stroke="#000000" stroke-miterlimit="10" x1="431.3" y1="431.9" x2="442.2" y2="442.8"/>
				<line stroke="#000000" stroke-miterlimit="10" x1="149.7" y1="156.4" x2="160.7" y2="167.1"/>
				<line stroke="#000000" stroke-miterlimit="10" x1="433.6" y1="429.6" x2="444.6" y2="440.2"/>
				<line stroke="#000000" stroke-miterlimit="10" x1="147.2" y1="159" x2="158.4" y2="169.5"/>
				<line stroke="#000000" stroke-miterlimit="10" x1="435.9" y1="427.1" x2="447.1" y2="437.6"/>
				<line stroke="#000000" stroke-miterlimit="10" x1="144.8" y1="161.6" x2="156.2" y2="171.9"/>
				<line stroke="#000000" stroke-miterlimit="10" x1="438.1" y1="424.7" x2="449.5" y2="434.9"/>
				<line stroke="#000000" stroke-miterlimit="10" x1="142.4" y1="164.3" x2="154" y2="174.3"/>
				<line stroke="#000000" stroke-miterlimit="10" x1="440.2" y1="422.2" x2="451.8" y2="432.2"/>
				<line stroke="#000000" stroke-miterlimit="10" x1="140.1" y1="167" x2="151.8" y2="176.8"/>
				<line stroke="#000000" stroke-miterlimit="10" x1="444.4" y1="417.1" x2="456.3" y2="426.7"/>
				<line stroke="#000000" stroke-miterlimit="10" x1="135.5" y1="172.5" x2="147.6" y2="181.9"/>
				<line stroke="#000000" stroke-miterlimit="10" x1="446.5" y1="414.4" x2="458.5" y2="423.9"/>
				<line stroke="#000000" stroke-miterlimit="10" x1="133.3" y1="175.3" x2="145.6" y2="184.5"/>
				<line stroke="#000000" stroke-miterlimit="10" x1="448.4" y1="411.8" x2="460.7" y2="421"/>
				<line stroke="#000000" stroke-miterlimit="10" x1="131.2" y1="178.2" x2="143.6" y2="187.2"/>
				<line stroke="#000000" stroke-miterlimit="10" x1="450.4" y1="409.1" x2="462.8" y2="418.1"/>
				<line stroke="#000000" stroke-miterlimit="10" x1="129.1" y1="181.1" x2="141.6" y2="189.9"/>
				<line stroke="#000000" stroke-miterlimit="10" x1="452.3" y1="406.4" x2="464.8" y2="415.2"/>
				<line stroke="#000000" stroke-miterlimit="10" x1="127.1" y1="184" x2="139.7" y2="192.6"/>
				<line stroke="#000000" stroke-miterlimit="10" x1="454.1" y1="403.7" x2="466.8" y2="412.2"/>
				<line stroke="#000000" stroke-miterlimit="10" x1="125.1" y1="187" x2="137.9" y2="195.3"/>
				<line stroke="#000000" stroke-miterlimit="10" x1="455.9" y1="400.9" x2="468.7" y2="409.2"/>
				<line stroke="#000000" stroke-miterlimit="10" x1="123.1" y1="190" x2="136.1" y2="198.1"/>
				<line stroke="#000000" stroke-miterlimit="10" x1="457.6" y1="398.1" x2="470.6" y2="406.2"/>
				<line stroke="#000000" stroke-miterlimit="10" x1="121.2" y1="193" x2="134.4" y2="200.9"/>
				<line stroke="#000000" stroke-miterlimit="10" x1="459.3" y1="395.2" x2="472.5" y2="403.1"/>
				<line stroke="#000000" stroke-miterlimit="10" x1="119.4" y1="196.1" x2="132.7" y2="203.7"/>
				<line stroke="#000000" stroke-miterlimit="10" x1="117.6" y1="199.2" x2="131" y2="206.6"/>
				<line stroke="#000000" stroke-miterlimit="10" x1="462.6" y1="389.5" x2="476" y2="396.9"/>
				<line stroke="#000000" stroke-miterlimit="10" x1="115.9" y1="202.3" x2="129.4" y2="209.5"/>
				<line stroke="#000000" stroke-miterlimit="10" x1="464.1" y1="386.6" x2="477.6" y2="393.8"/>
				<line stroke="#000000" stroke-miterlimit="10" x1="114.2" y1="205.5" x2="127.9" y2="212.4"/>
				<line stroke="#000000" stroke-miterlimit="10" x1="465.6" y1="383.6" x2="479.2" y2="390.6"/>
				<line stroke="#000000" stroke-miterlimit="10" x1="112.6" y1="208.6" x2="126.4" y2="215.3"/>
				<line stroke="#000000" stroke-miterlimit="10" x1="467.1" y1="380.6" x2="480.8" y2="387.4"/>
				<line stroke="#000000" stroke-miterlimit="10" x1="111.1" y1="211.8" x2="124.9" y2="218.3"/>
				<line stroke="#000000" stroke-miterlimit="10" x1="468.4" y1="377.6" x2="482.3" y2="384.1"/>
				<line stroke="#000000" stroke-miterlimit="10" x1="109.6" y1="215.1" x2="123.5" y2="221.3"/>
				<line stroke="#000000" stroke-miterlimit="10" x1="469.8" y1="374.6" x2="483.8" y2="380.8"/>
				<line stroke="#000000" stroke-miterlimit="10" x1="108.1" y1="218.4" x2="122.2" y2="224.3"/>
				<line stroke="#000000" stroke-miterlimit="10" x1="471.1" y1="371.6" x2="485.1" y2="377.6"/>
				<line stroke="#000000" stroke-miterlimit="10" x1="106.7" y1="221.6" x2="120.9" y2="227.4"/>
				<line stroke="#000000" stroke-miterlimit="10" x1="472.3" y1="368.5" x2="486.5" y2="374.2"/>
				<line stroke="#000000" stroke-miterlimit="10" x1="105.4" y1="225" x2="119.7" y2="230.4"/>
				<line stroke="#000000" stroke-miterlimit="10" x1="473.5" y1="365.4" x2="487.8" y2="370.9"/>
				<line stroke="#000000" stroke-miterlimit="10" x1="104.1" y1="228.3" x2="118.5" y2="233.5"/>
				<line stroke="#000000" stroke-miterlimit="10" x1="475.7" y1="359.2" x2="490.1" y2="364.2"/>
				<line stroke="#000000" stroke-miterlimit="10" x1="101.7" y1="235" x2="116.3" y2="239.8"/>
				<line stroke="#000000" stroke-miterlimit="10" x1="476.7" y1="356" x2="491.2" y2="360.8"/>
				<line stroke="#000000" stroke-miterlimit="10" x1="100.6" y1="238.4" x2="115.3" y2="242.9"/>
				<line stroke="#000000" stroke-miterlimit="10" x1="477.6" y1="352.9" x2="492.3" y2="357.4"/>
				<line stroke="#000000" stroke-miterlimit="10" x1="99.6" y1="241.9" x2="114.3" y2="246.1"/>
				<line stroke="#000000" stroke-miterlimit="10" x1="478.5" y1="349.7" x2="493.2" y2="353.9"/>
				<line stroke="#000000" stroke-miterlimit="10" x1="98.6" y1="245.3" x2="113.4" y2="249.2"/>
				<line stroke="#000000" stroke-miterlimit="10" x1="479.4" y1="346.5" x2="494.2" y2="350.5"/>
				<line stroke="#000000" stroke-miterlimit="10" x1="97.7" y1="248.7" x2="112.6" y2="252.4"/>
				<line stroke="#000000" stroke-miterlimit="10" x1="480.2" y1="343.3" x2="495" y2="347"/>
				<line stroke="#000000" stroke-miterlimit="10" x1="96.9" y1="252.2" x2="111.8" y2="255.6"/>
				<line stroke="#000000" stroke-miterlimit="10" x1="480.9" y1="340.1" x2="495.8" y2="343.5"/>
				<line stroke="#000000" stroke-miterlimit="10" x1="96.1" y1="255.7" x2="111" y2="258.9"/>
				<line stroke="#000000" stroke-miterlimit="10" x1="481.6" y1="336.8" x2="496.5" y2="340"/>
				<line stroke="#000000" stroke-miterlimit="10" x1="95.3" y1="259.2" x2="110.3" y2="262.1"/>
				<line stroke="#000000" stroke-miterlimit="10" x1="482.2" y1="333.6" x2="497.2" y2="336.5"/>
				<line stroke="#000000" stroke-miterlimit="10" x1="94.6" y1="262.7" x2="109.7" y2="265.3"/>
				<line stroke="#000000" stroke-miterlimit="10" x1="483.3" y1="327.1" x2="498.4" y2="329.5"/>
				<line stroke="#000000" stroke-miterlimit="10" x1="93.5" y1="269.7" x2="108.6" y2="271.9"/>
				<line stroke="#000000" stroke-miterlimit="10" x1="483.7" y1="323.8" x2="498.9" y2="325.9"/>
				<line stroke="#000000" stroke-miterlimit="10" x1="93" y1="273.3" x2="108.2" y2="275.1"/>
				<line stroke="#000000" stroke-miterlimit="10" x1="484.1" y1="320.5" x2="499.3" y2="322.4"/>
				<line stroke="#000000" stroke-miterlimit="10" x1="92.6" y1="276.8" x2="107.8" y2="278.4"/>
				<line stroke="#000000" stroke-miterlimit="10" x1="484.5" y1="317.2" x2="499.7" y2="318.8"/>
				<line stroke="#000000" stroke-miterlimit="10" x1="92.2" y1="280.4" x2="107.4" y2="281.7"/>
				<line stroke="#000000" stroke-miterlimit="10" x1="484.7" y1="313.9" x2="500" y2="315.3"/>
				<line stroke="#000000" stroke-miterlimit="10" x1="91.9" y1="283.9" x2="107.2" y2="285"/>
				<line stroke="#000000" stroke-miterlimit="10" x1="485" y1="310.6" x2="500.2" y2="311.7"/>
				<line stroke="#000000" stroke-miterlimit="10" x1="91.6" y1="287.5" x2="106.9" y2="288.3"/>
				<line stroke="#000000" stroke-miterlimit="10" x1="485.1" y1="307.3" x2="500.4" y2="308.1"/>
				<line stroke="#000000" stroke-miterlimit="10" x1="91.5" y1="291.1" x2="106.8" y2="291.6"/>
				<line stroke="#000000" stroke-miterlimit="10" x1="485.2" y1="304" x2="500.5" y2="304.6"/>
				<line stroke="#000000" stroke-miterlimit="10" x1="91.3" y1="294.6" x2="106.7" y2="294.9"/>
				<line stroke="#000000" stroke-miterlimit="10" x1="485.3" y1="300.7" x2="500.6" y2="301"/>
				<line stroke="#000000" stroke-miterlimit="10" x1="91.3" y1="298.2" x2="106.6" y2="298.2"/>
				<line stroke="#000000" stroke-miterlimit="10" x1="485.2" y1="294.1" x2="500.5" y2="293.9"/>
				<line stroke="#000000" stroke-miterlimit="10" x1="91.4" y1="305.3" x2="106.7" y2="304.8"/>
				<line stroke="#000000" stroke-miterlimit="10" x1="485.1" y1="290.8" x2="500.4" y2="290.3"/>
				<line stroke="#000000" stroke-miterlimit="10" x1="91.5" y1="308.9" x2="106.8" y2="308.1"/>
				<line stroke="#000000" stroke-miterlimit="10" x1="484.9" y1="287.5" x2="500.2" y2="286.7"/>
				<line stroke="#000000" stroke-miterlimit="10" x1="91.7" y1="312.5" x2="107" y2="311.4"/>
				<line stroke="#000000" stroke-miterlimit="10" x1="484.7" y1="284.2" x2="499.9" y2="283.2"/>
				<line stroke="#000000" stroke-miterlimit="10" x1="92" y1="316" x2="107.2" y2="314.7"/>
				<line stroke="#000000" stroke-miterlimit="10" x1="484.4" y1="280.9" x2="499.6" y2="279.6"/>
				<line stroke="#000000" stroke-miterlimit="10" x1="92.3" y1="319.6" x2="107.5" y2="318"/>
				<line stroke="#000000" stroke-miterlimit="10" x1="484" y1="277.6" x2="499.2" y2="276.1"/>
				<line stroke="#000000" stroke-miterlimit="10" x1="92.6" y1="323.2" x2="107.8" y2="321.3"/>
				<line stroke="#000000" stroke-miterlimit="10" x1="483.6" y1="274.4" x2="498.8" y2="272.5"/>
				<line stroke="#000000" stroke-miterlimit="10" x1="93.1" y1="326.7" x2="108.2" y2="324.6"/>
				<line stroke="#000000" stroke-miterlimit="10" x1="483.1" y1="271.1" x2="498.3" y2="269"/>
				<line stroke="#000000" stroke-miterlimit="10" x1="93.6" y1="330.2" x2="108.7" y2="327.8"/>
				<line stroke="#000000" stroke-miterlimit="10" x1="482.6" y1="267.8" x2="497.7" y2="265.4"/>
				<line stroke="#000000" stroke-miterlimit="10" x1="94.2" y1="333.8" x2="109.2" y2="331.1"/>
				<line stroke="#000000" stroke-miterlimit="10" x1="481.4" y1="261.3" x2="496.4" y2="258.4"/>
				<line stroke="#000000" stroke-miterlimit="10" x1="95.5" y1="340.8" x2="110.4" y2="337.6"/>
				<line stroke="#000000" stroke-miterlimit="10" x1="480.7" y1="258.1" x2="495.6" y2="254.9"/>
				<line stroke="#000000" stroke-miterlimit="10" x1="96.2" y1="344.3" x2="111.1" y2="340.8"/>
				<line stroke="#000000" stroke-miterlimit="10" x1="479.9" y1="254.9" x2="494.8" y2="251.5"/>
				<line stroke="#000000" stroke-miterlimit="10" x1="97" y1="347.8" x2="111.9" y2="344.1"/>
				<line stroke="#000000" stroke-miterlimit="10" x1="479.1" y1="251.7" x2="494" y2="248"/>
				<line stroke="#000000" stroke-miterlimit="10" x1="97.9" y1="351.2" x2="112.7" y2="347.3"/>
				<line stroke="#000000" stroke-miterlimit="10" x1="478.2" y1="248.5" x2="493" y2="244.5"/>
				<line stroke="#000000" stroke-miterlimit="10" x1="98.8" y1="354.7" x2="113.5" y2="350.4"/>
				<line stroke="#000000" stroke-miterlimit="10" x1="477.3" y1="245.3" x2="492" y2="241.1"/>
				<line stroke="#000000" stroke-miterlimit="10" x1="99.8" y1="358.1" x2="114.5" y2="353.6"/>
				<line stroke="#000000" stroke-miterlimit="10" x1="476.4" y1="242.2" x2="491" y2="237.7"/>
				<line stroke="#000000" stroke-miterlimit="10" x1="100.9" y1="361.5" x2="115.4" y2="356.8"/>
				<line stroke="#000000" stroke-miterlimit="10" x1="475.3" y1="239" x2="489.9" y2="234.3"/>
				<line stroke="#000000" stroke-miterlimit="10" x1="102" y1="364.9" x2="116.5" y2="359.9"/>
				<line stroke="#000000" stroke-miterlimit="10" x1="474.2" y1="235.9" x2="488.7" y2="230.9"/>
				<line stroke="#000000" stroke-miterlimit="10" x1="103.2" y1="368.3" x2="117.5" y2="363"/>
				<line stroke="#000000" stroke-miterlimit="10" x1="471.9" y1="229.7" x2="486.2" y2="224.2"/>
				<line stroke="#000000" stroke-miterlimit="10" x1="105.7" y1="375" x2="119.9" y2="369.2"/>
				<line stroke="#000000" stroke-miterlimit="10" x1="470.7" y1="226.7" x2="484.9" y2="220.9"/>
				<line stroke="#000000" stroke-miterlimit="10" x1="107" y1="378.3" x2="121.1" y2="372.3"/>
				<line stroke="#000000" stroke-miterlimit="10" x1="469.4" y1="223.6" x2="483.4" y2="217.6"/>
				<line stroke="#000000" stroke-miterlimit="10" x1="108.4" y1="381.6" x2="122.4" y2="375.3"/>
				<line stroke="#000000" stroke-miterlimit="10" x1="468" y1="220.6" x2="482" y2="214.4"/>
				<line stroke="#000000" stroke-miterlimit="10" x1="109.9" y1="384.8" x2="123.7" y2="378.4"/>
				<line stroke="#000000" stroke-miterlimit="10" x1="466.6" y1="217.6" x2="480.5" y2="211.2"/>
				<line stroke="#000000" stroke-miterlimit="10" x1="111.4" y1="388.1" x2="125.1" y2="381.3"/>
				<line stroke="#000000" stroke-miterlimit="10" x1="465.1" y1="214.7" x2="478.9" y2="207.9"/>
				<line stroke="#000000" stroke-miterlimit="10" x1="113" y1="391.3" x2="126.6" y2="384.3"/>
				<line stroke="#000000" stroke-miterlimit="10" x1="463.6" y1="211.7" x2="477.3" y2="204.8"/>
				<line stroke="#000000" stroke-miterlimit="10" x1="114.6" y1="394.4" x2="128.1" y2="387.3"/>
				<line stroke="#000000" stroke-miterlimit="10" x1="462.1" y1="208.8" x2="475.6" y2="201.6"/>
				<line stroke="#000000" stroke-miterlimit="10" x1="116.3" y1="397.6" x2="129.7" y2="390.2"/>
				<line stroke="#000000" stroke-miterlimit="10" x1="460.5" y1="205.9" x2="473.9" y2="198.5"/>
				<line stroke="#000000" stroke-miterlimit="10" x1="118" y1="400.7" x2="131.3" y2="393.1"/>
				<line stroke="#000000" stroke-miterlimit="10" x1="457.1" y1="200.2" x2="470.2" y2="192.3"/>
				<line stroke="#000000" stroke-miterlimit="10" x1="121.6" y1="406.9" x2="134.6" y2="398.8"/>
				<line stroke="#000000" stroke-miterlimit="10" x1="455.3" y1="197.4" x2="468.3" y2="189.3"/>
				<line stroke="#000000" stroke-miterlimit="10" x1="123.5" y1="409.9" x2="136.4" y2="401.6"/>
				<line stroke="#000000" stroke-miterlimit="10" x1="453.5" y1="194.7" x2="466.4" y2="186.3"/>
				<line stroke="#000000" stroke-miterlimit="10" x1="125.5" y1="412.9" x2="138.2" y2="404.3"/>
				<line stroke="#000000" stroke-miterlimit="10" x1="451.7" y1="191.9" x2="464.4" y2="183.4"/>
				<line stroke="#000000" stroke-miterlimit="10" x1="127.5" y1="415.8" x2="140" y2="407.1"/>
				<line stroke="#000000" stroke-miterlimit="10" x1="449.8" y1="189.2" x2="462.3" y2="180.5"/>
				<line stroke="#000000" stroke-miterlimit="10" x1="129.6" y1="418.8" x2="141.9" y2="409.8"/>
				<line stroke="#000000" stroke-miterlimit="10" x1="447.8" y1="186.6" x2="460.2" y2="177.6"/>
				<line stroke="#000000" stroke-miterlimit="10" x1="131.7" y1="421.6" x2="143.9" y2="412.4"/>
				<line stroke="#000000" stroke-miterlimit="10" x1="445.8" y1="183.9" x2="458.1" y2="174.7"/>
				<line stroke="#000000" stroke-miterlimit="10" x1="133.8" y1="424.5" x2="145.9" y2="415.1"/>
				<line stroke="#000000" stroke-miterlimit="10" x1="443.8" y1="181.3" x2="455.8" y2="171.9"/>
				<line stroke="#000000" stroke-miterlimit="10" x1="136" y1="427.3" x2="147.9" y2="417.7"/>
				<line stroke="#000000" stroke-miterlimit="10" x1="441.7" y1="178.8" x2="453.6" y2="169.1"/>
				<line stroke="#000000" stroke-miterlimit="10" x1="138.3" y1="430.1" x2="150" y2="420.2"/>
				<line stroke="#000000" stroke-miterlimit="10" x1="437.4" y1="173.8" x2="448.9" y2="163.7"/>
				<line stroke="#000000" stroke-miterlimit="10" x1="142.9" y1="435.5" x2="154.3" y2="425.3"/>
				<line stroke="#000000" stroke-miterlimit="10" x1="435.2" y1="171.3" x2="446.5" y2="161.1"/>
				<line stroke="#000000" stroke-miterlimit="10" x1="145.3" y1="438.1" x2="156.5" y2="427.7"/>
				<line stroke="#000000" stroke-miterlimit="10" x1="432.9" y1="168.9" x2="444.1" y2="158.5"/>
				<line stroke="#000000" stroke-miterlimit="10" x1="147.8" y1="440.7" x2="158.8" y2="430.1"/>
				<line stroke="#000000" stroke-miterlimit="10" x1="430.6" y1="166.5" x2="441.6" y2="155.9"/>
				<line stroke="#000000" stroke-miterlimit="10" x1="150.2" y1="443.3" x2="161.1" y2="432.5"/>
				<line stroke="#000000" stroke-miterlimit="10" x1="428.3" y1="164.2" x2="439.1" y2="153.4"/>
				<line stroke="#000000" stroke-miterlimit="10" x1="152.8" y1="445.8" x2="163.4" y2="434.8"/>
				<line stroke="#000000" stroke-miterlimit="10" x1="425.9" y1="161.9" x2="436.5" y2="150.9"/>
				<line stroke="#000000" stroke-miterlimit="10" x1="155.3" y1="448.3" x2="165.8" y2="437.1"/>
				<line stroke="#000000" stroke-miterlimit="10" x1="423.5" y1="159.7" x2="433.9" y2="148.5"/>
				<line stroke="#000000" stroke-miterlimit="10" x1="158" y1="450.7" x2="168.2" y2="439.4"/>
				<line stroke="#000000" stroke-miterlimit="10" x1="421" y1="157.4" x2="431.2" y2="146.1"/>
				<line stroke="#000000" stroke-miterlimit="10" x1="160.6" y1="453.1" x2="170.7" y2="441.6"/>
				<line stroke="#000000" stroke-miterlimit="10" x1="418.5" y1="155.3" x2="428.5" y2="143.7"/>
				<line stroke="#000000" stroke-miterlimit="10" x1="163.3" y1="455.5" x2="173.2" y2="443.7"/>
				<line stroke="#000000" stroke-miterlimit="10" x1="413.4" y1="151.1" x2="423" y2="139.2"/>
				<line stroke="#000000" stroke-miterlimit="10" x1="168.8" y1="460" x2="178.3" y2="447.9"/>
				<line stroke="#000000" stroke-miterlimit="10" x1="410.8" y1="149.1" x2="420.2" y2="137"/>
				<line stroke="#000000" stroke-miterlimit="10" x1="171.7" y1="462.2" x2="180.9" y2="450"/>
				<line stroke="#000000" stroke-miterlimit="10" x1="408.1" y1="147.1" x2="417.3" y2="134.9"/>
				<line stroke="#000000" stroke-miterlimit="10" x1="174.5" y1="464.3" x2="183.5" y2="452"/>
				<line stroke="#000000" stroke-miterlimit="10" x1="405.5" y1="145.2" x2="414.5" y2="132.8"/>
				<line stroke="#000000" stroke-miterlimit="10" x1="177.4" y1="466.4" x2="186.2" y2="453.9"/>
				<line stroke="#000000" stroke-miterlimit="10" x1="402.7" y1="143.3" x2="411.5" y2="130.7"/>
				<line stroke="#000000" stroke-miterlimit="10" x1="180.3" y1="468.5" x2="188.9" y2="455.8"/>
				<line stroke="#000000" stroke-miterlimit="10" x1="400" y1="141.4" x2="408.6" y2="128.7"/>
				<line stroke="#000000" stroke-miterlimit="10" x1="183.3" y1="470.5" x2="191.6" y2="457.6"/>
				<line stroke="#000000" stroke-miterlimit="10" x1="397.2" y1="139.6" x2="405.6" y2="126.8"/>
				<line stroke="#000000" stroke-miterlimit="10" x1="186.3" y1="472.4" x2="194.4" y2="459.4"/>
				<line stroke="#000000" stroke-miterlimit="10" x1="394.4" y1="137.9" x2="402.5" y2="124.9"/>
				<line stroke="#000000" stroke-miterlimit="10" x1="189.3" y1="474.3" x2="197.2" y2="461.2"/>
				<line stroke="#000000" stroke-miterlimit="10" x1="391.6" y1="136.2" x2="399.5" y2="123.1"/>
				<line stroke="#000000" stroke-miterlimit="10" x1="192.4" y1="476.1" x2="200.1" y2="462.9"/>
				<line stroke="#000000" stroke-miterlimit="10" x1="385.8" y1="133" x2="393.2" y2="119.6"/>
				<line stroke="#000000" stroke-miterlimit="10" x1="198.6" y1="479.6" x2="205.8" y2="466.1"/>
				<line stroke="#000000" stroke-miterlimit="10" x1="382.9" y1="131.4" x2="390.1" y2="117.9"/>
				<line stroke="#000000" stroke-miterlimit="10" x1="201.8" y1="481.3" x2="208.7" y2="467.7"/>
				<line stroke="#000000" stroke-miterlimit="10" x1="379.9" y1="129.9" x2="386.9" y2="116.3"/>
				<line stroke="#000000" stroke-miterlimit="10" x1="205" y1="482.9" x2="211.7" y2="469.2"/>
				<line stroke="#000000" stroke-miterlimit="10" x1="377" y1="128.5" x2="383.7" y2="114.7"/>
				<line stroke="#000000" stroke-miterlimit="10" x1="208.2" y1="484.5" x2="214.7" y2="470.6"/>
				<line stroke="#000000" stroke-miterlimit="10" x1="374" y1="127.1" x2="380.4" y2="113.2"/>
				<line stroke="#000000" stroke-miterlimit="10" x1="211.4" y1="486" x2="217.6" y2="472"/>
				<line stroke="#000000" stroke-miterlimit="10" x1="371" y1="125.8" x2="377.2" y2="111.8"/>
				<line stroke="#000000" stroke-miterlimit="10" x1="214.7" y1="487.4" x2="220.7" y2="473.3"/>
				<line stroke="#000000" stroke-miterlimit="10" x1="367.9" y1="124.5" x2="373.9" y2="110.4"/>
				<line stroke="#000000" stroke-miterlimit="10" x1="218" y1="488.8" x2="223.7" y2="474.6"/>
				<line stroke="#000000" stroke-miterlimit="10" x1="364.8" y1="123.2" x2="370.6" y2="109.1"/>
				<line stroke="#000000" stroke-miterlimit="10" x1="221.3" y1="490.1" x2="226.8" y2="475.9"/>
				<line stroke="#000000" stroke-miterlimit="10" x1="361.8" y1="122.1" x2="367.2" y2="107.8"/>
				<line stroke="#000000" stroke-miterlimit="10" x1="224.6" y1="491.4" x2="229.9" y2="477"/>
				<line stroke="#000000" stroke-miterlimit="10" x1="355.5" y1="119.9" x2="360.5" y2="105.4"/>
				<line stroke="#000000" stroke-miterlimit="10" x1="231.4" y1="493.8" x2="236.1" y2="479.2"/>
				<line stroke="#000000" stroke-miterlimit="10" x1="352.4" y1="118.9" x2="357.1" y2="104.3"/>
				<line stroke="#000000" stroke-miterlimit="10" x1="234.8" y1="494.9" x2="239.2" y2="480.3"/>
				<line stroke="#000000" stroke-miterlimit="10" x1="349.2" y1="117.9" x2="353.7" y2="103.3"/>
				<line stroke="#000000" stroke-miterlimit="10" x1="238.2" y1="495.9" x2="242.4" y2="481.2"/>
				<line stroke="#000000" stroke-miterlimit="10" x1="346" y1="117" x2="350.2" y2="102.3"/>
				<line stroke="#000000" stroke-miterlimit="10" x1="241.6" y1="496.9" x2="245.6" y2="482.1"/>
				<line stroke="#000000" stroke-miterlimit="10" x1="342.8" y1="116.2" x2="346.8" y2="101.4"/>
				<line stroke="#000000" stroke-miterlimit="10" x1="245.1" y1="497.8" x2="248.8" y2="483"/>
				<line stroke="#000000" stroke-miterlimit="10" x1="339.6" y1="115.4" x2="343.3" y2="100.5"/>
				<line stroke="#000000" stroke-miterlimit="10" x1="248.5" y1="498.7" x2="252" y2="483.8"/>
				<line stroke="#000000" stroke-miterlimit="10" x1="336.4" y1="114.6" x2="339.8" y2="99.7"/>
				<line stroke="#000000" stroke-miterlimit="10" x1="252" y1="499.5" x2="255.2" y2="484.5"/>
				<line stroke="#000000" stroke-miterlimit="10" x1="333.2" y1="114" x2="336.4" y2="99"/>
				<line stroke="#000000" stroke-miterlimit="10" x1="255.5" y1="500.2" x2="258.4" y2="485.2"/>
				<line stroke="#000000" stroke-miterlimit="10" x1="329.9" y1="113.3" x2="332.8" y2="98.3"/>
				<line stroke="#000000" stroke-miterlimit="10" x1="259" y1="500.9" x2="261.7" y2="485.8"/>
				<line stroke="#000000" stroke-miterlimit="10" x1="293.8" y1="117.3" x2="293.8" y2="95"/>
				<line stroke="#000000" stroke-miterlimit="10" x1="323.4" y1="112.3" x2="325.8" y2="97.2"/>
				<line stroke="#000000" stroke-miterlimit="10" x1="266.1" y1="502.1" x2="268.2" y2="486.9"/>
				<line stroke="#000000" stroke-miterlimit="10" x1="320.1" y1="111.8" x2="322.3" y2="96.7"/>
				<line stroke="#000000" stroke-miterlimit="10" x1="269.6" y1="502.5" x2="271.5" y2="487.4"/>
				<line stroke="#000000" stroke-miterlimit="10" x1="316.8" y1="111.4" x2="318.7" y2="96.2"/>
				<line stroke="#000000" stroke-miterlimit="10" x1="273.1" y1="503" x2="274.8" y2="487.8"/>
				<line stroke="#000000" stroke-miterlimit="10" x1="313.6" y1="111.1" x2="315.2" y2="95.9"/>
				<line stroke="#000000" stroke-miterlimit="10" x1="276.7" y1="503.3" x2="278" y2="488.1"/>
				<line stroke="#000000" stroke-miterlimit="10" x1="310.3" y1="110.8" x2="311.6" y2="95.6"/>
				<line stroke="#000000" stroke-miterlimit="10" x1="280.3" y1="503.6" x2="281.3" y2="488.4"/>
				<line stroke="#000000" stroke-miterlimit="10" x1="307" y1="110.6" x2="308" y2="95.3"/>
				<line stroke="#000000" stroke-miterlimit="10" x1="283.8" y1="503.9" x2="284.6" y2="488.6"/>
				<line stroke="#000000" stroke-miterlimit="10" x1="303.7" y1="110.4" x2="304.5" y2="95.1"/>
				<line stroke="#000000" stroke-miterlimit="10" x1="287.4" y1="504.1" x2="287.9" y2="488.8"/>
				<line stroke="#000000" stroke-miterlimit="10" x1="300.4" y1="110.3" x2="300.9" y2="95"/>
				<line stroke="#000000" stroke-miterlimit="10" x1="291" y1="504.2" x2="291.2" y2="488.9"/>
				<line stroke="#000000" stroke-miterlimit="10" x1="297.1" y1="110.3" x2="297.3" y2="95"/>
				<line stroke="#000000" stroke-miterlimit="10" x1="294.5" y1="504.2" x2="294.5" y2="488.9"/>
				<line stroke="#000000" stroke-miterlimit="10" x1="290.5" y1="110.3" x2="290.2" y2="95"/>
				<line stroke="#000000" stroke-miterlimit="10" x1="301.7" y1="504.2" x2="301.1" y2="488.9"/>
				<line stroke="#000000" stroke-miterlimit="10" x1="287.2" y1="110.5" x2="286.6" y2="95.2"/>
				<line stroke="#000000" stroke-miterlimit="10" x1="305.2" y1="504" x2="304.4" y2="488.7"/>
				<line stroke="#000000" stroke-miterlimit="10" x1="283.9" y1="110.6" x2="283.1" y2="95.4"/>
				<line stroke="#000000" stroke-miterlimit="10" x1="308.8" y1="503.8" x2="307.7" y2="488.6"/>
				<line stroke="#000000" stroke-miterlimit="10" x1="301.4" y1="488.9" x2="301.7" y2="504.2"/>
			</g>
			<g>
				
					<ellipse transform="matrix(1 -9.846488e-03 9.846488e-03 1 -2.9414 2.9252)" fill="none" cx="295.6" cy="300.2" rx="208" ry="206.6"/>
				<path d="M297.1,89.6c0,2.7-1,4.1-2.8,4.1c-1.5,0-2.6-1.5-2.6-4.1c0-2.6,1.2-4.1,2.8-4.1C296.1,85.6,297.1,87.1,297.1,89.6z
					 M292.8,89.7c0,2,0.6,3.2,1.6,3.2c1.1,0,1.6-1.3,1.6-3.3c0-1.9-0.5-3.2-1.6-3.2C293.5,86.4,292.8,87.5,292.8,89.7z"/>
				<path d="M358.5,103.1l0.2-0.6l1.1-0.5c2.5-1.2,3.7-1.9,4.1-3c0.2-0.8,0.1-1.6-1-2c-0.7-0.2-1.4-0.1-1.8,0.1l-0.1-0.8
					c0.7-0.3,1.5-0.3,2.4-0.1c1.6,0.5,1.9,1.9,1.6,2.9c-0.5,1.4-1.8,2.2-3.9,3.2l-0.8,0.4l0,0l3.4,1.1l-0.3,0.8L358.5,103.1z"/>
				<path d="M370.7,103.1c-0.9,2.5-2.4,3.6-4,3c-1.5-0.5-2-2.2-1.1-4.7c0.9-2.5,2.5-3.5,4-2.9C371.2,99,371.5,100.7,370.7,103.1z
					 M366.6,101.7c-0.7,1.9-0.5,3.2,0.4,3.6c1,0.4,2-0.6,2.6-2.5c0.7-1.8,0.6-3.2-0.4-3.6C368.4,98.9,367.3,99.7,366.6,101.7z"/>
				<path d="M424.2,137.7l1.3-1.7l-2.9-2.3l0.4-0.6l5.9-1.8l0.9,0.7l-3,3.9l0.9,0.7l-0.5,0.7l-0.9-0.7l-1.3,1.7L424.2,137.7z
					 M426,135.4l1.6-2.1c0.3-0.3,0.5-0.6,0.8-1l0,0c-0.5,0.2-0.8,0.4-1.2,0.5l-3.2,0.9l0,0L426,135.4z"/>
				<path d="M433,139.7c-1.7,2.1-3.4,2.6-4.8,1.4c-1.2-1-1.1-2.8,0.5-4.8c1.7-2,3.5-2.4,4.7-1.4C434.8,136.1,434.6,137.8,433,139.7z
					 M429.6,137.1c-1.3,1.6-1.5,2.9-0.8,3.5c0.8,0.7,2.1,0.1,3.3-1.5c1.2-1.5,1.7-2.8,0.8-3.5C432.3,135,431,135.4,429.6,137.1z"/>
				<path d="M479.8,189.7c-0.1-0.2-0.3-0.4-0.5-0.7c-1.1-1.3-2.6-1.4-3.8-0.9l0,0c0.6,0.1,1.3,0.4,1.8,1.1c0.7,1.2,0.4,2.6-0.9,3.4
					c-1.2,0.8-2.9,0.6-3.7-0.8c-0.9-1.4-0.4-3.1,1.4-4.2c1.3-0.8,2.7-1,3.7-0.7c0.9,0.2,1.7,0.8,2.3,1.5c0.2,0.2,0.4,0.5,0.5,0.6
					L479.8,189.7z M475.8,191.8c1-0.6,1.2-1.5,0.7-2.3c-0.3-0.5-1-0.8-1.6-0.8c-0.1,0-0.3,0-0.5,0.1c-1.1,0.7-1.6,1.7-1,2.7
					C473.9,192.3,474.9,192.4,475.8,191.8z"/>
				<path d="M480.8,197.4c-2.3,1.3-4.1,1.2-5-0.3c-0.8-1.3-0.1-3,2.2-4.3c2.3-1.3,4.1-1.1,4.9,0.3
					C483.7,194.6,482.9,196.2,480.8,197.4z M478.5,193.8c-1.8,1-2.5,2.2-2,3c0.6,0.9,1.9,0.8,3.7-0.2c1.7-1,2.5-2,2-3
					C481.7,192.7,480.4,192.7,478.5,193.8z"/>
				<path d="M500.6,254.6c1-0.2,1.8,0.2,2.4,1.1l0,0c0.2-0.9,0.8-1.5,1.5-1.6c1.2-0.3,2.3,0.6,2.6,2c0.3,1.5-0.5,2.5-1.4,2.7
					c-0.6,0.1-1.4,0-2.1-0.9l0,0c-0.2,1-0.7,1.8-1.7,2c-1.3,0.3-2.5-0.7-2.8-2.2C498.7,256,499.5,254.8,500.6,254.6z M501.5,258.8
					c0.9-0.2,1.2-0.9,1.3-2.1c-0.5-0.9-1.1-1.2-1.9-1.1c-0.8,0.1-1.3,0.9-1.1,1.9C500,258.5,500.7,258.9,501.5,258.8z M504.8,255.1
					c-0.8,0.2-1.1,0.8-1.1,1.8c0.4,0.6,0.9,1,1.6,0.9c0.6-0.1,1.2-0.6,1-1.6C506.1,255.3,505.4,254.9,504.8,255.1z"/>
				<path d="M504.8,265.6c-2.6,0.5-4.3-0.3-4.6-2c-0.3-1.5,1-2.8,3.5-3.3c2.6-0.5,4.2,0.4,4.5,2C508.5,264,507.3,265.2,504.8,265.6z
					 M503.9,261.4c-2,0.4-3,1.2-2.9,2.1c0.2,1.1,1.5,1.4,3.5,1c1.9-0.3,3.1-1.1,2.9-2.1C507.3,261.5,506,261,503.9,261.4z"/>
				<path d="M508.5,329.2L508.5,329.2l-0.5-1.5l0.8-0.1l0.7,1.8l-0.1,0.9l-7.8-1.1l0.1-1L508.5,329.2z"/>
				<path d="M504.2,338c-2.6-0.4-3.9-1.7-3.6-3.4c0.3-1.5,1.9-2.3,4.4-1.9c2.6,0.4,3.8,1.8,3.6,3.4
					C508.3,337.7,506.7,338.4,504.2,338z M504.8,333.7c-2-0.3-3.3,0.1-3.4,1.1c-0.2,1.1,1,1.8,3,2.1c1.9,0.3,3.2,0,3.4-1.1
					C507.9,334.9,506.9,334.1,504.8,333.7z"/>
				<path d="M503,344.2c-2.6-0.5-3.9-1.8-3.5-3.5c0.3-1.5,1.9-2.3,4.5-1.8c2.6,0.5,3.8,1.9,3.5,3.5C507.1,344,505.4,344.6,503,344.2
					z M503.7,339.9c-2-0.4-3.3,0-3.5,0.9c-0.2,1.1,0.9,1.8,2.9,2.2c1.9,0.4,3.2,0.1,3.5-0.9C506.8,341.2,505.8,340.3,503.7,339.9z"
					/>
				<path d="M485.5,400L485.5,400l0-1.6l0.8,0.2l0,2l-0.4,0.8l-6.9-3.7l0.5-0.9L485.5,400z"/>
				<path d="M477.6,400.1l0.6,0.3l0.3,1.1c0.7,2.7,1.1,4,2.1,4.6c0.7,0.4,1.5,0.4,2.1-0.6c0.4-0.6,0.3-1.3,0.3-1.8l0.8,0.1
					c0.1,0.7,0,1.5-0.4,2.3c-0.9,1.5-2.2,1.5-3.2,1c-1.3-0.7-1.7-2.2-2.3-4.5l-0.2-0.8l0,0l-1.8,3.1l-0.8-0.4L477.6,400.1z"/>
				<path d="M475.2,412.1c-2.3-1.4-3-3-2.1-4.5c0.8-1.3,2.6-1.5,4.8-0.1c2.2,1.4,2.9,3.1,2,4.5C479.1,413.4,477.3,413.4,475.2,412.1
					z M477.4,408.4c-1.7-1.1-3.1-1.1-3.6-0.3c-0.6,0.9,0.2,2,1.9,3.1c1.6,1,3,1.3,3.6,0.3C479.8,410.7,479.2,409.5,477.4,408.4z"/>
				<path d="M441.6,456.7L441.6,456.7l0.5-1.5l0.7,0.5l-0.7,1.8l-0.7,0.6l-5.3-5.8l0.8-0.7L441.6,456.7z"/>
				<path d="M431.6,456.4l1.4,1.6l2.8-2.4l0.5,0.5l0.6,6.1l-0.9,0.8l-3.2-3.7l-0.8,0.7l-0.5-0.6l0.8-0.7l-1.4-1.6L431.6,456.4z
					 M433.5,458.7l1.7,2c0.3,0.3,0.5,0.6,0.8,1l0,0c-0.1-0.5-0.2-0.9-0.3-1.3l-0.3-3.3l0,0L433.5,458.7z"/>
				<path d="M427.9,464.8c-1.7-2.1-1.8-3.9-0.5-5c1.2-1,2.9-0.5,4.6,1.5c1.7,2,1.7,3.9,0.4,4.9C431.1,467.2,429.4,466.7,427.9,464.8
					z M431.1,461.9c-1.3-1.6-2.5-2.1-3.3-1.5c-0.9,0.7-0.5,2,0.8,3.6c1.2,1.5,2.4,2.2,3.3,1.5C432.7,464.9,432.5,463.6,431.1,461.9z
					"/>
				<path d="M376.6,497.9L376.6,497.9l1-1.2l0.5,0.7l-1.3,1.5l-0.8,0.3l-2.9-7.3l1-0.4L376.6,497.9z"/>
				<path d="M368.6,501.2c0.2-0.1,0.5-0.2,0.7-0.3c1.5-0.8,1.9-2.3,1.6-3.6l0,0c-0.2,0.6-0.7,1.2-1.5,1.5c-1.3,0.5-2.6-0.1-3.1-1.6
					c-0.5-1.4,0-2.9,1.5-3.5c1.6-0.6,3.1,0.3,3.8,2.2c0.5,1.5,0.4,2.8,0,3.8c-0.4,0.8-1.1,1.5-2,2c-0.3,0.2-0.5,0.3-0.7,0.3
					L368.6,501.2z M367.3,496.8c0.4,1.1,1.2,1.5,2.2,1.1c0.6-0.2,1-0.8,1.1-1.4c0-0.1,0-0.3,0-0.5c-0.5-1.2-1.4-1.9-2.4-1.5
					C367.3,494.9,367,495.8,367.3,496.8z"/>
				<path d="M360.9,500.6c-0.8-2.5-0.4-4.2,1.3-4.8c1.5-0.5,2.9,0.5,3.8,3c0.8,2.5,0.2,4.2-1.3,4.7C363,504,361.7,502.9,360.9,500.6
					z M364.9,499.1c-0.6-1.9-1.6-2.8-2.5-2.5c-1,0.3-1.1,1.7-0.5,3.6c0.6,1.8,1.5,2.9,2.5,2.5C365.3,502.4,365.6,501.1,364.9,499.1z
					"/>
				<path d="M306.5,513.3L306.5,513.3l1.4-0.8l0.2,0.8l-1.7,1l-0.9,0l-0.4-7.9l1,0L306.5,513.3z"/>
				<path d="M298.9,506.7l0.1,2.1l3.7-0.1l0,0.7l-3.4,5.1l-1.2,0l-0.1-4.9l-1.1,0l0-0.8l1.1,0l-0.1-2.1L298.9,506.7z M299,509.7
					l0.1,2.6c0,0.4,0,0.8,0,1.2l0,0c0.2-0.5,0.4-0.8,0.6-1.2l1.9-2.7l0,0L299,509.7z"/>
				<path d="M290.8,510.7c0-2.7,1-4.1,2.8-4.1c1.5,0,2.6,1.5,2.6,4.1c0,2.6-1.2,4.1-2.8,4.1C291.7,514.7,290.7,513.2,290.8,510.7z
					 M295.1,510.6c0-2-0.6-3.2-1.6-3.2c-1.1,0-1.6,1.3-1.7,3.3c0,1.9,0.5,3.2,1.6,3.2C294.4,513.9,295.1,512.8,295.1,510.6z"/>
				<path d="M232.7,504.3L232.7,504.3l1.6-0.3l0,0.8l-1.9,0.4l-0.9-0.3l2.3-7.5l1,0.3L232.7,504.3z"/>
				<path d="M230.4,498.5c-0.3,0.9-1.1,1.4-2.2,1.5l0,0c0.7,0.7,0.8,1.4,0.6,2.1c-0.4,1.2-1.7,1.6-3,1.2c-1.5-0.5-1.9-1.6-1.6-2.6
					c0.2-0.6,0.8-1.2,1.8-1.3l0,0c-0.8-0.7-1.2-1.5-0.9-2.4c0.4-1.3,1.9-1.8,3.3-1.3C230.1,496.1,230.8,497.4,230.4,498.5z
					 M227.9,501.8c0.3-0.7-0.2-1.3-1-1.9c-0.7,0-1.4,0.3-1.6,1c-0.2,0.6-0.1,1.3,0.9,1.6C227,502.9,227.7,502.5,227.9,501.8z
					 M226.3,497.2c-0.3,0.9,0.2,1.6,1.1,2.2c1,0,1.6-0.4,1.9-1.1c0.3-0.7-0.1-1.6-1-1.9C227.4,496,226.6,496.4,226.3,497.2z"/>
				<path d="M218.7,496.5c0.9-2.5,2.4-3.5,4-2.9c1.5,0.5,1.9,2.3,1,4.7c-0.9,2.5-2.5,3.4-4,2.9C218.2,500.5,217.9,498.8,218.7,496.5
					z M222.8,497.9c0.7-1.9,0.5-3.2-0.4-3.6c-1-0.4-2,0.6-2.7,2.5c-0.7,1.8-0.7,3.2,0.4,3.6C221,500.7,222.1,499.9,222.8,497.9z"/>
				<path d="M170.3,465l-0.4,0.5l-1.2,0.1c-2.8,0.3-4.1,0.5-4.8,1.5c-0.5,0.6-0.6,1.5,0.3,2.2c0.6,0.4,1.3,0.5,1.7,0.5l-0.2,0.8
					c-0.7,0-1.5-0.2-2.3-0.7c-1.4-1-1.2-2.4-0.5-3.3c0.9-1.2,2.4-1.4,4.7-1.7l0.9-0.1l0,0l-2.8-2.2l0.5-0.7L170.3,465z"/>
				<path d="M158.7,461c1.7-2.1,3.4-2.6,4.8-1.5c1.2,1,1.1,2.8-0.5,4.8c-1.7,2-3.5,2.4-4.7,1.4C156.9,464.7,157.1,462.9,158.7,461z
					 M162.1,463.6c1.3-1.6,1.5-2.9,0.8-3.5c-0.8-0.7-2.1,0-3.3,1.5c-1.2,1.5-1.6,2.8-0.8,3.5C159.5,465.7,160.8,465.3,162.1,463.6z"
					/>
				<path d="M153.9,456.8c1.8-2,3.5-2.5,4.8-1.3c1.2,1,1,2.8-0.7,4.8c-1.7,2-3.5,2.3-4.8,1.3C152.1,460.5,152.3,458.7,153.9,456.8z
					 M157.3,459.6c1.3-1.5,1.6-2.8,0.9-3.5c-0.8-0.7-2.1-0.1-3.4,1.4c-1.3,1.5-1.7,2.7-0.9,3.5C154.6,461.6,155.9,461.2,157.3,459.6
					z"/>
				<path d="M122.4,414.6l-0.5,0.4l-1.1-0.3c-2.7-0.6-4.1-0.9-5.1-0.2c-0.7,0.4-1.1,1.2-0.4,2.2c0.4,0.6,1,0.9,1.5,1l-0.4,0.7
					c-0.7-0.2-1.4-0.7-1.9-1.4c-0.9-1.4-0.4-2.7,0.6-3.3c1.2-0.8,2.8-0.5,5,0l0.8,0.2l0,0l-1.9-3l0.7-0.5L122.4,414.6z"/>
				<path d="M117.3,406.6l-1.8,1.1l1.9,3.1l-0.6,0.4l-6.1-0.4l-0.6-1l4.2-2.6l-0.6-0.9l0.7-0.4l0.6,0.9l1.8-1.1L117.3,406.6z
					 M114.8,408.1l-2.2,1.4c-0.4,0.2-0.7,0.4-1.1,0.6l0,0c0.5,0,0.9,0,1.3,0l3.3,0.3l0,0L114.8,408.1z"/>
				<path d="M109.7,401.5c2.3-1.3,4.1-1.2,5,0.3c0.8,1.3,0,3-2.2,4.3c-2.3,1.3-4.1,1-4.9-0.4C106.8,404.3,107.6,402.8,109.7,401.5z
					 M112,405.2c1.8-1,2.5-2.1,2-3c-0.5-1-1.9-0.8-3.6,0.2c-1.7,1-2.5,2-2,3C108.8,406.2,110.1,406.3,112,405.2z"/>
				<path d="M92.8,346.2l-0.6,0.1l-1-0.7c-2.3-1.6-3.5-2.3-4.6-2c-0.8,0.2-1.4,0.7-1.2,1.9c0.2,0.7,0.6,1.2,1,1.5l-0.7,0.5
					c-0.6-0.4-1.1-1.1-1.3-2c-0.4-1.7,0.6-2.6,1.7-2.9c1.4-0.3,2.8,0.5,4.7,1.8l0.7,0.5l0,0l-0.8-3.5l0.9-0.2L92.8,346.2z"/>
				<path d="M83.7,337c0,0.2,0.1,0.5,0.2,0.8c0.6,1.6,1.9,2.3,3.2,2.2l0,0c-0.6-0.3-1.1-0.9-1.2-1.7c-0.3-1.4,0.6-2.5,2.1-2.8
					c1.4-0.3,2.9,0.5,3.2,2.1c0.3,1.7-0.8,3-2.8,3.4c-1.5,0.3-2.8,0-3.7-0.7c-0.7-0.5-1.3-1.3-1.6-2.3c-0.1-0.3-0.2-0.6-0.2-0.8
					L83.7,337z M88.2,336.5c-1.1,0.2-1.7,1-1.5,1.9c0.1,0.6,0.6,1.1,1.2,1.3c0.1,0.1,0.3,0.1,0.5,0c1.3-0.3,2.1-1,1.9-2.1
					C90.2,336.8,89.3,336.3,88.2,336.5z"/>
				<path d="M85.7,329.5c2.6-0.4,4.3,0.4,4.5,2.1c0.2,1.5-1,2.8-3.6,3.2c-2.6,0.4-4.2-0.5-4.5-2.1C81.9,331,83.2,329.9,85.7,329.5z
					 M86.4,333.7c2-0.3,3.1-1.1,2.9-2.1c-0.2-1.1-1.5-1.4-3.5-1.1c-1.9,0.3-3.1,1-2.9,2.1C83.1,333.5,84.3,334,86.4,333.7z"/>
				<path d="M89.2,274.3l-0.6-0.1l-0.7-0.9c-1.6-2.3-2.5-3.3-3.7-3.5c-0.8-0.1-1.6,0.2-1.7,1.3c-0.1,0.7,0.2,1.4,0.4,1.8l-0.8,0.2
					c-0.4-0.6-0.6-1.4-0.5-2.3c0.2-1.7,1.5-2.2,2.6-2.1c1.4,0.2,2.5,1.4,3.8,3.3l0.5,0.7l0,0l0.5-3.5l0.9,0.1L89.2,274.3z"/>
				<path d="M88.1,268c-1-0.2-1.6-0.9-1.8-1.9l0,0c-0.6,0.8-1.3,1.1-2,0.9c-1.2-0.2-1.9-1.4-1.7-2.8c0.3-1.5,1.3-2.1,2.3-2
					c0.7,0.1,1.3,0.6,1.6,1.6l0,0c0.5-0.9,1.3-1.4,2.3-1.2c1.3,0.2,2.1,1.5,1.8,3C90.4,267.3,89.3,268.1,88.1,268z M84.4,266
					c0.8,0.1,1.3-0.4,1.7-1.2c-0.1-0.7-0.5-1.3-1.2-1.4c-0.6-0.1-1.3,0.2-1.5,1.1C83.3,265.3,83.7,265.9,84.4,266z M88.8,263.7
					c-0.9-0.2-1.5,0.4-2,1.4c0.1,1,0.6,1.6,1.4,1.7c0.8,0.2,1.6-0.3,1.7-1.3C90.1,264.6,89.6,263.9,88.8,263.7z"/>
				<path d="M88.2,256.1c2.6,0.5,3.9,1.8,3.5,3.5c-0.3,1.5-1.9,2.3-4.5,1.8c-2.6-0.5-3.8-1.9-3.5-3.5
					C84.2,256.3,85.8,255.6,88.2,256.1z M87.5,260.4c2,0.4,3.3,0,3.5-0.9c0.2-1.1-0.9-1.8-2.9-2.2c-1.9-0.4-3.2-0.1-3.5,0.9
					C84.4,259.1,85.4,260,87.5,260.4z"/>
				<path d="M109.7,204.8c0.3-0.2,0.9-0.7,1.3-1.3c0.6-1.2,0.1-2-0.5-2.3c-1-0.5-1.9,0.2-2.4,1.1l-0.3,0.5l-0.7-0.4l0.3-0.5
					c0.4-0.7,0.5-1.7-0.3-2.2c-0.6-0.3-1.2-0.2-1.7,0.7c-0.3,0.6-0.3,1.2-0.3,1.6l-0.8-0.1c-0.1-0.5,0-1.4,0.4-2.1
					c0.7-1.4,1.9-1.6,2.7-1.1c0.7,0.4,1.1,1.1,0.9,2.2l0,0c0.6-0.8,1.6-1.1,2.6-0.6c1.1,0.6,1.6,2,0.7,3.7c-0.4,0.8-1,1.3-1.4,1.6
					L109.7,204.8z"/>
				<path d="M112.7,193.6c2.3,1.3,3.1,2.9,2.2,4.5c-0.8,1.3-2.5,1.5-4.8,0.3c-2.3-1.3-3-3-2.2-4.4
					C108.8,192.4,110.6,192.3,112.7,193.6z M110.7,197.4c1.8,1,3.1,1,3.6,0.2c0.5-1-0.3-2-2-3c-1.7-1-3-1.2-3.6-0.2
					C108.2,195.1,108.8,196.3,110.7,197.4z"/>
				<path d="M116,188.2c2.3,1.4,3,3,2.1,4.5c-0.8,1.3-2.6,1.5-4.8,0.1c-2.2-1.4-2.9-3.1-2-4.5C112.1,186.9,113.9,186.9,116,188.2z
					 M113.9,191.9c1.7,1.1,3.1,1.1,3.6,0.3c0.6-0.9-0.2-2-1.9-3.1c-1.6-1-3-1.3-3.6-0.3C111.4,189.6,112.1,190.8,113.9,191.9z"/>
				<path d="M153.8,147.4c0.4-0.1,1.1-0.3,1.6-0.8c1-0.9,0.8-1.9,0.3-2.3c-0.7-0.8-1.8-0.5-2.6,0.2l-0.4,0.4l-0.5-0.6l0.4-0.4
					c0.6-0.5,1-1.5,0.4-2.2c-0.4-0.5-1.1-0.6-1.8,0c-0.5,0.4-0.7,1-0.8,1.4l-0.7-0.4c0.1-0.5,0.5-1.3,1.1-1.8c1.2-1,2.3-0.8,2.9-0.1
					c0.5,0.6,0.6,1.4,0.1,2.4l0,0c0.9-0.5,1.9-0.5,2.7,0.3c0.8,0.9,0.8,2.4-0.6,3.7c-0.7,0.6-1.4,0.9-1.9,1L153.8,147.4z"/>
				<path d="M159.1,144.3l-0.4-0.5l0.1-1.2c0.3-2.8,0.4-4.1-0.4-5c-0.5-0.6-1.3-0.9-2.2-0.2c-0.5,0.5-0.8,1.1-0.9,1.6l-0.7-0.4
					c0.1-0.7,0.5-1.5,1.2-2.1c1.3-1.1,2.6-0.7,3.3,0.2c0.9,1.1,0.9,2.7,0.6,5l-0.1,0.9l0,0l2.7-2.3l0.6,0.7L159.1,144.3z"/>
				<path d="M165.4,133.9c1.7,2.1,1.8,3.9,0.4,5c-1.2,1-2.9,0.5-4.6-1.5c-1.6-2.1-1.6-3.9-0.4-4.9
					C162.2,131.4,163.9,131.9,165.4,133.9z M162.1,136.7c1.3,1.6,2.5,2.1,3.3,1.5c0.9-0.7,0.5-2-0.8-3.6c-1.2-1.5-2.4-2.2-3.3-1.5
					C160.6,133.7,160.8,135,162.1,136.7z"/>
				<path d="M214.9,108.4c0.4,0.1,1.1,0.1,1.8-0.2c1.3-0.5,1.3-1.5,1.1-2.1c-0.4-1-1.5-1.1-2.5-0.7l-0.6,0.2l-0.3-0.7l0.6-0.2
					c0.7-0.3,1.5-1,1.1-1.9c-0.2-0.6-0.8-0.9-1.7-0.6c-0.6,0.2-1,0.7-1.3,1.1l-0.5-0.6c0.3-0.4,0.9-1,1.7-1.3c1.4-0.6,2.4,0,2.8,0.9
					c0.3,0.8,0.1,1.6-0.7,2.3l0,0c1-0.2,2,0.2,2.4,1.2c0.5,1.2,0,2.6-1.8,3.3c-0.8,0.3-1.7,0.4-2.1,0.3L214.9,108.4z"/>
				<path d="M223.9,106.2l-0.7-2l-3.5,1.3l-0.2-0.7l1.6-5.9l1.1-0.4l1.7,4.6l1-0.4l0.3,0.8l-1,0.4l0.7,2L223.9,106.2z M222.9,103.4
					l-0.9-2.5c-0.1-0.4-0.3-0.8-0.4-1.2l0,0c-0.1,0.5-0.1,0.9-0.2,1.3l-0.9,3.2l0,0L222.9,103.4z"/>
				<path d="M230.4,99.7c0.9,2.5,0.4,4.3-1.3,4.8c-1.5,0.5-2.9-0.5-3.8-3c-0.8-2.5-0.2-4.2,1.3-4.8
					C228.2,96.2,229.6,97.3,230.4,99.7z M226.3,101.2c0.7,1.9,1.6,2.8,2.5,2.5c1-0.3,1.1-1.7,0.5-3.6c-0.6-1.8-1.5-2.9-2.5-2.5
					C225.9,97.9,225.6,99.1,226.3,101.2z"/>
			</g>
		</g>
	</g>
	<g id="centre">
		<g id="direction2">
			<g>
				<polygon fill="#AA9999" stroke="#000000" stroke-miterlimit="10" points="297.1,296.9 361.5,233 361.6,232.7 319.7,260.4 
					297,296.9 				"/>
				<polygon fill="#E4D2BE" stroke="#000000" stroke-miterlimit="10" points="296,296.5 274.3,261.1 233.9,234.7 295.8,296.5 				
					"/>
				<polygon fill="#F2F2F2" stroke="#000000" stroke-miterlimit="10" points="297,297.2 297,297 296.9,297.1 				"/>
				<polygon fill="#F2F2F2" stroke="#000000" stroke-miterlimit="10" points="297,297 297.1,296.9 297,296.9 				"/>
				<polygon fill="#F2F2F2" stroke="#000000" stroke-miterlimit="10" points="296.8,296.9 296.9,297.1 297,297 297,296.9 				"/>
				<polygon fill="#E4D2BE" stroke="#000000" stroke-miterlimit="10" points="296.8,296.9 257,323.1 233.5,359.6 234.1,359.5 
					296.9,297.1 				"/>
				<polygon fill="#E4D2BE" stroke="#000000" stroke-miterlimit="10" points="361.5,233 297.1,296.9 336.3,275.7 				"/>
				<polygon fill="#AA9999" stroke="#000000" stroke-miterlimit="10" points="297,297 297,297.2 361.9,362.1 337.7,323.7 
					297.1,296.9 				"/>
				<polygon fill="#AA9999" stroke="#000000" stroke-miterlimit="10" points="296.9,297.1 234.1,359.5 272.3,336.4 297,297.2 				
					"/>
				<polygon fill="#BAACAB" stroke="#000000" stroke-miterlimit="10" points="234.9,235.1 258.3,275.7 296.8,296.9 				"/>
				<polygon fill="#E4D2BE" stroke="#000000" stroke-miterlimit="10" points="322.3,338.4 361.9,362.1 297,297.2 				"/>
			</g>
			<g>
				<path d="M211.9,228.1v-13.5h1.9l4.3,6.8c1,1.6,1.8,3,2.4,4.4l0,0c-0.2-1.8-0.2-3.4-0.2-5.5v-5.6h1.6v13.5h-1.8l-4.3-6.8
					c-0.9-1.5-1.8-3-2.5-4.5l-0.1,0c0.1,1.7,0.1,3.3,0.1,5.6v5.8H211.9z"/>
				<path d="M227.2,228.1l-3.4-13.5h1.8l1.6,6.8c0.4,1.7,0.8,3.4,1,4.7h0c0.2-1.3,0.6-2.9,1.1-4.7l1.8-6.8h1.8l1.6,6.8
					c0.4,1.6,0.7,3.2,0.9,4.6h0c0.3-1.5,0.7-3,1.1-4.7l1.8-6.8h1.8l-3.8,13.5h-1.8l-1.7-7c-0.4-1.7-0.7-3-0.9-4.4h0
					c-0.2,1.3-0.5,2.7-1,4.4l-1.9,7H227.2z"/>
			</g>
			<g>
				<path d="M365.9,228.4v-13.5h1.9l4.3,6.8c1,1.6,1.8,3,2.4,4.4l0,0c-0.2-1.8-0.2-3.4-0.2-5.5v-5.6h1.6v13.5h-1.8l-4.3-6.8
					c-0.9-1.5-1.8-3-2.5-4.5l-0.1,0c0.1,1.7,0.1,3.3,0.1,5.6v5.8H365.9z"/>
				<path d="M386,222.1h-5.2v4.9h5.8v1.5H379v-13.5h7.3v1.5h-5.5v4.3h5.2V222.1z"/>
			</g>
			<g>
				<path d="M212.3,376.6c0.8,0.5,1.9,0.9,3.1,0.9c1.8,0,2.8-0.9,2.8-2.3c0-1.3-0.7-2-2.5-2.7c-2.2-0.8-3.6-1.9-3.6-3.8
					c0-2.1,1.7-3.7,4.4-3.7c1.4,0,2.4,0.3,3,0.7l-0.5,1.4c-0.4-0.2-1.3-0.6-2.6-0.6c-1.8,0-2.5,1.1-2.5,2c0,1.3,0.8,1.9,2.7,2.6
					c2.3,0.9,3.4,2,3.4,4c0,2.1-1.5,3.9-4.7,3.9c-1.3,0-2.7-0.4-3.4-0.9L212.3,376.6z"/>
				<path d="M224.6,378.7l-3.4-13.5h1.8l1.6,6.8c0.4,1.7,0.8,3.4,1,4.7h0c0.2-1.3,0.6-2.9,1.1-4.7l1.8-6.8h1.8l1.6,6.8
					c0.4,1.6,0.7,3.2,0.9,4.6h0c0.3-1.5,0.7-3,1.1-4.7l1.8-6.8h1.8l-3.8,13.5H232l-1.7-7c-0.4-1.7-0.7-3-0.9-4.4h0
					c-0.2,1.3-0.5,2.7-1,4.4l-1.9,7H224.6z"/>
			</g>
			<g>
				<path d="M366.3,376.3c0.8,0.5,1.9,0.9,3.1,0.9c1.8,0,2.8-0.9,2.8-2.3c0-1.3-0.7-2-2.5-2.7c-2.2-0.8-3.6-1.9-3.6-3.8
					c0-2.1,1.7-3.7,4.4-3.7c1.4,0,2.4,0.3,3,0.7l-0.5,1.4c-0.4-0.2-1.3-0.6-2.6-0.6c-1.8,0-2.5,1.1-2.5,2c0,1.3,0.8,1.9,2.7,2.6
					c2.3,0.9,3.4,2,3.4,4c0,2.1-1.5,3.9-4.7,3.9c-1.3,0-2.7-0.4-3.4-0.9L366.3,376.3z"/>
				<path d="M383.4,372.1h-5.2v4.9h5.8v1.5h-7.6v-13.5h7.3v1.5h-5.5v4.3h5.2V372.1z"/>
			</g>
		</g>
		<g id="direction1">
			<g>
				<polygon fill="#AA9999" stroke="#000000" stroke-miterlimit="10" points="297.3,297.4 437.9,297.9 438.3,297.7 321.8,272.4 
					297.3,297.3 				"/>
				<polygon fill="#E4D2BE" stroke="#000000" stroke-miterlimit="10" points="297.3,297.3 321.8,272 297,161.6 297,297.1 				"/>
				<polygon fill="#F2F2F2" stroke="#000000" stroke-miterlimit="10" points="297,297.6 297.2,297.4 297,297.4 				"/>
				<polygon fill="#F2F2F2" stroke="#000000" stroke-miterlimit="10" points="297.2,297.4 297.3,297.4 297.3,297.3 				"/>
				<polygon fill="#F2F2F2" stroke="#000000" stroke-miterlimit="10" points="297,297.1 297,297.4 297.2,297.4 297.3,297.3 				"/>
				<polygon fill="#E4D2BE" stroke="#000000" stroke-miterlimit="10" points="297,297.1 270.3,271.7 269,272.4 159,296.4 
					159.8,296.9 297,297.4 				"/>
				<polygon fill="#E4D2BE" stroke="#000000" stroke-miterlimit="10" points="437.9,297.9 297.3,297.4 323.8,324.6 				"/>
				<polygon fill="#AA9999" stroke="#000000" stroke-miterlimit="10" points="297.2,297.4 297,297.6 297,439.7 324.3,324.9 
					297.3,297.4 				"/>
				<polygon fill="#AA9999" stroke="#000000" stroke-miterlimit="10" points="297,297.4 159.8,296.9 269,325.1 297,297.6 				"/>
				<polygon fill="#BAACAB" stroke="#000000" stroke-miterlimit="10" points="297,161.6 271,271.1 297,297.1 				"/>
				<polygon fill="#E4D2BE" stroke="#000000" stroke-miterlimit="10" points="269.1,325.4 297,439.7 297,297.6 				"/>
			</g>
			<g>
				<path d="M286.7,153.7v-24.3h3.4l7.8,12.3c1.8,2.8,3.2,5.4,4.4,7.9l0.1,0c-0.3-3.2-0.4-6.2-0.4-10v-10.2h3v24.3h-3.2l-7.7-12.3
					c-1.7-2.7-3.3-5.5-4.5-8.1l-0.1,0c0.2,3.1,0.3,6,0.3,10v10.4H286.7z"/>
			</g>
			<g>
				<path d="M290,470.2c1.4,0.9,3.5,1.6,5.6,1.6c3.2,0,5.1-1.7,5.1-4.1c0-2.3-1.3-3.6-4.6-4.8c-4-1.4-6.4-3.5-6.4-6.9
					c0-3.8,3.1-6.6,7.8-6.6c2.5,0,4.3,0.6,5.4,1.2l-0.9,2.6c-0.8-0.4-2.4-1.2-4.6-1.2c-3.3,0-4.6,2-4.6,3.6c0,2.3,1.5,3.4,4.8,4.7
					c4.1,1.6,6.2,3.6,6.2,7.1c0,3.7-2.8,7-8.5,7c-2.3,0-4.9-0.7-6.2-1.5L290,470.2z"/>
			</g>
			<g>
				<path d="M461,296.7h-9.4v8.7H462v2.6h-13.6v-24.3h13.1v2.6h-10v7.7h9.4V296.7z"/>
			</g>
			<g>
				<path d="M127.7,309.1l-6.2-24.3h3.3l2.9,12.3c0.7,3,1.4,6,1.8,8.4h0.1c0.4-2.4,1.2-5.3,2-8.4l3.2-12.2h3.3l3,12.3
					c0.7,2.9,1.3,5.8,1.7,8.3h0.1c0.5-2.7,1.2-5.4,1.9-8.4l3.2-12.2h3.2l-6.9,24.3H141l-3.1-12.6c-0.8-3.1-1.3-5.5-1.6-7.9h-0.1
					c-0.4,2.4-1,4.8-1.9,7.9l-3.5,12.6H127.7z"/>
			</g>
		</g>
		<g id="eguille">
			<g>
				<polygon points="299.7,287.3 457.6,356.3 292.5,307 				"/>
			</g>
			<g>
				<polygon fill="#E30613" points="292.5,307 134.6,238 299.7,287.3 				"/>
			</g>
			<radialGradient id="SVGID_4_" cx="295.6729" cy="296.7293" r="9" gradientUnits="userSpaceOnUse">
				<stop  offset="0.1455" style="stop-color:#FFFFFF"/>
				<stop  offset="0.1669" style="stop-color:#FFFEF2"/>
				<stop  offset="0.2265" style="stop-color:#FFFACE"/>
				<stop  offset="0.2909" style="stop-color:#FFF7A9"/>
				<stop  offset="0.3586" style="stop-color:#FFF484"/>
				<stop  offset="0.4305" style="stop-color:#FFF15F"/>
				<stop  offset="0.5077" style="stop-color:#FFF039"/>
				<stop  offset="0.5923" style="stop-color:#FFEE00"/>
				<stop  offset="0.6881" style="stop-color:#FFEE00"/>
				<stop  offset="0.8046" style="stop-color:#FFED00"/>
				<stop  offset="1" style="stop-color:#FFED00"/>
			</radialGradient>
			<circle fill="url(#SVGID_4_)" cx="295.7" cy="296.7" r="9"/>
		</g>
	</g>
	<g>
	</g>
	<g>
	</g>
	<g>
	</g>
	<g>
	</g>
	<g>
	</g>
	<g>
	</g>
	<g>
	</g>
</g>
</svg>
