<?xml version="1.0" encoding="utf-8"?>
<!-- Generator: Adobe Illustrator 18.1.0, SVG Export Plug-In . SVG Version: 6.00 Build 0)  -->
<svg version="1.1" id="Calque_1" xmlns="http://www.w3.org/2000/svg" xmlns:xlink="http://www.w3.org/1999/xlink" x="0px" y="0px"
	 viewBox="0 89 608 612" enable-background="new 0 89 608 612" xml:space="preserve">
<rect x="0" y="89" fill="#C11477" width="612" height="612"/>
<g>
	<g opacity="0.52">
		
			<radialGradient id="SVGID_1_" cx="44.9351" cy="767.3223" r="52.3249" gradientTransform="matrix(6.8 0 0 -6.8 0 5475.6001)" gradientUnits="userSpaceOnUse">
			<stop  offset="0" style="stop-color:#FFFFFF"/>
			<stop  offset="8.938220e-03" style="stop-color:#FAFCFE"/>
			<stop  offset="7.323171e-02" style="stop-color:#D4E3F4"/>
			<stop  offset="0.1354" style="stop-color:#B5D0EB"/>
			<stop  offset="0.194" style="stop-color:#9CC3E4"/>
			<stop  offset="0.2478" style="stop-color:#8DBBE0"/>
			<stop  offset="0.2921" style="stop-color:#87B8DF"/>
			<stop  offset="0.6461" style="stop-color:#0061AA"/>
			<stop  offset="0.8409" style="stop-color:#194C7C"/>
			<stop  offset="1" style="stop-color:#1F3A59"/>
		</radialGradient>
		<polygon fill="url(#SVGID_1_)" points="306,579.6 489.6,334.8 428.4,212.4 308,212.4 183.6,212.4 122.4,334.8 		"/>
		<g>
			<line fill="none" x1="491.6" y1="334.8" x2="122.4" y2="334.8"/>
			<g>
				<line fill="none" x1="306" y1="578.2" x2="185.6" y2="214.4"/>
				<line fill="none" x1="306" y1="578.9" x2="428.4" y2="211"/>
				<line fill="none" x1="428.4" y1="212.4" x2="306" y2="334.8"/>
				<line fill="none" x1="306" y1="334.8" x2="187.7" y2="214.4"/>
				<line fill="none" x1="306" y1="212.4" x2="306" y2="579.6"/>
			</g>
		</g>
	</g>
	<g opacity="0.47">
		
			<radialGradient id="SVGID_2_" cx="44.1648" cy="766.1722" r="45.7921" gradientTransform="matrix(6.8 0 0 -6.8 0 5475.6001)" gradientUnits="userSpaceOnUse">
			<stop  offset="0" style="stop-color:#FFFFFF"/>
			<stop  offset="1.100086e-02" style="stop-color:#FAFCFE"/>
			<stop  offset="9.013115e-02" style="stop-color:#D4E3F4"/>
			<stop  offset="0.1666" style="stop-color:#B5D0EB"/>
			<stop  offset="0.2388" style="stop-color:#9CC3E4"/>
			<stop  offset="0.305" style="stop-color:#8DBBE0"/>
			<stop  offset="0.3595" style="stop-color:#87B8DF"/>
			<stop  offset="0.8539" style="stop-color:#0061AA"/>
			<stop  offset="0.8979" style="stop-color:#164F84"/>
			<stop  offset="0.9977" style="stop-color:#172133"/>
			<stop  offset="1" style="stop-color:#172031"/>
		</radialGradient>
		<polygon fill="url(#SVGID_2_)" points="306,579.6 489.6,334.8 428.4,212.4 308,212.4 183.6,212.4 122.4,334.8 		"/>
		<g>
			<line fill="none" x1="491.6" y1="334.8" x2="122.4" y2="334.8"/>
			<g>
				<line fill="none" x1="306" y1="578.2" x2="185.6" y2="214.4"/>
				<line fill="none" x1="306" y1="578.9" x2="428.4" y2="211"/>
				<line fill="none" x1="428.4" y1="212.4" x2="306" y2="334.8"/>
				<line fill="none" x1="306" y1="334.8" x2="187.7" y2="214.4"/>
				<line fill="none" x1="306" y1="212.4" x2="306" y2="579.6"/>
			</g>
		</g>
	</g>
	<g opacity="0.45">
		
			<radialGradient id="SVGID_3_" cx="44.9351" cy="762.7056" r="46.5532" fx="-1.6092" fy="761.7971" gradientTransform="matrix(6.8 0 0 -6.8 0 5475.6001)" gradientUnits="userSpaceOnUse">
			<stop  offset="0" style="stop-color:#FFFFFF"/>
			<stop  offset="1.736077e-02" style="stop-color:#FAFCFE"/>
			<stop  offset="0.1422" style="stop-color:#D4E3F4"/>
			<stop  offset="0.263" style="stop-color:#B5D0EB"/>
			<stop  offset="0.3769" style="stop-color:#9CC3E4"/>
			<stop  offset="0.4813" style="stop-color:#8DBBE0"/>
			<stop  offset="0.5674" style="stop-color:#87B8DF"/>
			<stop  offset="0.8539" style="stop-color:#0061AA"/>
			<stop  offset="0.8979" style="stop-color:#164F84"/>
			<stop  offset="0.9977" style="stop-color:#172133"/>
			<stop  offset="1" style="stop-color:#172031"/>
		</radialGradient>
		<polygon fill="url(#SVGID_3_)" points="306,579.6 489.6,334.8 428.4,212.4 308,212.4 183.6,212.4 122.4,334.8 		"/>
		<g>
			<line fill="none" x1="491.6" y1="334.8" x2="122.4" y2="334.8"/>
			<g>
				<line fill="none" x1="306" y1="578.2" x2="185.6" y2="214.4"/>
				<line fill="none" x1="306" y1="578.9" x2="428.4" y2="211"/>
				<line fill="none" x1="428.4" y1="212.4" x2="306" y2="334.8"/>
				<line fill="none" x1="306" y1="334.8" x2="187.7" y2="214.4"/>
				<line fill="none" x1="306" y1="212.4" x2="306" y2="579.6"/>
			</g>
		</g>
	</g>
	<g>
		<defs>
			<filter id="Adobe_OpacityMaskFilter" filterUnits="userSpaceOnUse" x="122.4" y="211" width="369.2" height="368.6">
				<feColorMatrix  type="matrix" values="1 0 0 0 0  0 1 0 0 0  0 0 1 0 0  0 0 0 1 0"/>
			</filter>
		</defs>
		<mask maskUnits="userSpaceOnUse" x="122.4" y="211" width="369.2" height="368.6" id="SVGID_22_">
			<g filter="url(#Adobe_OpacityMaskFilter)">
				
					<image overflow="visible" enable-background="new    " width="246" height="250" xlink:href="D2AFA1923E26880A.jpeg"  transform="matrix(1.6121 0 0 1.5863 108.8 197.1)">
				</image>
			</g>
		</mask>
		<g mask="url(#SVGID_22_)">
			
				<radialGradient id="SVGID_4_" cx="44.5337" cy="766.5845" r="26.639" gradientTransform="matrix(6.8 0 0 -6.8 0 5475.6001)" gradientUnits="userSpaceOnUse">
				<stop  offset="0" style="stop-color:#FFFFFF"/>
				<stop  offset="1" style="stop-color:#CCD3E4"/>
			</radialGradient>
			<polygon fill="url(#SVGID_4_)" points="306,579.6 489.6,334.8 428.4,212.4 308,212.4 183.6,212.4 122.4,334.8 			"/>
			<g>
				<line fill="none" x1="491.6" y1="334.8" x2="122.4" y2="334.8"/>
				<g>
					<line fill="none" x1="306" y1="578.2" x2="185.6" y2="214.4"/>
					<line fill="none" x1="306" y1="578.9" x2="428.4" y2="211"/>
					<line fill="none" x1="428.4" y1="212.4" x2="306" y2="334.8"/>
					<line fill="none" x1="306" y1="334.8" x2="187.7" y2="214.4"/>
					<line fill="none" x1="306" y1="212.4" x2="306" y2="579.6"/>
				</g>
			</g>
		</g>
	</g>
	<g opacity="0.74">
		<defs>
			<filter id="Adobe_OpacityMaskFilter_1_" filterUnits="userSpaceOnUse" x="122.4" y="211" width="369.2" height="368.6">
				<feColorMatrix  type="matrix" values="1 0 0 0 0  0 1 0 0 0  0 0 1 0 0  0 0 0 1 0"/>
			</filter>
		</defs>
		<mask maskUnits="userSpaceOnUse" x="122.4" y="211" width="369.2" height="368.6" id="SVGID_30_">
			<g filter="url(#Adobe_OpacityMaskFilter_1_)">
				
					<image overflow="visible" enable-background="new    " width="246" height="250" xlink:href="D2AFA1923E26880E.jpeg"  transform="matrix(1.6121 0 0 1.5863 108.8 197.1)">
				</image>
			</g>
		</mask>
		<g mask="url(#SVGID_30_)">
			
				<radialGradient id="SVGID_5_" cx="45.7163" cy="731.2026" r="25.3534" gradientTransform="matrix(6.8 0 0 -6.8 0 5475.6001)" gradientUnits="userSpaceOnUse">
				<stop  offset="0" style="stop-color:#FFFFFF"/>
				<stop  offset="1" style="stop-color:#87B8DF"/>
			</radialGradient>
			<polygon fill="url(#SVGID_5_)" points="306,579.6 489.6,334.8 428.4,212.4 308,212.4 183.6,212.4 122.4,334.8 			"/>
			<g>
				<line fill="none" x1="491.6" y1="334.8" x2="122.4" y2="334.8"/>
				<g>
					<line fill="none" x1="306" y1="578.2" x2="185.6" y2="214.4"/>
					<line fill="none" x1="306" y1="578.9" x2="428.4" y2="211"/>
					<line fill="none" x1="428.4" y1="212.4" x2="306" y2="334.8"/>
					<line fill="none" x1="306" y1="334.8" x2="187.7" y2="214.4"/>
					<line fill="none" x1="306" y1="212.4" x2="306" y2="579.6"/>
				</g>
			</g>
		</g>
	</g>
	<g>
		<polygon fill="#FFFFFF" stroke="#000000" stroke-width="6" stroke-miterlimit="10" points="306,579.6 489.6,334.8 428.4,212.4 
			308,212.4 183.6,212.4 122.4,334.8 		"/>
		<g>
			<line fill="none" stroke="#000000" stroke-width="6" stroke-miterlimit="10" x1="491.6" y1="334.8" x2="122.4" y2="334.8"/>
			<g>
				<line fill="none" stroke="#000000" stroke-width="6" stroke-miterlimit="10" x1="306" y1="578.2" x2="185.6" y2="214.4"/>
				<line fill="none" stroke="#000000" stroke-width="6" stroke-miterlimit="10" x1="306" y1="578.9" x2="428.4" y2="211"/>
				<line fill="none" stroke="#000000" stroke-width="6" stroke-miterlimit="10" x1="428.4" y1="212.4" x2="306" y2="334.8"/>
				<line fill="none" stroke="#000000" stroke-width="6" stroke-miterlimit="10" x1="306" y1="334.8" x2="187.7" y2="214.4"/>
				<line fill="none" stroke="#000000" stroke-width="6" stroke-miterlimit="10" x1="306" y1="212.4" x2="306" y2="579.6"/>
			</g>
		</g>
	</g>
</g>
</svg>
