<?xml version="1.0" encoding="utf-8"?>
<!-- Generator: Adobe Illustrator 18.1.0, SVG Export Plug-In . SVG Version: 6.00 Build 0)  -->
<svg version="1.1" id="Calque_1" xmlns="http://www.w3.org/2000/svg" xmlns:xlink="http://www.w3.org/1999/xlink" x="0px" y="0px"
	 viewBox="0 0 493.5 362.8" enable-background="new 0 0 493.5 362.8" xml:space="preserve">
<g>
	<path stroke="#222221" stroke-width="0.75" stroke-miterlimit="10" d="M62.6,197.6h-2.9l-11.3-63h2l11,60.3l10.9-59.9h2.4
		l10.3,59.6l10.6-59.9h1.8l-11.2,63h-2.6l-10.2-58.3L62.6,197.6z"/>
	<path stroke="#222221" stroke-width="0.75" stroke-miterlimit="10" d="M106.3,134.6v63h-2v-63H106.3z"/>
	<path stroke="#222221" stroke-width="0.75" stroke-miterlimit="10" d="M113.5,197.6v-63h2v61.1h21.1v1.9H113.5z"/>
	<path stroke="#222221" stroke-width="0.75" stroke-miterlimit="10" d="M143.4,197.6v-63h2v61.1h21.1v1.9H143.4z"/>
	<path stroke="#222221" stroke-width="0.75" stroke-miterlimit="10" d="M175.4,134.6v63h-2v-63H175.4z"/>
	<path stroke="#222221" stroke-width="0.75" stroke-miterlimit="10" d="M187.8,182.7l-3.7,14.8h-1.8l15.2-63.1h2.8l15.6,63.1h-2
		l-3.7-14.8H187.8z M188.1,180.9h21.7l-11-44.1L188.1,180.9z"/>
	<path stroke="#222221" stroke-width="0.75" stroke-miterlimit="10" d="M242.4,197.4h-2.2l-15.6-59.8v60h-1.8v-63h3.1l15.5,59.8
		l15.5-59.8h3.1v63h-2v-60L242.4,197.4z"/>
	<path stroke="#222221" stroke-width="0.75" stroke-miterlimit="10" d="M300.6,166.2v1.9H283v29.4h-2v-63h23.1v1.9H283v29.8H300.6z"
		/>
	<path stroke="#222221" stroke-width="0.75" stroke-miterlimit="10" d="M323.5,134.6c9.4,0,13,5.5,13,14.1v5.7c0,7.7-3.1,12-10,13.2
		c7,1.1,10,5.7,10,12.6v9.9c0,2.4,0.3,5.5,1.7,7.5H336c-1.3-2-1.5-4.8-1.5-7.5v-9.9c0-9.3-5.6-11.7-13.8-11.7H313v29.1h-2v-63H323.5
		z M320.7,166.6c8.7,0,13.8-2.2,13.8-12v-5.8c0-7.6-3-12.4-11.1-12.4H313v30.1H320.7z"/>
	<path stroke="#222221" stroke-width="0.75" stroke-miterlimit="10" d="M350.4,182.7l-3.7,14.8h-1.8l15.2-63.1h2.8l15.6,63.1h-2
		l-3.7-14.8H350.4z M350.8,180.9h21.7l-11-44.1L350.8,180.9z"/>
	<path stroke="#222221" stroke-width="0.75" stroke-miterlimit="10" d="M387.3,197.6h-1.9v-63h2.8l22.1,58.9v-58.9h1.9v63h-2.4
		l-22.5-60.1V197.6z"/>
	<path stroke="#222221" stroke-width="0.75" stroke-miterlimit="10" d="M445.7,150v4.9h-2v-4.9c0-7.6-2.9-14-11.2-14
		c-8.4,0-11.2,6.4-11.2,14v32.2c0,7.6,2.9,13.9,11.2,13.9c8.3,0,11.2-6.3,11.2-13.9v-6.9h2v6.8c0,8.7-3.6,15.9-13.2,15.9
		c-9.5,0-13.1-7.2-13.1-15.9v-32c0-8.7,3.6-15.9,13.1-15.9C442.1,134.1,445.7,141.3,445.7,150z"/>
</g>
<g>
	<path d="M225.2,233.1c-2,3.5-4.2,6.3-6.5,6.3c-1.8,0-3.1-1.2-1.3-5.7l1.2-3c0.4-1.1,0.9-2.1,0.9-2.5c0-0.4-0.3-0.6-0.7-0.6
		c-0.7,0-1.9,0.6-3,1.8l-3.9,9.6h-2.2c-0.3,0.7,3.5-8.6,3.4-8.3c0.4-1.1,0.9-2.1,0.9-2.5c0-0.4-0.3-0.6-0.7-0.6
		c-0.7,0-1.9,0.6-3,1.8l-3.9,9.6h-2.2l5.2-13h2.2l-0.5,1.3c1.6-1.5,2.6-1.6,3.3-1.6c0.9,0,1.8,0.7,1.8,2c1.8-1.8,3-2,3.7-2
		c0.9,0,1.9,0.5,1.9,1.9c0,0.8-0.4,1.9-0.8,3.1l-1.6,4c-1.2,3-0.4,3.2,0,3.2c1.4,0,3.4-2.7,5.1-5.6
		C224.5,232.4,225.1,232.8,225.2,233.1z"/>
	<path d="M237.5,233.1c-1.9,3.3-4.1,6.3-6.5,6.3c-2.1,0-2-2-2-2s-1.4,2-3.4,2c-1.5,0-2.3-1.2-2.3-2.6c0-2.7,2.4-11,6.5-11
		c2,0,2.3,2,2.3,2l0.7-1.7h2.2l-3.5,8.7c-1,2.5-0.7,3.2,0,3.2c1.3,0,3.4-2.7,5.1-5.6C236.9,232.4,237.4,232.8,237.5,233.1z
		 M229.1,235.1l2.2-5.5c0,0,0-1.9-1.2-1.9c-2.5,0-4.8,6.7-4.8,8.8c0,0.7,0.3,1,0.8,1C227.6,237.6,229.1,235.1,229.1,235.1z"/>
	<path d="M236.5,232.4c0.8-1.3,1.6-3,2.3-4.6c-0.4-0.5-0.7-1-0.7-1.6c0-1.1,1.1-2.2,2.2-2.5l1.2,1l-1,2.3c1,1,2.6,2,2.6,3.5
		c0,0.3-0.1,0.7-0.3,1.3l-1.2,3.1c-1.1,2.8-0.5,3.2-0.1,3.2c1,0,2.5-2,4.6-5.6c0.3,0,0.9,0.3,1,0.7c-1.9,3.3-3.8,6.3-6,6.3
		c-2,0-2.8-1.6-1.1-5.9l1-2.3c0.2-0.5,0.2-0.8,0.2-0.8c0-0.5-0.5-0.9-1.3-1.6c-0.6,1.3-1.3,2.9-2.2,4.4
		C237.2,233.2,236.6,232.8,236.5,232.4z"/>
	<path d="M246,232.4c1.2-2,2.8-5.1,3.7-7.2l1.6,0.9c-0.9,3.4-0.4,7.6-0.4,9c0,0.7-0.1,1.5-0.3,2.2c1.3-0.6,3-3,4.1-4.9
		c0.3,0,0.9,0.3,1,0.7c-1.8,3.2-3.7,6.3-7.7,6.3c-1.9,0-3-1.2-3.2-1.7l1.1-0.7c0.5,0.6,1.1,0.8,1.6,0.8c1,0,1.5-0.6,1.5-2.9
		c0-1.3-0.1-3.3-0.1-5.5c-0.6,1.3-1.4,2.6-2.1,3.8C246.7,233.2,246.1,232.8,246,232.4z"/>
	<path d="M265.8,233.1c-1.7,3-4.5,6.3-8.2,6.3c-2.2,0-3.5-1.2-3.5-3.5c0-3.7,3.1-10.1,6.9-10.1c2.3,0,3.2,2.2,1.8,5
		c-1.4,2.9-3.6,3.2-6.3,3c0,0-1.7,4.2,1.5,4.2c2.4,0,4.9-2.4,6.8-5.6C265.2,232.4,265.7,232.8,265.8,233.1z M256.9,232.6
		c2.4,0.4,3.4-1,4.1-2.4c0.9-1.9,0.7-2.6-0.2-2.6C258.6,227.6,256.9,232.6,256.9,232.6z"/>
	<path d="M272.1,233.1c-2,3.5-4.2,6.3-6.5,6.3c-2,0-3-1.3-1.2-5.7l3.1-7.6h2.2l-3.5,8.7c-1.1,2.7-0.6,3.2,0,3.2
		c1.4,0,3.4-2.7,5.1-5.6C271.5,232.4,272,232.8,272.1,233.1z M268.4,223.1c0-0.7,0.6-1.3,1.3-1.3s1.3,0.6,1.3,1.3
		c0,0.8-0.6,1.3-1.3,1.3S268.4,223.8,268.4,223.1z"/>
	<path d="M278.4,233.1c-2,3.5-4.2,6.3-6.5,6.3c-1.9,0-3-1.3-1.2-5.7l5.1-12.5h2.2l-5.5,13.6c-1.1,2.7-0.6,3.2,0,3.2
		c1.4,0,3.4-2.7,5.1-5.6C277.8,232.4,278.3,232.8,278.4,233.1z"/>
	<path d="M284.7,233.1c-2,3.5-4.2,6.3-6.5,6.3c-1.9,0-3-1.3-1.2-5.7l5.1-12.5h2.2l-5.5,13.6c-1.1,2.7-0.6,3.2,0,3.2
		c1.4,0,3.4-2.7,5.1-5.6C284.1,232.4,284.6,232.8,284.7,233.1z"/>
	<path d="M294.8,233.1c-1.8,3-4.5,6.3-8.2,6.3c-2.2,0-3.5-1.2-3.5-3.5c0-3.7,3.1-10.1,6.9-10.1c2.3,0,3.2,2.2,1.8,5
		c-1.4,2.9-3.6,3.2-6.3,3c0,0-1.7,4.2,1.5,4.2c2.4,0,4.9-2.4,6.8-5.6C294.1,232.4,294.7,232.8,294.8,233.1z M285.8,232.6
		c2.4,0.4,3.4-1,4.1-2.4c0.9-1.9,0.7-2.6-0.2-2.6C287.5,227.6,285.8,232.6,285.8,232.6z"/>
</g>
<line fill="none" stroke="#000000" stroke-miterlimit="10" x1="196" y1="234.3" x2="138" y2="234.3"/>
<line fill="none" stroke="#000000" stroke-miterlimit="10" x1="363" y1="234.3" x2="305" y2="234.3"/>
<g>
	<polygon fill="#FFFFFF" stroke="#222221" stroke-miterlimit="10" points="247,324.1 272.9,294.7 264.3,279.9 247.2,279.9 
		229.7,279.9 221,294.7 	"/>
	<g>
		<line fill="#FFFFFF" stroke="#222221" stroke-miterlimit="10" x1="273.2" y1="294.7" x2="221" y2="294.7"/>
		<g>
			<line fill="none" stroke="#222221" stroke-miterlimit="10" x1="247" y1="323.9" x2="229.9" y2="280.1"/>
			<line fill="none" stroke="#222221" stroke-miterlimit="10" x1="247" y1="324" x2="264.3" y2="279.7"/>
			<line fill="none" stroke="#222221" stroke-miterlimit="10" x1="264.3" y1="279.9" x2="247" y2="294.7"/>
			<line fill="none" stroke="#222221" stroke-miterlimit="10" x1="247" y1="294.7" x2="230.3" y2="280.1"/>
			<line fill="none" stroke="#222221" stroke-miterlimit="10" x1="247" y1="279.9" x2="247" y2="324.1"/>
		</g>
	</g>
</g>
<g>
	<g>
		<path d="M194.5,100.4c-1.4,5.4-2.9,9.7-5.8,10.6c-2.4,0.7-4.3-0.6-3.9-7.1c0.3-4.5,0.5-6.7,0.9-11.2c1.2-0.3,1.7-0.5,2.9-0.8
			c-0.6,5.1-0.8,7.7-1.2,12.8c-0.3,4,0.5,4.5,1.3,4.3c1.7-0.5,3.2-4.8,4.3-9.2C193.4,99.7,194.2,100,194.5,100.4z M185.8,88.3
			c-0.3-1,0.3-1.9,1.3-2.2c1-0.3,2,0.3,2.3,1.3c0.3,1-0.3,2-1.3,2.3C187.1,89.9,186.1,89.3,185.8,88.3z"/>
		<path d="M202.6,98.6c-1.6,5.3-3.3,9.6-6.2,10.4c-2.4,0.6-4.3-0.7-3.6-7.3c0.8-7.4,1.2-11.1,2.5-18.5c1.2-0.3,1.8-0.4,3-0.7
			c-1.4,8-2,12-2.9,20c-0.4,4,0.4,4.5,1.1,4.3c1.7-0.4,3.3-4.7,4.6-9C201.5,97.8,202.4,98.1,202.6,98.6z"/>
		<path d="M210.7,97c-1.8,5.2-3.6,9.5-6.6,10.1c-2.4,0.5-4.2-0.9-3.3-7.4c1-7.3,1.7-11,3.2-18.4c1.2-0.2,1.8-0.3,3-0.5
			c-1.7,8-2.5,11.9-3.6,19.9c-0.6,3.9,0.2,4.5,0.9,4.4c1.7-0.4,3.5-4.6,5-8.8C209.7,96.2,210.5,96.6,210.7,97z"/>
		<path d="M226.2,95c-2,4.8-4.3,9.2-7.3,9.6c-1.5,0.2-2.8-0.4-3.1-2.6c-1.1,1.8-2.2,3.4-3.9,3.7c-2.2,0.4-4.2-0.8-2.9-7.5
			c0.8-4.4,1.2-6.6,2.2-11c1.2-0.2,1.8-0.3,3-0.5c-1.2,5-1.7,7.5-2.7,12.6c-0.7,3.7-0.2,4.2,0.5,4.1c2.1-0.4,4-5.4,4.7-7.8
			c0.8-3.8,1.3-5.7,2.3-9.5c1.2-0.1,1.8-0.2,3-0.4c-1.3,5-2,7.5-3.1,12.5c-0.8,3.6-0.3,4.5,0.6,4.4c1.6-0.2,3.8-4.3,5.6-8.4
			C225.3,94,226.1,94.5,226.2,95z"/>
		<path d="M224.9,94.1c1.2-2.9,3-7.4,4.1-10.4c0.9,0.4,1.4,0.6,2.4,1c-1,4.9,0.2,10.5,0.4,12.5c0.1,1,0.1,2.1-0.2,3.1
			c1.7-1,3.5-4.4,4.9-7.1c0.4-0.1,1.2,0.4,1.3,0.9c-2.2,4.5-4.2,8.9-9.3,9.3c-2.4,0.2-3.9-1.4-4.2-1.9c0.5-0.4,0.8-0.6,1.3-1.1
			c0.8,0.8,1.5,0.9,2.2,0.9c1.3-0.1,1.9-1,1.6-4.2c-0.2-1.9-0.6-4.6-0.8-7.6c-0.7,1.8-1.5,3.7-2.3,5.5
			C225.8,95,225.1,94.6,224.9,94.1z"/>
		<path d="M246.5,94c-2.5,4.6-5.4,8.7-8.7,8.9c-2.5,0.1-4.1-1.5-2.1-7.8c1.4-4.3,2.1-6.4,3.6-10.7c-1.3,0-2,0.1-3.3,0.1
			c0.2-0.6,0.3-1,0.5-1.6c1.3-0.1,2-0.1,3.3-0.1c0.8-2.1,1.2-3.2,2-5.4c1.2,0,1.8,0,3.1,0c-0.9,2.1-1.3,3.2-2.1,5.3
			c1.3,0,1.9,0,3.1,0c-0.2,0.6-0.4,0.9-0.6,1.6c-1.2,0-1.9,0-3.1,0c-1.8,4.8-2.7,7.3-4.3,12.1c-1.3,4-0.5,4.5,0.2,4.4
			c2-0.1,4.6-3.7,6.9-7.9C245.7,93,246.4,93.5,246.5,94z"/>
		<path d="M245.2,93c1-1.8,2.1-4.2,3.1-6.4c-0.6-0.7-1-1.4-1-2.3c0-1.6,1.6-3.1,3-3.5c0.7,0.5,1,0.8,1.7,1.4
			c-0.6,1.3-0.9,1.9-1.4,3.2c1.3,1.4,3.5,2.8,3.4,4.9c0,0.4-0.1,1-0.5,1.8c-0.7,1.7-1.1,2.6-1.8,4.3c-1.6,3.9-0.8,4.4-0.3,4.4
			c1.3,0,3.2-2.7,6.2-7.5c0.4,0,1.1,0.5,1.2,1c-2.8,4.5-5.2,8.4-8.1,8.4c-2.5,0-3.6-2.3-1.2-8.2c0.5-1.3,0.8-1.9,1.3-3.2
			c0.3-0.7,0.3-1,0.3-1.2c0-0.7-0.6-1.3-1.7-2.3c-0.8,1.8-1.8,4-3,6.1C246.1,94,245.4,93.5,245.2,93z"/>
		<path d="M275.1,95.8c-3.1,4.2-6.3,8-9.4,7.7c-2.7-0.2-2.3-2.9-2.3-2.9s-2,2.6-4.4,2.4c-1.9-0.1-2.8-1.7-2.7-3.8
			c0.2-3.7,4-15.1,9.6-14.6c2.7,0.2,2.9,3.1,2.9,3.1c0.5-0.9,0.7-1.3,1.2-2.2c1.2,0.1,1.8,0.2,3,0.3c-2.5,4.6-3.7,6.8-5.9,11.5
			c-1.6,3.3-1.3,4.4-0.4,4.4c1.7,0.2,4.7-3.3,7.4-7C274.3,94.7,275,95.3,275.1,95.8z M263.9,97.4c1.4-2.9,2.1-4.4,3.6-7.3
			c0,0,0.3-2.7-1.4-2.8c-3.4-0.3-7.1,8.9-7.2,11.8c-0.1,1,0.3,1.5,1,1.5C261.7,100.6,263.9,97.4,263.9,97.4z"/>
		<path d="M283.8,97.1c-3.3,4.1-6.9,7.7-10.2,7.3c-2.5-0.3-3.7-2.2-0.6-8.1c2.1-4,3.2-5.9,5.5-9.9c-1.3-0.2-1.9-0.3-3.2-0.4
			c0.3-0.6,0.5-0.9,0.8-1.5c1.3,0.2,2,0.3,3.3,0.4c1.2-2,1.8-3,3-4.9c1.2,0.2,1.8,0.3,3,0.5c-1.2,1.9-1.8,2.9-3,4.9
			c1.2,0.2,1.9,0.3,3.1,0.5c-0.4,0.6-0.5,0.9-0.9,1.4c-1.2-0.2-1.9-0.3-3.1-0.5c-2.7,4.5-3.9,6.7-6.4,11.2c-2.1,3.7-1.3,4.3-0.6,4.4
			c2,0.3,5.2-2.9,8.2-6.5C283.1,96,283.7,96.6,283.8,97.1z"/>
		<path d="M298.7,100.2c-2.9,3.2-6.1,4.7-9.1,2.9c-1.9,1.9-4,3.1-6.1,2.7c-1.8-0.3-3.2-1.8-2.7-4.9c0.7-4.3,5.9-13.8,11.8-12.6
			c2,0.4,3.5,2,2.8,5.1c-0.5,2.2-2.2,5.5-4.4,8.1c1.6,1,3.9,0.3,6.7-2.6C298.1,99,298.7,99.7,298.7,100.2z M287.9,101.5
			c-0.2-0.4-0.3-0.9-0.2-1.5c0.2-1.2,1.4-1.9,2.4-1.4c1.4-2.2,2.6-4.4,2.9-5.8c0.3-1.5-0.1-2.2-1-2.4c-3-0.6-8.3,7.7-8.9,11
			c-0.2,1.4,0.2,2.3,1,2.4C285.2,104.1,286.6,103,287.9,101.5z"/>
		<path d="M297.7,99c1.4-1.5,3.1-3.5,4.6-5.4c-0.4-0.8-0.6-1.6-0.4-2.4c0.4-1.5,2.3-2.6,3.9-2.7c0.5,0.7,0.8,1.1,1.3,1.8
			c-0.9,1.1-1.3,1.6-2.2,2.7c1,1.7,2.7,3.5,2.1,5.6c-0.1,0.4-0.4,0.9-0.9,1.6c-1.1,1.5-1.7,2.2-2.8,3.7c-2.5,3.4-1.9,4.1-1.4,4.2
			c1.3,0.4,3.8-1.9,8-5.8c0.4,0.1,1,0.8,0.9,1.3c-3.9,3.6-7.3,6.9-10,6.2c-2.4-0.6-3-3.1,0.8-8.2c0.8-1.1,1.2-1.7,2.1-2.8
			c0.4-0.6,0.6-0.9,0.6-1.1c0.2-0.7-0.3-1.4-1.1-2.6c-1.3,1.5-2.8,3.4-4.5,5.2C298.3,100.1,297.7,99.5,297.7,99z"/>
	</g>
</g>
<g>
</g>
<g>
</g>
<g>
</g>
<g>
</g>
<g>
</g>
<g>
</g>
<g>
</g>
<g>
</g>
<g>
</g>
<g>
</g>
<g>
</g>
<g>
</g>
<g>
</g>
<g>
</g>
<g>
</g>
</svg>
