<?xml version="1.0" encoding="utf-8"?>
<!-- Generator: Adobe Illustrator 24.0.1, SVG Export Plug-In . SVG Version: 6.00 Build 0)  -->
<svg version="1.1" xmlns="http://www.w3.org/2000/svg" xmlns:xlink="http://www.w3.org/1999/xlink" x="0px" y="0px"
	 viewBox="0 0 3404.3 3457.7" style="enable-background:new 0 0 3404.3 3457.7;" xml:space="preserve">
<style type="text/css">
	.st0{display:none;}
	.st1{display:inline;}
	.st2{clip-path:url(#SVGID_2_);fill:#E6007E;stroke:#E6332A;stroke-width:14.1732;stroke-miterlimit:10;}
	.st3{display:inline;fill:none;stroke:#000000;stroke-width:28.3465;stroke-linecap:round;stroke-miterlimit:10;}
	.st4{font-family:'SignPainter-HouseScript';}
	.st5{font-size:400.8941px;}
	.st6{clip-path:url(#SVGID_4_);fill:#E6007E;stroke:#E6332A;stroke-width:14.1732;stroke-miterlimit:10;}
	.st7{font-size:512.465px;}
	.st8{fill:#FFFFFF;stroke:#000000;stroke-width:28.3465;stroke-linecap:round;stroke-miterlimit:10;}
	.st9{display:inline;fill:#FFFFFF;stroke:#000000;stroke-width:28.3465;stroke-linecap:round;stroke-miterlimit:10;}
</style>
<g id="reperes" class="st0">
</g>
<g id="WF_Production_complexe" class="st0">
	<g id="Calque_7" class="st1">
		<g>
			<defs>
				<circle id="SVGID_1_" cx="1703.1" cy="1723.2" r="1567.1"/>
			</defs>
			<clipPath id="SVGID_2_">
				<use xlink:href="#SVGID_1_"  style="overflow:visible;"/>
			</clipPath>
			<rect x="1824.4" y="2683.7" class="st2" width="699.3" height="699.3"/>
			<rect x="-894.1" y="2479.4" class="st2" width="2317.8" height="565.7"/>
			<rect x="2382.2" y="2118" class="st2" width="463.6" height="990"/>
			<rect x="2845.8" y="2322.2" class="st2" width="424.4" height="157.1"/>
			<rect x="1926.5" y="3045.1" class="st2" width="243.6" height="337.8"/>
			<rect x="1298" y="2856.5" class="st2" width="526.4" height="526.4"/>
		</g>
	</g>
	<circle class="st3" cx="1702.2" cy="1722.2" r="1567.1"/>
	<text transform="matrix(0.9768 0 0 1 1684.8154 2429.8157)" class="st1 st4 st5">Production</text>
	<g class="st1">
		<path d="M1743.2,990.8c-197,279.1-548.5,836.3-724.2,1185.8c75.1-348.7,158-642.1,221.2-868.1c49.4-182.8,39.5-242.9,0-312.6
			c-15.8-28.9-35.5-21.6-49.4-2.4c-203.4,300.6-507.6,805.6-691.3,1171.1c84.9-341.5,181.7-654.1,246.9-870.5
			c57.3-185.2,53.3-271.7,19.8-341.5c-13.8-28.9-33.6-26.5-49.4,9.6c-96.8,226-256.8,779.1-327.9,1144.6
			c-31.6,165.9-15.8,257.3,53.3,331.8c25.7,26.5,45.4,14.4,59.3-12c167.9-324.6,397-716.6,574.7-1000.3
			c-65.2,226-132.3,490.6-163.9,668.5c-29.6,170.7-5.9,257.3,61.2,331.8c25.7,28.9,43.5,16.8,59.3-12
			c239-447.3,531.3-889.7,675.5-1120.6l156-225.9c-173.8,343.9-381.2,885.7-440.4,1097.3c-41.5,149.1-57.1,224.2-19.6,262.7
			c13.8,14.4,61,16.3,68.9-7.8c57.3-161.1,130.4-412,205.4-589.9c112.6-33.7,264.7-69.7,363.4-67.3c23.7,0,27.6-14.4,21.7-36.1
			c-17.8-72.1-67.1-122.6-165.9-115.4c-35.5,2.4-81,7.2-132.3,19.2c96.8-216.4,189.6-430.7,258.7-567.8
			c120.5-21.6,258.7-50.2,406.9-47.8c25.7,0,29.6-16.8,23.7-36.1c-25.7-74.5-77-122.6-162-122.6l-432.3,62.3
			C1813.2,925.7,1770.8,951.7,1743.2,990.8z"/>
	</g>
</g>
<g id="WF_Prod_complexe" class="st0">
	<g id="Calque_6" class="st1">
		<g>
			<defs>
				<circle id="SVGID_3_" cx="1696.8" cy="1728.8" r="1567.1"/>
			</defs>
			<clipPath id="SVGID_4_">
				<use xlink:href="#SVGID_3_"  style="overflow:visible;"/>
			</clipPath>
			<rect x="1818.1" y="2689.3" class="st6" width="699.3" height="699.3"/>
			<rect x="-900.3" y="2485" class="st6" width="2317.8" height="565.7"/>
			<rect x="2375.9" y="2123.6" class="st6" width="463.6" height="990"/>
			<rect x="2839.5" y="2327.9" class="st6" width="424.4" height="157.1"/>
			<rect x="1920.3" y="3050.7" class="st6" width="243.6" height="337.8"/>
			<rect x="1291.7" y="2862.2" class="st6" width="526.4" height="526.4"/>
		</g>
	</g>
	<circle class="st3" cx="1704.2" cy="1722.2" r="1567.1"/>
	<text transform="matrix(0.9768 0 0 1 2030.6414 2441.1812)" class="st1 st4 st7">Prod</text>
	<g class="st1">
		<path d="M1919.6,1037.3c-200.1,287.3-533.8,818.8-703.5,1156.4c75.1-348.7,158-642.1,221.2-868.1c49.4-182.8,39.5-242.9,0-312.6
			c-15.8-28.9-35.5-21.6-49.4-2.4c-203.4,300.6-507.6,805.6-691.3,1171.1c84.9-341.5,181.7-654.1,246.9-870.5
			c57.3-185.2,53.3-271.7,19.8-341.5c-13.8-28.9-33.6-26.5-49.4,9.6c-96.8,226-256.8,779.1-327.9,1144.6
			c-31.6,165.9-15.8,257.3,53.3,331.8c25.7,26.5,45.4,14.4,59.3-12c167.9-324.6,397-716.6,574.7-1000.3
			c-65.2,226-132.3,490.6-163.9,668.5c-29.6,170.7-5.9,257.3,61.2,331.8c25.7,28.9,43.5,16.8,59.3-12
			c239-447.3,531.3-889.7,675.5-1120.6l156-225.9c-173.8,343.9-381.2,885.7-440.4,1097.3c-41.5,149.1-57.1,224.2-19.6,262.7
			c13.8,14.4,61,16.3,68.9-7.8c57.3-161.1,130.4-412,205.4-589.9c112.6-33.7,264.7-69.7,363.4-67.3c23.7,0,27.6-14.4,21.7-36.1
			c-17.8-72.1-67.1-122.6-165.9-115.4c-35.5,2.4-81,7.2-132.3,19.2c96.8-216.4,189.6-430.7,258.7-567.8
			c120.5-21.6,258.7-50.2,406.9-47.8c25.7,0,29.6-16.8,23.7-36.1c-25.7-74.5-77-122.6-162-122.6L2091.8,931
			C2022.1,941.1,1959.8,979.6,1919.6,1037.3z"/>
	</g>
</g>
<g id="WF_Prod_simple">
	<circle class="st8" cx="1702.2" cy="1722.2" r="1567.1"/>
	<text transform="matrix(0.9768 0 0 1 2028.6414 2441.1812)" class="st4 st7">Prod</text>
	<g>
		<path d="M1917.6,1037.3c-200.1,287.3-533.8,818.8-703.5,1156.4c75.1-348.7,158-642.1,221.2-868.1c49.4-182.8,39.5-242.9,0-312.6
			c-15.8-28.9-35.5-21.6-49.4-2.4c-203.4,300.6-507.6,805.6-691.3,1171.1c84.9-341.5,181.7-654.1,246.9-870.5
			c57.3-185.2,53.3-271.7,19.8-341.5c-13.8-28.9-33.6-26.5-49.4,9.6c-96.8,226-256.8,779.1-327.9,1144.6
			c-31.6,165.9-15.8,257.3,53.3,331.8c25.7,26.5,45.4,14.4,59.3-12c167.9-324.6,397-716.6,574.7-1000.3
			c-65.2,226-132.3,490.6-163.9,668.5c-29.6,170.7-5.9,257.3,61.2,331.8c25.7,28.9,43.5,16.8,59.3-12
			c239-447.3,531.3-889.7,675.5-1120.6l156-225.9c-173.8,343.9-381.2,885.7-440.4,1097.3c-41.5,149.1-57.1,224.2-19.6,262.7
			c13.8,14.4,61,16.3,68.9-7.8c57.3-161.1,130.4-412,205.4-589.9c112.6-33.7,264.7-69.7,363.4-67.3c23.7,0,27.6-14.4,21.7-36.1
			c-17.8-72.1-67.1-122.6-165.9-115.4c-35.5,2.4-81,7.2-132.3,19.2c96.8-216.4,189.6-430.7,258.7-567.8
			c120.5-21.6,258.7-50.2,406.9-47.8c25.7,0,29.6-16.8,23.7-36.1c-25.7-74.5-77-122.6-162-122.6L2089.8,931
			C2020.1,941.1,1957.8,979.6,1917.6,1037.3z"/>
	</g>
</g>
<g id="WF_Production_simple" class="st0">
	<circle class="st9" cx="1702.2" cy="1722.2" r="1567.1"/>
	<text transform="matrix(0.9768 0 0 1 1684.8167 2429.8157)" class="st1 st4 st5">Production</text>
	<g class="st1">
		<path d="M1728.8,1032.9c-200.1,287.3-533.8,818.8-703.5,1156.4c75.1-348.7,158-642.1,221.2-868.1c49.4-182.8,39.5-242.9,0-312.6
			c-15.8-28.9-35.5-21.6-49.4-2.4c-203.4,300.6-507.6,805.6-691.3,1171.1c84.9-341.5,181.7-654.1,246.9-870.5
			c57.3-185.2,53.3-271.7,19.8-341.5c-13.8-28.9-33.6-26.5-49.4,9.6c-96.8,226-256.8,779.1-327.9,1144.6
			c-31.6,165.9-15.8,257.3,53.3,331.8c25.7,26.5,45.4,14.4,59.3-12c167.9-324.6,397-716.6,574.7-1000.3
			c-65.2,226-132.3,490.6-163.9,668.5c-29.6,170.7-5.9,257.3,61.2,331.8c25.7,28.9,43.5,16.8,59.3-12
			c239-447.3,531.3-889.7,675.5-1120.6l156-225.9c-173.8,343.9-381.2,885.7-440.4,1097.3c-41.5,149.1-57.1,224.2-19.6,262.7
			c13.8,14.4,61,16.3,68.9-7.8c57.3-161.1,130.4-412,205.4-589.9c112.6-33.7,264.7-69.7,363.4-67.3c23.7,0,27.6-14.4,21.7-36.1
			c-17.8-72.1-67.1-122.6-165.9-115.4c-35.5,2.4-81,7.2-132.3,19.2c96.8-216.4,189.6-430.7,258.7-567.8
			c120.5-21.6,258.7-50.2,406.9-47.8c25.7,0,29.6-16.8,23.7-36.1c-25.7-74.5-77-122.6-162-122.6l-398.1,57.4
			C1831.4,936.7,1769.1,975.2,1728.8,1032.9z"/>
	</g>
</g>
</svg>
