<?xml version="1.0" encoding="utf-8"?>
<!-- Generator: Adobe Illustrator 18.1.0, SVG Export Plug-In . SVG Version: 6.00 Build 0)  -->
<svg version="1.1" id="Marshall" xmlns="http://www.w3.org/2000/svg" xmlns:xlink="http://www.w3.org/1999/xlink" x="0px" y="0px"
	 viewBox="6 196.2 600 599.8" enable-background="new 6 196.2 600 599.8" xml:space="preserve">
<pattern  y="792" width="76.8" height="76.8" patternUnits="userSpaceOnUse" id="SVGID_6_" viewBox="76.2 -76.8 76.8 76.8" overflow="visible">
	<g>
		<polygon fill="none" points="76.2,0 153,0 153,-76.8 76.2,-76.8 		"/>
		<g>
			<polygon fill="none" points="76.2,-76.8 153,-76.8 153,0 76.2,0 			"/>
			<g>
				<polygon fill="none" points="76.2,-76.8 153,-76.8 153,0 76.2,0 				"/>
				<g>
					<line fill="none" stroke="#000000" stroke-width="2" stroke-dasharray="2,1" x1="76.8" y1="-1.6" x2="153.5" y2="-1.6"/>
					<line fill="none" stroke="#000000" stroke-width="2" stroke-dasharray="2,1" x1="76.8" y1="-4.8" x2="153.5" y2="-4.8"/>
					<line fill="none" stroke="#000000" stroke-width="2" stroke-dasharray="2,1" x1="76.8" y1="-8" x2="153.5" y2="-8"/>
					<line fill="none" stroke="#000000" stroke-width="2" stroke-dasharray="2,1" x1="76.8" y1="-11.2" x2="153.5" y2="-11.2"/>
					<line fill="none" stroke="#000000" stroke-width="2" stroke-dasharray="2,1" x1="76.8" y1="-14.4" x2="153.5" y2="-14.4"/>
					<line fill="none" stroke="#000000" stroke-width="2" stroke-dasharray="2,1" x1="76.8" y1="-17.6" x2="153.5" y2="-17.6"/>
					<line fill="none" stroke="#000000" stroke-width="2" stroke-dasharray="2,1" x1="76.8" y1="-20.8" x2="153.5" y2="-20.8"/>
					<line fill="none" stroke="#000000" stroke-width="2" stroke-dasharray="2,1" x1="76.8" y1="-24" x2="153.5" y2="-24"/>
					<line fill="none" stroke="#000000" stroke-width="2" stroke-dasharray="2,1" x1="76.8" y1="-27.2" x2="153.5" y2="-27.2"/>
					<line fill="none" stroke="#000000" stroke-width="2" stroke-dasharray="2,1" x1="76.8" y1="-30.4" x2="153.5" y2="-30.4"/>
					<line fill="none" stroke="#000000" stroke-width="2" stroke-dasharray="2,1" x1="76.8" y1="-33.6" x2="153.5" y2="-33.6"/>
					<line fill="none" stroke="#000000" stroke-width="2" stroke-dasharray="2,1" x1="76.8" y1="-36.8" x2="153.5" y2="-36.8"/>
					<line fill="none" stroke="#000000" stroke-width="2" stroke-dasharray="2,1" x1="76.8" y1="-40" x2="153.5" y2="-40"/>
					<line fill="none" stroke="#000000" stroke-width="2" stroke-dasharray="2,1" x1="76.8" y1="-43.2" x2="153.5" y2="-43.2"/>
					<line fill="none" stroke="#000000" stroke-width="2" stroke-dasharray="2,1" x1="76.8" y1="-46.4" x2="153.5" y2="-46.4"/>
					<line fill="none" stroke="#000000" stroke-width="2" stroke-dasharray="2,1" x1="76.8" y1="-49.6" x2="153.5" y2="-49.6"/>
					<line fill="none" stroke="#000000" stroke-width="2" stroke-dasharray="2,1" x1="76.8" y1="-52.8" x2="153.5" y2="-52.8"/>
					<line fill="none" stroke="#000000" stroke-width="2" stroke-dasharray="2,1" x1="76.8" y1="-56" x2="153.5" y2="-56"/>
					<line fill="none" stroke="#000000" stroke-width="2" stroke-dasharray="2,1" x1="76.8" y1="-59.2" x2="153.5" y2="-59.2"/>
					<line fill="none" stroke="#000000" stroke-width="2" stroke-dasharray="2,1" x1="76.8" y1="-62.4" x2="153.5" y2="-62.4"/>
					<line fill="none" stroke="#000000" stroke-width="2" stroke-dasharray="2,1" x1="76.8" y1="-65.6" x2="153.5" y2="-65.6"/>
					<line fill="none" stroke="#000000" stroke-width="2" stroke-dasharray="2,1" x1="76.8" y1="-68.8" x2="153.5" y2="-68.8"/>
					<line fill="none" stroke="#000000" stroke-width="2" stroke-dasharray="2,1" x1="76.8" y1="-72" x2="153.5" y2="-72"/>
					<line fill="none" stroke="#000000" stroke-width="2" stroke-dasharray="2,1" x1="76.8" y1="-75.2" x2="153.5" y2="-75.2"/>
				</g>
				<g>
					<line fill="none" stroke="#000000" stroke-width="2" stroke-dasharray="2,1" x1="0" y1="-1.6" x2="76.8" y2="-1.6"/>
					<line fill="none" stroke="#000000" stroke-width="2" stroke-dasharray="2,1" x1="0" y1="-4.8" x2="76.8" y2="-4.8"/>
					<line fill="none" stroke="#000000" stroke-width="2" stroke-dasharray="2,1" x1="0" y1="-8" x2="76.8" y2="-8"/>
					<line fill="none" stroke="#000000" stroke-width="2" stroke-dasharray="2,1" x1="0" y1="-11.2" x2="76.8" y2="-11.2"/>
					<line fill="none" stroke="#000000" stroke-width="2" stroke-dasharray="2,1" x1="0" y1="-14.4" x2="76.8" y2="-14.4"/>
					<line fill="none" stroke="#000000" stroke-width="2" stroke-dasharray="2,1" x1="0" y1="-17.6" x2="76.8" y2="-17.6"/>
					<line fill="none" stroke="#000000" stroke-width="2" stroke-dasharray="2,1" x1="0" y1="-20.8" x2="76.8" y2="-20.8"/>
					<line fill="none" stroke="#000000" stroke-width="2" stroke-dasharray="2,1" x1="0" y1="-24" x2="76.8" y2="-24"/>
					<line fill="none" stroke="#000000" stroke-width="2" stroke-dasharray="2,1" x1="0" y1="-27.2" x2="76.8" y2="-27.2"/>
					<line fill="none" stroke="#000000" stroke-width="2" stroke-dasharray="2,1" x1="0" y1="-30.4" x2="76.8" y2="-30.4"/>
					<line fill="none" stroke="#000000" stroke-width="2" stroke-dasharray="2,1" x1="0" y1="-33.6" x2="76.8" y2="-33.6"/>
					<line fill="none" stroke="#000000" stroke-width="2" stroke-dasharray="2,1" x1="0" y1="-36.8" x2="76.8" y2="-36.8"/>
					<line fill="none" stroke="#000000" stroke-width="2" stroke-dasharray="2,1" x1="0" y1="-40" x2="76.8" y2="-40"/>
					<line fill="none" stroke="#000000" stroke-width="2" stroke-dasharray="2,1" x1="0" y1="-43.2" x2="76.8" y2="-43.2"/>
					<line fill="none" stroke="#000000" stroke-width="2" stroke-dasharray="2,1" x1="0" y1="-46.4" x2="76.8" y2="-46.4"/>
					<line fill="none" stroke="#000000" stroke-width="2" stroke-dasharray="2,1" x1="0" y1="-49.6" x2="76.8" y2="-49.6"/>
					<line fill="none" stroke="#000000" stroke-width="2" stroke-dasharray="2,1" x1="0" y1="-52.8" x2="76.8" y2="-52.8"/>
					<line fill="none" stroke="#000000" stroke-width="2" stroke-dasharray="2,1" x1="0" y1="-56" x2="76.8" y2="-56"/>
					<line fill="none" stroke="#000000" stroke-width="2" stroke-dasharray="2,1" x1="0" y1="-59.2" x2="76.8" y2="-59.2"/>
					<line fill="none" stroke="#000000" stroke-width="2" stroke-dasharray="2,1" x1="0" y1="-62.4" x2="76.8" y2="-62.4"/>
					<line fill="none" stroke="#000000" stroke-width="2" stroke-dasharray="2,1" x1="0" y1="-65.6" x2="76.8" y2="-65.6"/>
					<line fill="none" stroke="#000000" stroke-width="2" stroke-dasharray="2,1" x1="0" y1="-68.8" x2="76.8" y2="-68.8"/>
					<line fill="none" stroke="#000000" stroke-width="2" stroke-dasharray="2,1" x1="0" y1="-72" x2="76.8" y2="-72"/>
					<line fill="none" stroke="#000000" stroke-width="2" stroke-dasharray="2,1" x1="0" y1="-75.2" x2="76.8" y2="-75.2"/>
				</g>
			</g>
		</g>
	</g>
</pattern>
<rect x="6" y="196.2" fill="#DBB355" width="600" height="599.8"/>
<g>
	
		<linearGradient id="SVGID_1_" gradientUnits="userSpaceOnUse" x1="512.7883" y1="73.4572" x2="538.7241" y2="73.4572" gradientTransform="matrix(1.0662 0 0 1.0662 0 428.6845)">
		<stop  offset="0" style="stop-color:#432918"/>
		<stop  offset="0.1931" style="stop-color:#452C1B;stop-opacity:0.8842"/>
		<stop  offset="0.3312" style="stop-color:#4D3424;stop-opacity:0.8013"/>
		<stop  offset="0.4522" style="stop-color:#5A4334;stop-opacity:0.7287"/>
		<stop  offset="0.5634" style="stop-color:#6C574A;stop-opacity:0.662"/>
		<stop  offset="0.6679" style="stop-color:#837267;stop-opacity:0.5993"/>
		<stop  offset="0.7674" style="stop-color:#A0938A;stop-opacity:0.5396"/>
		<stop  offset="0.863" style="stop-color:#C2BAB4;stop-opacity:0.4822"/>
		<stop  offset="0.9531" style="stop-color:#E8E5E3;stop-opacity:0.4281"/>
		<stop  offset="1" style="stop-color:#FFFFFF;stop-opacity:0.4"/>
	</linearGradient>
	<rect x="546.7" y="430.3" fill="url(#SVGID_1_)" width="27.6" height="153.5"/>
	
		<linearGradient id="SVGID_2_" gradientUnits="userSpaceOnUse" x1="994.7499" y1="73.3634" x2="1020.6857" y2="73.3634" gradientTransform="matrix(-1.0662 0 0 1.0662 1122.6875 428.6845)">
		<stop  offset="0" style="stop-color:#432918"/>
		<stop  offset="0.1931" style="stop-color:#452C1B;stop-opacity:0.8842"/>
		<stop  offset="0.3312" style="stop-color:#4D3424;stop-opacity:0.8013"/>
		<stop  offset="0.4522" style="stop-color:#5A4334;stop-opacity:0.7287"/>
		<stop  offset="0.5634" style="stop-color:#6C574A;stop-opacity:0.662"/>
		<stop  offset="0.6679" style="stop-color:#837267;stop-opacity:0.5993"/>
		<stop  offset="0.7674" style="stop-color:#A0938A;stop-opacity:0.5396"/>
		<stop  offset="0.863" style="stop-color:#C2BAB4;stop-opacity:0.4822"/>
		<stop  offset="0.9531" style="stop-color:#E8E5E3;stop-opacity:0.4281"/>
		<stop  offset="1" style="stop-color:#FFFFFF;stop-opacity:0.4"/>
	</linearGradient>
	<rect x="34.4" y="430.2" fill="url(#SVGID_2_)" width="27.6" height="153.5"/>
	
		<linearGradient id="SVGID_3_" gradientUnits="userSpaceOnUse" x1="841.3297" y1="134.4306" x2="867.2655" y2="134.4306" gradientTransform="matrix(0 -1.0662 -1.0662 0 445.6647 1333.906)">
		<stop  offset="0" style="stop-color:#432918"/>
		<stop  offset="0.1931" style="stop-color:#452C1B;stop-opacity:0.8842"/>
		<stop  offset="0.3312" style="stop-color:#4D3424;stop-opacity:0.8013"/>
		<stop  offset="0.4522" style="stop-color:#5A4334;stop-opacity:0.7287"/>
		<stop  offset="0.5634" style="stop-color:#6C574A;stop-opacity:0.662"/>
		<stop  offset="0.6679" style="stop-color:#837267;stop-opacity:0.5993"/>
		<stop  offset="0.7674" style="stop-color:#A0938A;stop-opacity:0.5396"/>
		<stop  offset="0.863" style="stop-color:#C2BAB4;stop-opacity:0.4822"/>
		<stop  offset="0.9531" style="stop-color:#E8E5E3;stop-opacity:0.4281"/>
		<stop  offset="1" style="stop-color:#FFFFFF;stop-opacity:0.4"/>
	</linearGradient>
	<rect x="54.9" y="409.2" fill="url(#SVGID_3_)" width="494.8" height="27.6"/>
	
		<linearGradient id="SVGID_4_" gradientUnits="userSpaceOnUse" x1="683.8305" y1="134.8552" x2="709.7664" y2="134.8552" gradientTransform="matrix(4.786927e-11 -1.0662 1.0662 4.786927e-11 160.4522 1333.906)">
		<stop  offset="0" style="stop-color:#432918"/>
		<stop  offset="1" style="stop-color:#432A19"/>
	</linearGradient>
	<rect x="56.8" y="577.2" fill="url(#SVGID_4_)" width="494.8" height="27.6"/>
</g>
<rect x="58.1" y="432.6" fill="#A48A7B" stroke="#000000" stroke-miterlimit="10" width="491" height="114"/>
<linearGradient id="SVGID_5_" gradientUnits="userSpaceOnUse" x1="54.5253" y1="124.5733" x2="515.0392" y2="124.5733" gradientTransform="matrix(1.0662 0 0 1.0662 0 428.6845)">
	<stop  offset="0" style="stop-color:#82674D"/>
	<stop  offset="2.069943e-02" style="stop-color:#967C57"/>
	<stop  offset="5.380471e-02" style="stop-color:#B19864"/>
	<stop  offset="9.105797e-02" style="stop-color:#CAB26C"/>
	<stop  offset="0.1328" style="stop-color:#DDC771"/>
	<stop  offset="0.1812" style="stop-color:#EDD874"/>
	<stop  offset="0.2402" style="stop-color:#F8E476"/>
	<stop  offset="0.3211" style="stop-color:#FEEB76"/>
	<stop  offset="0.5269" style="stop-color:#FFED77"/>
	<stop  offset="0.7353" style="stop-color:#FEEB76"/>
	<stop  offset="0.8103" style="stop-color:#F8E476"/>
	<stop  offset="0.8638" style="stop-color:#EDD874"/>
	<stop  offset="0.9071" style="stop-color:#DEC871"/>
	<stop  offset="0.9441" style="stop-color:#CBB36C"/>
	<stop  offset="0.9764" style="stop-color:#B49B65"/>
	<stop  offset="1" style="stop-color:#9F855B"/>
</linearGradient>
<rect x="58.1" y="541.4" fill="url(#SVGID_5_)" stroke="#000000" stroke-miterlimit="10" width="491" height="40.3"/>
<g>
	<g>
		<g>
		</g>
		<path d="M245.4,559.6L245.4,559.6c0-3.8-3.1-6.9-6.8-6.9s-6.8,3.1-6.8,6.8c0,0.5,0.1,1,0.1,1.4c0,0,0,0,0,0.1
			c0,3.7,3.1,6.8,6.8,6.8s6.8-3.1,6.8-6.8C245.5,560.5,245.5,560.1,245.4,559.6z"/>
		<path fill="#E5C8AB" d="M244.2,558.8c0,3.1-2.6,5.5-5.5,5.5c-3.1,0-5.5-2.5-5.5-5.5s2.6-5.7,5.5-5.7S244.2,555.7,244.2,558.8z"/>
		<rect x="238.3" y="554.3" fill="#241C19" width="0.9" height="4.9"/>
		<path fill="#9A6D45" d="M237.9,558.6l-4.6-1.8c0,0,0.6-1.7,2-2.6L237.9,558.6z"/>
		<path fill="#9A6D45" d="M238.9,559.2l5,1.5c0,0-0.9,2.1-2.5,2.9L238.9,559.2z"/>
		<path fill="#FDFDF4" d="M239.4,558.4l4.5-1.6c0,0-0.2-1-0.9-1.6L239.4,558.4z"/>
		<path fill="#FEEED2" d="M237.8,559.1l-4.4,1.6c0,0,0.2,0.6,0.9,1.5L237.8,559.1z"/>
		<g>
			<g>
				<path stroke="#000000" stroke-width="0.25" d="M232.9,569.3c0-0.3,0-0.5,0.1-0.6c0.1-0.2,0.1-0.3,0.2-0.4
					c0.1-0.1,0.2-0.1,0.4-0.1c0.1,0,0.2,0,0.3,0.1c0.1,0,0.2,0.1,0.2,0.2c0,0.1,0.1,0.2,0.1,0.3s0,0.3,0,0.5c0,0.3,0,0.5-0.1,0.6
					c-0.1,0.2-0.1,0.3-0.2,0.4c-0.1,0.1-0.2,0.1-0.4,0.1s-0.4-0.1-0.5-0.2C233,570,232.9,569.7,232.9,569.3z M233.2,569.3
					c0,0.4,0,0.6,0.1,0.7c0.1,0.1,0.2,0.2,0.3,0.2s0.2-0.1,0.3-0.2c0.1-0.1,0.1-0.4,0.1-0.7c0-0.4,0-0.6-0.1-0.7
					c-0.1-0.1-0.2-0.2-0.3-0.2s-0.2,0.1-0.3,0.2C233.2,568.7,233.2,568.8,233.2,569.3z"/>
			</g>
			<g>
				<path stroke="#000000" stroke-width="0.25" d="M229.4,560.9v0.3h-1.5c0-0.1,0-0.1,0-0.2c0-0.1,0.1-0.2,0.2-0.3s0.2-0.2,0.3-0.3
					c0.2-0.2,0.4-0.3,0.5-0.5c0.1-0.1,0.1-0.2,0.1-0.3s0-0.2-0.1-0.3s-0.2-0.1-0.3-0.1s-0.2,0-0.3,0.1c-0.1,0.1-0.1,0.2-0.1,0.3
					h-0.3c0-0.2,0.1-0.4,0.2-0.5c0.1-0.1,0.3-0.2,0.5-0.2s0.4,0.1,0.5,0.2c0.1,0.1,0.2,0.3,0.2,0.4c0,0.1,0,0.2-0.1,0.3
					s-0.1,0.2-0.2,0.3s-0.2,0.2-0.4,0.4c-0.2,0.1-0.3,0.2-0.3,0.3l-0.1,0.1H229.4L229.4,560.9z"/>
			</g>
			<g>
				<path stroke="#000000" stroke-width="0.25" d="M234,552v-0.5h-1v-0.2l1.1-1.5h0.2v1.5h0.3v0.2h-0.3v0.5H234z M234,551.2v-1.1
					l-0.7,1.1H234z"/>
			</g>
			<g>
				<path stroke="#000000" stroke-width="0.25" d="M244.9,550.3h-0.3c0-0.1-0.1-0.2-0.1-0.2c-0.1-0.1-0.2-0.1-0.3-0.1
					s-0.2,0-0.2,0.1c-0.1,0.1-0.1,0.1-0.2,0.3c-0.1,0.2-0.1,0.3-0.1,0.5c0.1-0.1,0.1-0.2,0.2-0.2s0.2-0.1,0.3-0.1
					c0.2,0,0.3,0.1,0.4,0.2c0.1,0.1,0.2,0.3,0.2,0.5c0,0.1,0,0.3-0.1,0.4c-0.1,0.1-0.1,0.2-0.2,0.3c-0.1,0.1-0.2,0.1-0.3,0.1
					c-0.2,0-0.4-0.1-0.5-0.2c-0.1-0.2-0.2-0.4-0.2-0.9s0.1-0.7,0.2-1c0.1-0.2,0.3-0.2,0.5-0.2s0.3,0,0.4,0.1
					C244.7,550,244.9,550.1,244.9,550.3z M243.7,551.2c0,0.1,0,0.2,0.1,0.3s0.1,0.1,0.2,0.2c0.1,0.1,0.1,0.1,0.2,0.1
					c0.1,0,0.2,0,0.3-0.1c0.1-0.1,0.1-0.2,0.1-0.4c0-0.1,0-0.3-0.1-0.4c-0.1-0.1-0.2-0.1-0.3-0.1s-0.2,0-0.3,0.1
					C243.8,551,243.7,551.1,243.7,551.2z"/>
			</g>
			<g>
				<path stroke="#000000" stroke-width="0.25" d="M248.4,560.6h0.3c0,0.1,0.1,0.2,0.1,0.3s0.1,0.1,0.2,0.1c0.1,0,0.2,0,0.2-0.1
					c0-0.1,0.1-0.1,0.2-0.1c0-0.1,0.1-0.1,0.1-0.3c0-0.2,0-0.2,0-0.3c0,0,0,0,0-0.1c-0.1,0.1-0.1,0.2-0.2,0.2
					c-0.1,0.1-0.2,0.1-0.3,0.1c-0.2,0-0.3-0.1-0.5-0.2c-0.2-0.1-0.2-0.3-0.2-0.5s0.1-0.4,0.2-0.5c0.1-0.1,0.3-0.2,0.5-0.2
					c0.1,0,0.3,0,0.4,0.1c0.1,0.1,0.2,0.2,0.3,0.3s0.1,0.3,0.1,0.6c0,0.3,0,0.5-0.1,0.7s-0.1,0.3-0.3,0.4c-0.1,0.1-0.3,0.1-0.4,0.1
					c-0.2,0-0.3,0-0.4-0.1C248.5,560.9,248.4,560.8,248.4,560.6z M249.5,559.7c0-0.2,0-0.3-0.1-0.4c-0.1-0.1-0.2-0.1-0.3-0.1
					s-0.2,0-0.3,0.1c-0.1,0.1-0.1,0.2-0.1,0.4c0,0.1,0,0.2,0.1,0.3s0.2,0.1,0.3,0.1s0.2,0,0.3-0.1
					C249.4,559.9,249.5,559.8,249.5,559.7z"/>
			</g>
			<g>
				<path stroke="#000000" stroke-width="0.25" d="M243.4,570.4h-0.3v-1.8c-0.1,0.1-0.1,0.1-0.2,0.2c-0.1,0.1-0.2,0.1-0.3,0.1v-0.3
					c0.1-0.1,0.3-0.2,0.4-0.3c0.1-0.1,0.2-0.2,0.2-0.3h0.2L243.4,570.4L243.4,570.4z"/>
				<path stroke="#000000" stroke-width="0.25" d="M244,569.3c0-0.3,0-0.5,0.1-0.6c0.1-0.2,0.1-0.3,0.2-0.4c0.1-0.1,0.2-0.1,0.4-0.1
					c0.1,0,0.2,0,0.3,0.1c0.1,0,0.2,0.1,0.2,0.2c0,0.1,0.1,0.2,0.1,0.3s0,0.3,0,0.5c0,0.3,0,0.5-0.1,0.6c-0.1,0.2-0.1,0.3-0.2,0.4
					c-0.1,0.1-0.2,0.1-0.4,0.1s-0.4-0.1-0.5-0.2C244.1,570,244,569.7,244,569.3z M244.3,569.3c0,0.4,0,0.6,0.1,0.7
					c0.1,0.1,0.2,0.2,0.3,0.2s0.2-0.1,0.3-0.2c0.1-0.1,0.1-0.4,0.1-0.7c0-0.4,0-0.6-0.1-0.7c-0.1-0.1-0.2-0.2-0.3-0.2
					s-0.2,0.1-0.3,0.2C244.4,568.6,244.3,568.9,244.3,569.3z"/>
			</g>
			<line fill="none" stroke="#000000" stroke-width="0.5" x1="229.4" y1="565.3" x2="230.5" y2="564.8"/>
			<line fill="none" stroke="#000000" stroke-width="0.5" x1="229.6" y1="554.4" x2="230.7" y2="555.1"/>
			<line fill="none" stroke="#000000" stroke-width="0.5" x1="247.2" y1="564.6" x2="248.2" y2="565.3"/>
			<line fill="none" stroke="#000000" stroke-width="0.5" x1="247.2" y1="555.5" x2="248.2" y2="554.8"/>
			<line fill="none" stroke="#000000" stroke-width="0.5" x1="238.7" y1="550.6" x2="238.7" y2="549.4"/>
		</g>
	</g>
	<g>
		<g>
		</g>
		<path d="M274.7,559L274.7,559c0-3.8-3.1-6.9-6.8-6.9c-3.7,0-6.8,3.1-6.8,6.8c0,0.5,0.1,1,0.1,1.4c0,0,0,0,0,0.1
			c0,3.7,3.1,6.8,6.8,6.8c3.7,0,6.8-3.1,6.8-6.8C274.8,560,274.8,559.6,274.7,559z"/>
		<path fill="#E5C8AB" d="M273.5,558.3c0,3.1-2.6,5.5-5.5,5.5c-3.1,0-5.5-2.5-5.5-5.5s2.6-5.7,5.5-5.7
			C271,552.6,273.5,555.2,273.5,558.3z"/>
		<rect x="267.7" y="553.8" fill="#241C19" width="0.9" height="4.9"/>
		<path fill="#9A6D45" d="M267.2,558.1l-4.6-1.8c0,0,0.6-1.7,2-2.6L267.2,558.1z"/>
		<path fill="#9A6D45" d="M268.2,558.7l5,1.5c0,0-0.9,2.1-2.5,2.9L268.2,558.7z"/>
		<path fill="#FDFDF4" d="M268.7,557.9l4.5-1.6c0,0-0.2-1-0.9-1.6L268.7,557.9z"/>
		<path fill="#FEEED2" d="M267.1,558.6l-4.4,1.6c0,0,0.2,0.6,0.9,1.5L267.1,558.6z"/>
		<g>
			<g>
				<path stroke="#000000" stroke-width="0.25" d="M262.2,568.7c0-0.3,0-0.5,0.1-0.6c0.1-0.2,0.1-0.3,0.2-0.4
					c0.1-0.1,0.2-0.1,0.4-0.1c0.1,0,0.2,0,0.3,0.1c0.1,0,0.2,0.1,0.2,0.2c0,0.1,0.1,0.2,0.1,0.3s0,0.3,0,0.5c0,0.3,0,0.5-0.1,0.6
					c-0.1,0.2-0.1,0.3-0.2,0.4c-0.1,0.1-0.2,0.1-0.4,0.1c-0.2,0-0.4-0.1-0.5-0.2C262.3,569.5,262.2,569.2,262.2,568.7z M262.6,568.7
					c0,0.4,0,0.6,0.1,0.7c0.1,0.1,0.2,0.2,0.3,0.2c0.1,0,0.2-0.1,0.3-0.2c0.1-0.1,0.1-0.4,0.1-0.7c0-0.4,0-0.6-0.1-0.7
					c-0.1-0.1-0.2-0.2-0.3-0.2c-0.1,0-0.2,0.1-0.3,0.2C262.6,568.1,262.6,568.3,262.6,568.7z"/>
			</g>
			<g>
				<path stroke="#000000" stroke-width="0.25" d="M258.7,560.4v0.3h-1.5c0-0.1,0-0.1,0-0.2c0-0.1,0.1-0.2,0.2-0.3s0.2-0.2,0.3-0.3
					c0.2-0.2,0.4-0.3,0.5-0.5c0.1-0.1,0.1-0.2,0.1-0.3s0-0.2-0.1-0.3s-0.2-0.1-0.3-0.1s-0.2,0-0.3,0.1c-0.1,0.1-0.1,0.2-0.1,0.3
					h-0.3c0-0.2,0.1-0.4,0.2-0.5c0.1-0.1,0.3-0.2,0.5-0.2s0.4,0.1,0.5,0.2c0.1,0.1,0.2,0.3,0.2,0.4c0,0.1,0,0.2-0.1,0.3
					s-0.1,0.2-0.2,0.3s-0.2,0.2-0.4,0.4c-0.2,0.1-0.3,0.2-0.3,0.3l-0.1,0.1H258.7L258.7,560.4z"/>
			</g>
			<g>
				<path stroke="#000000" stroke-width="0.25" d="M263.3,551.5V551h-1v-0.2l1.1-1.5h0.2v1.5h0.3v0.2h-0.3v0.5H263.3z M263.3,550.7
					v-1.1l-0.7,1.1H263.3z"/>
			</g>
			<g>
				<path stroke="#000000" stroke-width="0.25" d="M274.2,549.7h-0.3c0-0.1-0.1-0.2-0.1-0.2c-0.1-0.1-0.2-0.1-0.3-0.1
					c-0.1,0-0.2,0-0.2,0.1c-0.1,0.1-0.1,0.1-0.2,0.3c-0.1,0.2-0.1,0.3-0.1,0.5c0.1-0.1,0.1-0.2,0.2-0.2s0.2-0.1,0.3-0.1
					c0.2,0,0.3,0.1,0.4,0.2c0.1,0.1,0.2,0.3,0.2,0.5c0,0.1,0,0.3-0.1,0.4c-0.1,0.1-0.1,0.2-0.2,0.3s-0.2,0.1-0.3,0.1
					c-0.2,0-0.4-0.1-0.5-0.2c-0.1-0.2-0.2-0.4-0.2-0.9c0-0.4,0.1-0.7,0.2-1c0.1-0.2,0.3-0.2,0.5-0.2s0.3,0,0.4,0.1
					C274.1,549.4,274.2,549.5,274.2,549.7z M273,550.7c0,0.1,0,0.2,0.1,0.3s0.1,0.1,0.2,0.2c0.1,0.1,0.1,0.1,0.2,0.1s0.2,0,0.3-0.1
					c0.1-0.1,0.1-0.2,0.1-0.4c0-0.1,0-0.3-0.1-0.4c-0.1-0.1-0.2-0.1-0.3-0.1c-0.1,0-0.2,0-0.3,0.1C273.1,550.5,273,550.6,273,550.7z
					"/>
			</g>
			<g>
				<path stroke="#000000" stroke-width="0.25" d="M277.7,560.1h0.3c0,0.1,0.1,0.2,0.1,0.3s0.1,0.1,0.2,0.1s0.2,0,0.2-0.1
					c0-0.1,0.1-0.1,0.2-0.1c0-0.1,0.1-0.1,0.1-0.3s0-0.2,0-0.3c0,0,0,0,0-0.1c-0.1,0.1-0.1,0.2-0.2,0.2c-0.1,0.1-0.2,0.1-0.3,0.1
					c-0.2,0-0.3-0.1-0.5-0.2c-0.2-0.1-0.2-0.3-0.2-0.5s0.1-0.4,0.2-0.5c0.1-0.1,0.3-0.2,0.5-0.2c0.1,0,0.3,0,0.4,0.1
					c0.1,0.1,0.2,0.2,0.3,0.3c0.1,0.1,0.1,0.3,0.1,0.6s0,0.5-0.1,0.7s-0.1,0.3-0.3,0.4c-0.1,0.1-0.3,0.1-0.4,0.1
					c-0.2,0-0.3,0-0.4-0.1C277.8,560.4,277.7,560.3,277.7,560.1z M278.9,559.1c0-0.2,0-0.3-0.1-0.4c-0.1-0.1-0.2-0.1-0.3-0.1
					c-0.1,0-0.2,0-0.3,0.1c-0.1,0.1-0.1,0.2-0.1,0.4c0,0.1,0,0.2,0.1,0.3s0.2,0.1,0.3,0.1c0.1,0,0.2,0,0.3-0.1
					C278.8,559.3,278.9,559.2,278.9,559.1z"/>
			</g>
			<g>
				<path stroke="#000000" stroke-width="0.25" d="M272.7,569.9h-0.3v-1.8c-0.1,0.1-0.1,0.1-0.2,0.2c-0.1,0.1-0.2,0.1-0.3,0.1v-0.3
					c0.1-0.1,0.3-0.2,0.4-0.3s0.2-0.2,0.2-0.3h0.2L272.7,569.9L272.7,569.9z"/>
				<path stroke="#000000" stroke-width="0.25" d="M273.3,568.7c0-0.3,0-0.5,0.1-0.6c0.1-0.2,0.1-0.3,0.2-0.4
					c0.1-0.1,0.2-0.1,0.4-0.1c0.1,0,0.2,0,0.3,0.1c0.1,0,0.2,0.1,0.2,0.2c0,0.1,0.1,0.2,0.1,0.3s0,0.3,0,0.5c0,0.3,0,0.5-0.1,0.6
					c-0.1,0.2-0.1,0.3-0.2,0.4c-0.1,0.1-0.2,0.1-0.4,0.1c-0.2,0-0.4-0.1-0.5-0.2C273.4,569.5,273.3,569.2,273.3,568.7z M273.6,568.7
					c0,0.4,0,0.6,0.1,0.7c0.1,0.1,0.2,0.2,0.3,0.2s0.2-0.1,0.3-0.2c0.1-0.1,0.1-0.4,0.1-0.7c0-0.4,0-0.6-0.1-0.7
					c-0.1-0.1-0.2-0.2-0.3-0.2c-0.1,0-0.2,0.1-0.3,0.2C273.7,568.1,273.6,568.4,273.6,568.7z"/>
			</g>
			<line fill="none" stroke="#000000" stroke-width="0.5" x1="258.7" y1="564.8" x2="259.8" y2="564.2"/>
			<line fill="none" stroke="#000000" stroke-width="0.5" x1="258.9" y1="553.9" x2="260" y2="554.5"/>
			<line fill="none" stroke="#000000" stroke-width="0.5" x1="276.5" y1="564" x2="277.5" y2="564.8"/>
			<line fill="none" stroke="#000000" stroke-width="0.5" x1="276.5" y1="555" x2="277.5" y2="554.2"/>
			<line fill="none" stroke="#000000" stroke-width="0.5" x1="268" y1="550.1" x2="268" y2="548.9"/>
		</g>
	</g>
	<g>
		<g>
		</g>
		<path d="M304,559.6L304,559.6c0-3.8-3.1-6.9-6.8-6.9c-3.7,0-6.8,3.1-6.8,6.8c0,0.5,0.1,1,0.1,1.4c0,0,0,0,0,0.1
			c0,3.7,3.1,6.8,6.8,6.8c3.7,0,6.8-3.1,6.8-6.8C304.1,560.5,304.1,560.1,304,559.6z"/>
		<path fill="#E5C8AB" d="M302.9,558.8c0,3.1-2.6,5.5-5.5,5.5c-3.1,0-5.5-2.5-5.5-5.5s2.6-5.7,5.5-5.7S302.9,555.7,302.9,558.8z"/>
		<rect x="297" y="554.3" fill="#241C19" width="0.9" height="4.9"/>
		<path fill="#9A6D45" d="M296.6,558.6l-4.6-1.8c0,0,0.6-1.7,2-2.6L296.6,558.6z"/>
		<path fill="#9A6D45" d="M297.5,559.2l5,1.5c0,0-0.9,2.1-2.5,2.9L297.5,559.2z"/>
		<path fill="#FDFDF4" d="M298.1,558.4l4.5-1.6c0,0-0.2-1-0.9-1.6L298.1,558.4z"/>
		<path fill="#FEEED2" d="M296.5,559.1l-4.4,1.6c0,0,0.2,0.6,0.9,1.5L296.5,559.1z"/>
		<g>
			<g>
				<path stroke="#000000" stroke-width="0.25" d="M291.6,569.3c0-0.3,0-0.5,0.1-0.6c0.1-0.2,0.1-0.3,0.2-0.4
					c0.1-0.1,0.2-0.1,0.4-0.1c0.1,0,0.2,0,0.3,0.1c0.1,0,0.2,0.1,0.2,0.2c0,0.1,0.1,0.2,0.1,0.3s0,0.3,0,0.5c0,0.3,0,0.5-0.1,0.6
					c-0.1,0.2-0.1,0.3-0.2,0.4c-0.1,0.1-0.2,0.1-0.4,0.1c-0.2,0-0.4-0.1-0.5-0.2C291.7,570,291.6,569.7,291.6,569.3z M291.9,569.3
					c0,0.4,0,0.6,0.1,0.7c0.1,0.1,0.2,0.2,0.3,0.2s0.2-0.1,0.3-0.2c0.1-0.1,0.1-0.4,0.1-0.7c0-0.4,0-0.6-0.1-0.7
					c-0.1-0.1-0.2-0.2-0.3-0.2c-0.1,0-0.2,0.1-0.3,0.2C291.9,568.6,291.9,568.8,291.9,569.3z"/>
			</g>
			<g>
				<path stroke="#000000" stroke-width="0.25" d="M288,560.9v0.3h-1.5c0-0.1,0-0.1,0-0.2c0-0.1,0.1-0.2,0.2-0.3s0.2-0.2,0.3-0.3
					c0.2-0.2,0.4-0.3,0.5-0.5c0.1-0.1,0.1-0.2,0.1-0.3s0-0.2-0.1-0.3s-0.2-0.1-0.3-0.1c-0.1,0-0.2,0-0.3,0.1
					c-0.1,0.1-0.1,0.2-0.1,0.3h-0.3c0-0.2,0.1-0.4,0.2-0.5c0.1-0.1,0.3-0.2,0.5-0.2s0.4,0.1,0.5,0.2c0.1,0.1,0.2,0.3,0.2,0.4
					c0,0.1,0,0.2-0.1,0.3s-0.1,0.2-0.2,0.3s-0.2,0.2-0.4,0.4c-0.2,0.1-0.3,0.2-0.3,0.3l-0.1,0.1H288L288,560.9z"/>
			</g>
			<g>
				<path stroke="#000000" stroke-width="0.25" d="M292.6,552v-0.5h-1v-0.2l1.1-1.5h0.2v1.5h0.3v0.2h-0.3v0.5H292.6z M292.6,551.2
					v-1.1l-0.7,1.1H292.6z"/>
			</g>
			<g>
				<path stroke="#000000" stroke-width="0.25" d="M303.5,550.3h-0.3c0-0.1-0.1-0.2-0.1-0.2c-0.1-0.1-0.2-0.1-0.3-0.1
					c-0.1,0-0.2,0-0.2,0.1c-0.1,0.1-0.1,0.1-0.2,0.3c-0.1,0.2-0.1,0.3-0.1,0.5c0.1-0.1,0.1-0.2,0.2-0.2s0.2-0.1,0.3-0.1
					c0.2,0,0.3,0.1,0.4,0.2c0.1,0.1,0.2,0.3,0.2,0.5c0,0.1,0,0.3-0.1,0.4c-0.1,0.1-0.1,0.2-0.2,0.3s-0.2,0.1-0.3,0.1
					c-0.2,0-0.4-0.1-0.5-0.2c-0.1-0.2-0.2-0.4-0.2-0.9s0.1-0.7,0.2-1c0.1-0.2,0.3-0.2,0.5-0.2s0.3,0,0.4,0.1
					C303.4,550,303.5,550.1,303.5,550.3z M302.3,551.2c0,0.1,0,0.2,0.1,0.3s0.1,0.1,0.2,0.2c0.1,0.1,0.1,0.1,0.2,0.1s0.2,0,0.3-0.1
					c0.1-0.1,0.1-0.2,0.1-0.4c0-0.1,0-0.3-0.1-0.4c-0.1-0.1-0.2-0.1-0.3-0.1c-0.1,0-0.2,0-0.3,0.1
					C302.4,551,302.3,551.1,302.3,551.2z"/>
			</g>
			<g>
				<path stroke="#000000" stroke-width="0.25" d="M307,560.6h0.3c0,0.1,0.1,0.2,0.1,0.3s0.1,0.1,0.2,0.1s0.2,0,0.2-0.1
					c0-0.1,0.1-0.1,0.2-0.1c0-0.1,0.1-0.1,0.1-0.3c0-0.2,0-0.2,0-0.3c0,0,0,0,0-0.1c-0.1,0.1-0.1,0.2-0.2,0.2
					c-0.1,0.1-0.2,0.1-0.3,0.1c-0.2,0-0.3-0.1-0.5-0.2c-0.2-0.1-0.2-0.3-0.2-0.5s0.1-0.4,0.2-0.5c0.1-0.1,0.3-0.2,0.5-0.2
					c0.1,0,0.3,0,0.4,0.1c0.1,0.1,0.2,0.2,0.3,0.3c0.1,0.1,0.1,0.3,0.1,0.6c0,0.3,0,0.5-0.1,0.7s-0.1,0.3-0.3,0.4
					c-0.1,0.1-0.3,0.1-0.4,0.1c-0.2,0-0.3,0-0.4-0.1C307.1,560.9,307,560.8,307,560.6z M308.2,559.7c0-0.2,0-0.3-0.1-0.4
					c-0.1-0.1-0.2-0.1-0.3-0.1c-0.1,0-0.2,0-0.3,0.1c-0.1,0.1-0.1,0.2-0.1,0.4c0,0.1,0,0.2,0.1,0.3s0.2,0.1,0.3,0.1
					c0.1,0,0.2,0,0.3-0.1C308.1,559.9,308.2,559.8,308.2,559.7z"/>
			</g>
			<g>
				<path stroke="#000000" stroke-width="0.25" d="M302,570.4h-0.3v-1.8c-0.1,0.1-0.1,0.1-0.2,0.2c-0.1,0.1-0.2,0.1-0.3,0.1v-0.3
					c0.1-0.1,0.3-0.2,0.4-0.3c0.1-0.1,0.2-0.2,0.2-0.3h0.2L302,570.4L302,570.4z"/>
				<path stroke="#000000" stroke-width="0.25" d="M302.6,569.3c0-0.3,0-0.5,0.1-0.6c0.1-0.2,0.1-0.3,0.2-0.4
					c0.1-0.1,0.2-0.1,0.4-0.1c0.1,0,0.2,0,0.3,0.1c0.1,0,0.2,0.1,0.2,0.2c0,0.1,0.1,0.2,0.1,0.3s0,0.3,0,0.5c0,0.3,0,0.5-0.1,0.6
					c-0.1,0.2-0.1,0.3-0.2,0.4c-0.1,0.1-0.2,0.1-0.4,0.1c-0.2,0-0.4-0.1-0.5-0.2C302.7,570,302.6,569.7,302.6,569.3z M303,569.3
					c0,0.4,0,0.6,0.1,0.7c0.1,0.1,0.2,0.2,0.3,0.2s0.2-0.1,0.3-0.2c0.1-0.1,0.1-0.4,0.1-0.7c0-0.4,0-0.6-0.1-0.7
					c-0.1-0.1-0.2-0.2-0.3-0.2c-0.1,0-0.2,0.1-0.3,0.2C303.1,568.6,303,568.9,303,569.3z"/>
			</g>
			<line fill="none" stroke="#000000" stroke-width="0.5" x1="288" y1="565.3" x2="289.1" y2="564.8"/>
			<line fill="none" stroke="#000000" stroke-width="0.5" x1="288.2" y1="554.4" x2="289.3" y2="555.1"/>
			<line fill="none" stroke="#000000" stroke-width="0.5" x1="305.8" y1="564.6" x2="306.8" y2="565.3"/>
			<line fill="none" stroke="#000000" stroke-width="0.5" x1="305.8" y1="555.5" x2="306.8" y2="554.8"/>
			<line fill="none" stroke="#000000" stroke-width="0.5" x1="297.3" y1="550.6" x2="297.3" y2="549.4"/>
		</g>
	</g>
	<g>
		<g>
		</g>
		<path d="M336.5,559.9C336.5,559.8,336.5,559.8,336.5,559.9c0-3.8-3.1-6.9-6.8-6.9c-3.7,0-6.8,3.1-6.8,6.8c0,0.5,0.1,1,0.1,1.4
			c0,0,0,0,0,0.1c0,3.7,3.1,6.8,6.8,6.8c3.7,0,6.8-3.1,6.8-6.8C336.8,560.7,336.7,560.3,336.5,559.9z"/>
		<path fill="#E5C8AB" d="M335.4,559c0,3.1-2.6,5.5-5.5,5.5c-3.1,0-5.5-2.5-5.5-5.5s2.6-5.7,5.5-5.7
			C332.9,553.4,335.4,555.9,335.4,559z"/>
		<rect x="329.5" y="554.5" fill="#241C19" width="0.9" height="4.9"/>
		<path fill="#9A6D45" d="M329.1,558.8l-4.6-1.8c0,0,0.6-1.7,2-2.6L329.1,558.8z"/>
		<path fill="#9A6D45" d="M330.1,559.5l5,1.5c0,0-0.9,2.1-2.5,2.9L330.1,559.5z"/>
		<path fill="#FDFDF4" d="M330.6,558.6l4.5-1.6c0,0-0.2-1-0.9-1.6L330.6,558.6z"/>
		<path fill="#FEEED2" d="M329,559.3l-4.4,1.6c0,0,0.2,0.6,0.9,1.5L329,559.3z"/>
		<g>
			<g>
				<path stroke="#000000" stroke-width="0.25" d="M324.1,569.5c0-0.3,0-0.5,0.1-0.6c0.1-0.2,0.1-0.3,0.2-0.4
					c0.1-0.1,0.2-0.1,0.4-0.1c0.1,0,0.2,0,0.3,0.1c0.1,0,0.2,0.1,0.2,0.2c0,0.1,0.1,0.2,0.1,0.3s0,0.3,0,0.5c0,0.3,0,0.5-0.1,0.6
					c-0.1,0.2-0.1,0.3-0.2,0.4c-0.1,0.1-0.2,0.1-0.4,0.1c-0.2,0-0.4-0.1-0.5-0.2C324.2,570.2,324.1,569.9,324.1,569.5z M324.4,569.5
					c0,0.4,0,0.6,0.1,0.7c0.1,0.1,0.2,0.2,0.3,0.2s0.2-0.1,0.3-0.2c0.1-0.1,0.1-0.4,0.1-0.7c0-0.4,0-0.6-0.1-0.7
					c-0.1-0.1-0.2-0.2-0.3-0.2c-0.1,0-0.2,0.1-0.3,0.2C324.5,568.8,324.4,569,324.4,569.5z"/>
			</g>
			<g>
				<path stroke="#000000" stroke-width="0.25" d="M320.6,561.2v0.3h-1.5c0-0.1,0-0.1,0-0.2c0-0.1,0.1-0.2,0.2-0.3s0.2-0.2,0.3-0.3
					c0.2-0.2,0.4-0.3,0.5-0.5c0.1-0.1,0.1-0.2,0.1-0.3s0-0.2-0.1-0.3s-0.2-0.1-0.3-0.1c-0.1,0-0.2,0-0.3,0.1
					c-0.1,0.1-0.1,0.2-0.1,0.3h-0.3c0-0.2,0.1-0.4,0.2-0.5c0.1-0.1,0.3-0.2,0.5-0.2s0.4,0.1,0.5,0.2c0.1,0.1,0.2,0.3,0.2,0.4
					c0,0.1,0,0.2-0.1,0.3s-0.1,0.2-0.2,0.3s-0.2,0.2-0.4,0.4c-0.2,0.1-0.3,0.2-0.3,0.3l-0.1,0.1H320.6L320.6,561.2z"/>
			</g>
			<g>
				<path stroke="#000000" stroke-width="0.25" d="M325.1,552.2v-0.5h-1v-0.2l1.1-1.5h0.2v1.5h0.3v0.2h-0.3v0.5H325.1z M325.1,551.5
					v-1.1l-0.7,1.1H325.1z"/>
			</g>
			<g>
				<path stroke="#000000" stroke-width="0.25" d="M336.1,550.5h-0.3c0-0.1-0.1-0.2-0.1-0.2c-0.1-0.1-0.2-0.1-0.3-0.1
					c-0.1,0-0.2,0-0.2,0.1c-0.1,0.1-0.1,0.1-0.2,0.3s-0.1,0.3-0.1,0.5c0.1-0.1,0.1-0.2,0.2-0.2s0.2-0.1,0.3-0.1
					c0.2,0,0.3,0.1,0.4,0.2c0.1,0.1,0.2,0.3,0.2,0.5c0,0.1,0,0.3-0.1,0.4c-0.1,0.1-0.1,0.2-0.2,0.3s-0.2,0.1-0.3,0.1
					c-0.2,0-0.4-0.1-0.5-0.2c-0.1-0.2-0.2-0.4-0.2-0.9s0.1-0.7,0.2-1s0.3-0.2,0.5-0.2s0.3,0,0.4,0.1
					C336,550.2,336,550.3,336.1,550.5z M334.9,551.5c0,0.1,0,0.2,0.1,0.3c0,0.1,0.1,0.1,0.2,0.2c0.1,0.1,0.1,0.1,0.2,0.1
					s0.2,0,0.3-0.1c0.1-0.1,0.1-0.2,0.1-0.4c0-0.1,0-0.3-0.1-0.4c-0.1-0.1-0.2-0.1-0.3-0.1c-0.1,0-0.2,0-0.3,0.1
					C334.9,551.2,334.9,551.3,334.9,551.5z"/>
			</g>
			<g>
				<path stroke="#000000" stroke-width="0.25" d="M339.5,560.8h0.3c0,0.1,0.1,0.2,0.1,0.3s0.1,0.1,0.2,0.1s0.2,0,0.2-0.1
					c0.1,0,0.1-0.1,0.2-0.1c0-0.1,0.1-0.1,0.1-0.3s0-0.2,0-0.3c0,0,0,0,0-0.1c-0.1,0.1-0.1,0.2-0.2,0.2c-0.1,0.1-0.2,0.1-0.3,0.1
					c-0.2,0-0.3-0.1-0.5-0.2c-0.2-0.1-0.2-0.3-0.2-0.5s0.1-0.4,0.2-0.5c0.1-0.1,0.3-0.2,0.5-0.2c0.1,0,0.3,0,0.4,0.1
					c0.1,0.1,0.2,0.2,0.3,0.3c0.1,0.1,0.1,0.3,0.1,0.6s0,0.5-0.1,0.7s-0.1,0.3-0.3,0.4c-0.1,0.1-0.3,0.1-0.4,0.1
					c-0.2,0-0.3,0-0.4-0.1C339.6,561.2,339.5,561.1,339.5,560.8z M340.7,559.9c0-0.2,0-0.3-0.1-0.4c-0.1-0.1-0.2-0.1-0.3-0.1
					c-0.1,0-0.2,0-0.3,0.1c-0.1,0.1-0.1,0.2-0.1,0.4c0,0.1,0,0.2,0.1,0.3s0.2,0.1,0.3,0.1c0.1,0,0.2,0,0.3-0.1
					C340.6,560.1,340.7,560,340.7,559.9z"/>
			</g>
			<g>
				<path stroke="#000000" stroke-width="0.25" d="M334.5,570.6h-0.3v-1.8c-0.1,0.1-0.1,0.1-0.2,0.2c-0.1,0.1-0.2,0.1-0.3,0.1v-0.3
					c0.1-0.1,0.3-0.2,0.4-0.3s0.2-0.2,0.2-0.3h0.2L334.5,570.6L334.5,570.6z"/>
				<path stroke="#000000" stroke-width="0.25" d="M335.3,569.5c0-0.3,0-0.5,0.1-0.6c0.1-0.2,0.1-0.3,0.2-0.4
					c0.1-0.1,0.2-0.1,0.4-0.1c0.1,0,0.2,0,0.3,0.1c0.1,0,0.2,0.1,0.2,0.2c0,0.1,0.1,0.2,0.1,0.3s0,0.3,0,0.5c0,0.3,0,0.5-0.1,0.6
					c-0.1,0.2-0.1,0.3-0.2,0.4c-0.1,0.1-0.2,0.1-0.4,0.1c-0.2,0-0.4-0.1-0.5-0.2C335.3,570.2,335.3,569.9,335.3,569.5z M335.5,569.5
					c0,0.4,0,0.6,0.1,0.7c0.1,0.1,0.2,0.2,0.3,0.2s0.2-0.1,0.3-0.2c0.1-0.1,0.1-0.4,0.1-0.7c0-0.4,0-0.6-0.1-0.7
					c-0.1-0.1-0.2-0.2-0.3-0.2c-0.1,0-0.2,0.1-0.3,0.2C335.6,568.8,335.5,569.2,335.5,569.5z"/>
			</g>
			<line fill="none" stroke="#000000" stroke-width="0.5" x1="320.7" y1="565.5" x2="321.7" y2="565"/>
			<line fill="none" stroke="#000000" stroke-width="0.5" x1="320.9" y1="554.7" x2="321.8" y2="555.3"/>
			<line fill="none" stroke="#000000" stroke-width="0.5" x1="338.4" y1="564.8" x2="339.3" y2="565.5"/>
			<line fill="none" stroke="#000000" stroke-width="0.5" x1="338.4" y1="555.7" x2="339.3" y2="555"/>
			<line fill="none" stroke="#000000" stroke-width="0.5" x1="329.8" y1="550.8" x2="329.8" y2="549.6"/>
		</g>
	</g>
	<g>
		<g>
		</g>
		<path d="M374.3,559.1L374.3,559.1c0-3.8-3.1-6.9-6.8-6.9c-3.7,0-6.8,3.1-6.8,6.8c0,0.5,0.1,1,0.1,1.4c0,0,0,0,0,0.1
			c0,3.7,3.1,6.8,6.8,6.8c3.7,0,6.8-3.1,6.8-6.8C374.4,560.1,374.4,559.6,374.3,559.1z"/>
		<path fill="#E5C8AB" d="M373.1,558.3c0,3.1-2.6,5.5-5.5,5.5c-3.1,0-5.5-2.5-5.5-5.5s2.6-5.7,5.5-5.7
			C370.6,552.7,373.1,555.2,373.1,558.3z"/>
		<rect x="367.1" y="553.8" fill="#241C19" width="0.9" height="4.9"/>
		<path fill="#9A6D45" d="M366.8,558.2l-4.6-1.8c0,0,0.6-1.7,2-2.6L366.8,558.2z"/>
		<path fill="#9A6D45" d="M367.8,558.7l5,1.5c0,0-0.9,2.1-2.5,2.9L367.8,558.7z"/>
		<path fill="#FDFDF4" d="M368.2,558l4.5-1.6c0,0-0.2-1-0.9-1.6L368.2,558z"/>
		<path fill="#FEEED2" d="M366.7,558.7l-4.4,1.6c0,0,0.2,0.6,0.9,1.5L366.7,558.7z"/>
		<g>
			<g>
				<path stroke="#000000" stroke-width="0.25" d="M361.8,568.7c0-0.3,0-0.5,0.1-0.6c0.1-0.2,0.1-0.3,0.2-0.4
					c0.1-0.1,0.2-0.1,0.4-0.1c0.1,0,0.2,0,0.3,0.1c0.1,0,0.2,0.1,0.2,0.2c0,0.1,0.1,0.2,0.1,0.3s0,0.3,0,0.5c0,0.3,0,0.5-0.1,0.6
					c-0.1,0.2-0.1,0.3-0.2,0.4c-0.1,0.1-0.2,0.1-0.4,0.1s-0.4-0.1-0.5-0.2C361.9,569.5,361.8,569.2,361.8,568.7z M362.1,568.7
					c0,0.4,0,0.6,0.1,0.7c0.1,0.1,0.2,0.2,0.3,0.2s0.2-0.1,0.3-0.2c0.1-0.1,0.1-0.4,0.1-0.7c0-0.4,0-0.6-0.1-0.7
					c-0.1-0.1-0.2-0.2-0.3-0.2c-0.1,0-0.2,0.1-0.3,0.2C362.1,568.1,362.1,568.4,362.1,568.7z"/>
			</g>
			<g>
				<path stroke="#000000" stroke-width="0.25" d="M358.2,560.5v0.3h-1.5c0-0.1,0-0.1,0-0.2c0-0.1,0.1-0.2,0.2-0.3s0.2-0.2,0.3-0.3
					c0.2-0.2,0.4-0.3,0.5-0.5c0.1-0.1,0.1-0.2,0.1-0.3s0-0.2-0.1-0.3c-0.1-0.1-0.2-0.1-0.3-0.1c-0.1,0-0.2,0-0.3,0.1
					c-0.1,0.1-0.1,0.2-0.1,0.3h-0.3c0-0.2,0.1-0.4,0.2-0.5c0.1-0.1,0.3-0.2,0.5-0.2s0.4,0.1,0.5,0.2c0.1,0.1,0.2,0.3,0.2,0.4
					c0,0.1,0,0.2-0.1,0.3s-0.1,0.2-0.2,0.3c-0.1,0.1-0.2,0.2-0.4,0.4c-0.2,0.1-0.3,0.2-0.3,0.3l-0.1,0.1L358.2,560.5L358.2,560.5z"
					/>
			</g>
			<g>
				<path stroke="#000000" stroke-width="0.25" d="M362.8,551.6v-0.5h-1v-0.3l1.1-1.5h0.2v1.5h0.3v0.2h-0.3v0.5L362.8,551.6
					L362.8,551.6L362.8,551.6z M362.8,550.7v-1.1l-0.7,1.1H362.8z"/>
			</g>
			<g>
				<path stroke="#000000" stroke-width="0.25" d="M373.8,549.9h-0.3c0-0.1-0.1-0.2-0.1-0.2c-0.1-0.1-0.2-0.1-0.3-0.1
					c-0.1,0-0.2,0-0.2,0.1c-0.1,0.1-0.1,0.1-0.2,0.3c-0.1,0.2-0.1,0.3-0.1,0.5c0.1-0.1,0.1-0.2,0.2-0.2s0.2-0.1,0.3-0.1
					c0.2,0,0.3,0.1,0.4,0.2c0.1,0.1,0.2,0.3,0.2,0.5c0,0.1,0,0.3-0.1,0.4c-0.1,0.1-0.1,0.2-0.2,0.3s-0.2,0.1-0.3,0.1
					c-0.2,0-0.4-0.1-0.5-0.2c-0.1-0.2-0.2-0.4-0.2-0.9s0.1-0.7,0.2-1c0.1-0.2,0.3-0.2,0.5-0.2s0.3,0,0.4,0.1
					C373.7,549.5,373.8,549.6,373.8,549.9z M372.6,550.8c0,0.1,0,0.2,0.1,0.3c0,0.1,0.1,0.1,0.2,0.2c0.1,0.1,0.1,0.1,0.2,0.1
					s0.2,0,0.3-0.1c0.1-0.1,0.1-0.2,0.1-0.4c0-0.1,0-0.3-0.1-0.4c-0.1-0.1-0.2-0.1-0.3-0.1c-0.1,0-0.2,0-0.3,0.1
					C372.7,550.5,372.6,550.7,372.6,550.8z"/>
			</g>
			<g>
				<path stroke="#000000" stroke-width="0.25" d="M377.3,560.2h0.3c0,0.1,0.1,0.2,0.1,0.3s0.1,0.1,0.2,0.1s0.2,0,0.2-0.1
					c0.1,0,0.1-0.1,0.2-0.1c0-0.1,0.1-0.1,0.1-0.3c0-0.2,0-0.2,0-0.3c0,0,0,0,0-0.1c-0.1,0.1-0.1,0.2-0.2,0.2
					c-0.1,0.1-0.2,0.1-0.3,0.1c-0.2,0-0.3-0.1-0.5-0.2c-0.2-0.1-0.2-0.3-0.2-0.5s0.1-0.4,0.2-0.5c0.1-0.1,0.3-0.2,0.5-0.2
					c0.1,0,0.3,0,0.4,0.1c0.1,0.1,0.2,0.2,0.3,0.3c0.1,0.1,0.1,0.3,0.1,0.6c0,0.3,0,0.5-0.1,0.7s-0.1,0.3-0.3,0.4
					c-0.1,0.1-0.3,0.1-0.4,0.1c-0.2,0-0.3,0-0.4-0.1C377.3,560.5,377.3,560.3,377.3,560.2z M378.3,559.1c0-0.2,0-0.3-0.1-0.4
					c-0.1-0.1-0.2-0.1-0.3-0.1c-0.1,0-0.2,0-0.3,0.1c-0.1,0.1-0.1,0.2-0.1,0.4c0,0.1,0,0.2,0.1,0.3s0.2,0.1,0.3,0.1
					c0.1,0,0.2,0,0.3-0.1C378.3,559.5,378.3,559.3,378.3,559.1z"/>
			</g>
			<g>
				<path stroke="#000000" stroke-width="0.25" d="M372.2,569.9h-0.3v-1.8c-0.1,0.1-0.1,0.1-0.2,0.2c-0.1,0.1-0.2,0.1-0.3,0.1v-0.3
					c0.1-0.1,0.3-0.2,0.4-0.3s0.2-0.2,0.2-0.3h0.2L372.2,569.9L372.2,569.9z"/>
				<path stroke="#000000" stroke-width="0.25" d="M372.9,568.8c0-0.3,0-0.5,0.1-0.6c0.1-0.2,0.1-0.3,0.2-0.4
					c0.1-0.1,0.2-0.1,0.4-0.1c0.1,0,0.2,0,0.3,0.1c0.1,0,0.2,0.1,0.2,0.2c0,0.1,0.1,0.2,0.1,0.3s0,0.3,0,0.5c0,0.3,0,0.5-0.1,0.6
					c-0.1,0.2-0.1,0.3-0.2,0.4c-0.1,0.1-0.2,0.1-0.4,0.1c-0.2,0-0.4-0.1-0.5-0.2C373,569.6,372.9,569.3,372.9,568.8z M373.2,568.8
					c0,0.4,0,0.6,0.1,0.7c0.1,0.1,0.2,0.2,0.3,0.2s0.2-0.1,0.3-0.2c0.1-0.1,0.1-0.4,0.1-0.7c0-0.4,0-0.6-0.1-0.7
					c-0.1-0.1-0.2-0.2-0.3-0.2c-0.1,0-0.2,0.1-0.3,0.2C373.2,568.2,373.2,568.4,373.2,568.8z"/>
			</g>
			<line fill="none" stroke="#000000" stroke-width="0.5" x1="358.3" y1="564.9" x2="359.4" y2="564.4"/>
			<line fill="none" stroke="#000000" stroke-width="0.5" x1="358.5" y1="554" x2="359.5" y2="554.7"/>
			<line fill="none" stroke="#000000" stroke-width="0.5" x1="376.1" y1="564.1" x2="377" y2="564.9"/>
			<line fill="none" stroke="#000000" stroke-width="0.5" x1="376" y1="555" x2="377" y2="554.3"/>
			<line fill="none" stroke="#000000" stroke-width="0.5" x1="367.6" y1="550.1" x2="367.6" y2="548.9"/>
		</g>
	</g>
	<g>
		<g>
		</g>
		<path d="M405.8,559.6L405.8,559.6c0-3.8-3.1-6.9-6.8-6.9c-3.7,0-6.8,3.1-6.8,6.8c0,0.5,0.1,1,0.1,1.4c0,0,0,0,0,0.1
			c0,3.7,3.1,6.8,6.8,6.8c3.7,0,6.8-3.1,6.8-6.8C406,560.5,406,560.1,405.8,559.6z"/>
		<path fill="#E5C8AB" d="M404.7,558.8c0,3.1-2.6,5.5-5.5,5.5c-3.1,0-5.5-2.5-5.5-5.5s2.6-5.7,5.5-5.7
			C402.1,553.2,404.7,555.7,404.7,558.8z"/>
		<rect x="398.8" y="554.3" fill="#241C19" width="0.9" height="4.9"/>
		<path fill="#9A6D45" d="M398.4,558.6l-4.6-1.8c0,0,0.6-1.7,2-2.6L398.4,558.6z"/>
		<path fill="#9A6D45" d="M399.3,559.2l5,1.5c0,0-0.9,2.1-2.5,2.9L399.3,559.2z"/>
		<path fill="#FDFDF4" d="M399.9,558.4l4.5-1.6c0,0-0.2-1-0.9-1.6L399.9,558.4z"/>
		<path fill="#FEEED2" d="M398.3,559.1l-4.4,1.6c0,0,0.2,0.6,0.9,1.5L398.3,559.1z"/>
		<g>
			<g>
				<path stroke="#000000" stroke-width="0.25" d="M393.4,569.3c0-0.3,0-0.5,0.1-0.6c0.1-0.2,0.1-0.3,0.2-0.4
					c0.1-0.1,0.2-0.1,0.4-0.1c0.1,0,0.2,0,0.3,0.1c0.1,0,0.2,0.1,0.2,0.2c0,0.1,0.1,0.2,0.1,0.3s0,0.3,0,0.5c0,0.3,0,0.5-0.1,0.6
					c-0.1,0.2-0.1,0.3-0.2,0.4c-0.1,0.1-0.2,0.1-0.4,0.1c-0.2,0-0.4-0.1-0.5-0.2C393.5,570,393.4,569.7,393.4,569.3z M393.7,569.3
					c0,0.4,0,0.6,0.1,0.7c0.1,0.1,0.2,0.2,0.3,0.2s0.2-0.1,0.3-0.2c0.1-0.1,0.1-0.4,0.1-0.7c0-0.4,0-0.6-0.1-0.7
					c-0.1-0.1-0.2-0.2-0.3-0.2c-0.1,0-0.2,0.1-0.3,0.2C393.7,568.6,393.7,568.8,393.7,569.3z"/>
			</g>
			<g>
				<path stroke="#000000" stroke-width="0.25" d="M389.9,560.9v0.3h-1.5c0-0.1,0-0.1,0-0.2c0-0.1,0.1-0.2,0.2-0.3s0.2-0.2,0.3-0.3
					c0.2-0.2,0.4-0.3,0.5-0.5c0.1-0.1,0.1-0.2,0.1-0.3s0-0.2-0.1-0.3s-0.2-0.1-0.3-0.1c-0.1,0-0.2,0-0.3,0.1
					c-0.1,0.1-0.1,0.2-0.1,0.3h-0.3c0-0.2,0.1-0.4,0.2-0.5c0.1-0.1,0.3-0.2,0.5-0.2s0.4,0.1,0.5,0.2c0.1,0.1,0.2,0.3,0.2,0.4
					c0,0.1,0,0.2-0.1,0.3s-0.1,0.2-0.2,0.3s-0.2,0.2-0.4,0.4c-0.2,0.1-0.3,0.2-0.3,0.3l-0.1,0.1H389.9L389.9,560.9z"/>
			</g>
			<g>
				<path stroke="#000000" stroke-width="0.25" d="M394.4,552v-0.5h-1v-0.2l1.1-1.5h0.2v1.5h0.3v0.2h-0.3v0.5H394.4z M394.4,551.2
					v-1.1l-0.7,1.1H394.4z"/>
			</g>
			<g>
				<path stroke="#000000" stroke-width="0.25" d="M405.3,550.3H405c0-0.1-0.1-0.2-0.1-0.2c-0.1-0.1-0.2-0.1-0.3-0.1
					c-0.1,0-0.2,0-0.2,0.1c-0.1,0.1-0.1,0.1-0.2,0.3c-0.1,0.2-0.1,0.3-0.1,0.5c0.1-0.1,0.1-0.2,0.2-0.2s0.2-0.1,0.3-0.1
					c0.2,0,0.3,0.1,0.4,0.2c0.1,0.1,0.2,0.3,0.2,0.5c0,0.1,0,0.3-0.1,0.4c-0.1,0.1-0.1,0.2-0.2,0.3s-0.2,0.1-0.3,0.1
					c-0.2,0-0.4-0.1-0.5-0.2c-0.1-0.2-0.2-0.4-0.2-0.9s0.1-0.7,0.2-1c0.1-0.2,0.3-0.2,0.5-0.2s0.3,0,0.4,0.1
					C405.2,550,405.3,550.1,405.3,550.3z M404.1,551.2c0,0.1,0,0.2,0.1,0.3c0,0.1,0.1,0.1,0.2,0.2c0.1,0.1,0.1,0.1,0.2,0.1
					s0.2,0,0.3-0.1c0.1-0.1,0.1-0.2,0.1-0.4c0-0.1,0-0.3-0.1-0.4c-0.1-0.1-0.2-0.1-0.3-0.1c-0.1,0-0.2,0-0.3,0.1
					C404.3,551,404.1,551.1,404.1,551.2z"/>
			</g>
			<g>
				<path stroke="#000000" stroke-width="0.25" d="M408.8,560.6h0.3c0,0.1,0.1,0.2,0.1,0.3s0.1,0.1,0.2,0.1s0.2,0,0.2-0.1
					c0.1,0,0.1-0.1,0.2-0.1c0-0.1,0.1-0.1,0.1-0.3c0-0.2,0-0.2,0-0.3c0,0,0,0,0-0.1c-0.1,0.1-0.1,0.2-0.2,0.2
					c-0.1,0.1-0.2,0.1-0.3,0.1c-0.2,0-0.3-0.1-0.5-0.2c-0.2-0.1-0.2-0.3-0.2-0.5s0.1-0.4,0.2-0.5c0.1-0.1,0.3-0.2,0.5-0.2
					c0.1,0,0.3,0,0.4,0.1c0.1,0.1,0.2,0.2,0.3,0.3s0.1,0.3,0.1,0.6c0,0.3,0,0.5-0.1,0.7s-0.1,0.3-0.3,0.4c-0.1,0.1-0.3,0.1-0.4,0.1
					c-0.2,0-0.3,0-0.4-0.1C408.9,560.9,408.8,560.8,408.8,560.6z M410,559.7c0-0.2,0-0.3-0.1-0.4c-0.1-0.1-0.2-0.1-0.3-0.1
					c-0.1,0-0.2,0-0.3,0.1c-0.1,0.1-0.1,0.2-0.1,0.4c0,0.1,0,0.2,0.1,0.3s0.2,0.1,0.3,0.1c0.1,0,0.2,0,0.3-0.1
					C409.9,559.9,410,559.8,410,559.7z"/>
			</g>
			<g>
				<path d="M403.8,570.4h-0.3v-1.8c-0.1,0.1-0.1,0.1-0.2,0.2c-0.1,0.1-0.2,0.1-0.3,0.1v-0.3c0.1-0.1,0.3-0.2,0.4-0.3
					c0.1-0.1,0.2-0.2,0.2-0.3h0.2L403.8,570.4L403.8,570.4z"/>
				<path d="M404.5,569.3c0-0.3,0-0.5,0.1-0.6c0.1-0.2,0.1-0.3,0.2-0.4c0.1-0.1,0.2-0.1,0.4-0.1c0.1,0,0.2,0,0.3,0.1
					c0.1,0,0.2,0.1,0.2,0.2c0,0.1,0.1,0.2,0.1,0.3s0,0.3,0,0.5c0,0.3,0,0.5-0.1,0.6c-0.1,0.2-0.1,0.3-0.2,0.4
					c-0.1,0.1-0.2,0.1-0.4,0.1c-0.2,0-0.4-0.1-0.5-0.2C404.6,570,404.5,569.7,404.5,569.3z M404.8,569.3c0,0.4,0,0.6,0.1,0.7
					c0.1,0.1,0.2,0.2,0.3,0.2s0.2-0.1,0.3-0.2c0.1-0.1,0.1-0.4,0.1-0.7c0-0.4,0-0.6-0.1-0.7c-0.1-0.1-0.2-0.2-0.3-0.2
					c-0.1,0-0.2,0.1-0.3,0.2C404.9,568.6,404.8,568.9,404.8,569.3z"/>
			</g>
			<line fill="none" stroke="#000000" stroke-width="0.5" x1="389.9" y1="565.3" x2="390.9" y2="564.8"/>
			<line fill="none" stroke="#000000" stroke-width="0.5" x1="390.1" y1="554.4" x2="391.1" y2="555.1"/>
			<line fill="none" stroke="#000000" stroke-width="0.5" x1="407.7" y1="564.6" x2="408.6" y2="565.3"/>
			<line fill="none" stroke="#000000" stroke-width="0.5" x1="407.7" y1="555.5" x2="408.6" y2="554.8"/>
			<line fill="none" stroke="#000000" stroke-width="0.5" x1="399.1" y1="550.6" x2="399.1" y2="549.4"/>
		</g>
	</g>
	<g>
		<path d="M392.7,577.3l-1-2.9h0.4l0.4,1.4c0.1,0.4,0.2,0.7,0.3,1.1l0,0c0.1-0.3,0.2-0.7,0.3-1.1l0.5-1.4h0.4l-0.8,2.9H392.7z"/>
		<path d="M396.9,575.8c0,1-0.6,1.5-1.4,1.5c-0.7,0-1.3-0.6-1.3-1.5c0-1,0.5-1.5,1.4-1.5C396.4,574.4,396.9,574.9,396.9,575.8z
			 M394.7,575.9c0,0.6,0.3,1.2,1,1.2s1-0.5,1-1.2c0-0.5-0.3-1.2-1-1.2S394.7,575.2,394.7,575.9z"/>
		<path d="M397.4,574.4h0.3v2.6h1.3v0.3h-1.6L397.4,574.4L397.4,574.4z"/>
		<path d="M399.7,574.4v1.7c0,0.6,0.3,1,0.6,1c0.4,0,0.7-0.3,0.7-1v-1.7h0.4v1.7c0,0.9-0.4,1.3-1.1,1.3c-0.6,0-1.1-0.3-1.1-1.3v-1.7
			H399.7z"/>
		<path d="M404.5,576c0-0.4,0-0.9,0-1.3l0,0c-0.1,0.3-0.2,0.7-0.3,1.1l-0.5,1.4h-0.3l-0.4-1.4c-0.1-0.4-0.2-0.7-0.3-1.1l0,0
			c0,0.3,0,0.9-0.1,1.3l-0.1,1.3h-0.3l0.2-2.9h0.4l0.5,1.4c0.1,0.3,0.2,0.6,0.3,1l0,0c0.1-0.3,0.2-0.6,0.3-1l0.5-1.4h0.4l0.2,2.9
			h-0.3L404.5,576z"/>
		<path d="M406.9,576h-1.1v1.1h1.3v0.3h-1.7v-2.9h1.6v0.3h-1.2v1h1.1L406.9,576L406.9,576z"/>
	</g>
	<g>
		<path d="M360.7,576.7l-1-2.9h0.4l0.4,1.4c0.1,0.4,0.2,0.7,0.3,1.1l0,0c0.1-0.3,0.2-0.7,0.3-1.1l0.5-1.4h0.4l-1.1,2.9H360.7z"/>
		<path d="M364.9,575.2c0,1-0.6,1.5-1.4,1.5c-0.7,0-1.3-0.6-1.3-1.5c0-1,0.5-1.5,1.4-1.5C364.4,573.8,364.9,574.4,364.9,575.2z
			 M362.7,575.3c0,0.6,0.3,1.2,1,1.2c0.6,0,1-0.5,1-1.2c0-0.5-0.3-1.2-1-1.2S362.7,574.7,362.7,575.3z"/>
		<path d="M365.4,573.8h0.3v2.6h1.3v0.3h-1.6L365.4,573.8L365.4,573.8z"/>
		<path d="M367.7,573.8v1.7c0,0.6,0.3,1,0.6,1c0.4,0,0.7-0.3,0.7-1v-1.7h0.4v1.7c0,0.9-0.4,1.3-1.1,1.3c-0.6,0-1.1-0.3-1.1-1.3v-1.7
			H367.7z"/>
		<path d="M372.5,575.4c0-0.4,0-0.9,0-1.3l0,0c-0.1,0.3-0.2,0.7-0.3,1.1l-0.5,1.4h-0.3l-0.4-1.4c-0.1-0.4-0.2-0.7-0.3-1.1l0,0
			c0,0.3,0,0.9-0.1,1.3l-0.1,1.3h-0.3l0.2-2.9h0.4l0.5,1.4c0.1,0.3,0.2,0.6,0.3,1l0,0c0.1-0.3,0.2-0.6,0.3-1l0.5-1.4h0.4l0.2,2.9
			h-0.3L372.5,575.4z"/>
		<path d="M374.9,575.4h-1.1v1.1h1.3v0.3h-1.7v-2.9h1.6v0.3h-1.2v1h1.1L374.9,575.4L374.9,575.4z"/>
	</g>
	<g>
		<path d="M364.3,546c0-0.4,0-0.9,0-1.3l0,0c-0.1,0.3-0.2,0.7-0.3,1.1l-0.5,1.4h-0.3l-0.4-1.4c-0.1-0.4-0.2-0.7-0.3-1.1l0,0
			c0,0.3,0,0.9-0.1,1.3l-0.1,1.3H362l0.2-2.9h0.4l0.5,1.4c0.1,0.3,0.2,0.6,0.3,1l0,0c0.1-0.3,0.2-0.6,0.3-1l0.5-1.4h0.4l0.2,2.9
			h-0.3L364.3,546z"/>
		<path d="M365.8,546.3l-0.3,0.9h-0.4l1-2.9h0.4l1,2.9h-0.3l-0.3-0.9H365.8z M366.7,546l-0.3-0.9c-0.1-0.2-0.1-0.3-0.1-0.5l0,0
			c0,0.2-0.1,0.3-0.1,0.5l-0.3,0.9H366.7z"/>
		<path d="M367.8,546.8c0.2,0.1,0.4,0.2,0.6,0.2c0.4,0,0.6-0.2,0.6-0.5s-0.1-0.4-0.5-0.5c-0.4-0.2-0.7-0.4-0.7-0.9s0.3-0.7,1-0.7
			c0.3,0,0.5,0.1,0.6,0.1l-0.1,0.3c-0.1,0-0.3-0.1-0.5-0.1c-0.4,0-0.5,0.2-0.5,0.4c0,0.3,0.2,0.4,0.5,0.5c0.5,0.2,0.7,0.4,0.7,0.9
			c0,0.4-0.3,0.9-1,0.9c-0.3,0-0.5-0.1-0.7-0.2V546.8z"/>
		<path d="M370.6,544.7h-0.9v-0.3h2.1v0.3h-0.9v2.6h-0.4L370.6,544.7L370.6,544.7z"/>
		<path d="M373.5,545.9h-1.1v1.1h1.3v0.3h-1.5v-2.9h1.6v0.3h-1.2v1h1.1v0.2H373.5z"/>
		<path d="M374.2,544.4c0.2,0,0.4-0.1,0.7-0.1c0.4,0,0.6,0.1,0.9,0.2c0.1,0.1,0.2,0.3,0.2,0.5c0,0.4-0.2,0.6-0.5,0.7l0,0
			c0.2,0.1,0.3,0.3,0.4,0.5c0.1,0.4,0.2,0.6,0.2,0.7h-0.4c0-0.1-0.1-0.3-0.2-0.6c-0.1-0.4-0.2-0.5-0.5-0.5h-0.3v1.3h-0.3v-2.8
			L374.2,544.4L374.2,544.4z M374.6,545.7h0.4c0.4,0,0.6-0.2,0.6-0.5s-0.3-0.5-0.6-0.5c-0.2,0-0.3,0-0.3,0v1.1h-0.1V545.7z"/>
	</g>
	<g>
		<path d="M392.4,544.3c0.2,0,0.4-0.1,0.7-0.1c0.3,0,0.6,0.1,0.9,0.2c0.1,0.1,0.2,0.3,0.2,0.6c0,0.2-0.1,0.4-0.2,0.6
			c-0.2,0.2-0.5,0.3-0.9,0.3c-0.1,0-0.2,0-0.3,0v1.2h-0.3v-2.8H392.4z M392.8,545.7c0.1,0,0.2,0,0.3,0c0.4,0,0.7-0.2,0.7-0.6
			c0-0.4-0.3-0.5-0.6-0.5c-0.2,0-0.3,0-0.3,0v1.2h-0.1V545.7z"/>
		<path d="M394.8,544.3c0.2,0,0.4-0.1,0.7-0.1c0.4,0,0.6,0.1,0.9,0.2c0.1,0.1,0.2,0.3,0.2,0.5c0,0.4-0.2,0.6-0.5,0.7l0,0
			c0.2,0.1,0.3,0.3,0.4,0.5c0.1,0.4,0.2,0.6,0.2,0.7h-0.4c0-0.1-0.1-0.3-0.2-0.6c-0.1-0.4-0.2-0.5-0.5-0.5h-0.4v1.3h-0.4V544.3z
			 M395.1,545.6h0.4c0.4,0,0.6-0.2,0.6-0.5s-0.3-0.5-0.6-0.5c-0.2,0-0.3,0-0.3,0v1.1L395.1,545.6L395.1,545.6z"/>
		<path d="M398.5,545.8h-1.1v1.1h1.3v0.3h-1.6v-2.9h1.6v0.3h-1.2v1h1.1L398.5,545.8L398.5,545.8z"/>
		<path d="M400.5,546.2l-0.3,0.9h-0.4l1-2.9h0.4l1,2.9h-0.4l-0.3-0.9H400.5z M401.4,545.9l-0.3-0.9c-0.1-0.2-0.1-0.3-0.1-0.5l0,0
			c0,0.2-0.1,0.3-0.1,0.5l-0.3,0.9H401.4z"/>
		<path d="M405,545.9c0-0.4,0-0.9,0-1.3l0,0c-0.1,0.3-0.2,0.7-0.3,1.1l-0.5,1.4h-0.3l-0.4-1.4c-0.1-0.4-0.2-0.7-0.3-1.1l0,0
			c0,0.3,0,0.9-0.1,1.3l-0.1,1.3h-0.3l0.2-2.9h0.4l0.5,1.4c0.1,0.3,0.2,0.6,0.3,1l0,0c0.1-0.3,0.2-0.6,0.3-1l0.5-1.4h0.4l0.2,2.9
			h-0.3L405,545.9z"/>
		<path d="M406.1,544.3c0.2,0,0.4-0.1,0.7-0.1c0.3,0,0.6,0.1,0.9,0.2c0.1,0.1,0.2,0.3,0.2,0.6c0,0.2-0.1,0.4-0.2,0.6
			c-0.2,0.2-0.5,0.3-0.9,0.3c-0.1,0-0.2,0-0.3,0v1.2h-0.3v-2.8H406.1z M406.4,545.7c0.1,0,0.2,0,0.3,0c0.4,0,0.7-0.2,0.7-0.6
			c0-0.4-0.3-0.5-0.6-0.5c-0.2,0-0.3,0-0.3,0v1.2h-0.1V545.7z"/>
	</g>
	<g>
		<path d="M325.2,544.7h-0.9v-0.3h2.1v0.3h-0.9v2.6h-0.3V544.7L325.2,544.7z"/>
		<path d="M326.7,544.4c0.2,0,0.4-0.1,0.7-0.1c0.4,0,0.6,0.1,0.9,0.2c0.1,0.1,0.2,0.3,0.2,0.5c0,0.4-0.2,0.6-0.5,0.7l0,0
			c0.2,0.1,0.3,0.3,0.4,0.5c0.1,0.4,0.2,0.6,0.2,0.7h-0.4c0-0.1-0.1-0.3-0.2-0.6c-0.1-0.4-0.2-0.5-0.5-0.5h-0.3v1.3h-0.3v-2.8
			L326.7,544.4L326.7,544.4z M327.2,545.7h0.4c0.4,0,0.6-0.2,0.6-0.5s-0.3-0.5-0.6-0.5c-0.2,0-0.3,0-0.3,0v1.1h-0.1V545.7z"/>
		<path d="M330.6,545.9h-1.1v1.1h1.3v0.3h-1.6v-2.9h1.6v0.3h-1.2v1h1.1v0.2H330.6z"/>
		<path d="M331.1,544.4c0.2,0,0.4-0.1,0.6-0.1c0.3,0,0.6,0.1,0.7,0.2c0.1,0.1,0.2,0.3,0.2,0.5c0,0.3-0.2,0.5-0.5,0.6l0,0
			c0.3,0.1,0.6,0.3,0.6,0.7c0,0.2-0.1,0.4-0.2,0.5c-0.2,0.2-0.5,0.3-1,0.3c-0.2,0-0.4,0-0.5,0L331.1,544.4L331.1,544.4z
			 M331.5,545.6h0.3c0.4,0,0.6-0.2,0.6-0.5s-0.2-0.4-0.6-0.4c-0.2,0-0.3,0-0.3,0V545.6z M331.5,547c0.1,0,0.2,0,0.3,0
			c0.4,0,0.7-0.1,0.7-0.5c0-0.4-0.3-0.5-0.7-0.5h-0.3V547z"/>
		<path d="M333.5,544.4h0.3v2.6h1.3v0.3h-1.6L333.5,544.4L333.5,544.4z"/>
		<path d="M337,545.9h-1.1v1.1h1.3v0.3h-1.6v-2.9h1.6v0.3H336v1h1.1L337,545.9L337,545.9z"/>
	</g>
	<g>
		<path d="M293,545.8c0-0.4,0-0.9,0-1.3l0,0c-0.1,0.3-0.2,0.7-0.3,1.1l-0.5,1.4h-0.3l-0.4-1.4c-0.1-0.4-0.2-0.7-0.3-1.1l0,0
			c0,0.3,0,0.9-0.1,1.3l-0.1,1.3h-0.3l0.2-2.9h0.4l0.5,1.4c0.1,0.3,0.2,0.6,0.3,1l0,0c0.1-0.3,0.2-0.6,0.3-1l0.5-1.4h0.4l0.2,2.9
			h-0.3L293,545.8z"/>
		<path d="M294.4,544.2v2.9h-0.3v-2.9H294.4z"/>
		<path d="M295.1,544.2c0.2,0,0.5-0.1,0.7-0.1c0.5,0,1,0.1,1.2,0.3s0.4,0.5,0.4,1.1c0,0.4-0.1,0.9-0.4,1.1c-0.3,0.3-0.7,0.4-1.3,0.4
			c-0.2,0-0.5,0-0.6,0L295.1,544.2L295.1,544.2z M295.4,546.8c0.1,0,0.2,0,0.4,0c0.7,0,1.2-0.4,1.2-1.2c0-0.6-0.4-1.1-1.2-1.1
			c-0.2,0-0.3,0-0.4,0V546.8z"/>
		<path d="M297.9,544.2c0.2,0,0.5-0.1,0.7-0.1c0.5,0,1,0.1,1.2,0.3s0.4,0.5,0.4,1.1c0,0.4-0.1,0.9-0.4,1.1c-0.3,0.3-0.7,0.4-1.3,0.4
			c-0.2,0-0.5,0-0.6,0L297.9,544.2L297.9,544.2z M298.3,546.8c0.1,0,0.2,0,0.4,0c0.7,0,1.2-0.4,1.2-1.2c0-0.6-0.4-1.1-1.2-1.1
			c-0.2,0-0.3,0-0.4,0V546.8z"/>
		<path d="M300.7,544.2h0.3v2.6h1.3v0.3h-1.6L300.7,544.2L300.7,544.2z"/>
		<path d="M304.2,545.7h-1v1.1h1.3v0.3h-1.6v-2.9h1.6v0.3h-1.2v1h1.1v0.2H304.2z"/>
	</g>
	<g>
		<path d="M264.4,544.5c0.2,0,0.4-0.1,0.6-0.1c0.3,0,0.6,0.1,0.7,0.2c0.1,0.1,0.2,0.3,0.2,0.5c0,0.3-0.2,0.5-0.5,0.6l0,0
			c0.3,0.1,0.6,0.3,0.6,0.7c0,0.2-0.1,0.4-0.2,0.5c-0.2,0.2-0.5,0.3-1,0.3c-0.2,0-0.4,0-0.5,0L264.4,544.5L264.4,544.5z
			 M264.7,545.7h0.3c0.4,0,0.6-0.2,0.6-0.5s-0.2-0.4-0.6-0.4c-0.2,0-0.3,0-0.3,0V545.7z M264.7,547.1c0.1,0,0.2,0,0.3,0
			c0.4,0,0.7-0.1,0.7-0.5c0-0.4-0.3-0.5-0.7-0.5h-0.3V547.1z"/>
		<path d="M267.1,546.4l-0.3,0.9h-0.4l1-2.9h0.4l1,2.9h-0.4l-0.3-0.9H267.1z M268,546.1l-0.3-0.9c-0.1-0.2-0.1-0.3-0.1-0.5l0,0
			c0,0.2-0.1,0.3-0.1,0.5l-0.3,0.9H268z"/>
		<path d="M269.2,546.9c0.2,0.1,0.4,0.2,0.6,0.2c0.4,0,0.6-0.2,0.6-0.5s-0.1-0.4-0.5-0.5c-0.4-0.2-0.7-0.4-0.7-0.9
			c0-0.4,0.3-0.7,1-0.7c0.3,0,0.5,0.1,0.6,0.1l-0.1,0.3c-0.1,0-0.3-0.1-0.5-0.1c-0.4,0-0.5,0.2-0.5,0.4c0,0.3,0.2,0.4,0.5,0.5
			c0.5,0.2,0.7,0.4,0.7,0.9s-0.3,0.9-1,0.9c-0.3,0-0.5-0.1-0.7-0.2V546.9z"/>
		<path d="M271.3,546.9c0.2,0.1,0.4,0.2,0.6,0.2c0.4,0,0.6-0.2,0.6-0.5s-0.1-0.4-0.5-0.5c-0.4-0.2-0.7-0.4-0.7-0.9
			c0-0.4,0.3-0.7,1-0.7c0.3,0,0.5,0.1,0.6,0.1l-0.1,0.3c-0.1,0-0.3-0.1-0.5-0.1c-0.4,0-0.5,0.2-0.5,0.4c0,0.3,0.2,0.4,0.5,0.5
			c0.5,0.2,0.7,0.4,0.7,0.9s-0.3,0.9-1,0.9c-0.3,0-0.5-0.1-0.7-0.2V546.9z"/>
	</g>
	<g>
		<path d="M230.9,544.2c0.2,0,0.4-0.1,0.7-0.1s0.6,0.1,0.9,0.2c0.1,0.1,0.2,0.3,0.2,0.6c0,0.2-0.1,0.4-0.2,0.6
			c-0.2,0.2-0.5,0.3-0.9,0.3c-0.1,0-0.2,0-0.3,0v1.2H231L230.9,544.2L230.9,544.2L230.9,544.2z M231.3,545.6c0.1,0,0.2,0,0.3,0
			c0.4,0,0.7-0.2,0.7-0.6c0-0.4-0.3-0.5-0.6-0.5c-0.2,0-0.3,0-0.3,0L231.3,545.6L231.3,545.6L231.3,545.6z"/>
		<path d="M233.1,544.2c0.2,0,0.4-0.1,0.7-0.1c0.4,0,0.6,0.1,0.9,0.2c0.1,0.1,0.2,0.3,0.2,0.5c0,0.4-0.2,0.6-0.5,0.7l0,0
			c0.2,0.1,0.3,0.3,0.4,0.5c0.1,0.4,0.2,0.6,0.2,0.7h-0.4c0-0.1-0.1-0.3-0.2-0.6c-0.1-0.4-0.2-0.5-0.5-0.5h-0.3v1.3h-0.4v-2.8
			L233.1,544.2L233.1,544.2z M233.6,545.6h0.4c0.4,0,0.6-0.2,0.6-0.5s-0.3-0.5-0.6-0.5c-0.2,0-0.3,0-0.3,0L233.6,545.6L233.6,545.6
			L233.6,545.6z"/>
		<path d="M237,545.7h-1.1v1.1h1.3v0.3h-1.6v-2.9h1.6v0.3H236v1h1.1v0.2H237z"/>
		<path d="M237.5,546.7c0.2,0.1,0.4,0.2,0.6,0.2c0.4,0,0.6-0.2,0.6-0.5s-0.1-0.4-0.5-0.5c-0.4-0.2-0.7-0.4-0.7-0.9s0.3-0.7,1-0.7
			c0.3,0,0.5,0.1,0.6,0.1l-0.1,0.3c-0.1,0-0.3-0.1-0.5-0.1c-0.4,0-0.5,0.2-0.5,0.4c0,0.3,0.2,0.4,0.5,0.5c0.5,0.2,0.7,0.4,0.7,0.9
			c0,0.4-0.3,0.9-1,0.9c-0.3,0-0.5-0.1-0.7-0.2L237.5,546.7z"/>
		<path d="M241.1,545.7H240v1.1h1.3v0.3h-1.6v-2.9h1.6v0.3h-1.1v1h1.1v0.2H241.1z"/>
		<path d="M241.8,547.1v-2.9h0.4l1,1.5c0.2,0.3,0.4,0.6,0.5,1l0,0c0-0.4,0-0.7,0-1.2v-1.2h0.3v2.9h-0.4l-1-1.5
			c-0.2-0.3-0.4-0.6-0.5-1l0,0c0,0.3,0,0.7,0,1.2v1.3L241.8,547.1L241.8,547.1z"/>
		<path d="M246.6,547c-0.1,0.1-0.4,0.1-0.7,0.1c-0.9,0-1.4-0.5-1.4-1.5c0-0.9,0.6-1.5,1.5-1.5c0.3,0,0.5,0.1,0.6,0.1l-0.1,0.3
			c-0.1-0.1-0.3-0.1-0.5-0.1c-0.6,0-1.2,0.4-1.2,1.2c0,0.7,0.4,1.2,1.1,1.2c0.2,0,0.4,0,0.6-0.1L246.6,547z"/>
		<path d="M248.6,545.7h-1.1v1.1h1.3v0.3h-1.6v-2.9h1.6v0.3h-1.2v1h1.1v0.2H248.6z"/>
	</g>
</g>
<g>
	<rect x="101.7" y="549" width="18.4" height="21.6"/>
	<rect x="104.6" y="551.7" fill="#302B2C" width="12.6" height="15.5"/>
	<rect x="105" y="559.2" fill="#918A9E" width="11.7" height="3.4"/>
</g>
<g>
	<rect x="74.5" y="549.2" width="18.3" height="21.6"/>
	<rect x="77.6" y="552.2" fill="#B91A29" width="12.6" height="15.5"/>
	<rect x="77.2" y="554.9" fill="#F3E7ED" width="13" height="1.7"/>
</g>
<path fill="none" stroke="#000000" stroke-width="0.5" d="M509.9,557.9c0,0-0.2,0.7-0.2,0.9c0,0.2-0.3,0.9-0.4,1.4c0,0,0,0.2,0,0.5
	c0,0,0,0.3,0.6-0.6c0,0,0.4-0.6,1-2c0,0,0.5-0.9,0.2,0.4l-0.2,0.5c0,0,0,0.2,0,0.6c0,0,0.1,0.4,0.3-0.1c0.2-0.5,0.5-1.1,0.5-1.2
	c0-0.1,0.4-0.7,0.3,0l0,0c-0.2,0.9-0.1,0.5-0.1,0.5s-0.2,0.7,0.4,0l0.4-0.4c0,0,0.3-0.5,0.4,0c0,0,0.1,0.2,0.2,0.3
	c0,0,0.5,0.2,0.6,0"/>
<path fill="none" stroke="#000000" stroke-width="0.5" d="M508.6,560.4l-0.5,0.9c0,0-0.6,1.3,0.3,0.1l0.4-0.6l0.4-0.6"/>
<path fill="none" stroke="#000000" stroke-width="0.5" d="M516,555.4c0,0-1.1,1.8-0.3,2.8c0,0,0.6,0.5,1.6-1.3l1.3-2.1
	c0,0,0.9-1.6,1-2.3c0.1-0.6,0.5-1.9,1-2.5c0,0-0.4,1.3-0.5,1.9l-0.4,1.4c0,0-0.5,1.2-0.7,2c0,0-0.3,0.9-0.4,2c-0.1,1.1,0.6-2,0.6-2
	s0.4-1.4,0.4-1.5c0-0.1,0.6-1.7,0.6-1.7l0.3-1c0,0,0.4-1,0.3,0.2c0,0-0.1,0.9-0.3,1.5l-0.2,1.2l-0.2,0.7c0,0-0.1,0.3,0,0.9
	c0,0,0.1,0.5,0.5-0.2c0,0,1.2-3,1.7-4.1c0,0,1.2-3,1.4-3.2c0,0,0.7-1.7,0.3,0.7c0,0-0.1,0.4-0.2,1.7c0,0-0.1,0.5-0.4,1.7
	c0,0-1.5,4.7-1.8,8.6c0,0,0.4-3.9-0.1,1.2"/>
<path fill="none" stroke="#000000" stroke-width="0.5" d="M525.7,552.1c0,0-0.3-1.3-2,0.4c0,0-1,1.2-0.6,1.8c0,0,0.2,0.4,0.4,0.4
	c0,0,0.4,0.2,1.5-0.7c0,0,1-1.2,1.2-1.7c0,0,0.3-1.3-0.6,0.2c0,0-1.1,2.5,0.9,1.3c0,0,1.3-0.5,1.5-1.9c0,0,0.1-0.7-1-0.1
	c0,0,0,0-0.1,0c-1.2,0.7,0.1,1.4,1,0.9c0,0,0.5-0.3,1.3-0.3"/>
<path fill="none" stroke="#000000" stroke-width="0.5" d="M528.6,553.3c0,0,0.5-0.7,0.7-1.2c0,0,0.3-0.6,0-0.7c0,0-0.2-0.1-0.4,0.2
	c0,0-0.1,0.2,0,0.4c0,0,0.4,0.4,0.5,0.5c0,0,0.4,0.2,0.4,0.4c0,0,0,0.2-0.3,0.1c0,0-0.4,0-0.4-0.2c0,0,0-0.2,0.4-0.5"/>
<path fill="none" stroke="#000000" stroke-width="0.5" d="M531.4,550.4c0,0,0-0.4-0.1-0.5c0,0-0.1-0.6-0.2,0.3c0,0-0.1,0.7-0.9,1.9
	c0,0-0.7,1.4,0.6-0.1c0,0,0.4-0.6,0.7-0.5c0,0,0.1-0.1,0.4,0.4c0,0,0.6,0.4,1.8-0.5c0,0,0.9-0.7,0.3-0.9c0,0-0.6,0.5-0.1,0.9
	c0,0,0.6,0.2,1.5-0.5c0,0,0.9-0.7,1-1.5c0,0,0-1-0.9,0c0,0-0.7,0.9-0.3,1.4c0,0,0.2,0.3,0.9,0.3c0,0,1.4-0.1,2-0.9
	c0,0,0.4-0.5,0.4-1.6c0,0,0-0.7-0.4,0.1c0,0-1.3,2.2-0.6,3l0.2,0.2c0,0-19.1,5.5-38.9,19.8c0,0,5.7-3.5,6.8-4.1
	c-8.8,5.1-8.8,5.2,4.9-3c0,0,18.1-11,24.5-10.2"/>
<ellipse transform="matrix(0.8235 -0.5673 0.5673 0.8235 -218.4964 399.8219)" fill="none" stroke="#000000" stroke-width="0.5" cx="533.3" cy="551.1" rx="1" ry="0.4"/>
<path fill="none" stroke="#000000" stroke-width="0.5" d="M510.7,555.5c0,0-5.7,6.3-3.6-2.3c0,0,0.7-2.2,2.3-3.5c0,0,2-1.4,1.5,1
	c0,0-3.7,11.2-4.5,14.9c0,0-2.1,8.6-2.8,10.6c-0.6,1.9-1.4,0.6-1.4-1.6s-0.2-6.4-0.2-9.4c0,0,0.1-1.7,1.4-0.3c0,0,0.2,0.3,0.9,0.1
	l1.4-0.2"/>
<g>
	<g>
		<path d="M450.1,551.1v0.9h1.1v-0.9h0.3v2.1h-0.3v-1h-1.1v1h-0.3v-2.1H450.1z"/>
		<path d="M452.1,551.1v2.1h-0.3v-2.1H452.1z"/>
		<path d="M454.3,553.3c-0.1,0-0.3,0.1-0.6,0.1c-0.3,0-0.6-0.1-0.9-0.3c-0.2-0.2-0.3-0.4-0.3-0.9c0-0.6,0.4-1.1,1.2-1.1
			c0.2,0,0.4,0.1,0.5,0.1l-0.1,0.2c-0.1,0-0.2-0.1-0.4-0.1c-0.5,0-0.9,0.3-0.9,0.9c0,0.6,0.3,0.9,0.9,0.9c0.2,0,0.3,0,0.3-0.1v-0.7
			h-0.4v-0.2h0.7L454.3,553.3L454.3,553.3z"/>
		<path d="M455,551.1v0.9h1.1v-0.9h0.3v2.1h-0.3v-1H455v1h-0.3v-2.1H455z"/>
	</g>
	<g>
		<path d="M450,569.8h0.3v1.9h1v0.2h-1.2L450,569.8L450,569.8z"/>
		<path d="M453.2,570.9c0,0.7-0.4,1.2-1,1.2c-0.5,0-1-0.4-1-1.1c0-0.6,0.4-1.2,1-1.2S453.2,570.2,453.2,570.9z M451.5,571
			c0,0.4,0.2,0.9,0.6,0.9s0.6-0.4,0.6-0.9s-0.2-0.9-0.6-0.9C451.7,570,451.5,570.4,451.5,571z"/>
		<path d="M453.9,572l-0.5-2.1h0.3l0.2,1.1c0.1,0.3,0.1,0.5,0.2,0.7l0,0c0-0.2,0.1-0.4,0.2-0.7l0.3-1.1h0.3l0.2,1.1
			c0.1,0.2,0.1,0.5,0.1,0.7l0,0c0-0.2,0.1-0.4,0.2-0.7l0.3-1.1h0.3l-0.6,2.1h-0.2l-0.3-1.2c-0.1-0.3-0.1-0.5-0.1-0.7l0,0
			c0,0.2-0.1,0.4-0.2,0.7l-0.3,1.2H453.9z"/>
	</g>
	<g>
		<circle fill="#FFFFFF" cx="438.8" cy="552.7" r="6.9"/>
		<circle fill="#30262C" cx="438.8" cy="552.7" r="6.3"/>
		<circle fill="#4B4343" cx="438.8" cy="552.7" r="5.7"/>
		<circle fill="#231D1C" cx="438.8" cy="552.7" r="4.6"/>
		<circle fill="#757177" cx="438.8" cy="552.7" r="3.7"/>
		<circle fill="#221C1B" cx="438.8" cy="552.7" r="2.6"/>
		<circle fill="#FFFFFF" cx="438.8" cy="570.9" r="6.9"/>
		<circle fill="#30262C" cx="438.8" cy="570.9" r="6.3"/>
		<circle fill="#4B4343" cx="438.8" cy="570.9" r="5.7"/>
		<circle fill="#231D1C" cx="438.8" cy="570.9" r="4.6"/>
		<circle fill="#757177" cx="438.8" cy="570.9" r="3.7"/>
		<circle fill="#221C1B" cx="438.8" cy="570.9" r="2.6"/>
		<g>
			<path d="M446,562.4c0.1,0.1,0.3,0.1,0.5,0.1c0.3,0,0.4-0.1,0.4-0.3c0-0.2-0.1-0.3-0.4-0.4c-0.3-0.1-0.5-0.3-0.5-0.6
				s0.3-0.6,0.7-0.6c0.2,0,0.4,0,0.4,0.1l-0.1,0.2c-0.1,0-0.2-0.1-0.4-0.1c-0.3,0-0.4,0.2-0.4,0.3c0,0.2,0.1,0.3,0.4,0.4
				c0.3,0.1,0.5,0.3,0.5,0.6c0,0.3-0.2,0.6-0.7,0.6c-0.2,0-0.4-0.1-0.5-0.1L446,562.4z"/>
			<path d="M448.8,561.7h-0.9v0.7h1v0.2h-1.2v-2.1h1.2v0.2H448v0.6h0.9v0.3L448.8,561.7L448.8,561.7z"/>
			<path d="M449.2,562.8v-2.1h0.3l0.6,1.1c0.2,0.2,0.3,0.5,0.4,0.7l0,0c0-0.3,0-0.5,0-0.9v-0.9h0.2v2.1h-0.3l-0.6-1.1
				c-0.1-0.2-0.3-0.5-0.4-0.7l0,0c0,0.3,0,0.5,0,0.9v1L449.2,562.8L449.2,562.8z"/>
			<path d="M451.4,562.4c0.1,0.1,0.3,0.1,0.5,0.1c0.3,0,0.4-0.1,0.4-0.3c0-0.2-0.1-0.3-0.4-0.4c-0.3-0.1-0.5-0.3-0.5-0.6
				s0.3-0.6,0.7-0.6c0.2,0,0.4,0,0.4,0.1l-0.1,0.2c-0.1,0-0.2-0.1-0.4-0.1c-0.3,0-0.4,0.2-0.4,0.3c0,0.2,0.1,0.3,0.4,0.4
				c0.3,0.1,0.5,0.3,0.5,0.6c0,0.3-0.2,0.6-0.7,0.6c-0.2,0-0.4-0.1-0.5-0.1L451.4,562.4z"/>
			<path d="M453.3,560.6v2.1H453v-2.1H453.3z"/>
			<path d="M454.1,560.8h-0.6v-0.2h1.6v0.2h-0.6v1.9h-0.3v-1.9H454.1z"/>
			<path d="M455.6,560.6v2.1h-0.3v-2.1H455.6z"/>
			<path d="M456.6,562.8l-0.7-2.1h0.3l0.3,1.1c0.1,0.3,0.2,0.5,0.2,0.9l0,0c0.1-0.2,0.1-0.5,0.2-0.9l0.3-1.1h0.3l-0.7,2.1H456.6z"/>
			<path d="M458.1,560.6v2.1h-0.3v-2.1H458.1z"/>
			<path d="M459.1,560.8h-0.6v-0.2h1.6v0.2h-0.6v1.9h-0.3v-1.9H459.1z"/>
			<path d="M460.8,562.8v-1l-0.6-1.3h0.3l0.3,0.6c0.1,0.2,0.1,0.3,0.2,0.4l0,0c0.1-0.1,0.1-0.3,0.2-0.4l0.3-0.6h0.3l-0.7,1.3v1
				H460.8z"/>
		</g>
	</g>
</g>
<g>
	<polyline fill="none" stroke="#2B2422" stroke-width="0.25" points="250.3,570.4 250.3,575.4 341.8,575.7 341.7,570 	"/>
	<line fill="none" stroke="#2B2422" stroke-width="0.25" x1="280.3" y1="570.3" x2="280.3" y2="575.6"/>
	<line fill="none" stroke="#2B2422" stroke-width="0.25" x1="309.6" y1="570.3" x2="309.6" y2="575.6"/>
</g>
<g>
	<path d="M58.6,407.1v25.7l-27.2,0.1v-10.7c0,0,1.8-15.1,14.9-15L58.6,407.1z"/>
	<path fill="#FFFFFF" d="M55.5,427c0-1.6-1.3-2.9-2.9-2.9s-2.9,1.3-2.9,2.9s1.3,2.9,2.9,2.9C54.2,429.8,55.5,428.6,55.5,427z
		 M54.7,427c0,1.2-1,2.1-2.1,2.1s-2.1-1-2.1-2.1s1-2.1,2.1-2.1C53.8,424.9,54.7,425.9,54.7,427z"/>
	<circle fill="#686140" cx="52.6" cy="427" r="1.6"/>
	<circle fill="#FFFEFD" cx="53" cy="426.9" r="1"/>
	<path fill="#77777E" d="M33.5,430.8v-8.3c0,0,0-5.1,4.9-10.6l3.8,2.5c0,0-2.5,1.8-2.7,8s-0.1,8.6-0.1,8.6L33.5,430.8z"/>
</g>
<g>
	<path d="M548.5,407.7v25.7l27.2,0.1v-10.7c0,0-1.8-15.1-14.9-15L548.5,407.7z"/>
	<path fill="#FFFFFF" d="M554.5,430.4c1.6,0,2.9-1.3,2.9-2.9s-1.3-2.9-2.9-2.9s-2.9,1.3-2.9,2.9S552.9,430.4,554.5,430.4z
		 M554.4,425.5c1.2,0,2.1,1,2.1,2.1s-1,2.1-2.1,2.1c-1.2,0-2.1-1-2.1-2.1C552.3,426.4,553.2,425.5,554.4,425.5z"/>
	<circle fill="#686140" cx="554.4" cy="427.6" r="1.6"/>
	<circle fill="#FFFEFD" cx="553.9" cy="427.6" r="1"/>
	<path fill="#77777E" d="M573.6,431.4v-8.3c0,0,0-5.1-4.9-10.6l-3.8,2.5c0,0,2.5,1.9,2.7,8s0.1,8.6,0.1,8.6L573.6,431.4z"/>
</g>
<g>
	<path d="M58.1,607.1v-25.7l-27.2-0.1V592c0,0,1.8,15.1,14.9,15L58.1,607.1z"/>
	<path fill="#FFFFFF" d="M52.1,584.4c-1.6,0-2.9,1.3-2.9,2.9c0,1.6,1.3,2.9,2.9,2.9c1.6,0,2.9-1.3,2.9-2.9
		C55,585.7,53.7,584.4,52.1,584.4z M52.2,589.3c-1.2,0-2.1-1-2.1-2.1c0-1.1,1-2.1,2.1-2.1s2.1,1,2.1,2.1
		C54.2,588.3,53.4,589.3,52.2,589.3z"/>
	<circle fill="#686140" cx="52.2" cy="587.2" r="1.6"/>
	<circle fill="#FFFEFD" cx="52.6" cy="587.3" r="1"/>
	<path fill="#77777E" d="M33,583.4v8.3c0,0,0,5.1,4.9,10.6l3.8-2.5c0,0-2.5-1.9-2.7-8c-0.2-6.1-0.1-8.6-0.1-8.6L33,583.4z"/>
</g>
<g>
	<path d="M548.7,607.1v-25.7l27.2-0.1V592c0,0-1.8,15.1-14.9,15L548.7,607.1z"/>
	<path fill="#FFFFFF" d="M551.8,587.2c0,1.6,1.3,2.9,2.9,2.9s2.9-1.3,2.9-2.9c0-1.6-1.3-2.9-2.9-2.9
		C553.1,584.4,551.8,585.7,551.8,587.2z M552.5,587.2c0-1.2,1-2.1,2.1-2.1c1.2,0,2.1,1,2.1,2.1c0,1.1-1,2.1-2.1,2.1
		S552.5,588.3,552.5,587.2z"/>
	<circle fill="#686140" cx="554.6" cy="587.2" r="1.6"/>
	<circle fill="#FFFEFD" cx="554.2" cy="587.3" r="1"/>
	<path fill="#77777E" d="M573.8,583.4v8.3c0,0,0,5.1-4.9,10.6l-3.8-2.5c0,0,2.5-1.9,2.7-8c0.2-6.1,0.1-8.6,0.1-8.6L573.8,583.4z"/>
</g>
<pattern  id="SVGID_7_" xlink:href="#SVGID_6_" patternTransform="matrix(1.0662 0 0 1.0662 881.2008 18090.0117)">
</pattern>
<rect x="58.7" y="432.5" fill="url(#SVGID_7_)" width="491" height="109"/>
<g>
	<path fill="#FFFFFF" d="M259.1,503.3c6-1.1,9.6-6.8,10.6-12.3c0.2-1.4-1.6-2-3-1.4c-1.3,0.5-1.8,1-3.4,2.2c-3,2.3-4.9,5.4-5.7,9.1
		C257.2,502,258.3,503.4,259.1,503.3L259.1,503.3z M300.9,504.2c1.6,0.4,2.8-0.9,3.2-1.9c0.7-2.5,0.3-5.1-0.6-7.3
		c-0.4,0.3-3.7,4.2-4.8,5.5C297.9,501.2,299.2,503.7,300.9,504.2L300.9,504.2z M339.1,502.3c0.4,1.3,2.1,1.1,3.2,0.6
		c4.9-2,8.3-7.4,8.5-12.4c0.1-1.1-1.5-1.5-2.7-1.2c-2.9,1.1-4.8,3-6.6,5.4C339.9,497.2,338.4,499.6,339.1,502.3L339.1,502.3z
		 M383.8,490.3c0.1,0.1,4.9-3.5,7.9-7c2.9-3.5,4.4-7.4,4.4-7.4s-3.3,2.3-6.4,5.9C385.8,486,383.8,490.3,383.8,490.3L383.8,490.3z
		 M286.5,484l0.1-0.1c1.3-1.7,1.8-4.1,0-4.9c-0.2-0.1-0.6,0.5-0.7,1.1C285.6,481.3,285.7,482.7,286.5,484L286.5,484z M283.9,487.8
		c-1.7-2.9-2.5-6.3-1.1-9.4c1.4-3,6.2-4.2,8-0.7c2,3.8-0.9,7.1-1.7,8.6c-0.3,0.4,2.2-0.2,3.3-0.2c1.9-0.1,3.1,1.7,2.1,3.2
		c-3,4.6-8.1,7.9-8.7,13.4c-0.2,1.4,3.5,0.6,7.9-2.9c0.1-0.1,7.9-9.2,13.9-16.1c1.4-1.5,5.9,0,4.5,2.1c-1.3,1.8-2.6,3.2-3.4,4.3
		c-1.2,1.6,1.8,2.7,1.5,8.7c2.2-1.6,5.8-3.8,5.9-4.1c3.7-7.4,7.7-16,11.4-23.6c1-1.9,5.9-1,4.8,1.5c-2.3,5-4.8,10.4-6.9,15.5
		c-0.1,0.2,3.9-2.2,4.4-2.5c2.8-0.9,4.1,1.5,4.5,3.2c1,3.9-3.5,9.3-5.5,13.1c-0.5,1,0.7,0.4,1.2,0.1c1.5-0.9,4.1-3.1,4.1-3.3
		c3.6-9.3,15.6-16.6,20.2-11.2c0.3-0.4,0.9-1.2,0.9-1.3c1.1-1,5.2-0.6,4.6,1.2c0,0.1-4.4,8.2-6.6,12.3c-0.5,1,0.1,3.5,1.5,2.6
		c2.2-1.5,5.4-4.7,5.5-5c2.6-6.8,11-20.7,22.3-26.4c1.9-1,5.4,0.2,4.4,3.1c-3.9,9.8-8.5,14.2-15.5,19.1c-0.1,0.1-0.2,0.1-0.3,0.2
		c-1.5,1-5.8,3.3-6,4.2c0,0.1-1,2.9-0.4,4.3c0.7,2,2.9,1.8,4.5,0.7c5.9-4.1,8.1-10.2,11.8-15.9c3-4.6,6.4-8.5,11.2-12.2
		c2.2-1.7,4.5-3.9,7.4-3.6c1.3,0.1,2,1.4,1.8,2.2c-2.2,8.6-7.7,14.3-13.3,18.7c-2.6,2-5.2,3.7-7.6,5.3c-0.6,0.4-2,8.1,3.9,5.4
		c2.9-1.3,5.8-5.3,7.6-7.3c0.9-1.1,2.3,0.3,1.7,1.7c-1.8,3.4-4.2,6.2-7.5,8.5c-2.3,1.8-5.3,2.7-8.2,1.6c-2.1-0.9-2.9-2.9-3.5-4.7
		c-2.1,2.3-5,4.3-8.1,5.1c-4.8,1.3-6.8-2-6.8-4.7c-3,2.3-8.8,8.1-11.7,2c-3.3,1.7-9.3,5.5-13.3-0.7c-2.8,1.7-5.9,4.8-9.1,2.9
		c-2-1.3-3-3.4-2-5.4c1.7-3.5,5.1-9.3,5.3-9.7c0.4-0.7-0.7-1.2-1.4-0.6c-2.8,2.1-5,3.8-5.1,4.1c-1.4,2.9-3.9,8.2-5.3,11
		c-0.9,1.7-4.2,1.6-5,0.4c-1.3-1.7,0.5-3.4,1.3-5c-3.8,2.5-6.5,5.1-10.6,5.8c-3.2,0.5-6.7-0.7-7.9-3.6c-3.8,1.9-8.1,5.4-12,2.6
		c-3.5-2.5-1.7-8.6,6.4-16c0.1-0.1,0.1-0.3,0-0.4l-1.3-0.4c-2.9,3.8-9.3,13-13.3,15.6c-4.3,2.7-7.1,3.4-9.1,0
		c-4.4,2.9-10.1,3.4-12.4-1.2H253c-3.2,2.3-5.5,4.2-10.8,3.2c-2.5-0.4-3.8-2.7-4.1-4.9c-0.4-3.5,0.3-7.1,0.7-10.7
		c-3.2,5.2-6.3,11-10.8,15.5c-0.9,0.7-3.5,0.2-3.2-1.2c1.1-5.8,4.5-13.9,4.1-19.3c-4.6,9.4-11.4,24.2-24.9,19.9
		c-9.6-3-7.4-19.4,6.1-14.4c1.6,0.6,0.6,3.3-0.7,2.9c-6.5-2.5-8,7.7-1.4,8.1c4.2,0.2,7-2.2,8.4-4.3c8.7-12.7,11.4-24.9,21.8-39.7
		c1.4-2,5,0,3.8,2.2c-1.7,3.1-3.1,6.5-4.6,10.9c-1.6,4.9-2.5,9.4-2.3,14.4c7.1-9.9,14-19.7,23.9-27.8c0.4-0.3,1.4-0.2,1.9,0
		c1.1,0.3,1.2,1.5,0.7,2.1c-10.3,15.4-20.3,31.1-17.9,40.4c0.5,2,1.9,1.6,3.6,1.4c1.6-0.2,5.4-3.4,5.8-4.2
		c2.5-6.1,7.4-11.1,14.1-12.7c2.2-0.5,4.5,0,6.2,1.4c1-1.8,3.6-2,4.9-0.7c0.3,0.3,0.2,1.1,0,1.5c-2.5,4.4-4.6,8.2-7,12.4
		c-0.2,0.3,0.2,1,0.7,0.9C274.9,500.6,279.8,493.6,283.9,487.8L283.9,487.8z M368.5,490.5c0.1,0.1,4.6-2.9,7.6-6.2
		c2.3-2.7,5.4-8.3,5.3-8.5c-0.3-0.1-3.7,2.9-6.9,6.3C372.2,484.8,368.5,490.5,368.5,490.5L368.5,490.5z"/>
</g>
</svg>
