<?xml version="1.0" encoding="utf-8"?>
<!-- Generator: Adobe Illustrator 18.0.0, SVG Export Plug-In . SVG Version: 6.00 Build 0)  -->
<!DOCTYPE svg PUBLIC "-//W3C//DTD SVG 1.1//EN" "http://www.w3.org/Graphics/SVG/1.1/DTD/svg11.dtd">
<svg version="1.1" xmlns="http://www.w3.org/2000/svg" xmlns:xlink="http://www.w3.org/1999/xlink" x="0px" y="0px"
	 viewBox="0 0 214.6 228.2" enable-background="new 0 0 214.6 228.2" xml:space="preserve">
<g id="Calque_2">
	<rect x="0" y="-0.4" fill-rule="evenodd" clip-rule="evenodd" fill="#009FE3" width="214.6" height="228.6"/>
</g>
<g id="Calque_1">
	<g>
		<g>
			<path fill-rule="evenodd" clip-rule="evenodd" fill="#A29F9D" d="M125.5,55c2.4,0,4.3-1.3,4.3-2.9c0-1.6-2-2.9-4.4-2.9
				c-2.4,0-4.3,1.3-4.3,2.9C121.1,53.7,123.1,55,125.5,55z"/>
			<path fill-rule="evenodd" clip-rule="evenodd" fill="#A29F9D" d="M120.1,52.6c2.4,0,4.3-1.3,4.3-2.9c0-1.6-2-2.9-4.4-2.9
				c-2.4,0-4.3,1.3-4.3,2.9C115.8,51.3,117.7,52.6,120.1,52.6z"/>
			<path fill-rule="evenodd" clip-rule="evenodd" fill="#A29F9D" d="M113.6,50.7c2.4,0,4.3-1.3,4.3-2.9c0-1.6-2-2.9-4.4-2.9
				c-2.4,0-4.3,1.3-4.3,2.9C109.3,49.4,111.3,50.7,113.6,50.7z"/>
			<path fill-rule="evenodd" clip-rule="evenodd" fill="#A29F9D" d="M107,49.6c2.4,0,4.3-1.3,4.3-2.9c0-1.6-2-2.9-4.4-2.9
				c-2.4,0-4.3,1.3-4.3,2.9S104.6,49.6,107,49.6z"/>
			<path fill-rule="evenodd" clip-rule="evenodd" fill="#A29F9D" d="M100.2,49.5c2.5,0,4.5-1.3,4.5-2.9c0-1.6-2-2.9-4.5-2.9
				c-2.5,0-4.5,1.3-4.5,2.9C95.7,48.2,97.8,49.5,100.2,49.5z"/>
		</g>
		<g>
			<path fill-rule="evenodd" clip-rule="evenodd" fill="#13110C" d="M100.2,44.6c1.7,0,3,0.9,3,1.9c0,1.1-1.3,1.9-3,1.9
				c-1.7,0-3-0.9-3-1.9C97.2,45.5,98.6,44.6,100.2,44.6z"/>
			<path fill-rule="evenodd" clip-rule="evenodd" fill="#13110C" d="M107.1,44.6c2,0,3.6,1.1,3.6,2.3c0,1.3-1.6,2.4-3.6,2.4
				c-2,0-3.6-1.1-3.6-2.3C103.5,45.7,105.1,44.6,107.1,44.6z"/>
			<path fill-rule="evenodd" clip-rule="evenodd" fill="#13110C" d="M114,45.8c2,0,3.6,1.1,3.6,2.3c0,1.3-1.6,2.4-3.6,2.4
				c-2,0-3.6-1.1-3.6-2.3C110.3,46.8,112,45.8,114,45.8z"/>
			<path fill-rule="evenodd" clip-rule="evenodd" fill="#13110C" d="M120.6,47.6c2,0,3.6,1.1,3.6,2.3c0,1.3-1.6,2.4-3.6,2.4
				c-2,0-3.6-1.1-3.6-2.3C117,48.7,118.6,47.6,120.6,47.6z"/>
			<path fill-rule="evenodd" clip-rule="evenodd" fill="#13110C" d="M125.9,50c2.1,0,3.8,1.1,3.8,2.5c0,1.4-1.7,2.5-3.8,2.5
				c-2.1,0-3.8-1.1-3.8-2.5C122.1,51.1,123.8,50,125.9,50z"/>
		</g>
		
			<linearGradient id="SVGID_1_" gradientUnits="userSpaceOnUse" x1="78.7588" y1="195.6589" x2="156.6108" y2="195.6589" gradientTransform="matrix(1 -6.000000e-003 6.000000e-003 1 -10.0866 -106.6313)">
			<stop  offset="0" style="stop-color:#13110C"/>
			<stop  offset="1" style="stop-color:#FFFFFF"/>
		</linearGradient>
		<path fill-rule="evenodd" clip-rule="evenodd" fill="url(#SVGID_1_)" d="M87.4,133.1c-7.7,0.8-12.5-10.9-13-17.8l-2.1-34.8
			c-0.4-6.6,2.3-17.6,8.5-24c3.5-3.7,7-7.3,11.7-9.6c1.6-0.8,4.1-2,5.6,0.5c0.6,1.1,2.2,1.5,3.4,1c1.2-0.5,1.7-1.8,1.1-2.9
			c-0.3-0.6-0.7-1.1-1.2-1.7c2.5-0.1,4,2.1,5.1,3.9c0.5,0.9,1.9,1.3,2.9,0.9c1.1-0.4,1.5-1.6,0.9-2.5c-0.4-0.7-0.9-1.3-1.5-1.9
			c2.2,0.3,4.5,2.8,5.4,4.4c0.4,0.7,1.4,1,2.2,0.7c0.8-0.3,1.1-1.2,0.7-1.9c-0.4-0.7-1-1.3-1.6-2c2.6,0.6,5.3,3,6.2,5.1
			c0.2,0.5,0.9,0.7,1.5,0.5c0.6-0.2,0.9-0.9,0.7-1.4c-0.4-0.9-1.1-1.6-1.9-2.3c2.3,0.8,4.7,3.2,5.4,5.2c0.1,0.4,0.7,0.7,1.2,0.5
			c0.5-0.2,0.9-0.7,0.7-1.1c-0.2-0.7-0.7-1.3-1.2-1.9c1.8,1,3.6,2.3,4.6,3.9c1.2,1.7,1.8,2.8,2.3,5l10.3,47.1
			c0.9,4-2.6,9.3-5.8,12.4c-7.7,7.5-15.4,12.3-26.8,14.2C105.3,133.7,95.2,132.3,87.4,133.1z"/>
		<g>
			<path fill-rule="evenodd" clip-rule="evenodd" fill="#898584" d="M81.3,64l0.1-1.5c0-0.4,0.2-0.8,0.5-1.1
				c3.6-3.7,7.4-6.5,12.2-8.8c1.9-0.9,4.5-1.6,6.7-1.6c16.1-0.2,27.9,2.9,34.4,9.2c0.6,0.6,0.5,1.7,0.5,2.2
				c-7.5-5.8-19.8-9.2-34.9-8.3c-2.4,0.1-4.9,0.4-7,1.4c-4.5,2.1-7.9,5.5-11.8,8.6C81.9,64.4,81.3,64.3,81.3,64z"/>
			<path fill-rule="evenodd" clip-rule="evenodd" fill="#898584" d="M81.7,68.7l0.1-1.5c0-0.4,0.2-0.8,0.5-1.1
				c3.7-3.7,7.5-6.5,12.4-8.8c1.9-0.9,4.6-1.6,6.8-1.6c16.3-0.2,28.2,2.9,34.8,9.2c0.6,0.6,0.6,1.7,0.5,2.2
				c-7.6-5.8-20-9.2-35.3-8.3c-2.4,0.1-5,0.4-7.1,1.4c-4.6,2.1-8,5.5-11.9,8.6C82.3,69.1,81.7,69,81.7,68.7z"/>
			<path fill-rule="evenodd" clip-rule="evenodd" fill="#898584" d="M82,73.7l0.1-1.5c0-0.4,0.2-0.8,0.5-1.1
				c3.7-3.7,7.6-6.5,12.5-8.8c2-0.9,4.7-1.6,6.9-1.6c16.6-0.2,28.6,2.9,35.3,9.2c0.6,0.6,0.6,1.7,0.5,2.2
				c-7.7-5.8-20.3-9.2-35.8-8.3c-2.5,0.1-5,0.4-7.2,1.4c-4.6,2.1-8.1,5.5-12.1,8.6C82.6,74.1,82,74,82,73.7z"/>
			<path fill-rule="evenodd" clip-rule="evenodd" fill="#898584" d="M83.2,89.1l0.1-1.5c0-0.4,0.2-0.8,0.5-1.1
				c3.9-3.7,7.9-6.5,13.1-8.8c2.1-0.9,4.9-1.6,7.2-1.6c17.3-0.2,29.8,2.9,36.8,9.2c0.6,0.6,0.6,1.7,0.5,2.2
				c-8.1-5.8-21.2-9.1-37.3-8.3c-2.6,0.1-5.2,0.4-7.5,1.4c-4.8,2.1-8.5,5.5-12.6,8.6C83.7,89.5,83.2,89.4,83.2,89.1z"/>
			<path fill-rule="evenodd" clip-rule="evenodd" fill="#898584" d="M83.9,94.6l0.1-1.5c0-0.4,0.2-0.8,0.5-1.1
				c3.9-3.7,8-6.5,13.2-8.8c2.1-0.9,4.9-1.6,7.3-1.6c17.4-0.2,30.1,2.9,37.1,9.2c0.6,0.6,0.6,1.7,0.5,2.2
				c-8.1-5.8-21.4-9.1-37.7-8.3c-2.6,0.1-5.3,0.4-7.6,1.4c-4.9,2.1-8.5,5.5-12.7,8.6C84.5,94.9,83.9,94.8,83.9,94.6z"/>
			<path fill-rule="evenodd" clip-rule="evenodd" fill="#898584" d="M84.5,100.7l0.1-1.6c0-0.4,0.2-0.8,0.6-1.1
				c4-3.9,8.1-6.8,13.4-9.2c2.1-1,5-1.6,7.4-1.7c17.7-0.2,30.6,3,37.7,9.6c0.6,0.6,0.6,1.7,0.5,2.3c-8.3-6.1-21.7-9.6-38.3-8.7
				c-2.6,0.1-5.4,0.5-7.7,1.5c-4.9,2.2-8.7,5.8-12.9,9C85,101.1,84.4,101,84.5,100.7z"/>
			<path fill-rule="evenodd" clip-rule="evenodd" fill="#898584" d="M82.3,78.8l0.1-1.5c0-0.4,0.2-0.8,0.5-1.1
				c3.8-3.7,7.7-6.5,12.7-8.8c2-0.9,4.7-1.6,7-1.6c5.1-0.1,9.7,0.2,13.9,0.7c1.6,0.2,3,0.9,2.2,1.7l-1,0.7c-0.9,0.6-1.2,0.4-2.3,0.3
				c-4-0.4-8.3-0.5-12.9-0.3c-2.5,0.1-5.1,0.4-7.3,1.4c-4.7,2.1-8.2,5.5-12.3,8.6C82.9,79.2,82.3,79,82.3,78.8L82.3,78.8z
				 M126.9,68.7c4.8,1.5,8.7,3.6,11.6,6.3c0.6,0.6,0.6,1.7,0.5,2.2c-2.5-1.9-5.6-3.5-9.1-4.8c-0.6-0.2-0.8-0.3-1.2-0.7l-2.5-2.7
				C125.9,68.6,125.8,68.4,126.9,68.7z"/>
			<path fill-rule="evenodd" clip-rule="evenodd" fill="#898584" d="M82.8,83.8l0.1-1.5c0-0.4,0.2-0.8,0.5-1.1
				c3.8-3.7,7.8-6.5,12.9-8.8c2-0.9,4.8-1.6,7.1-1.6c4.3-0.1,8.3,0.1,12,0.5c1,0.1,1.3,0.1,2,0.7l2.4,1.8c0.2,0.3,0.2,0.8-0.6,0.7
				c-4.8-0.7-10.2-0.9-15.9-0.6c-2.5,0.1-5.2,0.4-7.4,1.4c-4.8,2.1-8.3,5.5-12.4,8.6C83.4,84.2,82.8,84.1,82.8,83.8L82.8,83.8z
				 M131.2,74.9c3.4,1.4,6.3,3.1,8.5,5.2c0.6,0.6,0.6,1.7,0.5,2.2c-3.3-2.4-7.5-4.5-12.4-5.9c-0.5-0.2-0.6-0.5-0.4-0.7l0.5-0.5
				C128.3,74.7,129.3,74.2,131.2,74.9z"/>
		</g>
		<g>
			<path fill-rule="evenodd" clip-rule="evenodd" fill="#13110C" d="M134.3,61.4c-7.6-5.2-19.3-8.1-33.4-7.3c-2.4,0.1-4.9,0.4-7,1.4
				c-4.2,1.9-7.4,5-10.9,7.9l-0.1-0.8c0-0.5,0.2-1,0.3-1.2c3.3-3.3,6.5-5.7,10.3-7.6c2-1,4.5-1.9,7.9-1.9
				c19.8-0.4,28.1,4.7,32.2,7.8c0.3,0.2,0.4,0.4,0.5,0.7C134.3,60.7,134.3,61.1,134.3,61.4z"/>
			<path fill-rule="evenodd" clip-rule="evenodd" fill="#13110C" d="M135.4,66.1c-7.7-5.2-19.5-8.1-33.8-7.3c-2.4,0.1-5,0.4-7.1,1.4
				c-4.2,1.9-7.4,5-11,7.9l-0.1-0.8c0-0.5,0.2-1,0.3-1.2c3.3-3.3,6.5-5.7,10.4-7.6c2-1,4.6-1.9,8-1.9c20-0.4,28.4,4.7,32.6,7.8
				c0.3,0.2,0.4,0.4,0.5,0.7C135.3,65.4,135.3,65.8,135.4,66.1z"/>
			<path fill-rule="evenodd" clip-rule="evenodd" fill="#13110C" d="M136.5,71.2c-7.8-5.2-19.8-8.1-34.3-7.3c-2.5,0.1-5,0.4-7.2,1.4
				c-4.3,1.9-7.6,5-11.2,7.9l-0.1-0.8c0-0.5,0.2-1,0.4-1.2c3.4-3.3,6.6-5.7,10.6-7.6c2.1-1,4.6-1.9,8.1-1.9
				c20.3-0.4,28.8,4.7,33,7.8c0.3,0.2,0.5,0.4,0.5,0.7C136.4,70.5,136.4,70.8,136.5,71.2z"/>
			<path fill-rule="evenodd" clip-rule="evenodd" fill="#13110C" d="M139.9,86.6c-8.1-5.2-20.6-8.1-35.8-7.3
				c-2.6,0.1-5.2,0.4-7.5,1.4c-4.5,1.9-7.9,5-11.6,7.9l-0.1-0.8c0-0.5,0.2-1,0.4-1.2c3.5-3.3,6.9-5.7,11-7.6c2.1-1,4.8-1.9,8.4-1.9
				c21.1-0.4,30.1,4.7,34.5,7.8c0.4,0.2,0.5,0.4,0.6,0.7C139.8,85.9,139.9,86.2,139.9,86.6z"/>
			<path fill-rule="evenodd" clip-rule="evenodd" fill="#13110C" d="M141.1,92c-8.2-5.2-20.8-8.1-36.1-7.3c-2.6,0.1-5.3,0.4-7.6,1.4
				c-4.5,1.9-8,5-11.7,7.9l-0.1-0.8c-0.1-0.5,0.2-1,0.4-1.2c3.5-3.3,7-5.7,11.1-7.6c2.2-1,4.9-1.9,8.5-1.9
				c21.3-0.4,30.3,4.7,34.8,7.8c0.4,0.2,0.5,0.4,0.6,0.7C141.1,91.3,141.1,91.6,141.1,92z"/>
			<path fill-rule="evenodd" clip-rule="evenodd" fill="#13110C" d="M142.6,98c-8.3-5.5-21.2-8.5-36.7-7.6c-2.6,0.1-5.4,0.5-7.7,1.5
				c-4.6,2-8.1,5.2-11.9,8.3l-0.1-0.8c-0.1-0.5,0.2-1.1,0.4-1.2c3.6-3.4,7.1-5.9,11.3-8c2.2-1.1,4.9-2,8.6-2
				c21.7-0.4,30.8,4.9,35.3,8.2c0.4,0.3,0.5,0.5,0.6,0.7C142.5,97.3,142.6,97.6,142.6,98z"/>
			<g>
				<path fill-rule="evenodd" clip-rule="evenodd" fill="#13110C" d="M135.4,74.9L135.4,74.9l-0.2-0.1c-0.2-0.1-0.5-0.3-0.7-0.4l0,0
					c-0.2-0.1-0.4-0.2-0.6-0.3l0,0l-0.1-0.1l-0.1-0.1l0,0l-0.1-0.1l-0.1-0.1l0,0l-0.1-0.1l-0.3-0.1l-0.1-0.1l0,0
					c-1-0.5-2-0.9-3.1-1.3l0,0l0,0l0,0l0,0c-0.4-0.1-0.6-0.3-0.9-0.6l-2.1-2.2c5,1.6,8.1,3.6,10.2,5.1c0.3,0.2,0.5,0.4,0.6,0.7
					c0.1,0.3,0.2,0.6,0.2,1C136.9,75.8,136.2,75.3,135.4,74.9L135.4,74.9z M134.6,74.5c-0.2-0.1-0.4-0.2-0.6-0.3L134.6,74.5
					L134.6,74.5z M116.7,69.3c-0.3,0-0.7-0.1-1-0.1c-2.1-0.2-4.2-0.3-6.4-0.4l-0.1,0l-0.3,0l-0.1,0c-0.4,0-0.7,0-1.1,0l-0.1,0
					l-0.1,0l-0.1,0l-0.1,0l-0.1,0l-0.1,0l-0.6,0l-0.2,0l-0.3,0l-0.2,0l0,0l-0.2,0l0,0l-0.2,0l0,0l-0.2,0l0,0l-0.2,0l0,0l-0.2,0l0,0
					l-0.2,0l0,0l-0.2,0l-0.2,0l0,0l-0.2,0l0,0l-0.2,0l0,0l-0.2,0l0,0l-0.2,0l0,0l-0.2,0h0l-0.2,0h0l-0.2,0h0l-0.1,0h0l-0.1,0h0
					l-0.1,0h0l-0.1,0h0l-0.1,0h0l-0.1,0h0l-0.1,0h0l-0.1,0h0l-0.1,0h0l-0.1,0h0l-0.1,0h0l-0.1,0h0l-0.1,0h0l-0.1,0h0l-0.1,0h0
					l-0.1,0h0l-0.1,0h0l-0.1,0h0l-0.1,0h0l-0.1,0h0l-0.1,0h0l-0.1,0h0l-0.1,0h0l-0.1,0h0l-0.1,0h0l-0.1,0h0l-0.1,0h0l-0.1,0h0
					l-0.1,0h0l-0.1,0h0l-0.1,0h0l-0.1,0h0l-0.1,0h0l-0.1,0l0,0l-0.1,0h0l-0.1,0h0l-0.1,0h0l-0.1,0h0l-0.1,0h0l-0.1,0h0l-0.1,0h0
					l-0.1,0h0l-0.1,0h0l-0.1,0l-0.1,0l-0.1,0l-0.1,0l-0.1,0h0l-0.1,0h0l-0.1,0h0l-0.1,0h0l-0.1,0h0l-0.1,0h0l-0.1,0h0l-0.1,0h0
					l-0.1,0h0l-0.1,0h0l-0.1,0h0l-0.1,0h0l-0.1,0h0l-0.1,0h0l-0.1,0l-0.1,0l-0.1,0l-0.2,0.1l0,0L95,70.5l0,0l-0.2,0.1l-0.1,0
					l-0.1,0.1l0,0l-0.4,0.2l0,0c-0.1,0.1-0.2,0.1-0.4,0.2l0,0c-0.2,0.1-0.4,0.2-0.6,0.4L93,71.6l-0.2,0.1l0,0l0,0l-0.2,0.1l0,0l0,0
					L92.2,72c-0.2,0.1-0.3,0.2-0.5,0.3l-0.1,0.1l0,0l-0.2,0.1l-0.1,0l-0.2,0.1l0,0l-0.1,0.1l0,0c-0.2,0.1-0.4,0.2-0.5,0.4l0,0
					c-0.2,0.2-0.5,0.3-0.7,0.5l-0.1,0l-0.1,0.1L89.4,74l-0.1,0.1l-0.1,0.1l-0.1,0l0,0l-0.2,0.2l-0.2,0.2l0,0l0,0l0,0l-0.3,0.2l0,0
					c-0.2,0.2-0.4,0.3-0.6,0.5l0,0l-0.1,0.1l0,0l-0.2,0.2l-0.1,0.1l-0.6,0.5l-0.1,0.1l0,0l-0.2,0.1l0,0l-0.2,0.1l0,0l-0.2,0.1l0,0
					l-0.1,0.1l0,0L85.6,77l-0.1,0l-0.1,0.1l-0.1,0.1l-0.1,0.1l-0.1,0.1l-0.1,0.1L85,77.5l-0.1,0.1l-0.3,0.2l0,0l-0.1,0.1l0,0
					l-0.2,0.1l0,0l-0.2,0.1l0,0L84,77.4c0-0.5,0.2-1,0.4-1.2c3.4-3.3,6.7-5.7,10.7-7.6c2.1-1,4.7-1.9,8.2-1.9
					c6.3-0.1,11.5,0.3,15.8,1c0.1,0.2,0,0.4-0.2,0.6l-1,0.7C117.4,69.2,117.1,69.3,116.7,69.3z"/>
			</g>
			<path fill-rule="evenodd" clip-rule="evenodd" fill="#13110C" d="M128.5,76.6L128.5,76.6l-0.3-0.1l-0.1,0l-0.5-0.1
				c-0.5-0.2-0.6-0.5-0.3-0.7l0.5-0.5c0.2-0.1,0.3-0.3,0.6-0.4c4.6,1.5,7.5,3.4,9.5,4.8c0.3,0.2,0.5,0.4,0.6,0.7
				c0.1,0.3,0.2,0.6,0.2,1C135.8,79.4,132.4,77.8,128.5,76.6L128.5,76.6z M119.4,74.6l-0.5-0.1c-4.3-0.6-8.9-0.8-13.9-0.6l-0.3,0
				l-0.3,0l-0.3,0l-0.1,0l-0.3,0l-0.3,0l-0.1,0l-0.1,0l-0.1,0l-0.1,0l-0.1,0l-0.1,0l-0.1,0l-0.1,0l-0.1,0l-0.1,0l-0.1,0l-0.1,0
				l-0.1,0l-0.1,0l-0.1,0l-0.1,0l-0.1,0l-0.1,0l-0.1,0l-0.1,0l-0.1,0l-0.1,0l-0.1,0l-0.1,0l-0.1,0l-0.1,0l-0.1,0l-0.1,0l-0.1,0
				l-0.1,0l-0.1,0l-0.1,0l-0.1,0l-0.1,0l-0.1,0l-0.1,0l-0.1,0l-0.1,0l-0.1,0l-0.1,0l-0.1,0l-0.1,0l-0.1,0l-0.1,0l-0.1,0l-0.1,0
				l-0.1,0l-0.1,0l-0.1,0l-0.1,0l-0.1,0l-0.1,0l-0.1,0l-0.1,0L97,75l-0.1,0l-0.1,0l-0.1,0l-0.1,0l-0.1,0l-0.1,0l-0.1,0l-0.1,0
				l-0.1,0l-0.2,0.1l0,0l-0.2,0.1l0,0l0,0c-0.1,0.1-0.3,0.1-0.4,0.2l0,0L95,75.9l-0.1,0L94.8,76l0,0l-0.1,0l-0.1,0.1l-0.2,0.1l0,0
				l-0.1,0l-0.1,0.1l-0.1,0.1l-0.1,0l0,0l-0.1,0l-0.3,0.1l-0.1,0l0,0l-0.2,0.1l0,0l-0.2,0.1l0,0l-0.3,0.2l-0.3,0.2l-0.1,0.1
				l-0.1,0.1l-0.1,0.1l0,0l-0.2,0.1l-0.1,0l-0.2,0.1l0,0l-0.1,0.1l0,0l-0.3,0.2l0,0l-0.2,0.1l0,0l-0.2,0.1l0,0
				c-0.3,0.2-0.6,0.5-1,0.7l-0.1,0.1l-0.2,0.1l-0.3,0.2l-0.2,0.1l-0.1,0l0,0l0,0l-0.2,0.2l-0.1,0l0,0l0,0l-0.3,0.2l0,0l-0.2,0.2
				L88,80.5c-0.5,0.4-1,0.8-1.4,1.1l0,0l-0.2,0.1l0,0l-0.1,0.1l0,0L86.1,82l-0.1,0l-0.3,0.2l-0.1,0.1l-0.1,0.1l-0.1,0.1l-0.1,0.1
				l-0.1,0.1l-0.1,0l-0.1,0.1l0,0L84.9,83l0,0l-0.3,0.3l-0.1-0.8c0-0.5,0.2-1,0.4-1.2c3.5-3.3,6.8-5.7,10.9-7.6
				c2.1-1,4.8-1.9,8.3-1.9c5.4-0.1,10,0.2,13.9,0.7l1.9,1.4C120.1,74.2,120.1,74.7,119.4,74.6z"/>
		</g>
		
			<linearGradient id="SVGID_2_" gradientUnits="userSpaceOnUse" x1="115.4816" y1="180.0234" x2="149.4238" y2="180.0234" gradientTransform="matrix(1 -6.000000e-003 6.000000e-003 1 -10.0866 -106.6313)">
			<stop  offset="0" style="stop-color:#13110C"/>
			<stop  offset="1" style="stop-color:#FFFFFF"/>
		</linearGradient>
		<polygon fill-rule="evenodd" clip-rule="evenodd" fill="url(#SVGID_2_)" points="117.4,52.3 124.9,91.9 127,92.5 129.5,92.9 
			121.5,53.2 119.4,52.5 		"/>
		<path fill-rule="evenodd" clip-rule="evenodd" fill="#13110C" d="M121.7,68.2c1.9,0,4.3,1.5,5.3,3.3c1,1.8,0.2,3.3-1.7,3.4
			c-1.9,0-4.3-1.5-5.3-3.3C119,69.8,119.8,68.3,121.7,68.2z"/>
		<path fill-rule="evenodd" clip-rule="evenodd" fill="#898584" d="M122.4,68.3c1.9,0.1,4.1,1.5,5.1,3.3c1,1.8,0.2,3.3-1.7,3.4
			c-0.2,0-0.5,0-0.7-0.1c0.1,0,0.1,0,0.2,0c1.9,0,2.7-1.5,1.7-3.4C126.1,69.9,124.2,68.6,122.4,68.3z"/>
		<g>
			<path fill-rule="evenodd" clip-rule="evenodd" fill="#898584" d="M117.2,55l-0.5-2.8c0.2,0,0.5,0.1,0.7,0.1l0.5,2.8
				C117.7,55.1,117.5,55,117.2,55z"/>
			<path fill-rule="evenodd" clip-rule="evenodd" fill="#898584" d="M118.1,59.7l-0.5-2.8c0.2,0,0.5,0.1,0.7,0.1l0.5,2.8
				C118.6,59.8,118.4,59.8,118.1,59.7z"/>
			<path fill-rule="evenodd" clip-rule="evenodd" fill="#898584" d="M119.1,64.7l-0.5-2.8c0.2,0,0.5,0.1,0.7,0.1l0.5,2.8
				C119.6,64.8,119.3,64.8,119.1,64.7z"/>
			<path fill-rule="evenodd" clip-rule="evenodd" fill="#898584" d="M122,80.2l-0.5-2.8c0.2,0,0.5,0.1,0.7,0.1l0.5,2.8
				C122.5,80.3,122.3,80.2,122,80.2z"/>
			<path fill-rule="evenodd" clip-rule="evenodd" fill="#898584" d="M123,85.6l-0.5-2.8c0.2,0,0.5,0.1,0.7,0.1l0.5,2.8
				C123.5,85.7,123.3,85.6,123,85.6z"/>
			<path fill-rule="evenodd" clip-rule="evenodd" fill="#898584" d="M124.1,91.3l-0.6-2.9c0.2,0,0.5,0.1,0.7,0.1l0.6,2.9
				C124.6,91.4,124.4,91.3,124.1,91.3z"/>
		</g>
		<g>
			<path fill-rule="evenodd" clip-rule="evenodd" fill="#898584" d="M129.4,98.8c-0.3-2.9,4.2-2.8,4.7,0.9
				c1.4,11.3-6.2,17.1-12.4,24.4c-1.1,1.2-5.8,0.7-4.2-1C124.7,115.7,130.4,108.3,129.4,98.8z"/>
			<path fill-rule="evenodd" clip-rule="evenodd" fill="#898584" d="M122.2,97.5c-0.3-2.9,4.2-2.8,4.7,0.9
				c1.4,11.3-6.2,17.1-12.4,24.4c-1.1,1.2-5.8,0.7-4.2-1C117.5,114.4,123.1,107,122.2,97.5z"/>
			<path fill-rule="evenodd" clip-rule="evenodd" fill="#898584" d="M114.1,96.8c-0.3-2.8,4-2.7,4.5,0.8
				c1.6,10.9-5.6,16.5-11.5,23.5c-1,1.2-6.1,0.5-4.6-1.1C109.4,112.9,115.2,105.9,114.1,96.8z"/>
			<path fill-rule="evenodd" clip-rule="evenodd" fill="#898584" d="M136.5,100.7c-0.3-2.8,3.1-2.8,3.4,0.8
				c0.8,10.9-4.3,14.6-9.9,21.6c-0.9,1.2-7,2.4-5.5,0.8C132,116,137.6,110.2,136.5,100.7z"/>
			<path fill-rule="evenodd" clip-rule="evenodd" fill="#898584" d="M142.5,102.5c-0.1-2.1,1.3-1.7,2.1,0.9
				c2.5,8.1-4.4,13.4-9.7,18.9c-0.8,0.8-4.7,2.1-3.6,0.9C136.8,117.2,143,112.2,142.5,102.5z"/>
			<path fill-rule="evenodd" clip-rule="evenodd" fill="#898584" d="M104.4,97.5c0.1-3.2,6.3-3.5,6.1,0.6
				c-0.5,9.9-5.9,13.4-10.9,20.7c-0.9,1.3-6.7-0.5-5.4-2.2C100.2,108.7,104,105.4,104.4,97.5z"/>
		</g>
		<g>
			<path fill-rule="evenodd" clip-rule="evenodd" fill="#13110C" d="M129.4,98.8c-0.1-1,0.3-1.6,1-1.9c1.2,0,2.6,1,2.8,2.9
				c1.4,11.3-6.2,17.1-12.4,24.4c-0.2,0.2-0.5,0.4-0.9,0.5c-1.6,0.1-3.5-0.5-2.4-1.6C124.7,115.7,130.4,108.3,129.4,98.8z"/>
			<path fill-rule="evenodd" clip-rule="evenodd" fill="#13110C" d="M122.2,97.5c-0.1-1,0.3-1.6,1-1.9c1.2,0,2.6,1,2.8,2.9
				c1.4,11.3-6.2,17.1-12.4,24.4c-0.2,0.2-0.5,0.4-0.9,0.5c-1.6,0.1-3.5-0.5-2.4-1.6C117.5,114.4,123.1,107,122.2,97.5z"/>
			<path fill-rule="evenodd" clip-rule="evenodd" fill="#13110C" d="M114.1,96.8c-0.1-0.9,0.3-1.5,0.9-1.8c1.1,0,2.5,1,2.7,2.8
				c1.6,10.9-5.6,16.5-11.5,23.5c-0.2,0.2-0.4,0.3-0.7,0.4c-1.7,0.1-4-0.5-2.9-1.7C109.4,112.9,115.2,105.9,114.1,96.8z"/>
			<path fill-rule="evenodd" clip-rule="evenodd" fill="#13110C" d="M136.5,100.7c-0.1-0.9,0.2-1.5,0.7-1.8c0.8,0.1,1.7,1,1.8,2.8
				c0.8,10.9-4.3,14.6-9.9,21.6c-0.4,0.5-1.9,1.1-3.2,1.3c-1.2,0.2-2.1,0-1.4-0.7C132,116,137.6,110.2,136.5,100.7z"/>
			<path fill-rule="evenodd" clip-rule="evenodd" fill="#13110C" d="M142.5,102.5c0-0.4,0-0.8,0.1-1c0.4,0.3,0.8,1,1.1,2
				c2.5,8.1-4.4,13.4-9.7,18.9c-0.4,0.4-1.7,1-2.6,1.2c-0.3,0-0.4-0.1-0.1-0.5C136.8,117.2,143,112.2,142.5,102.5z"/>
			<path fill-rule="evenodd" clip-rule="evenodd" fill="#13110C" d="M104.4,97.5c0.1-1.2,0.9-2,2-2.3c1.6-0.1,3.3,0.8,3.2,3
				c-0.5,9.9-5.9,13.4-10.9,20.7c-0.1,0.1-0.2,0.2-0.3,0.3c-1.9,0-5.1-1.3-4.1-2.6C100.2,108.7,104,105.4,104.4,97.5z"/>
		</g>
		<g>
			<path fill-rule="evenodd" clip-rule="evenodd" fill="#898584" d="M72.8,78.3c0.6-3.5,1.3-7,3.6-10c1.1-1.4,1.1,1.5-0.1,2.9
				C74.9,73,73.8,75.5,72.8,78.3z"/>
			<path fill-rule="evenodd" clip-rule="evenodd" fill="#898584" d="M73.1,83c0.6-3.5,1.3-7,3.6-10c1.1-1.4,1.1,1.5-0.1,2.9
				C75.2,77.7,74.1,80.2,73.1,83z"/>
			<path fill-rule="evenodd" clip-rule="evenodd" fill="#898584" d="M73.3,88.3c0.6-3.6,1.3-7.3,3.7-10.3c1.1-1.4,1.1,1.6-0.1,3
				C75.5,82.8,74.4,85.4,73.3,88.3z"/>
			<path fill-rule="evenodd" clip-rule="evenodd" fill="#898584" d="M73.4,93.3c0.7-3.6,1.5-7.3,4-10.3c1.2-1.4,1.2,1.6-0.1,3
				C75.7,87.8,74.6,90.3,73.4,93.3z"/>
			<path fill-rule="evenodd" clip-rule="evenodd" fill="#898584" d="M73.8,98.7c0.7-3.8,1.5-7.5,4.2-10.7c1.3-1.5,1.2,1.6-0.1,3.1
				C76.2,92.9,75,95.6,73.8,98.7z"/>
			<path fill-rule="evenodd" clip-rule="evenodd" fill="#898584" d="M74.1,104.2c0.7-3.8,1.3-7.6,4-10.8c1.3-1.5,1.5,1.7,0.1,3.2
				C76.5,98.4,75.3,101.1,74.1,104.2z"/>
			<path fill-rule="evenodd" clip-rule="evenodd" fill="#898584" d="M74.6,110c0.7-3.8,1.3-8.4,3.9-11.5c1.3-1.5,1.5,2.4,0.2,3.9
				C77,104.3,75.8,107,74.6,110z"/>
			<path fill-rule="evenodd" clip-rule="evenodd" fill="#898584" d="M75.3,115.2c0.7-3.8,1.3-8,4-11.1c1.3-1.5,1.4,2,0.1,3.5
				C77.7,109.5,76.4,112.2,75.3,115.2z"/>
		</g>
		<g>
			<path fill-rule="evenodd" clip-rule="evenodd" fill="#13110C" d="M77.2,68.5c0.1,0.7-0.2,1.9-0.9,2.7c-0.7,0.8-1.3,1.8-1.8,2.9
				C75.1,72.2,75.9,70.2,77.2,68.5L77.2,68.5z"/>
			<path fill-rule="evenodd" clip-rule="evenodd" fill="#13110C" d="M77.5,73.2c0.1,0.7-0.2,1.9-0.9,2.7c-0.7,0.8-1.3,1.8-1.8,2.9
				C75.4,76.9,76.2,74.9,77.5,73.2L77.5,73.2z"/>
			<path fill-rule="evenodd" clip-rule="evenodd" fill="#13110C" d="M77.9,78.2c0.1,0.7-0.2,2-0.9,2.8c-0.7,0.9-1.4,2-2,3.2
				C75.6,82.1,76.4,80,77.9,78.2L77.9,78.2z"/>
			<path fill-rule="evenodd" clip-rule="evenodd" fill="#13110C" d="M78.3,83.1c0.1,0.7-0.2,2.1-1,2.9c-0.9,1-1.6,2.1-2.3,3.4
				c0.6-2.2,1.5-4.3,3.1-6.2C78.3,83.1,78.3,83.1,78.3,83.1z"/>
			<path fill-rule="evenodd" clip-rule="evenodd" fill="#13110C" d="M78.9,88.1c0.1,0.7-0.2,2.2-1,3c-0.9,1-1.7,2.3-2.4,3.7
				c0.6-2.3,1.6-4.6,3.3-6.6C78.8,88.1,78.8,88.1,78.9,88.1z"/>
			<path fill-rule="evenodd" clip-rule="evenodd" fill="#13110C" d="M79.1,93.4c0.2,0.7,0,2.3-0.8,3.2c-1,1.1-1.8,2.5-2.6,4
				c0.6-2.5,1.4-4.9,3.2-7C78.9,93.5,79,93.5,79.1,93.4z"/>
			<path fill-rule="evenodd" clip-rule="evenodd" fill="#13110C" d="M79.5,98.6c0.3,0.9,0.1,2.9-0.8,3.8c-1,1.1-1.9,2.5-2.6,4.2
				c0.6-2.8,1.4-5.7,3.3-7.9C79.4,98.7,79.4,98.6,79.5,98.6z"/>
			<path fill-rule="evenodd" clip-rule="evenodd" fill="#13110C" d="M80.2,104.2c0.2,0.8,0,2.5-0.8,3.5c-1,1.1-1.8,2.5-2.6,4
				c0.6-2.6,1.5-5.2,3.3-7.3C80.1,104.3,80.2,104.2,80.2,104.2z"/>
		</g>
	</g>
	<g>
		
			<linearGradient id="SVGID_3_" gradientUnits="userSpaceOnUse" x1="94.1345" y1="246.0631" x2="134.0201" y2="246.0631" gradientTransform="matrix(1 -6.000000e-003 6.000000e-003 1 -10.0866 -106.6313)">
			<stop  offset="0" style="stop-color:#13110C"/>
			<stop  offset="1" style="stop-color:#474646"/>
		</linearGradient>
		<path fill-rule="evenodd" clip-rule="evenodd" fill="url(#SVGID_3_)" d="M96.4,152c-3.1-0.5-6.7-11.7-9.5-20.9
			c5.2-1.4,9.1-4.2,12.9-7c8,2.5,15.8,3.6,23.5,3.4c-0.1,5.9,0.9,10.8,0.8,16.8c-0.1,4.2-2.9,8.9-7.2,9
			C110.1,152.9,103.2,152.4,96.4,152z"/>
		
			<linearGradient id="SVGID_4_" gradientUnits="userSpaceOnUse" x1="94.1227" y1="245.3252" x2="113.2801" y2="245.3252" gradientTransform="matrix(1 -6.000000e-003 6.000000e-003 1 -10.0866 -106.6313)">
			<stop  offset="0" style="stop-color:#13110C"/>
			<stop  offset="1" style="stop-color:#13110C"/>
		</linearGradient>
		<path fill-rule="evenodd" clip-rule="evenodd" fill="url(#SVGID_4_)" d="M96.4,152c-3.1-0.5-6.7-11.7-9.5-20.9
			c5.2-1.4,9.1-4.2,12.9-7c0.7,5.2,3.4,11.7,3.4,17.3C103.3,147.4,100.4,152.1,96.4,152z"/>
		<path fill-rule="evenodd" clip-rule="evenodd" fill="#13110C" d="M108,135.3c-0.2-1.1,0.1-1.4,1.2-1.3c2.7,0.3,5.4,0.6,8.2,0.9
			c0.8,0.2,1,0.7,1.1,1.4c1.7,8.2,0.1,14-5.5,16.8c-3.3-0.2-6.6-0.4-9.9-0.7C108.2,149.4,109.9,143.7,108,135.3z"/>
	</g>
	
		<linearGradient id="SVGID_5_" gradientUnits="userSpaceOnUse" x1="112.2666" y1="422.8097" x2="126.7602" y2="422.8097" gradientTransform="matrix(1 -6.000000e-003 1.000000e-003 0.1684 -9.0118 134.8787)">
		<stop  offset="0" style="stop-color:#13110C"/>
		<stop  offset="0.42" style="stop-color:#FFFFFF"/>
		<stop  offset="1" style="stop-color:#474646"/>
	</linearGradient>
	<polygon fill-rule="evenodd" clip-rule="evenodd" fill="url(#SVGID_5_)" points="103.8,228.1 118.3,227.9 116.8,182.7 103.5,182.8 
			"/>
	<g>
		
			<linearGradient id="SVGID_6_" gradientUnits="userSpaceOnUse" x1="96.9948" y1="278.7314" x2="132.8567" y2="278.7314" gradientTransform="matrix(1 -6.000000e-003 6.000000e-003 1 -10.0866 -106.6313)">
			<stop  offset="0" style="stop-color:#474646"/>
			<stop  offset="1" style="stop-color:#E8E7E7"/>
		</linearGradient>
		<polygon fill-rule="evenodd" clip-rule="evenodd" fill="url(#SVGID_6_)" points="122.4,192 90.8,192.3 96.2,158.7 98.1,155.8 
			98.9,151.3 107.8,150.6 121.6,151.6 		"/>
		
			<linearGradient id="SVGID_7_" gradientUnits="userSpaceOnUse" x1="107.8245" y1="278.7201" x2="117.937" y2="278.7201" gradientTransform="matrix(1 -6.000000e-003 6.000000e-003 1 -10.0866 -106.6313)">
			<stop  offset="0" style="stop-color:#B2B1B1"/>
			<stop  offset="1" style="stop-color:#FFFFFF"/>
		</linearGradient>
		<polygon fill-rule="evenodd" clip-rule="evenodd" fill="url(#SVGID_7_)" points="100.1,192.2 100.9,153.6 107.8,150.6 109,192.2 
					"/>
		
			<linearGradient id="SVGID_8_" gradientUnits="userSpaceOnUse" x1="115.8549" y1="278.7092" x2="131.16" y2="278.7092" gradientTransform="matrix(1 -6.000000e-003 6.000000e-003 1 -10.0866 -106.6313)">
			<stop  offset="0" style="stop-color:#474646"/>
			<stop  offset="1" style="stop-color:#E8E7E7"/>
		</linearGradient>
		<polygon fill-rule="evenodd" clip-rule="evenodd" fill="url(#SVGID_8_)" points="107.8,150.6 121.6,151.6 122.4,192 109,192.2 		
			"/>
		
			<linearGradient id="SVGID_9_" gradientUnits="userSpaceOnUse" x1="115.0989" y1="276.6978" x2="133.3398" y2="276.6978" gradientTransform="matrix(1 -6.000000e-003 6.000000e-003 1 -10.0866 -106.6313)">
			<stop  offset="0" style="stop-color:#13110C"/>
			<stop  offset="1" style="stop-color:#474646"/>
		</linearGradient>
		<polygon fill-rule="evenodd" clip-rule="evenodd" fill="url(#SVGID_9_)" points="107.8,152.4 122.9,153.5 122.9,154.8 
			121.7,155.7 122.3,183.3 123.8,185.1 123.8,186.3 108.9,186.3 		"/>
		
			<linearGradient id="SVGID_10_" gradientUnits="userSpaceOnUse" x1="107.348" y1="276.6821" x2="117.6423" y2="276.6821" gradientTransform="matrix(1 -6.000000e-003 6.000000e-003 1 -10.0866 -106.6313)">
			<stop  offset="0" style="stop-color:#13110C"/>
			<stop  offset="1" style="stop-color:#474646"/>
		</linearGradient>
		<path fill-rule="evenodd" clip-rule="evenodd" fill="url(#SVGID_10_)" d="M107.8,152.4l-6.9,2.6c-0.5,0.2-0.8,0.6-0.8,1l-0.7,24.9
			c0,0.5,0.4,1,0.9,1.3l8.5,4.2L107.8,152.4z"/>
		
			<linearGradient id="SVGID_11_" gradientUnits="userSpaceOnUse" x1="116.8281" y1="276.8598" x2="130.0275" y2="276.8598" gradientTransform="matrix(1 -6.000000e-003 6.000000e-003 1 -10.0866 -106.6313)">
			<stop  offset="0" style="stop-color:#B2B1B1"/>
			<stop  offset="1" style="stop-color:#FFFFFF"/>
		</linearGradient>
		<polygon fill-rule="evenodd" clip-rule="evenodd" fill="url(#SVGID_11_)" points="108.7,156 120.5,156.7 121.3,183 109.5,182.7 		
			"/>
		<polygon fill-rule="evenodd" clip-rule="evenodd" fill="#13110C" points="112.1,165.2 117.7,165.4 117.8,173.7 112.4,173.6 		"/>
		<polygon fill-rule="evenodd" clip-rule="evenodd" fill="#3B3835" points="116.7,165.1 121.4,165.4 121.6,170.1 117.3,170.8 
			112.9,170.6 112.7,166.2 		"/>
		<polygon fill-rule="evenodd" clip-rule="evenodd" fill="#6E6A69" points="112.9,170.6 116.6,169.8 121.6,170.1 117.3,170.8 		"/>
		<polygon fill-rule="evenodd" clip-rule="evenodd" fill="#13110C" points="116.6,169.8 116.7,165.1 121.4,165.4 121.6,170.1 		"/>
		<path fill-rule="evenodd" clip-rule="evenodd" fill="#6E6A69" d="M109.4,150.7l-0.1-4.1c0.4-2,0.4-4-0.1-6l7.1,0.4
			c0.7,0.8,1,1.9,1.1,3.2l0,7.1L109.4,150.7z"/>
		
			<linearGradient id="SVGID_12_" gradientUnits="userSpaceOnUse" x1="104.2374" y1="252.0026" x2="112.7053" y2="252.0026" gradientTransform="matrix(1 -6.000000e-003 6.000000e-003 1 -10.0866 -106.6313)">
			<stop  offset="0" style="stop-color:#13110C"/>
			<stop  offset="1" style="stop-color:#474646"/>
		</linearGradient>
		<path fill-rule="evenodd" clip-rule="evenodd" fill="url(#SVGID_12_)" d="M100.6,138.8c2.1,0,3.5,2.6,3.2,5.9
			c-0.3,3.3-2.3,6-4.4,6c-0.7,0-1.9-0.2-2.9-0.4c-1.1-1-0.5-3.3-0.3-5.5c0.2-2.3,0.8-4.8,2-5.9C98.8,138.8,99.9,138.8,100.6,138.8z"
			/>
		
			<linearGradient id="SVGID_13_" gradientUnits="userSpaceOnUse" x1="102.3093" y1="251.8731" x2="110.1082" y2="251.8731" gradientTransform="matrix(1 -6.000000e-003 6.000000e-003 1 -10.0866 -106.6313)">
			<stop  offset="0" style="stop-color:#474646"/>
			<stop  offset="1" style="stop-color:#E8E7E7"/>
		</linearGradient>
		<path fill-rule="evenodd" clip-rule="evenodd" fill="url(#SVGID_13_)" d="M98.2,138.9c2.1,0,3.5,2.5,3.2,5.7
			c-0.3,3.2-2.3,5.7-4.4,5.7c-2.1,0-3.5-2.5-3.2-5.7C94.2,141.5,96.1,138.9,98.2,138.9z"/>
	</g>
	<g>
	</g>
	<g>
	</g>
	<g>
	</g>
	<g>
	</g>
	<g>
	</g>
	<g>
	</g>
</g>
</svg>
