<?xml version="1.0" encoding="utf-8"?>
<!-- Generator: Adobe Illustrator 24.0.1, SVG Export Plug-In . SVG Version: 6.00 Build 0)  -->
<svg version="1.1" id="Layer_1" xmlns="http://www.w3.org/2000/svg" xmlns:xlink="http://www.w3.org/1999/xlink" x="0px" y="0px"
	 viewBox="0 0 397.89 406.72" style="enable-background:new 0 0 397.89 406.72;" xml:space="preserve">
<style type="text/css">
	.st0{fill:#A120A5;}
	.st1{fill:#FFFFFF;}
	.st2{fill:#00BEFF;}
	.st3{fill:#FEDD00;}
	.st4{fill:#F5101C;}
	.st5{fill:#0062FE;}
	.st6{fill:#0ED366;}
</style>
<g>
	<g>
		<path class="st5" d="M180,78.78c-2.1,4.98-8.87,5.56-11.53,0.86c-0.08-0.13-0.15-0.27-0.22-0.4c-2.88-5.4-4.06-11.89-10.1-15.13
			c-2.75-1.47-6.24-1.07-8.33,1.25c-3.35,3.72-0.62,9.01,1.85,13.05c2.45,4,4.46,9.81,0.47,12.73c-2.13,1.56-5.02,1.4-7.25-0.03
			c-5.66-3.63-6.15-10.81-10.49-15.23c-3.15-3.21-9.82-3.56-11.18,0.73c-5.8,3.79-1.31,13.9,2.21,18.16
			c2.47,2.99,3.04,7.23,1.25,10.67c-3.94,7.59-13.41,1.73-19.46,5.28c-4.3,2.53-5.02,8.7-8.95,11.76
			c-4.34,3.38-10.84,1.62-15.26-1.66c-5.85-4.33-9.95-10.93-17.66-12.69c-3.16-0.72-6.57,0.03-8.84,2.34
			c-5.81,5.9,0.72,14.91,8,17.01c9.05,2.6,19.22-0.52,27.44,6.18c3.37,2.75,4.67,7.45,2.7,11.32c-2.95,5.8-10.36,4.82-15.86,7.17
			c-6.23,2.66-9.72,10.44-7.57,16.85c1.34,3.99,4.56,7.59,2.17,12.17c-0.94,1.8-2.53,3.19-4.34,4.11
			c-6.63,3.33-14.55,0.91-20.75,5.75c-2.22,1.74-3.46,4.56-2.86,7.31c1.35,6.18,9.64,6.24,15.61,4.95
			c5.82-1.25,13.77-1.46,15.67,4.18c1.93,5.7-4.9,11.13-9.17,13.74c-2.59,1.59-4.56,4.1-5.17,7.08
			c-1.71,8.35,8.66,11.26,15.01,11.34c3.12,0.04,6.24,0.78,8.82,2.54c8.54,5.82,2.36,15.08,3.3,23.17
			c1.24,10.68,14.01,15.72,24.75,16.11c11.58,0.43,24.27-1.63,33.52,6.02c4.12,3.41,6.17,8.66,6.09,14
			c-0.1,7.28,3.56,19.6,12.11,19.46c7.49-0.13,12.96-10.31,20.38-7.52c2.42,0.91,4.14,3.05,4.93,5.51
			c2.42,7.6-2.22,14.91,0.33,22.48c0.87,2.58,2.79,4.75,5.4,5.51c5.95,1.73,10.32-4.89,10.45-10.65c0.16-7.21-3.63-14.2-0.48-21.54
			c1.22-2.84,3.93-4.89,7.03-4.95c5.05-0.1,7.46,4.83,10.29,8.51c2.55,3.32,7.82,5.89,10.59,2.76c2.61-2.95,0.09-7.53,0.45-11.45
			c0.56-5.96,8.19-9.03,13.88-7.18c5.69,1.85,9.69,6.84,13.3,11.61c4.48,5.91,9.39,12.24,17.51,12.74c3.83,0.23,7.59-1.71,9.21-5.18
			c2.61-5.58-1.63-10.8-6.21-13.88c-4.94-3.32-10.9-5.57-13.2-11.66c-2.41-6.37,0.46-13.77,6.59-16.77
			c7.04-3.44,15.67-0.17,22.21,4.27c6.69,4.54,12.85,10.42,20.73,12.24c7.87,1.82,18.04-3.04,17.79-11.12
			c-0.19-6.16-6.14-10.54-11.93-12.66c-8.09-2.96-17.43-3.72-21.71-13.35c-2.69-6.05-2.03-13.09,1.44-18.73
			c7.18-11.65,22.26-14.26,34.71-10.65c6.34,1.84,12.43,5.13,19.36,3.46c3.08-0.74,5.74-2.86,6.82-5.84
			c2.54-7.02-5.21-12.75-12.17-13.58c-7.79-0.93-15.69,1.45-23.47,0.44c-0.08-0.01-0.16-0.02-0.23-0.03
			c-10.25-1.49-10.99-16.07-1-18.79l13.01-3.54c1.24-0.34,2.41-0.97,3.24-1.95c3.3-3.86-1.64-8.43-5.99-8.4
			c-3.95,0.02-7.62,2.1-11.55,2.47c-2.28,0.22-4.5-0.29-6.49-1.3c-8.49-4.3-8.73-16.4-0.75-21.59c6.01-3.91,12.39-7.49,19.07-9.63
			c6.18-1.98,4.64-11.21-1.84-10.8c-0.07,0-0.14,0.01-0.21,0.02c-5.46,0.45-10.21,3.68-15.08,6.19c-1.04,0.54-2.13,1.05-3.25,1.49
			c-5.19,2.06-8.45-5.64-3.41-8.05c0.56-0.27,1.11-0.52,1.64-0.78c4.47-2.14,9.2-6.89,6.97-11.3c-2.47-4.88-10.54-3.4-14.74-2.09
			c-2.55,0.79-5.39,0.45-7.57-1.1c-5.92-4.22-0.97-11.66,2.85-15.23c1.38-1.29,2.57-2.8,3.26-4.56c3.24-8.25-4.03-11.79-10.16-12.85
			c-4.66-0.8-9.9-1.2-13.04-4.73c-3.04-3.42-3.03-8.68-5.79-12.33c-3.04-4.02-8.85-5.07-13.74-3.86s-9.1,4.25-13.17,7.22
			c-2.97,2.17-7.18,2.53-10.62,1.2c-3.43-1.33-6.1-4.47-6.87-8.06c-1.1-5.17,1.46-11.09-2.59-15.35c-2.23-2.34-5.65-3.11-8.79-2.31
			c-6.08,1.54-9.42,7.25-10.77,12.99c-0.54,2.3-0.9,4.81-2.57,6.48c-2.13,2.13-5.63,2.06-8.5,1.16c-2.87-0.9-5.54-2.48-8.5-2.97
			c-3.9-0.63-8.09,0.84-10.74,3.78C181.34,76.19,180.56,77.43,180,78.78z"/>
		<path class="st5" d="M47.9,232.03c-2.34-2.94-6.94-2.31-10.49-1.06c-5.45,1.92-10.59,4.63-15.7,7.34c-2.47,1.3-5.29,3.2-5.16,5.99
			c0.14,2.84,3.3,4.48,6.09,5.04c7.97,1.62,16.66-0.87,22.57-6.45c1.49-1.41,2.84-3.05,3.49-5
			C49.34,235.93,49.18,233.63,47.9,232.03z"/>
		<path class="st5" d="M85.51,288.27c-1.73,2.75-2.87,6.14-1.94,9.25c0.94,3.11,4.6,5.47,7.55,4.12c1.82-0.83,2.91-2.8,3.22-4.77
			c0.31-1.97-0.03-3.99-0.36-5.96c-0.42-2.43-1.37-5.41-3.82-5.74C88.21,284.9,86.56,286.6,85.51,288.27z"/>
		<path class="st5" d="M155.91,359.4c5.93-2.15,8.65-9.4,7.81-15.64c-0.54-3.97-2.48-8.07-6.11-9.78
			c-4.14-1.95-9.26-0.14-12.48,3.11c-4.02,4.06-5.66,10.56-3.37,15.8C144.06,358.11,150.54,361.35,155.91,359.4z"/>
		<path class="st5" d="M198.96,354.89c-3.88-0.09-7.68,2.46-9.08,6.08c-1.93,5.03,1.41,11.38,6.65,12.64
			c5.24,1.26,11.1-2.89,11.65-8.25C208.72,360.17,204.18,355.01,198.96,354.89z"/>
		<path class="st5" d="M354.52,139.37c-0.13,2.1,0.04,4.3,1.08,6.13c1.75,3.1,5.94,4.49,9.27,3.21c3.32-1.28,5.48-4.97,5.15-8.52
			c-0.33-3.55-3-6.71-6.39-7.82c-2.36-0.77-5.21-0.51-6.98,1.23C355.15,135.06,354.66,137.27,354.52,139.37z"/>
		<path class="st5" d="M151.36,51.74c1.5-1.52,1.85-3.79,2.11-5.91c0.53-4.22,0.9-8.85-1.47-12.37c-2.74-4.08-8.87-5.21-13.09-2.7
			c-4.23,2.5-6.22,8.05-4.96,12.8c1.26,4.75,5.46,8.46,10.25,9.59C146.68,53.72,149.58,53.56,151.36,51.74z"/>
	</g>
	<path class="st1" d="M215.36,151.46h15.66v-23.95h-28.28c-12.09,0-21.89,9.8-21.89,21.89v22.33h-14.32v24.39h14.32v68.61h28.51
		v-68.61h19.13l2.53-24.39h-21.67v-14.27C209.36,154.15,212.05,151.46,215.36,151.46z"/>
</g>
</svg>
