<?xml version="1.0" encoding="utf-8"?>
<!-- Generator: Adobe Illustrator 24.0.1, SVG Export Plug-In . SVG Version: 6.00 Build 0)  -->
<svg version="1.1" id="Layer_1" xmlns="http://www.w3.org/2000/svg" xmlns:xlink="http://www.w3.org/1999/xlink" x="0px" y="0px"
	 viewBox="0 0 397.89 406.72" style="enable-background:new 0 0 397.89 406.72;" xml:space="preserve">
<style type="text/css">
	.st0{fill:#A120A5;}
	.st1{fill:#FFFFFF;}
	.st2{fill:#00BEFF;}
	.st3{fill:#FEDD00;}
	.st4{fill:#F5101C;}
	.st5{fill:#0062FE;}
	.st6{fill:#0ED366;}
</style>
<g>
	<g>
		<path class="st4" d="M342.53,200.29c-5.2,4.6-5.11,13.88,0.18,18.37c2.86,2.43,7.27,4.32,7.13,8.07
			c-0.13,3.48-4.14,5.19-6.67,7.58c-4.71,4.46-4.38,12-3.07,18.35s3.21,13.19,0.55,19.11c-3.71,8.28-14.15,10.59-23.13,11.9
			c-8.98,1.31-19.43,3.74-22.99,12.09c-2.01,4.73-1.49,10.88-5.46,14.15c-5.5,4.53-14.68-0.51-20.62,3.42
			c-5.19,3.43-4.54,11.2-2.7,17.14c1.85,5.94,4.18,12.81,0.74,17.99c-4.3,6.46-14.68,5.1-20.55,0.02
			c-5.86-5.08-9.03-12.55-13.96-18.54c-4.93-5.99-13.43-10.59-20.31-7.01c-4.6,2.4-7.2,7.87-12.09,9.58
			c-7.06,2.48-13.83-4.02-18.53-9.85c-4.7-5.83-11.52-12.3-18.56-9.74c-7.13,2.59-9.17,13.06-16.49,15.05
			c-5.5,1.5-11.18-3.03-13.03-8.42c-1.85-5.39-2.43-12.96-1.46-18.58c-4.3-7.67-18.21-1.21-24.04-7.79
			c-3.07-3.47-2.18-8.98,0.06-13.04c2.23-4.06,5.58-7.51,7.3-11.81c3.7-9.28-2.49-21.14-12.21-23.42
			c-6.18-1.45-14.29-0.24-17.37-5.79c-2.19-3.94-0.13-8.78,1.73-12.88c1.87-4.1,3.42-9.31,0.54-12.78
			c-3.52-4.24-10.5-2.19-14.82,1.23c-4.31,3.42-8.31,8.11-13.8,8.53c-3.7,0.28-7.47-1.71-9.33-4.91c-1.86-3.21-1.7-7.47,0.38-10.54
			c2.07-3.04,5.59-4.67,8.85-6.37c3.26-1.7,6.63-3.88,7.86-7.34c1.23-3.46-2.3-7.38-5.96-7.75c-5.9-0.6-11.24-5-12.97-10.68
			c-1.72-5.68,0.28-12.3,4.85-16.08c5.32-4.39,12.9-4.68,19.01-7.88c5.51-2.88,9.31-8.36,10.77-14.38
			c1.73-7.1,5.67-13.53,11.75-17.57c1.05-0.7,2.02-1.53,2.87-2.47c4.01-4.47,5.11-11.35,2.68-16.84c-1.67-3.78-4.74-6.73-6.96-10.22
			c-2.7-4.23-4.04-10.2,0.54-13.74c2.31-1.78,5.39-2.13,8.21-1.35c6.29,1.73,9.91,7.07,14.21,11.46c4.52,4.63,10.92,8.64,17.54,4.59
			c2.18-1.34,3.86-3.34,5.06-5.6c4.53-8.6,2.24-18.74,7.39-27.21c1.55-2.55,3.83-4.65,6.66-5.6c10.63-3.56,17.59,10.03,27.85,11.16
			c7.18,0.79,13.37-4.67,18.51-9.75c7.49-7.4,21.44-9.56,28.76-1.99c2.94,3.04,4.78,6.98,7.6,10.14s7.31,5.51,11.23,3.92
			c6.5-2.64,5.58-12.8,10.9-17.38c2.67-2.29,6.79-2.71,9.86-0.98c3.07,1.72,4.86,5.46,4.29,8.93c-0.96,5.82-7.43,9.3-9.07,14.96
			c-1.61,5.56,2.35,11.72,7.77,13.77c5.42,2.05,11.67,0.63,16.61-2.41c4.49-2.76,8.13-6.76,12.7-9.38
			c4.57-2.63,10.8-3.58,14.82-0.19c4.75,4.01,3.85,11.73,0.85,17.18c-3,5.45-7.64,10.02-9.64,15.91c-2.11,6.2-0.84,13.43,3.25,18.55
			c4.09,5.12,10.86,7.95,17.37,7.27c3.42-0.36,6.75-1.62,10.19-1.53c3.44,0.09,7.26,2.16,7.61,5.59c0.56,5.41-7.1,7.91-8.97,13.01
			c-1.67,4.54,1.85,9.37,5.8,12.16c3.95,2.79,8.71,4.76,11.45,8.74c3.05,4.43,2.83,10.48,0.79,15.46
			C350.82,190.85,346.56,196.73,342.53,200.29z"/>
		<path class="st4" d="M114.31,57.29c-0.99-8.06-7.06-15.26-14.84-17.6c-2.19-0.66-4.84-0.86-6.5,0.72
			c-1.45,1.37-1.62,3.61-1.4,5.58c0.73,6.5,4.72,12.31,9.8,16.44c1.62,1.32,3.41,2.51,5.44,2.99c2.03,0.47,4.36,0.11,5.84-1.36
			C114.38,62.37,114.6,59.68,114.31,57.29z"/>
		<path class="st4" d="M77.81,296.54c1.06,3.96,4.5,7.64,8.6,7.47c2.89-0.12,5.38-2.05,7.37-4.14c2.57-2.7,4.77-6.11,4.64-9.83
			c-0.14-4.07-3.33-7.76-7.28-8.76c-3.95-0.99-8.36,0.62-10.96,3.75C77.57,288.16,76.76,292.61,77.81,296.54z"/>
		<path class="st4" d="M125.37,358.79c2.84-1.43,5.14-3.92,6.36-6.86c2.24-5.44,0.36-12.29-4.35-15.83
			c-1.84-1.38-4.05-2.27-6.33-2.57c-5.52-0.71-11.32,2.42-13.75,7.43c-2.43,5-1.32,11.5,2.64,15.41S120.4,361.3,125.37,358.79z"/>
		<path class="st4" d="M182.37,369.46c1.75-0.59,2.92-2.22,3.83-3.83c2.32-4.13,3.66-8.79,3.96-13.51c0.11-1.69,0.08-3.42-0.48-5.01
			c-0.55-1.6-1.7-3.05-3.29-3.64c-1.7-0.63-3.67-0.16-5.16,0.88c-1.49,1.03-2.57,2.56-3.44,4.15c-1.97,3.59-3.05,7.66-3.13,11.76
			c-0.04,2.35,0.28,4.81,1.6,6.76C177.59,368.96,180.14,370.21,182.37,369.46z"/>
		<path class="st4" d="M311.98,48.44c-2.26,3.03-2.96,7.2-1.67,10.76c1.28,3.56,4.56,6.35,8.3,6.92s7.76-1.19,9.77-4.39
			c2.38-3.79,1.71-8.95-0.76-12.68c-1.39-2.1-3.39-3.9-5.83-4.54C318.18,43.57,314.22,45.45,311.98,48.44z"/>
		<path class="st4" d="M281.61,334.59c-2.26,3.31-3,7.66-1.77,11.47c1.23,3.81,4.48,6.96,8.39,7.86c3.9,0.9,8.31-0.57,10.72-3.77
			c2.41-3.2,2.59-7.97,0.25-11.22c-1.85-2.58-4.97-4.01-8.1-4.51C287.97,333.92,284.77,334.26,281.61,334.59z"/>
		<path class="st4" d="M314.15,310.06c-4.7,2.99-7.22,9.1-5.84,14.5s6.62,9.6,12.18,9.62c5.57,0.02,10.9-4.24,11.97-9.7
			c1.07-5.46-2.36-11.49-7.65-13.24C321.41,310.11,317.69,310.66,314.15,310.06z"/>
	</g>
	<g>
		<path class="st1" d="M258.37,146.74h-99.04c-14.73,0-26.67,11.94-26.67,26.67v52.8c0,14.73,11.94,26.67,26.67,26.67h99.04
			c14.73,0,26.67-11.94,26.67-26.67v-52.8C285.04,158.68,273.1,146.74,258.37,146.74z M194.02,221.74v-43.86l37.99,21.93
			L194.02,221.74z"/>
	</g>
</g>
</svg>
