<?xml version="1.0" encoding="utf-8"?>
<!-- Generator: Adobe Illustrator 24.0.1, SVG Export Plug-In . SVG Version: 6.00 Build 0)  -->
<svg version="1.1" id="Layer_1" xmlns="http://www.w3.org/2000/svg" xmlns:xlink="http://www.w3.org/1999/xlink" x="0px" y="0px"
	 viewBox="0 0 397.89 406.72" style="enable-background:new 0 0 397.89 406.72;" xml:space="preserve">
<style type="text/css">
	.st0{fill:#A120A5;}
	.st1{fill:#FFFFFF;}
	.st2{fill:#00BEFF;}
	.st3{fill:#FEDD00;}
	.st4{fill:#F5101C;}
	.st5{fill:#0062FE;}
	.st6{fill:#0ED366;}
</style>
<g>
	<g>
		<path class="st0" d="M202.06,74.81c-2.51,5.64-8.44,9.58-14.61,9.72c-6.17,0.14-12.27-3.54-15.02-9.06
			c-2.7-5.41-2.28-12.01-6.42-16.93c-1.27-1.51-3-2.62-4.94-2.94c-6.25-1.02-9.38,5.71-8.68,11.13c0.82,6.43,5.21,11.99,4.85,18.78
			c-0.1,1.95-0.7,3.87-1.9,5.41c-3.79,4.88-10.13,3.15-14.4,0.02c-4.68-3.43-8.24-8.45-14.51-9.45c-3.04-0.49-6.21,0.8-7.72,3.49
			c-4.31,7.64,9.49,18.15,3.76,24.99c-3.89,4.65-11.79,0.87-17.34,3.29c-4.57,1.99-6.24,7.46-8.9,11.67
			c-1.42,2.24-3.59,3.91-6.09,4.82c-3.03,1.11-5.32,3.61-5.95,6.8c-0.83,4.15-3.54,7.6-6.98,10.06c-6.65,4.75-3.67,15.58,4.5,16.05
			c0.29,0.02,0.57,0.02,0.87,0.02c2.02-0.03,3.99,0.76,5.19,2.37c5.55,7.46-4.01,10.77-8.91,7.72c-5.31-3.31-7.59-10.29-14.56-11.7
			c-2.64-0.53-5.7,1.05-6.52,3.61c-1.45,4.52,3.91,7.77,7.86,8.7c1.26,0.29,2.5,0.67,3.66,1.24c8.47,4.18,4.56,11.94-0.37,15.85
			c-3.67,2.91-8.22,5.16-10.33,9.33c-2.4,4.75,1.49,10.07,6.79,9.64c6.15-0.5,11.48,8.34,10.8,14.78
			c-0.73,6.86-4.02,13.52-3.1,20.36c1.26,9.33,9.75,15.69,17.43,21.13c7.68,5.43,15.98,12.27,16.5,21.67
			c0.29,5.1-1.85,10-2.74,15.03c-1.15,6.49,0.62,14.73,9.15,14.93c3.95,0.09,7.69-1.74,10.31-4.69c4.65-5.26,14.16-14,21.32-8.89
			c2.38,1.7,3.68,4.49,3.87,7.41c0.55,8.54-5.77,15.11-5.57,23.5c0.06,2.65,0.95,5.27,2.81,7.17c5.04,5.14,12.42,1.16,14.86-4.4
			c1.22-2.77,1.53-5.78,1.48-8.83c-0.1-6.04,7.73-8.68,11-3.6c0.02,0.04,0.05,0.08,0.07,0.11c2.38,3.84,2.25,8.67,2.04,13.19
			c-0.36,7.94-0.73,15.88-1.09,23.82c-0.16,3.54-0.29,7.26,1.91,10.29c1.27,1.75,3.36,2.83,5.5,2.5c4.87-0.75,5.47-7.29,4.9-12.1
			c-0.84-7.04-1.68-14.08-2.53-21.11c-0.59-4.96-1.16-10.19,1.74-14.63c1.57-2.41,4.27-4,7.14-3.8c7.71,0.54,9.82,13.12,17.36,13.15
			c5.9,0.02,8.32-7.69,7.95-13.58c-0.4-6.3-1.46-13.91,4.27-17.4c2.54-1.55,5.68-1.64,8.5-0.67c8.61,2.98,12.23,11.99,20.57,15.31
			c2.6,1.03,5.51,1.24,8.09,0.16c6.16-2.6,6.33-10.07,4.46-15.78c-1.64-5-4.46-9.76-4.58-15.01c-0.12-5.26,4.18-11.16,9.32-10.03
			c2.98,3.71,9.36,3.14,14,2.08c4.64-1.06,8.52-4.92,9.6-9.55c0.59-2.53,0.4-5.22,1.27-7.67c2.27-6.43,10.67-8.4,17.36-7.06
			c6.69,1.34,12.84,4.9,19.62,5.67c6.78,0.77,15-2.85,15.58-9.64c0.58-6.8-6.4-11.52-12.5-14.58c-6.1-3.06-13.18-7.49-12.98-14.3
			c0.18-6.35,6.79-10.75,8.2-16.94c1.5-6.58-3.21-12.87-7.96-17.67c-5.96-6.03-12.61-11.69-16.52-19.22
			c-3.91-7.53-4.29-17.74,1.75-23.69c3.3-3.25,7.93-4.74,11.69-7.46c3.75-2.72,6.67-7.87,4.38-11.89
			c-2.65-4.65-9.61-3.91-14.47-1.68c-4.86,2.23-10.17,5.38-15.18,3.51c-4.64-1.74-6.79-7.18-7.08-12.13
			c-0.29-4.95,0.73-9.96-0.07-14.85c-0.79-4.89-4.23-9.97-9.18-10.22c-7.39-0.38-12.43,9.74-19.77,8.8
			c-5.83-0.75-8.17-9.18-7.01-14.95c1.16-5.77,5.17-10.46,8.75-15.13c4.32-5.64,8.2-11.61,11.6-17.85c1.3-2.38,2.54-4.88,2.78-7.58
			c0.24-2.7-0.76-5.67-3.08-7.08c-3.17-1.92-7.5-0.13-9.72,2.84c-2.21,2.97-2.88,6.77-3.67,10.39c-1.51,6.88-3.68,13.62-6.48,20.08
			c-2.12,4.9-5.15,10.11-10.3,11.53c-4.22,1.16-8.71-0.62-12.39-3c-3.68-2.38-6.98-5.41-11-7.16
			C212.32,71.21,203.84,70.8,202.06,74.81z"/>
		<path class="st0" d="M188.05,67.84c5.4,1.06,11.29-2.71,12.59-8.05c1.3-5.35-2.21-11.4-7.5-12.93c-3.41,1.76-6.91,3.6-9.33,6.58
			c-2.42,2.97-3.47,7.41-1.47,10.68C183.56,66.11,185.76,67.39,188.05,67.84z"/>
		<path class="st0" d="M213.05,57.57c2.15,2.54,6.01,3.15,9.16,2.08c3.15-1.07,5.65-3.53,7.54-6.27c1.82-2.64,3.19-5.69,3.36-8.9
			c0.17-3.21-0.99-6.58-3.48-8.6c-2.67-2.17-6.72-2.46-9.68-0.68c-2.74,1.65-4.31,4.66-5.74,7.53
			C211.86,47.45,209.64,53.55,213.05,57.57z"/>
		<path class="st0" d="M101.66,89.99c-4.26,1.79-5.57,8.23-2.35,11.55c2.4,2.47,6.67,2.79,9.41,0.72c2.74-2.07,3.6-6.27,1.88-9.25
			C108.89,90.02,104.83,88.66,101.66,89.99z"/>
		<path class="st0" d="M57.44,133c-2.4-0.18-4.85,0.69-6.6,2.33c-3.04,2.85-3.56,8-1.15,11.4c2.41,3.4,7.44,4.61,11.13,2.69
			c3.69-1.92,5.58-6.74,4.18-10.66C63.87,135.6,60.78,133.25,57.44,133z"/>
		<path class="st0" d="M53.2,221.17c-6.55-4.5-15.94-4.37-22.35,0.31c-0.52,0.38-1.05,0.82-1.27,1.44c-0.44,1.24,0.56,2.5,1.56,3.35
			c5.35,4.56,13.15,6.06,19.81,3.8c2.62-0.89,5.44-3.11,4.81-5.8C55.44,222.94,54.33,221.95,53.2,221.17z"/>
		<path class="st0" d="M83.44,292.79c3.2-2.76,5.25-6.81,5.58-11.03c0.2-2.63-0.41-5.59-2.57-7.1c-2.38-1.67-5.73-0.95-8.19,0.58
			c-3.77,2.34-6.38,6.46-6.89,10.87c-0.41,3.54,0.96,7.73,4.33,8.89C78.35,295.92,81.3,294.63,83.44,292.79z"/>
		<path class="st0" d="M69.59,256.63c-1.67-2.94-6.37-3.47-8.65-0.97c-2.28,2.5-1.33,7.13,1.75,8.53c2.05,0.93,4.68,0.39,6.2-1.27
			C70.41,261.26,70.7,258.59,69.59,256.63z"/>
		<path class="st0" d="M275.75,328.39c3.89,1.31,8.62-1.15,9.77-5.09s-1.51-8.56-5.5-9.55c-3.38-0.83-7.22,0.98-8.72,4.12
			C269.46,321.76,271.68,327.02,275.75,328.39z"/>
		<path class="st0" d="M303.63,293.4c-3.51-1.53-7.95-2.85-10.85-0.36c-2.42,2.08-2.42,6-0.87,8.79c1.55,2.79,4.26,4.7,6.88,6.52
			c4.19,2.91,8.38,5.82,12.57,8.73c1.7,1.18,3.44,2.38,5.42,3.01c1.98,0.62,4.27,0.6,5.99-0.57c1.73-1.18,2.6-3.37,2.57-5.46
			c-0.03-2.1-0.84-4.11-1.91-5.92C319.19,300.92,311.3,296.75,303.63,293.4z"/>
		<path class="st0" d="M361.53,201.58c3.16-3.42,2.74-9.49-0.86-12.45c-3.6-2.95-9.64-2.17-12.37,1.6c-3.6,2.83-3.06,9.14,0.6,11.89
			C352.55,205.38,358.13,204.65,361.53,201.58z"/>
	</g>
	<g>
		<path class="st1" d="M212.62,139.44h-43.04c-19.41,0-35.19,15.79-35.19,35.19v43.04c0,19.41,15.79,35.19,35.19,35.19h43.04
			c19.41,0,35.19-15.79,35.19-35.19v-43.04C247.81,155.23,232.02,139.44,212.62,139.44z M236.9,217.68
			c0,13.39-10.9,24.29-24.29,24.29h-43.04c-13.39,0-24.29-10.9-24.29-24.29v-43.04c0-13.39,10.89-24.29,24.29-24.29h43.04
			c13.39,0,24.29,10.89,24.29,24.29V217.68z"/>
		<path class="st1" d="M191.1,165.61c-16.84,0-30.54,13.7-30.54,30.54s13.7,30.54,30.54,30.54c16.84,0,30.54-13.7,30.54-30.54
			S207.94,165.61,191.1,165.61z M191.1,215.79c-10.83,0-19.64-8.81-19.64-19.64c0-10.83,8.81-19.64,19.64-19.64
			c10.83,0,19.64,8.81,19.64,19.64C210.73,206.99,201.92,215.79,191.1,215.79z"/>
		<path class="st1" d="M219.1,158.99c-3.72,0-6.73,3.01-6.73,6.73c0,3.72,3.01,6.73,6.73,6.73c3.72,0,6.73-3.01,6.73-6.73
			C225.83,162,222.82,158.99,219.1,158.99z"/>
	</g>
</g>
</svg>
