<?xml version="1.0" encoding="utf-8"?>
<!-- Generator: Adobe Illustrator 18.0.0, SVG Export Plug-In . SVG Version: 6.00 Build 0)  -->
<!DOCTYPE svg PUBLIC "-//W3C//DTD SVG 1.1//EN" "http://www.w3.org/Graphics/SVG/1.1/DTD/svg11.dtd">
<svg version="1.1" id="Calque_2" xmlns="http://www.w3.org/2000/svg" xmlns:xlink="http://www.w3.org/1999/xlink" x="0px" y="0px"
	 viewBox="0 0 511.2 555.6" enable-background="new 0 0 511.2 555.6" xml:space="preserve">
<rect x="0.2" y="0.6" fill="#662D91" width="511" height="556"/>
<polygon fill="#FFFF00" points="86.3,112.3 146,31.7 392.3,30.8 456.6,111.4 270.7,377.2 "/>
<g>
	<g>
		<g enable-background="new    ">
			<g>
				<polygon points="466,106.6 437.5,106.6 368.7,15.5 397.2,15.5 				"/>
			</g>
			<g>
				<polygon fill="#510000" points="461.7,106.8 433.2,106.8 367.3,19.5 395.8,19.5 				"/>
			</g>
			<g>
				<polygon points="461.7,106.8 433.2,106.8 367.3,19.5 395.8,19.5 				"/>
			</g>
			<g>
				<polygon points="430.7,105.4 402.2,105.4 362.2,54.5 390.7,54.5 				"/>
			</g>
			<g>
				<polygon fill="#6F0000" points="430.7,105.4 402.2,105.4 362.2,54.5 390.7,54.5 				"/>
			</g>
			<g>
				<polygon fill="#870000" points="385.5,173.2 356.9,173.2 402.2,105.4 430.7,105.4 				"/>
			</g>
			<g>
				<polygon points="426.3,105.6 397.8,105.6 365.5,64.5 394,64.5 				"/>
			</g>
			<g>
				<rect x="362.2" y="54.5" width="28.5" height="56"/>
			</g>
			<g>
				<polygon points="386.1,165.9 357.6,165.9 397.8,105.6 426.3,105.6 				"/>
			</g>
			<g>
				<polygon points="385.5,173.2 356.9,173.2 355.8,170.3 384.3,170.3 				"/>
			</g>
			<g>
				<polygon fill="#6F0000" points="358.1,42.9 329.5,42.9 329.1,42.5 357.6,42.5 				"/>
			</g>
			<g enable-background="new    ">
				<defs>
					<path id="SVGID_1_" enable-background="new    " d="M352.5,67.8H324c0.9-1.1,8.2-10.9,8.1-18.6c0-0.2,0-0.5,0-0.7
						c-0.2-2.3-1-4.3-2.6-5.6h28.5c1.5,1.4,2.4,3.3,2.6,5.6c0,0.2,0,0.5,0,0.7C360.7,57,353.4,66.7,352.5,67.8z"/>
				</defs>
				<clipPath id="SVGID_2_">
					<use xlink:href="#SVGID_1_"  overflow="visible"/>
				</clipPath>
				<g clip-path="url(#SVGID_2_)" enable-background="new    ">
					<path fill="#800000" d="M352.5,67.8H324c0.1-0.1,0.2-0.2,0.3-0.4h28.5C352.7,67.6,352.6,67.8,352.5,67.8"/>
					<path fill="#7C0000" d="M352.8,67.4h-28.5c1.2-1.6,4.8-6.6,6.6-12h28.5C357.6,60.8,354,65.8,352.8,67.4"/>
					<path fill="#770000" d="M359.5,55.4h-28.5c0.6-1.6,1-3.3,1.1-4.9h28.5C360.5,52.1,360,53.8,359.5,55.4"/>
					<path fill="#730000" d="M360.6,50.5h-28.5c0-0.4,0.1-0.8,0.1-1.2c0-0.2,0-0.5,0-0.7c-0.2-2.3-1-4.3-2.6-5.6h28.5
						c1.5,1.4,2.4,3.3,2.6,5.6c0,0.2,0,0.5,0,0.7C360.7,49.7,360.6,50.1,360.6,50.5"/>
				</g>
			</g>
			<g enable-background="new    ">
				<defs>
					<path id="SVGID_3_" enable-background="new    " d="M351.3,63.4l-28.5,0c2.5-3.6,6.3-10.2,6-14.6c-0.1-1-0.3-1.7-0.9-2.4
						l28.5,0c0.5,0.6,0.8,1.4,0.9,2.4C357.7,53.2,353.8,59.8,351.3,63.4z"/>
				</defs>
				<clipPath id="SVGID_4_">
					<use xlink:href="#SVGID_3_"  overflow="visible"/>
				</clipPath>
				<g clip-path="url(#SVGID_4_)" enable-background="new    ">
					<path d="M351.3,63.4h-28.5c1.7-2.4,3.9-6.2,5.1-9.7l28.5,0C355.3,57.3,353,61,351.3,63.4"/>
					<path d="M356.5,53.8l-28.5,0c0.4-1.3,0.8-2.5,0.8-3.6l28.5,0C357.2,51.3,356.9,52.5,356.5,53.8"/>
					<path d="M357.3,50.1l-28.5,0c0-0.4,0-0.9,0-1.3c-0.1-1-0.3-1.7-0.9-2.4l28.5,0c0.5,0.6,0.8,1.4,0.9,2.4
						C357.4,49.3,357.4,49.7,357.3,50.1"/>
				</g>
			</g>
			<g>
				<polygon fill="#870000" points="351.3,69.5 322.8,69.5 324,67.8 352.5,67.8 				"/>
			</g>
			<g enable-background="new    ">
				<defs>
					<path id="SVGID_5_" enable-background="new    " d="M319.6,133.7c0.3,0,0.8,0,1.1,0c0.3,0,0.8,0,1.1,0c0.4,0,0.8,0,1.2,0
						c0.4,0,0.8,0,1.2,0c0.4,0,0.8,0,1.2,0c0.4,0,0.8,0,1.2,0c0.3,0,0.8,0,1.1,0c0.3,0,0.8,0,1.1,0c0.7,0,1.6,0,2.3,0
						c0.7,0,1.7,0,2.4,0c0.7,0,1.7,0,2.5,0c0.8,0,1.8,0,2.5,0c0.8,0,1.8,0,2.5,0c0.7,0,1.7,0,2.5,0c0.7,0,1.7,0,2.4,0
						c0.7,0,1.6,0,2.3,0c8.6,4.2,15.2,9.3,20.1,14.1c11.5,11.2,16,22.5,16.1,22.6h-28.5c0-0.1-4.6-11.4-16.1-22.6
						C334.9,143,328.2,137.9,319.6,133.7z"/>
				</defs>
				<clipPath id="SVGID_6_">
					<use xlink:href="#SVGID_5_"  overflow="visible"/>
				</clipPath>
				<g clip-path="url(#SVGID_6_)" enable-background="new    ">
					<path d="M384.3,170.3h-28.5c0-0.1-4.6-11.4-16.1-22.6c-10.6-10.3-29.5-22.6-59.1-22.6h28.5c29.7,0,48.5,12.3,59.1,22.6
						C379.7,158.9,384.3,170.2,384.3,170.3"/>
				</g>
			</g>
			<g enable-background="new    ">
				<defs>
					<path id="SVGID_7_" enable-background="new    " d="M316.1,132.1c0.2,0,0.4,0,0.6,0c0.1,0,0.2,0,0.3,0c0.2,0,0.4,0,0.6,0
						c0.2,0,0.4,0,0.6,0c0.2,0,0.4,0,0.6,0c0.2,0,0.4,0,0.6,0c0.2,0,0.4,0,0.6,0c0.2,0,0.4,0,0.6,0c0.5,0,1.1,0,1.6,0
						c0.9,0,2,0,2.9,0c0.9,0,2.1,0,3,0c0.9,0,2.2,0,3.1,0c0.9,0,2.2,0,3.1,0c0.9,0,2.2,0,3.1,0c0.9,0,2.1,0,3,0c0.9,0,2,0,2.9,0
						c0.4,0,1,0,1.4,0c1.2,0.5,2.4,1.1,3.5,1.6c-0.7,0-1.6,0-2.3,0c-0.7,0-1.7,0-2.4,0c-0.7,0-1.7,0-2.5,0c-0.8,0-1.8,0-2.5,0
						c-0.8,0-1.8,0-2.5,0c-0.7,0-1.7,0-2.5,0c-0.7,0-1.7,0-2.4,0c-0.7,0-1.6,0-2.3,0c-0.3,0-0.8,0-1.1,0c-0.3,0-0.8,0-1.1,0
						c-0.4,0-0.8,0-1.2,0c-0.4,0-0.8,0-1.2,0c-0.4,0-0.8,0-1.2,0c-0.4,0-0.8,0-1.2,0c-0.3,0-0.8,0-1.1,0c-0.3,0-0.8,0-1.1,0
						C318.5,133.1,317.3,132.6,316.1,132.1z"/>
				</defs>
				<clipPath id="SVGID_8_">
					<use xlink:href="#SVGID_7_"  overflow="visible"/>
				</clipPath>
				<g clip-path="url(#SVGID_8_)" enable-background="new    ">
					<path d="M384.3,170.3h-28.5c0-0.1-4.6-11.4-16.1-22.6c-10.6-10.3-29.5-22.6-59.1-22.6h28.5c29.7,0,48.5,12.3,59.1,22.6
						C379.7,158.9,384.3,170.2,384.3,170.3"/>
				</g>
			</g>
			<g>
				<polygon points="332.1,42.5 303.6,42.5 329.1,42.5 357.6,42.5 				"/>
			</g>
			<g>
				<polygon points="332.1,42.5 303.6,42.5 329.1,42.5 357.6,42.5 				"/>
			</g>
			<g>
				<polygon points="351.3,69.5 322.8,69.5 303.6,42.5 332.1,42.5 				"/>
			</g>
			<g>
				<polygon points="328.4,114.5 299.8,114.5 299.8,112.5 328.3,112.5 				"/>
			</g>
			<g enable-background="new    ">
				<defs>
					<path id="SVGID_9_" enable-background="new    " d="M316.1,132.1c-9.5-4.1-21.3-6.9-35.5-6.9l28.5,0c14.2,0,26,2.8,35.5,6.9
						c-0.8,0-1.9,0-2.8,0c-0.9,0-2.1,0-2.9,0c-0.9,0-2.1,0-3.1,0c-0.9,0-2.2,0-3.1,0c-0.9,0-2.2,0-3.1,0c-0.9,0-2.1,0-3.1,0
						c-0.9,0-2.1,0-2.9,0c-0.8,0-1.9,0-2.8,0c-0.2,0-0.4,0-0.6,0c-0.2,0-0.4,0-0.6,0c-0.2,0-0.4,0-0.6,0c-0.2,0-0.4,0-0.6,0
						c-0.2,0-0.4,0-0.6,0c-0.2,0-0.4,0-0.6,0c-0.2,0-0.4,0-0.6,0C316.5,132.1,316.3,132.1,316.1,132.1z"/>
				</defs>
				<clipPath id="SVGID_10_">
					<use xlink:href="#SVGID_9_"  overflow="visible"/>
				</clipPath>
				<g clip-path="url(#SVGID_10_)" enable-background="new    ">
					<path d="M384.3,170.3h-28.5c0-0.1-4.6-11.4-16.1-22.6c-10.6-10.3-29.5-22.6-59.1-22.6h28.5c29.7,0,48.5,12.3,59.1,22.6
						C379.7,158.9,384.3,170.2,384.3,170.3"/>
				</g>
			</g>
			<g>
				<polygon fill="#870000" points="268.3,345.8 239.7,345.8 284.3,277.3 312.8,277.3 				"/>
			</g>
			<g>
				<polygon points="308.3,278.5 279.7,278.5 284.3,277.3 312.8,277.3 				"/>
			</g>
			<g enable-background="new    ">
				<defs>
					<path id="SVGID_11_" enable-background="new    " d="M280.5,248.8l-28.5,0c14,0,33.4-1.3,46.2-7.6h28.5
						C313.9,247.4,294.5,248.8,280.5,248.8z"/>
				</defs>
				<clipPath id="SVGID_12_">
					<use xlink:href="#SVGID_11_"  overflow="visible"/>
				</clipPath>
				<g clip-path="url(#SVGID_12_)" enable-background="new    ">
					<path fill="#7C0000" d="M280.5,248.8H252c6,0,13-0.2,20.1-1h28.5C293.6,248.5,286.6,248.8,280.5,248.8"/>
					<path fill="#800000" d="M300.6,247.7h-28.5c9.4-1,18.8-3,26.1-6.6h28.5C319.4,244.7,310,246.7,300.6,247.7"/>
				</g>
			</g>
			<g enable-background="new    ">
				<defs>
					<path id="SVGID_13_" enable-background="new    " d="M280.5,244.8H252c11.2,0,32-1,45-7.3h28.5
						C312.5,243.8,291.8,244.8,280.5,244.8z"/>
				</defs>
				<clipPath id="SVGID_14_">
					<use xlink:href="#SVGID_13_"  overflow="visible"/>
				</clipPath>
				<g clip-path="url(#SVGID_14_)" enable-background="new    ">
					<path d="M280.5,244.8l-28.5,0c5.1,0,12.2-0.2,19.7-1h28.5C292.8,244.6,285.7,244.8,280.5,244.8"/>
					<path d="M300.2,243.7h-28.5c8.9-1,18.2-2.8,25.3-6.3h28.5C318.5,240.9,309.1,242.8,300.2,243.7"/>
				</g>
			</g>
			<g enable-background="new    ">
				<defs>
					<path id="SVGID_15_" enable-background="new    " d="M275,126.4l-28.5,0c8.2,0,17.1-0.3,26.4-1c2.6-0.2,5.3-0.3,7.8-0.3l28.5,0
						c-2.6,0-5.2,0.1-7.8,0.3C292,126.1,283.2,126.4,275,126.4z"/>
				</defs>
				<clipPath id="SVGID_16_">
					<use xlink:href="#SVGID_15_"  overflow="visible"/>
				</clipPath>
				<g clip-path="url(#SVGID_16_)" enable-background="new    ">
					<path fill="#7C0000" d="M275,126.4h-28.5c8.2,0,17.1-0.3,26.4-1c2.6-0.2,5.3-0.3,7.8-0.3h28.5c-2.6,0-5.2,0.1-7.8,0.3
						C292,126.1,283.2,126.4,275,126.4"/>
				</g>
			</g>
			<g enable-background="new    ">
				<defs>
					<path id="SVGID_17_" enable-background="new    " d="M274.9,122.4h-28.5c8.2,0,17-0.3,26.2-0.9c2.7-0.2,5.4-0.3,8-0.3h28.5
						c-2.6,0-5.3,0.1-8,0.3C291.9,122.1,283.1,122.4,274.9,122.4z"/>
				</defs>
				<clipPath id="SVGID_18_">
					<use xlink:href="#SVGID_17_"  overflow="visible"/>
				</clipPath>
				<g clip-path="url(#SVGID_18_)" enable-background="new    ">
					<path d="M274.9,122.4l-28.5,0c8.2,0,17-0.3,26.2-0.9c2.7-0.2,5.4-0.3,8-0.3h28.5c-2.6,0-5.3,0.1-8,0.3
						C291.9,122.1,283.1,122.4,274.9,122.4"/>
				</g>
			</g>
			<g>
				<polygon points="268.4,339.2 239.9,339.2 275.9,283.6 304.5,283.6 				"/>
			</g>
			<g enable-background="new    ">
				<defs>
					<path id="SVGID_19_" enable-background="new    " d="M270,286.5h-28.5c9.6,0,37.9-7.9,38.2-7.9h28.5
						C308,278.6,279.6,286.5,270,286.5z"/>
				</defs>
				<clipPath id="SVGID_20_">
					<use xlink:href="#SVGID_19_"  overflow="visible"/>
				</clipPath>
				<g clip-path="url(#SVGID_20_)" enable-background="new    ">
					<path d="M270,286.5h-28.5c1,0,2.1-0.1,3.4-0.2h28.5C272.1,286.4,271,286.5,270,286.5"/>
					<path d="M273.4,286.3h-28.5c11.6-1.3,34.6-7.7,34.8-7.7h28.5C308,278.6,285,285,273.4,286.3"/>
				</g>
			</g>
			<g enable-background="new    ">
				<defs>
					<path id="SVGID_21_" enable-background="new    " d="M280.5,248.8H252c-6.3,0-10.6-0.3-10.6-0.3l28.5,0
						C270,248.5,274.2,248.8,280.5,248.8z"/>
				</defs>
				<clipPath id="SVGID_22_">
					<use xlink:href="#SVGID_21_"  overflow="visible"/>
				</clipPath>
				<g clip-path="url(#SVGID_22_)" enable-background="new    ">
					<path d="M280.5,248.8H252c-6.3,0-10.6-0.3-10.6-0.3h28.5C270,248.5,274.2,248.8,280.5,248.8"/>
				</g>
			</g>
			<g>
				<polygon points="269.9,248.5 241.4,248.5 240.8,248.4 269.3,248.4 				"/>
			</g>
			<g>
				<polygon points="269.2,398 240.7,398 433.2,106.8 461.7,106.8 				"/>
			</g>
			<g>
				<polygon points="269.3,248.4 240.8,248.4 240.3,247.9 268.9,247.9 				"/>
			</g>
			<g enable-background="new    ">
				<defs>
					<path id="SVGID_23_" enable-background="new    " d="M232.6,239.2c0.3,0,0.8,0,1.1,0c0.3,0,0.8,0,1.1,0c0.4,0,0.8,0,1.2,0
						c0.4,0,0.8,0,1.2,0s0.8,0,1.2,0c0.4,0,0.8,0,1.2,0c0.3,0,0.8,0,1.1,0c0.3,0,0.8,0,1.1,0c0.7,0,1.6,0,2.3,0c0.7,0,1.7,0,2.4,0
						c0.7,0,1.7,0,2.5,0c0.8,0,1.8,0,2.5,0c0.8,0,1.8,0,2.5,0c0.7,0,1.7,0,2.5,0c0.7,0,1.7,0,2.4,0c0.7,0,1.6,0,2.3,0
						c2.6,2.6,5.2,5.5,7.8,8.7h-28.5C237.7,244.7,235.1,241.8,232.6,239.2z"/>
				</defs>
				<clipPath id="SVGID_24_">
					<use xlink:href="#SVGID_23_"  overflow="visible"/>
				</clipPath>
				<g clip-path="url(#SVGID_24_)" enable-background="new    ">
					<path d="M268.9,247.9h-28.5c-15.7-19.1-31.3-28.8-46.4-28.8h28.5C237.5,219.1,253.2,228.8,268.9,247.9"/>
				</g>
			</g>
			<g>
				<polygon points="331.5,110.5 303,110.5 362.2,110.5 390.7,110.5 				"/>
			</g>
			<g enable-background="new    ">
				<defs>
					<path id="SVGID_25_" enable-background="new    " d="M331.5,110.5H303c-0.3-5-1.9-18.5-9.3-32.1c-8.4-15.5-26.1-33.9-62.9-33.9
						l28.5,0c36.8,0,54.5,18.4,62.9,33.9C329.6,92,331.2,105.5,331.5,110.5z"/>
				</defs>
				<clipPath id="SVGID_26_">
					<use xlink:href="#SVGID_25_"  overflow="visible"/>
				</clipPath>
				<g clip-path="url(#SVGID_26_)" enable-background="new    ">
					<path fill="#730000" d="M331.5,110.5H303c-0.3-5-1.9-18.5-9.3-32.1c-8.4-15.5-26.1-33.9-62.9-33.9h28.5
						c36.8,0,54.5,18.4,62.9,33.9C329.6,92,331.2,105.5,331.5,110.5"/>
				</g>
			</g>
			<g enable-background="new    ">
				<defs>
					<path id="SVGID_27_" enable-background="new    " d="M328.3,112.5l-28.5,0c0-0.2-0.3-16.3-9-32.1c-11.5-21.2-31.7-31.9-60-31.9
						l28.5,0c28.3,0,48.5,10.7,60,31.9C328,96.3,328.3,112.4,328.3,112.5z"/>
				</defs>
				<clipPath id="SVGID_28_">
					<use xlink:href="#SVGID_27_"  overflow="visible"/>
				</clipPath>
				<g clip-path="url(#SVGID_28_)" enable-background="new    ">
					<path d="M328.3,112.5l-28.5,0c0-0.2-0.3-16.3-9-32.1c-11.5-21.2-31.7-31.9-60-31.9l28.5,0c28.3,0,48.5,10.7,60,31.9
						C328,96.3,328.3,112.4,328.3,112.5"/>
				</g>
			</g>
			<g enable-background="new    ">
				<defs>
					<path id="SVGID_29_" enable-background="new    " d="M226.8,233.7c0.3,0,0.7,0,1,0c0.3,0,0.8,0,1.1,0c0.3,0,0.8,0,1.1,0
						c0.3,0,0.8,0,1.1,0c0.3,0,0.8,0,1.1,0c0.3,0,0.8,0,1.1,0c0.3,0,0.8,0,1.1,0c0.3,0,0.7,0,1,0c0.7,0,1.6,0,2.3,0
						c0.7,0,1.7,0,2.5,0c0.8,0,1.8,0,2.5,0c0.8,0,1.8,0,2.6,0c0.8,0,1.8,0,2.6,0c0.8,0,1.8,0,2.5,0c0.7,0,1.7,0,2.5,0
						c0.7,0,1.6,0,2.3,0c1.9,1.7,3.8,3.5,5.8,5.5c-0.7,0-1.6,0-2.3,0c-0.7,0-1.7,0-2.4,0c-0.7,0-1.7,0-2.5,0c-0.8,0-1.8,0-2.5,0
						c-0.8,0-1.8,0-2.5,0c-0.7,0-1.7,0-2.5,0c-0.7,0-1.7,0-2.4,0c-0.7,0-1.6,0-2.3,0c-0.3,0-0.8,0-1.1,0c-0.3,0-0.8,0-1.1,0
						c-0.4,0-0.8,0-1.2,0c-0.4,0-0.8,0-1.2,0s-0.8,0-1.2,0c-0.4,0-0.8,0-1.2,0c-0.3,0-0.8,0-1.1,0c-0.3,0-0.8,0-1.1,0
						C230.6,237.2,228.7,235.4,226.8,233.7z"/>
				</defs>
				<clipPath id="SVGID_30_">
					<use xlink:href="#SVGID_29_"  overflow="visible"/>
				</clipPath>
				<g clip-path="url(#SVGID_30_)" enable-background="new    ">
					<path d="M268.9,247.9h-28.5c-15.7-19.1-31.3-28.8-46.4-28.8h28.5C237.5,219.1,253.2,228.8,268.9,247.9"/>
				</g>
			</g>
			<g enable-background="new    ">
				<defs>
					<path id="SVGID_31_" enable-background="new    " d="M221.2,229.2c0.3,0,0.6,0,0.9,0c0.3,0,0.7,0,0.9,0c0.3,0,0.7,0,1,0
						c0.3,0,0.7,0,1,0c0.3,0,0.7,0,1,0c0.3,0,0.7,0,1,0c0.3,0,0.7,0,0.9,0c0.3,0,0.6,0,0.9,0c0.7,0,1.7,0,2.5,0c0.8,0,1.8,0,2.6,0
						c0.8,0,1.9,0,2.7,0c0.8,0,1.9,0,2.7,0s1.9,0,2.7,0c0.8,0,1.9,0,2.7,0c0.8,0,1.8,0,2.6,0c0.7,0,1.7,0,2.5,0
						c1.9,1.4,3.7,2.9,5.6,4.5c-0.7,0-1.6,0-2.3,0c-0.7,0-1.7,0-2.5,0c-0.8,0-1.8,0-2.5,0c-0.8,0-1.8,0-2.6,0c-0.8,0-1.8,0-2.6,0
						c-0.8,0-1.8,0-2.5,0c-0.7,0-1.7,0-2.5,0c-0.7,0-1.6,0-2.3,0c-0.3,0-0.7,0-1,0c-0.3,0-0.8,0-1.1,0c-0.3,0-0.8,0-1.1,0
						c-0.3,0-0.8,0-1.1,0c-0.3,0-0.8,0-1.1,0c-0.3,0-0.8,0-1.1,0c-0.3,0-0.8,0-1.1,0c-0.3,0-0.7,0-1,0
						C224.9,232.1,223,230.6,221.2,229.2z"/>
				</defs>
				<clipPath id="SVGID_32_">
					<use xlink:href="#SVGID_31_"  overflow="visible"/>
				</clipPath>
				<g clip-path="url(#SVGID_32_)" enable-background="new    ">
					<path d="M268.9,247.9h-28.5c-15.7-19.1-31.3-28.8-46.4-28.8h28.5C237.5,219.1,253.2,228.8,268.9,247.9"/>
				</g>
			</g>
			<g enable-background="new    ">
				<defs>
					<path id="SVGID_33_" enable-background="new    " d="M214.8,225c0.4,0,0.9,0,1.2,0c0.4,0,0.9,0,1.3,0c0.4,0,0.9,0,1.3,0
						c0.4,0,1,0,1.4,0s1,0,1.4,0c0.4,0,0.9,0,1.3,0c0.4,0,0.9,0,1.3,0c0.4,0,0.9,0,1.2,0c0.6,0,1.5,0,2.1,0c0.7,0,1.6,0,2.2,0
						c0.7,0,1.6,0,2.3,0c0.7,0,1.7,0,2.4,0c0.7,0,1.7,0,2.4,0c0.7,0,1.6,0,2.3,0c0.7,0,1.6,0,2.2,0c0.6,0,1.5,0,2.1,0
						c2.1,1.2,4.3,2.6,6.4,4.2c-0.7,0-1.7,0-2.5,0c-0.8,0-1.8,0-2.6,0c-0.8,0-1.9,0-2.7,0c-0.8,0-1.9,0-2.7,0s-1.9,0-2.7,0
						c-0.8,0-1.9,0-2.7,0c-0.8,0-1.8,0-2.6,0c-0.7,0-1.7,0-2.5,0c-0.3,0-0.6,0-0.9,0c-0.3,0-0.7,0-0.9,0c-0.3,0-0.7,0-1,0
						c-0.3,0-0.7,0-1,0c-0.3,0-0.7,0-1,0c-0.3,0-0.7,0-1,0c-0.3,0-0.7,0-0.9,0c-0.3,0-0.6,0-0.9,0C219,227.6,216.9,226.3,214.8,225z
						"/>
				</defs>
				<clipPath id="SVGID_34_">
					<use xlink:href="#SVGID_33_"  overflow="visible"/>
				</clipPath>
				<g clip-path="url(#SVGID_34_)" enable-background="new    ">
					<path d="M268.9,247.9h-28.5c-15.7-19.1-31.3-28.8-46.4-28.8h28.5C237.5,219.1,253.2,228.8,268.9,247.9"/>
				</g>
			</g>
			<g enable-background="new    ">
				<defs>
					<path id="SVGID_35_" enable-background="new    " d="M270,286.5h-28.5c-9.2,0-37.9-7.9-38.2-7.9h28.5
						C232.1,278.6,260.9,286.5,270,286.5z"/>
				</defs>
				<clipPath id="SVGID_36_">
					<use xlink:href="#SVGID_35_"  overflow="visible"/>
				</clipPath>
				<g clip-path="url(#SVGID_36_)" enable-background="new    ">
					<path fill="#730000" d="M270,286.5h-28.5c-9.2,0-37.9-7.9-38.2-7.9h28.5C232.1,278.6,260.9,286.5,270,286.5"/>
				</g>
			</g>
			<g enable-background="new    ">
				<defs>
					<path id="SVGID_37_" enable-background="new    " d="M270,290.5l-28.5,0c-7.4,0-26.3-4.7-34.7-6.9h28.5
						C243.8,285.8,262.6,290.5,270,290.5z"/>
				</defs>
				<clipPath id="SVGID_38_">
					<use xlink:href="#SVGID_37_"  overflow="visible"/>
				</clipPath>
				<g clip-path="url(#SVGID_38_)" enable-background="new    ">
					<path d="M270,290.5h-28.5c-7.4,0-26.3-4.7-34.7-6.9h28.5C243.8,285.8,262.6,290.5,270,290.5"/>
				</g>
			</g>
			<g enable-background="new    ">
				<defs>
					<path id="SVGID_39_" enable-background="new    " d="M205.6,221c0.1,0,0.1,0,0.2,0c0.1,0,0.1,0,0.2,0c0.1,0,0.1,0,0.2,0
						c0.1,0,0.2,0,0.2,0c0.1,0,0.2,0,0.2,0c0.1,0,0.1,0,0.2,0c0.1,0,0.1,0,0.2,0c0.1,0,0.1,0,0.2,0c0.9,0,2.2,0,3.1,0
						c1,0,2.3,0,3.3,0c1,0,2.4,0,3.5,0c1.1,0,2.5,0,3.5,0s2.5,0,3.5,0c1,0,2.4,0,3.5,0c1,0,2.3,0,3.3,0c0.9,0,2.2,0,3.1,0
						c3,1,6.1,2.3,9.1,4.1c-0.6,0-1.5,0-2.1,0c-0.7,0-1.6,0-2.2,0c-0.7,0-1.6,0-2.3,0c-0.7,0-1.7,0-2.4,0c-0.7,0-1.7,0-2.4,0
						c-0.7,0-1.6,0-2.3,0c-0.7,0-1.6,0-2.2,0c-0.6,0-1.5,0-2.1,0c-0.4,0-0.9,0-1.2,0c-0.4,0-0.9,0-1.3,0c-0.4,0-0.9,0-1.3,0
						c-0.4,0-1,0-1.4,0s-1,0-1.4,0c-0.4,0-0.9,0-1.3,0c-0.4,0-0.9,0-1.3,0c-0.4,0-0.9,0-1.2,0c0,0,0,0,0,0
						C211.7,223.3,208.7,222,205.6,221z"/>
				</defs>
				<clipPath id="SVGID_40_">
					<use xlink:href="#SVGID_39_"  overflow="visible"/>
				</clipPath>
				<g clip-path="url(#SVGID_40_)" enable-background="new    ">
					<path d="M268.9,247.9h-28.5c-15.7-19.1-31.3-28.8-46.4-28.8h28.5C237.5,219.1,253.2,228.8,268.9,247.9"/>
				</g>
			</g>
			<g>
				<polygon fill="#6F0000" points="231.8,278.5 203.3,278.5 199,277.4 227.5,277.4 				"/>
			</g>
			<g>
				<polygon points="268.3,345.8 239.7,345.8 199,277.4 227.5,277.4 				"/>
			</g>
			<g enable-background="new    ">
				<defs>
					<path id="SVGID_41_" enable-background="new    " d="M205.6,221c-3.9-1.3-7.9-1.9-11.8-1.9h28.5c3.9,0,7.8,0.6,11.8,1.9
						c-0.9,0-2.2,0-3.1,0c-1,0-2.3,0-3.3,0c-1,0-2.4,0-3.5,0c-1.1,0-2.5,0-3.5,0s-2.5,0-3.5,0c-1,0-2.4,0-3.5,0c-1,0-2.3,0-3.3,0
						c-0.9,0-2.2,0-3.1,0c-0.1,0-0.1,0-0.2,0c-0.1,0-0.1,0-0.2,0c-0.1,0-0.1,0-0.2,0c-0.1,0-0.2,0-0.2,0c-0.1,0-0.2,0-0.2,0
						c-0.1,0-0.1,0-0.2,0c-0.1,0-0.1,0-0.2,0C205.8,221,205.7,221,205.6,221z"/>
				</defs>
				<clipPath id="SVGID_42_">
					<use xlink:href="#SVGID_41_"  overflow="visible"/>
				</clipPath>
				<g clip-path="url(#SVGID_42_)" enable-background="new    ">
					<path d="M268.9,247.9h-28.5c-15.7-19.1-31.3-28.8-46.4-28.8h28.5C237.5,219.1,253.2,228.8,268.9,247.9"/>
				</g>
			</g>
			<g enable-background="new    ">
				<defs>
					<path id="SVGID_43_" enable-background="new    " d="M195,231.9h-28.5c0.1-0.1,10.5-12.8,27.5-12.8l28.5,0
						C205.4,219.1,195.1,231.7,195,231.9z"/>
				</defs>
				<clipPath id="SVGID_44_">
					<use xlink:href="#SVGID_43_"  overflow="visible"/>
				</clipPath>
				<g clip-path="url(#SVGID_44_)" enable-background="new    ">
					<path fill="#800000" d="M195,231.9h-28.5c0.1-0.1,8.9-10.9,23.7-12.6l28.5,0C203.9,220.9,195,231.8,195,231.9"/>
					<path fill="#7C0000" d="M218.6,219.3l-28.5,0c1.2-0.1,2.5-0.2,3.8-0.2h28.5C221.1,219.1,219.9,219.1,218.6,219.3"/>
				</g>
			</g>
			<g enable-background="new    ">
				<defs>
					<path id="SVGID_45_" enable-background="new    " d="M193.9,227.6l-28.5,0c3.4-3.6,13.5-12.6,28.5-12.6l28.5,0
						C207.4,215.1,197.3,224,193.9,227.6z"/>
				</defs>
				<clipPath id="SVGID_46_">
					<use xlink:href="#SVGID_45_"  overflow="visible"/>
				</clipPath>
				<g clip-path="url(#SVGID_46_)" enable-background="new    ">
					<path d="M193.9,227.6h-28.5c3.1-3.3,11.6-10.9,24.4-12.3h28.5C205.5,216.7,197,224.4,193.9,227.6"/>
					<path d="M218.3,215.3h-28.5c1.3-0.1,2.7-0.2,4.1-0.2h28.5C221,215.1,219.6,215.1,218.3,215.3"/>
				</g>
			</g>
			<g>
				<polygon fill="#870000" points="193.7,233.4 165.2,233.4 166.4,231.9 195,231.9 				"/>
			</g>
			<g>
				<polygon points="193.7,233.4 165.2,233.4 164,231.8 192.6,231.8 				"/>
			</g>
			<g>
				<polygon fill="#510000" points="193.7,233.4 165.2,233.4 164,231.8 192.6,231.8 				"/>
			</g>
			<g enable-background="new    ">
				<defs>
					<path id="SVGID_47_" enable-background="new    " d="M175.7,63c16.7-17.3,53.5-18.5,55.1-18.5l28.5,0
						c-1.6,0-38.3,1.2-55.1,18.5c-7.3,7.5-11.4,15.8-12,23.8c-0.7,0-1.5,0-2.2,0c-0.7,0-1.6,0-2.3,0c-0.7,0-1.7,0-2.4,0
						c-0.7,0-1.7,0-2.4,0s-1.7,0-2.4,0c-0.7,0-1.7,0-2.4,0c-0.7,0-1.6,0-2.3,0c-0.7,0-1.5,0-2.2,0c-0.3,0-0.8,0-1.1,0
						c-0.4,0-0.9,0-1.2,0c-0.4,0-0.9,0-1.3,0c-0.4,0-0.9,0-1.3,0c-0.4,0-0.9,0-1.3,0c-0.4,0-0.9,0-1.3,0c-0.4,0-0.9,0-1.2,0
						c-0.3,0-0.8,0-1.1,0C164.3,78.9,168.5,70.6,175.7,63z"/>
				</defs>
				<clipPath id="SVGID_48_">
					<use xlink:href="#SVGID_47_"  overflow="visible"/>
				</clipPath>
				<g clip-path="url(#SVGID_48_)" enable-background="new    ">
					<path d="M275,126.4l-28.5,0c-46.9,0-75.9-10.7-81.8-30.1c-0.7-2.4-1.1-4.9-1.1-7.4c0-0.8,0-1.5,0.1-2.3h28.5
						c-0.1,0.8-0.1,1.5-0.1,2.3c0,2.5,0.3,5,1.1,7.4C199.1,115.7,228.1,126.4,275,126.4"/>
					<path d="M192.2,86.7h-28.5c0.2-2.5,0.8-5,1.6-7.5h28.5C193,81.7,192.4,84.2,192.2,86.7"/>
					<path d="M193.9,79.2h-28.5c1.3-3.7,3.3-7.4,5.9-10.9h28.5C197.1,71.8,195.1,75.5,193.9,79.2"/>
					<path d="M199.8,68.3h-28.5c1.3-1.8,2.8-3.5,4.5-5.2c12-12.4,34.4-16.6,46.6-17.9h28.5c-12.2,1.4-34.6,5.5-46.6,17.9
						C202.6,64.7,201.1,66.5,199.8,68.3"/>
					<path d="M250.8,45.1h-28.5c4.8-0.5,8-0.6,8.5-0.6h28.5C258.9,44.5,255.6,44.6,250.8,45.1"/>
				</g>
			</g>
			<g enable-background="new    ">
				<defs>
					<path id="SVGID_49_" enable-background="new    " d="M163.6,89.6c9.5,0,19,0,28.5,0c0.1,2.3,0.4,4.5,1.1,6.7
						c5.9,19.4,34.9,30.1,81.8,30.1h-28.5c0,0,0,0,0,0c-46.9,0-75.9-10.7-81.8-30.1C164,94.2,163.7,91.9,163.6,89.6z"/>
				</defs>
				<clipPath id="SVGID_50_">
					<use xlink:href="#SVGID_49_"  overflow="visible"/>
				</clipPath>
				<g clip-path="url(#SVGID_50_)" enable-background="new    ">
					<path d="M275,126.4l-28.5,0c-46.9,0-75.9-10.7-81.8-30.1c-0.7-2.4-1.1-4.9-1.1-7.4c0-0.8,0-1.5,0.1-2.3h28.5
						c-0.1,0.8-0.1,1.5-0.1,2.3c0,2.5,0.3,5,1.1,7.4C199.1,115.7,228.1,126.4,275,126.4"/>
				</g>
			</g>
			<g enable-background="new    ">
				<defs>
					<path id="SVGID_51_" enable-background="new    " d="M163.7,86.8c0.3,0,0.8,0,1.1,0c0.4,0,0.9,0,1.2,0c0.4,0,0.9,0,1.3,0
						c0.4,0,0.9,0,1.3,0c0.4,0,0.9,0,1.3,0c0.4,0,0.9,0,1.3,0c0.4,0,0.9,0,1.2,0c0.3,0,0.8,0,1.1,0c0.7,0,1.5,0,2.2,0
						c0.7,0,1.6,0,2.3,0c0.7,0,1.7,0,2.4,0c0.7,0,1.7,0,2.4,0s1.7,0,2.4,0c0.7,0,1.7,0,2.4,0c0.7,0,1.6,0,2.3,0c0.7,0,1.5,0,2.2,0
						c-0.1,0.7-0.1,1.4-0.1,2.1c0,0.2,0,0.4,0,0.7c-9.5,0-19,0-28.5,0c0-0.2,0-0.4,0-0.7C163.6,88.2,163.6,87.5,163.7,86.8z"/>
				</defs>
				<clipPath id="SVGID_52_">
					<use xlink:href="#SVGID_51_"  overflow="visible"/>
				</clipPath>
				<g clip-path="url(#SVGID_52_)" enable-background="new    ">
					<path d="M275,126.4l-28.5,0c-46.9,0-75.9-10.7-81.8-30.1c-0.7-2.4-1.1-4.9-1.1-7.4c0-0.8,0-1.5,0.1-2.3h28.5
						c-0.1,0.8-0.1,1.5-0.1,2.3c0,2.5,0.3,5,1.1,7.4C199.1,115.7,228.1,126.4,275,126.4"/>
				</g>
			</g>
			<g>
				<path d="M390.7,54.5l40,50.9l-45.3,67.8l-1.1-2.9c0-0.1-4.6-11.4-16.1-22.6c-10.6-10.3-29.5-22.6-59.1-22.6
					c-2.6,0-5.2,0.1-7.8,0.3c-9.3,0.6-18.2,1-26.4,1c-46.9,0-75.9-10.7-81.8-30.1c-0.7-2.4-1.1-4.9-1.1-7.4
					c0-8.6,4.2-17.7,12.1-25.9c16.7-17.3,53.5-18.5,55.1-18.5c36.8,0,54.5,18.4,62.9,33.9c7.4,13.6,9,27.1,9.3,32.1h59.2V54.5z
					 M370.5,144.8c8.7,8.5,13.5,17,15.6,21.1l40.3-60.3L394,64.5v50h-65.7l0-2c0-0.2-0.3-16.3-9-32.1c-11.5-21.2-31.7-31.9-60-31.9
					c-0.3,0-37.1,1.2-53,17.6c-9.1,9.4-12.8,20-10.1,28.9c3.1,10.3,17.4,27.5,78.6,27.5c8.2,0,17-0.3,26.2-0.9
					c2.7-0.2,5.4-0.3,8-0.3C339.9,121.2,359.4,134,370.5,144.8"/>
			</g>
			<g>
				<polygon fill="#870000" points="179,46.1 150.5,46.1 154.6,42.5 183.1,42.5 				"/>
			</g>
			<g enable-background="new    ">
				<defs>
					<path id="SVGID_53_" enable-background="new    " d="M326.8,241.1h-28.5c10.6-5.2,16.7-12.2,16.6-19c0-0.5,0-1-0.1-1.5
						c-1.6-11.4-19.6-18.1-51.8-19.4c-114.7-4.7-121.4-8.8-125.8-11.4h28.5c4.4,2.7,11.1,6.7,125.8,11.4c32.3,1.3,50.2,8,51.8,19.4
						c0.1,0.5,0.1,1,0.1,1.5C343.4,228.9,337.3,235.9,326.8,241.1z"/>
				</defs>
				<clipPath id="SVGID_54_">
					<use xlink:href="#SVGID_53_"  overflow="visible"/>
				</clipPath>
				<g clip-path="url(#SVGID_54_)" enable-background="new    ">
					<path fill="#800000" d="M326.8,241.1h-28.5c6-3,10.6-6.5,13.4-10.3h28.5C337.3,234.6,332.8,238.2,326.8,241.1"/>
					<path fill="#7C0000" d="M340.2,230.9h-28.5c1.1-1.5,2-3,2.5-4.6h28.5C342.1,227.8,341.3,229.4,340.2,230.9"/>
					<path fill="#770000" d="M342.7,226.3h-28.5c0.4-1,0.6-2.1,0.7-3.1h28.5C343.2,224.2,343,225.3,342.7,226.3"/>
					<path fill="#730000" d="M343.3,223.2h-28.5c0-0.4,0-0.7,0-1.1c0-0.5,0-1-0.1-1.5c-1.6-11.4-19.6-18.1-51.8-19.4
						c-114.7-4.7-121.4-8.8-125.8-11.4h28.5c4.4,2.7,11.1,6.7,125.8,11.4c32.3,1.3,50.2,8,51.8,19.4c0.1,0.5,0.1,1,0.1,1.5
						C343.4,222.5,343.4,222.8,343.3,223.2"/>
				</g>
			</g>
			<g enable-background="new    ">
				<defs>
					<path id="SVGID_55_" enable-background="new    " d="M325.5,237.4H297c9.5-4.7,15.2-11,14.5-16.1c-0.5-3.3-5.4-14.4-48.7-16.2
						c-85.2-3.5-111.2-6.7-121-9.3l28.5,0c9.8,2.6,35.8,5.8,121,9.3c43.3,1.8,48.2,12.8,48.7,16.2
						C340.8,226.4,335.1,232.7,325.5,237.4z"/>
				</defs>
				<clipPath id="SVGID_56_">
					<use xlink:href="#SVGID_55_"  overflow="visible"/>
				</clipPath>
				<g clip-path="url(#SVGID_56_)" enable-background="new    ">
					<path d="M325.5,237.4H297c5.5-2.7,9.8-6,12.2-9.3h28.5C335.3,231.4,331.1,234.7,325.5,237.4"/>
					<path d="M337.7,228.2h-28.5c0.9-1.1,1.5-2.3,1.9-3.4h28.5C339.2,225.9,338.6,227,337.7,228.2"/>
					<path d="M339.6,224.8h-28.5c0.2-0.7,0.4-1.3,0.4-2h28.5C340,223.4,339.9,224.1,339.6,224.8"/>
					<path d="M340.1,222.8h-28.5c0-0.5,0-1,0-1.5c-0.5-3.3-5.4-14.4-48.7-16.2c-85.2-3.5-111.2-6.7-121-9.3h28.5
						c9.8,2.6,35.8,5.8,121,9.3c43.3,1.8,48.2,12.8,48.7,16.2C340.1,221.8,340.1,222.3,340.1,222.8"/>
				</g>
			</g>
			<g>
				<polygon fill="#6F0000" points="165.6,189.7 137.1,189.7 129.3,185 157.9,185 				"/>
			</g>
			<g>
				<polygon points="165.6,189.7 137.1,189.7 129.3,185 157.9,185 				"/>
			</g>
			<g>
				<polygon points="192.6,231.8 164,231.8 129.3,185 157.9,185 				"/>
			</g>
			<g>
				<polygon points="154.3,42.5 125.8,42.5 154.6,42.5 183.1,42.5 				"/>
			</g>
			<g enable-background="new    ">
				<defs>
					<path id="SVGID_57_" enable-background="new    " d="M135.3,144.3h-28.5c-0.2-2.4-0.3-4.7-0.3-7.1c0-52,43.5-90.7,43.9-91.1
						l28.5,0c-0.5,0.4-43.9,39.1-43.9,91.1C135.1,139.5,135.1,141.9,135.3,144.3z"/>
				</defs>
				<clipPath id="SVGID_58_">
					<use xlink:href="#SVGID_57_"  overflow="visible"/>
				</clipPath>
				<g clip-path="url(#SVGID_58_)" enable-background="new    ">
					<path fill="#730000" d="M135.3,144.3h-28.5c-0.2-2.4-0.3-4.7-0.3-7.1c0-2.7,0.1-5.5,0.4-8.1h28.5c-0.2,2.7-0.4,5.4-0.4,8.1
						C135.1,139.5,135.1,141.9,135.3,144.3"/>
					<path fill="#770000" d="M135.4,129.1h-28.5c0.8-9.1,2.8-17.7,5.6-25.6H141C138.2,111.4,136.2,120,135.4,129.1"/>
					<path fill="#7C0000" d="M141,103.4h-28.5c5.2-14.9,13.1-27.7,20.3-37.4h28.5C154.1,75.7,146.2,88.5,141,103.4"/>
					<path fill="#800000" d="M161.3,66.1h-28.5c9.3-12.5,17.5-19.8,17.7-20l28.5,0C178.8,46.3,170.6,53.6,161.3,66.1"/>
				</g>
			</g>
			<g enable-background="new    ">
				<defs>
					<path id="SVGID_59_" enable-background="new    " d="M152.9,71.7h-28.5c7.8-12,15.8-20.7,20.3-25.3l28.5,0
						C168.7,51,160.8,59.8,152.9,71.7z"/>
				</defs>
				<clipPath id="SVGID_60_">
					<use xlink:href="#SVGID_59_"  overflow="visible"/>
				</clipPath>
				<g clip-path="url(#SVGID_60_)" enable-background="new    ">
					<path d="M152.9,71.7h-28.5c1.9-2.9,3.8-5.7,5.7-8.2l28.5,0C156.8,66,154.9,68.8,152.9,71.7"/>
					<path d="M158.7,63.5l-28.5,0c5.8-7.8,11.2-13.6,14.6-17h28.5C169.8,49.9,164.5,55.7,158.7,63.5"/>
				</g>
			</g>
			<g>
				<polygon fill="#790000" points="135.8,150.3 107.3,150.3 106.8,144.3 135.3,144.3 				"/>
			</g>
			<g enable-background="new    ">
				<defs>
					<path id="SVGID_61_" enable-background="new    " d="M131.8,138.9l-28.5,0c-0.4-22.2,6.9-45.3,21.2-67.2h28.5
						C138.7,93.6,131.4,116.7,131.8,138.9z"/>
				</defs>
				<clipPath id="SVGID_62_">
					<use xlink:href="#SVGID_61_"  overflow="visible"/>
				</clipPath>
				<g clip-path="url(#SVGID_62_)" enable-background="new    ">
					<path d="M131.8,138.9h-28.5c-0.1-3.4,0.1-6.8,0.4-10.2h28.5C131.9,132.1,131.7,135.5,131.8,138.9"/>
					<path d="M132.1,128.7h-28.5c0.8-9,2.8-18,5.9-27l28.5,0C134.9,110.7,132.9,119.7,132.1,128.7"/>
					<path d="M138,101.7l-28.5,0c3.5-10.1,8.5-20.1,14.9-29.9h28.5C146.5,81.5,141.6,91.6,138,101.7"/>
				</g>
			</g>
			<g>
				<path d="M154.3,42.5l28.8,0l-4.1,3.6c-0.5,0.4-43.9,39.1-43.9,91.1c0,2.3,0.1,4.7,0.3,7.1l0.5,6l-32.3-43.9L154.3,42.5z
					 M152.9,71.7c7.8-12,15.8-20.7,20.3-25.3l-17.5,0l-47.7,60l23.8,32.4C131.4,116.7,138.7,93.6,152.9,71.7"/>
			</g>
			<g>
				<polygon points="135.8,150.3 107.3,150.3 75,106.4 103.5,106.4 				"/>
			</g>
			<g>
				<polygon points="103.5,106.4 75,106.4 125.8,42.5 154.3,42.5 				"/>
			</g>
			<g>
				<path fill="#D10000" d="M395.8,19.5l65.9,87.3L269.2,398L78.3,107.8l61-87.3L395.8,19.5z M384.3,170.3l1.1,2.9l45.3-67.8
					l-40-50.9v56h-59.2c-0.3-5-1.9-18.5-9.3-32.1c-8.4-15.5-26.1-33.9-62.9-33.9c-1.6,0-38.3,1.2-55.1,18.5
					c-7.9,8.2-12.1,17.3-12.1,25.9c0,2.5,0.3,5,1.1,7.4c5.9,19.4,34.9,30.1,81.8,30.1c8.2,0,17.1-0.3,26.4-1
					c2.6-0.2,5.3-0.3,7.8-0.3c29.7,0,48.5,12.3,59.1,22.6C379.7,158.9,384.3,170.2,384.3,170.3 M326.8,241.1
					c10.6-5.2,16.7-12.2,16.6-19c0-0.5,0-1-0.1-1.5c-1.6-11.4-19.6-18.1-51.8-19.4c-114.7-4.7-121.4-8.8-125.8-11.4l-7.8-4.7
					l34.7,46.9l1.2,1.6l1.2-1.5c0.1-0.1,10.5-12.8,27.5-12.8c15.1,0,30.7,9.7,46.4,28.8l0.4,0.5l0.6,0c0,0,4.3,0.3,10.6,0.3
					C294.5,248.8,313.9,247.4,326.8,241.1 M103.5,106.4l32.3,43.9l-0.5-6c-0.2-2.4-0.3-4.7-0.3-7.1c0-52,43.5-90.7,43.9-91.1
					l4.1-3.6l-28.8,0L103.5,106.4 M268.3,345.8l44.5-68.5l-4.6,1.3c-0.3,0.1-28.7,7.9-38.2,7.9c-9.2,0-37.9-7.9-38.2-7.9l-4.2-1.2
					L268.3,345.8 M357.6,42.5h-25.5l19.1,27l1.2-1.6c0.9-1.1,8.2-10.9,8.1-18.6c0-0.2,0-0.5,0-0.7c-0.2-2.3-1-4.3-2.6-5.6
					L357.6,42.5"/>
			</g>
			<g>
				<path d="M360.6,48.5c0,0.2,0,0.5,0,0.7c0.1,7.7-7.3,17.5-8.1,18.6l-1.2,1.6l-19.1-27h25.5l0.4,0.4
					C359.6,44.3,360.5,46.2,360.6,48.5z M351.3,63.4c2.5-3.6,6.3-10.2,6-14.6c-0.1-1-0.3-1.7-0.9-2.4h-17.2L351.3,63.4"/>
			</g>
			<g>
				<polygon points="269.2,404.4 240.7,404.4 239.4,402.5 267.9,402.5 				"/>
			</g>
			<g>
				<path d="M308.3,278.5l4.6-1.3l-44.5,68.5l-40.7-68.4l4.3,1.2c0.3,0.1,29.1,7.9,38.2,7.9C279.6,286.5,308,278.6,308.3,278.5z
					 M268.4,339.2l36.1-55.5c-8.5,2.3-26.8,6.8-34.4,6.8c-7.4,0-26.3-4.7-34.7-6.9L268.4,339.2"/>
			</g>
			<g>
				<path d="M343.3,220.6c0.1,0.5,0.1,1,0.1,1.5c0,6.8-6,13.8-16.6,19c-12.8,6.3-32.2,7.6-46.2,7.6c-6.3,0-10.6-0.3-10.6-0.3l-0.6,0
					l-0.4-0.5c-15.7-19.1-31.3-28.8-46.4-28.8c-17,0-27.4,12.7-27.5,12.8l-1.2,1.5l-1.2-1.6L157.9,185l7.8,4.7
					c4.4,2.7,11.1,6.7,125.8,11.4C323.7,202.5,341.6,209.2,343.3,220.6z M325.5,237.4c9.5-4.7,15.2-11,14.5-16.1
					c-0.5-3.3-5.4-14.4-48.7-16.2c-85.2-3.5-111.2-6.7-121-9.3l23.5,31.8c3.4-3.6,13.5-12.6,28.5-12.6c15.9,0,32.1,9.9,48.3,29.4
					c1.4,0.1,5,0.3,9.8,0.3C291.8,244.8,312.5,243.8,325.5,237.4"/>
			</g>
			<g>
				<polygon fill="#4F0000" points="139.4,20.5 110.8,20.5 367.3,19.5 395.8,19.5 				"/>
			</g>
			<g>
				<polygon fill="#7B0000" points="139.4,20.5 110.8,20.5 367.3,19.5 395.8,19.5 				"/>
			</g>
			<g>
				<polygon points="137.9,16.5 109.3,16.5 368.7,15.5 397.2,15.5 				"/>
			</g>
			<g>
				<polygon points="137.9,16.5 109.3,16.5 368.7,15.5 397.2,15.5 				"/>
			</g>
			<g>
				<polygon fill="#870000" points="78.3,107.8 49.8,107.8 110.8,20.5 139.4,20.5 				"/>
			</g>
			<g>
				<polygon fill="#6F0000" points="269.2,398 240.7,398 49.8,107.8 78.3,107.8 				"/>
			</g>
			<g>
				<polygon points="74.1,107.7 45.5,107.7 109.3,16.5 137.9,16.5 				"/>
			</g>
			<g>
				<path d="M397.2,15.5l68.8,91.2l-0.9,1.3L269.2,404.4l-1.3-1.9L74.1,107.7l63.8-91.2L397.2,15.5z M269.2,398l192.5-291.2
					l-65.9-87.3l-256.4,1l-61,87.3L269.2,398"/>
			</g>
			<g>
				<polygon points="74.1,107.7 45.5,107.7 109.3,16.5 137.9,16.5 				"/>
			</g>
			<g>
				<polygon points="267.9,402.5 239.4,402.5 45.5,107.7 74.1,107.7 				"/>
			</g>
		</g>
	</g>
</g>
<g>
	<path d="M157.4,422.9c1.4-3,13.3-5,18.8-2.7c5.6-5.1,12.4-2.8,18.2-4.1c6.8-1.4,12.7,1.1,18.5,5.5c0.2-2.7,0.3-4.5,0.5-7.3
		c9.8-0.2,19.5-0.2,29.2-0.5c5.4-0.2,10.7-0.6,16.1-1c7.8-0.6,15.3-0.3,21.9,4.7c2.2-5.4,11.5-5.1,23.1,0.6c1.4-4.2,4.6-4.4,8.3-3.4
		c4.2,1.1,8.4,2.4,12.7,3.2c1.6,0.3,3.5-1.1,5.1-0.8c6.2,1,12.3,2.4,18.5,3.4c2.7,0.4,5.4,0.1,8.1,0.6c9.7,1.9,19.7,3,28.9,6.3
		c7.4,2.6,13.9,7.7,20.7,11.9c0.7,0.4,1.1,1.7,1.1,2.5c0.1,9,0.1,17.9,0.1,28.1c-4.6-0.6-8.7-1.3-12.8-1.6c-1.6-0.1-3.2,1.2-4.8,1.3
		c-6.2,0.3-12.3,0.6-18.5,0.3c-2.2-0.1-4.4-1.8-5.3-2.2c-3,1.1-5.1,2.4-7.2,2.5c-8.8,0.1-18.1-1.9-26.4,0.2
		c-5.8,1.5-11.7,2.3-17.5,3.5c-4.6,0.9-9.5,0.6-14-0.1c-1.5,1.1-2.9,2.8-4.5,3.1c-4.6,1-9.5,0.8-14,2.1c-7.8,2.2-15.5,4.9-23.2,7.7
		c-3.7,1.4-6.6,1-9.6-1.4c-2.5-1.9-5.2-3.6-8-5.1c-3-1.7-5-0.4-5.3,3c-0.3,3.5,0.4,7.9-1.5,10.3c-1.8,2.3-6.3,2.4-9.6,3.4
		c-3.7,1.2-7.5,3.3-10.9-0.7c-11.9,14.4-21.1,15.8-38,5.8c1.8,10.3-0.5,19.4-6.9,27.4c-8.6,11-26.1,16.9-39.6,13.2
		c-2-0.5-4-1.6-5.7-2.8c-9-6.9-18-13.7-26.8-20.9c-1.6-1.3-3-3.9-3.1-6c-0.4-5.9-0.1-11.9-0.1-18c4.8,1.7,9.3,3.3,13.9,4.7
		c1.4,0.4,3,0.6,4.4,0.6c4.1,0,8.2-0.4,10.2-4.7c2.1-4.5,0.6-8.6-2.8-11.8c-4.1-3.9-8.3-7.8-12.9-11c-17.6-12.3-14.7-37.2,3.5-47.9
		c5.8-3.4,13-4.6,19.7-6.2c1.9-0.5,4.8,0.6,6.3,2c4,3.5,8.1,3.7,12.9,2.5C151.6,422.4,154,422.9,157.4,422.9z M130.2,524.4
		c0,3.8-0.2,7.9,0.2,12c0.1,1,1.9,2.4,3.2,2.7c12.8,2.7,28.8-4.5,35.9-15.8c6.9-11,4.4-25-5.9-33.1c-3.5-2.8-7.3-5.3-10.5-8.4
		c-6.8-6.6-4.7-15,4.4-17.6c3.9-1.1,8.1-1.2,12.3-1.8c0-4.7,0-9.4,0-15.3c-7,0.7-13.7,0.8-20,2.3c-10.4,2.4-16.8,9.6-18.7,19.9
		c-1.9,10.3,1.6,19,10.3,25.3c3.4,2.4,6.8,4.9,9.9,7.6c3.5,3,6.3,6.6,5,11.7c-1.5,5.8-5.8,8.5-11.1,9.4
		C140.4,524.1,135.6,524.1,130.2,524.4z M202.3,452.6c0,7.5,0,14.8,0,22.1c0,3.5,0.2,7-0.1,10.5c-0.2,1.9-0.6,4.3-1.9,5.4
		c-1.3,1.2-4,2-5.7,1.5c-1.2-0.3-2.4-3-2.4-4.7c-0.2-10.6-0.1-21.2-0.1-32.2c-2,0.3-3.2,0.6-4.5,0.7c-5.3,0.4-7.1,2.9-6.8,8.4
		c0.6,10,0.1,20,0.2,30c0.1,6.3,3.3,9.8,9.6,10.5c10.2,1.2,21-5.8,21.8-16c1-12.5,0.2-25.2,0.2-38.3
		C209.2,451.3,206,451.9,202.3,452.6z M222.7,493.5c9.6-1.6,9.6-1.6,9.6-10.4c0-0.3,0-0.7,0-1c-0.6-3.7,0.9-5.4,4.7-5.9
		c5.4-0.6,9.7-3.6,12.5-8.2c3.3-5.6,4.5-11.6,0.6-17.4c-3.7-5.5-9.1-6-15.1-4.6c-2.7,0.6-5.6,1.1-8.4,1.3c-3,0.2-3.9,1.5-3.9,4.4
		c0.1,8.5,0,17,0,25.4C222.7,482.6,222.7,488,222.7,493.5z M348.9,466.4c0-9.8,0-19.7,0-29.2c-10.4-4-9.8,6.3-14.3,10.6
		c-1.9-3.2-3.7-6-5.2-8.9c-1.8-3.4-4.9-2.6-7.4-2.1c-1,0.2-1.9,3-2,4.7c-0.2,7.3-0.1,14.7-0.1,22c0,7.1,0.1,7.1,7.7,4.8
		c0-4.3,0-8.8,0-13.2c0.4-0.1,0.7-0.1,1.1-0.2c1.9,3,3.8,5.9,5.9,9.3c2.3-3.8,4.2-7.1,6.5-10.8c0.5,1.2,0.7,1.5,0.7,1.8
		c0.1,2.2,0.1,4.3,0.1,6.5C341.9,467.6,342.3,467.9,348.9,466.4z M287.9,438.5c0,12.5,0,24.3,0,36.1c7.9,0,8.2-0.4,8.5-7.4
		c0.1-1.7,1.2-3.4,1.9-5c1.4,1.2,3.2,2.1,4.2,3.5c4.3,6.3,5,6.6,12.6,4.1c-2.2-3.5-4.4-6.9-6.7-10.4c1.1-1,1.9-1.6,2.7-2.2
		c3.3-2.8,4.4-8.6,2.6-13.8c-1.6-4.6-4.8-6.5-9.6-6.2C298.9,437.8,293.6,438.1,287.9,438.5z M278,439.9c-6.9,1-13.4,1.9-20,2.8
		c0,13.8,0,27,0,40.8c4.9-1.2,9.3-2.4,13.8-3.5c7.2-1.8,7.3-2.1,5.8-9.8c-3.3,0.6-6.7,1.1-10,1.7c-1.8-5.4-0.4-7.6,5.1-8.2
		c6.1-0.6,6.6-2,4.6-7.7c-3.2,0.4-6.4,0.8-9.6,1.2c-1.4-7.1-1.2-7.5,4.8-8.3C278.7,448,278.7,448,278,439.9z M353.4,466.3
		c0.4,0.4,0.9,0.8,1.3,1.1c2.2-0.6,5.1-0.6,6.5-2c3.4-3.4,7-3.5,10.7-0.1c1.2,1.1,3.9,0.9,5.9,0.7c0.3,0,0.9-2.8,0.6-4.1
		c-1.3-6-3.3-11.8-4.3-17.9c-0.8-4.7-2.9-6.2-7.6-6c-3.5,0.2-5.3,0.9-6.2,4.6C358.3,450.7,355.7,458.5,353.4,466.3z M398.3,451.1
		c-5.7-3-5.4-13.1-14.8-10.1c0,7.1,0.1,14,0,21c-0.1,4.4,2,5,6.2,3.8c0-3.2,0-6.4,0-9.5c3,2.4,4.6,5.4,6.9,7.6
		c1.4,1.3,3.9,1.8,6,1.9c0.5,0,1.7-2.8,1.8-4.3c0.2-5.1-0.1-10.3,0.1-15.4c0.2-4.3-1.6-5.2-5.6-4c-0.1,1.5-0.1,3-0.2,4.4
		C398.5,447.9,398.4,449.3,398.3,451.1z"/>
	<path fill="#FF0000" d="M130.2,524.4c5.3-0.4,10.1-0.4,14.8-1.1c5.4-0.9,9.7-3.6,11.1-9.4c1.3-5.1-1.5-8.7-5-11.7
		c-3.1-2.7-6.5-5.1-9.9-7.6c-8.7-6.3-12.2-15-10.3-25.3c1.9-10.3,8.3-17.5,18.7-19.9c6.4-1.5,13-1.5,20-2.3c0,5.9,0,10.6,0,15.3
		c-4.2,0.6-8.4,0.7-12.3,1.8c-9.1,2.6-11.2,11-4.4,17.6c3.2,3.1,7,5.6,10.5,8.4c10.3,8.1,12.8,22.1,5.9,33.1
		c-7.1,11.3-23.1,18.4-35.9,15.8c-1.2-0.3-3.1-1.7-3.2-2.7C130,532.4,130.2,528.2,130.2,524.4z"/>
	<path fill="#FF0000" d="M202.3,452.6c3.7-0.7,6.9-1.3,10.3-2c0,13.1,0.8,25.8-0.2,38.3c-0.8,10.2-11.6,17.3-21.8,16
		c-6.3-0.8-9.6-4.2-9.6-10.5c-0.1-10,0.4-20-0.2-30c-0.3-5.5,1.6-8,6.8-8.4c1.3-0.1,2.6-0.4,4.5-0.7c0,11-0.1,21.6,0.1,32.2
		c0,1.7,1.2,4.4,2.4,4.7c1.7,0.5,4.3-0.3,5.7-1.5c1.3-1.1,1.7-3.5,1.9-5.4c0.3-3.5,0.1-7,0.1-10.5
		C202.3,467.5,202.3,460.2,202.3,452.6z"/>
	<path fill="#FF0000" d="M222.7,493.5c0-5.5,0-10.9,0-16.3c0-8.5,0.1-17,0-25.4c0-2.9,0.9-4.2,3.9-4.4c2.8-0.2,5.6-0.7,8.4-1.3
		c6-1.4,11.4-0.9,15.1,4.6c3.9,5.8,2.7,11.8-0.6,17.4c-2.7,4.7-7,7.6-12.5,8.2c-3.8,0.4-5.3,2.2-4.7,5.9c0.1,0.3,0,0.7,0,1
		C232.3,492,232.3,492,222.7,493.5z M232,467c7.5-0.2,11.1-2.9,10.6-7c-0.5-4.4-3.7-4.9-7-4C228.9,457.9,233.9,463.1,232,467z"/>
	<path fill="#FF0000" d="M348.9,466.4c-6.6,1.5-7,1.3-7-4.8c0-2.2-0.1-4.3-0.1-6.5c0-0.3-0.2-0.6-0.7-1.8c-2.2,3.7-4.2,7-6.5,10.8
		c-2.1-3.3-4-6.3-5.9-9.3c-0.4,0.1-0.7,0.1-1.1,0.2c0,4.5,0,9,0,13.2c-7.6,2.3-7.7,2.2-7.7-4.8c0-7.3-0.1-14.7,0.1-22
		c0-1.6,1-4.4,2-4.7c2.5-0.6,5.6-1.4,7.4,2.1c1.5,2.9,3.3,5.7,5.2,8.9c4.5-4.3,3.9-14.6,14.3-10.6
		C348.9,446.7,348.9,456.6,348.9,466.4z"/>
	<path fill="#FF0000" d="M287.9,438.5c5.7-0.4,10.9-0.8,16.2-1.1c4.8-0.3,8,1.6,9.6,6.2c1.8,5.2,0.7,10.9-2.6,13.8
		c-0.7,0.6-1.5,1.3-2.7,2.2c2.2,3.5,4.4,6.9,6.7,10.4c-7.6,2.5-8.3,2.2-12.6-4.1c-1-1.5-2.8-2.4-4.2-3.5c-0.7,1.7-1.8,3.3-1.9,5
		c-0.3,7-0.7,7.4-8.5,7.4C287.9,462.8,287.9,451.1,287.9,438.5z M295.4,451.1c1.4,1.1,2.8,3.1,4.3,3.2c3.2,0.2,6.5-0.8,6.6-4.9
		c0.1-3.1-2.1-4.1-5-4.2C298.1,445.2,295.7,445.9,295.4,451.1z"/>
	<path fill="#FF0000" d="M278,439.9c0.7,8.1,0.7,8.1-5.4,9c-6,0.8-6.2,1.1-4.8,8.3c3.2-0.4,6.4-0.8,9.6-1.2c2,5.7,1.5,7-4.6,7.7
		c-5.5,0.6-6.9,2.8-5.1,8.2c3.3-0.6,6.7-1.1,10-1.7c1.5,7.7,1.3,8-5.8,9.8c-4.5,1.1-9,2.3-13.8,3.5c0-13.8,0-27,0-40.8
		C264.6,441.7,271.1,440.8,278,439.9z"/>
	<path fill="#FF0000" d="M353.4,466.3c2.3-7.9,4.9-15.6,6.9-23.6c0.9-3.7,2.7-4.4,6.2-4.6c4.7-0.2,6.8,1.3,7.6,6
		c1,6,3,11.9,4.3,17.9c0.3,1.3-0.3,4.1-0.6,4.1c-2,0.1-4.6,0.4-5.9-0.7c-3.8-3.4-7.4-3.3-10.7,0.1c-1.4,1.4-4.3,1.4-6.5,2
		C354.3,467.1,353.9,466.7,353.4,466.3z M363.5,456.8c2.8-0.2,4.4-0.3,6.4-0.5c-1-3.6-1.8-6.5-2.5-9.4c-0.4,0-0.7,0-1.1,0
		C365.4,449.9,364.6,452.8,363.5,456.8z"/>
	<path fill="#FF0000" d="M398.3,451.1c0.1-1.8,0.2-3.2,0.3-4.7c0.1-1.5,0.2-2.9,0.2-4.4c3.9-1.2,5.8-0.3,5.6,4
		c-0.2,5.1,0.1,10.3-0.1,15.4c-0.1,1.5-1.2,4.3-1.8,4.3c-2.1-0.1-4.6-0.6-6-1.9c-2.3-2.2-3.9-5.2-6.9-7.6c0,3.2,0,6.3,0,9.5
		c-4.2,1.2-6.3,0.7-6.2-3.8c0.2-6.9,0-13.9,0-21C392.9,438,392.6,448.1,398.3,451.1z"/>
	<path d="M232,467c1.8-3.9-3.1-9.1,3.6-11c3.3-0.9,6.5-0.4,7,4C243.1,464.2,239.5,466.8,232,467z"/>
	<path d="M295.4,451.1c0.3-5.2,2.7-5.9,5.9-5.9c2.8,0,5.1,1.1,5,4.2c-0.1,4.1-3.4,5.2-6.6,4.9C298.2,454.2,296.9,452.2,295.4,451.1z
		"/>
	<path d="M363.5,456.8c1.1-4,1.9-6.9,2.7-9.8c0.4,0,0.7,0,1.1,0c0.8,2.9,1.6,5.8,2.5,9.4C367.9,456.5,366.3,456.6,363.5,456.8z"/>
</g>
<path d="M289.5,240.7c0,0,25.8,2,25.9,1.9s11.5-5.4,11.5-5.2s-25.8-2.2-25.8-2.2s-3.1,1.6-4.6,2.3
	C294.9,238.5,289.5,240.7,289.5,240.7z"/>
<g>
</g>
<g>
</g>
<g>
</g>
<g>
</g>
<g>
</g>
<g>
</g>
<g>
</g>
<g>
</g>
<g>
</g>
<g>
</g>
<g>
</g>
<g>
</g>
<g>
</g>
<g>
</g>
<g>
</g>
</svg>
